<?xml version="1.0" encoding="UTF-8" standalone="no"?>
<!-- Created with Inkscape (http://www.inkscape.org/) -->

<svg
   xmlns:dc="http://purl.org/dc/elements/1.1/"
   xmlns:cc="http://creativecommons.org/ns#"
   xmlns:rdf="http://www.w3.org/1999/02/22-rdf-syntax-ns#"
   xmlns:svg="http://www.w3.org/2000/svg"
   xmlns="http://www.w3.org/2000/svg"
   xmlns:sodipodi="http://sodipodi.sourceforge.net/DTD/sodipodi-0.dtd"
   xmlns:inkscape="http://www.inkscape.org/namespaces/inkscape"
   version="1.1"
   id="svg3707"
   width="1113.207"
   height="1171.7053"
   viewBox="0 0 1113.207 1171.7053"
   sodipodi:docname="bass.svg"
   inkscape:version="0.92.1 r15371">
  <metadata
     id="metadata3713">
    <rdf:RDF>
      <cc:Work
         rdf:about="">
        <dc:format>image/svg+xml</dc:format>
        <dc:type
           rdf:resource="http://purl.org/dc/dcmitype/StillImage" />
        <dc:title></dc:title>
      </cc:Work>
    </rdf:RDF>
  </metadata>
  <defs
     id="defs3711" />
  <sodipodi:namedview
     pagecolor="#ffffff"
     bordercolor="#666666"
     borderopacity="1"
     objecttolerance="10"
     gridtolerance="10"
     guidetolerance="10"
     inkscape:pageopacity="0"
     inkscape:pageshadow="2"
     inkscape:window-width="1920"
     inkscape:window-height="1017"
     id="namedview3709"
     showgrid="false"
     fit-margin-top="0"
     fit-margin-left="0"
     fit-margin-right="0"
     fit-margin-bottom="0"
     inkscape:zoom="0.35355339"
     inkscape:cx="-251.92913"
     inkscape:cy="975.98949"
     inkscape:window-x="-8"
     inkscape:window-y="-8"
     inkscape:window-maximized="1"
     inkscape:current-layer="svg3707" />
  <path
     style="fill:#181818;stroke-width:4.6410327"
     d="m 189.9034,1165.4081 c -34.05005,-7.5707 -61.92606,-22.6404 -74.47111,-40.2589 -8.14081,-11.4322 -10.76956,-23.0404 -12.63749,-55.7976 l -2.35856,-41.3621 H 73.084998 c -15.043689,0 -34.455353,-2.9682 -43.137985,-6.5961 -32.1885218,-13.4493 -30.86667984,4.0086 -29.30094784,-386.87103 0,0 1.40716804,-192.06996 1.40716804,-290.70717 0,-31.27589 10.8442238,-93.19882 10.8442238,-93.19882 C 20.093283,188.77978 109.30304,78.454899 201.50631,34.242873 274.1422,-0.5868444 268.05135,6.2560429e-4 556.54493,6.2560429e-4 c 288.4936,0 282.40274,-0.58732800429 355.03934,34.24224739571 92.20253,44.212026 155.30393,116.602457 188.60813,216.373507 0,0 10.8449,53.7071 10.8449,88.27629 0,149.21804 1.4072,295.6297 1.4072,295.6297 1.8601,390.87833 2.8876,373.42173 -29.3017,386.87103 -8.6819,3.6279 -38.8781,-7.8286 -43.1273,6.5961 h -27.3413 l -2.4503,39.2832 c -3.0241,48.4703 -11.80547,65.2361 -43.08387,82.2572 -57.75006,31.4259 -183.79576,29.0093 -231.91535,-4.4467 -26.50297,-18.4271 -34.79168,-37.7489 -34.80021,-81.1258 v -35.9679 H 556.55275 412.68034 v 35.9679 c 0,43.3769 -8.29725,62.6987 -34.80092,81.1258 -34.53143,24.0091 -126.61027,33.9659 -187.9618,20.3249 z m 119.77352,-117.6942 1.42708,-19.7244 h -51.3179 -51.31861 v 17.7905 c 0,9.7849 1.46121,19.2515 3.24666,21.0369 1.78473,1.7853 38.23529,-20.9319 49.89082,1.9337 l 46.64488,-1.3123 z m 594.05238,0 1.42708,-19.7244 h -51.31861 -51.3179 v 17.7905 c 0,9.7849 1.46121,19.2515 3.24665,21.0369 1.78474,1.7853 38.23529,-20.9319 49.89083,1.9337 l 46.64487,-1.3123 z m 106.6603,-436.25728 c 0,0 -1.3439,-109.63736 -1.3439,-230.74646 0,-61.1481 -11.79127,-113.92017 -11.79127,-113.92017 C 989.80903,194.84681 929.0313,154.40712 874.24561,127.26613 819.36962,100.08056 817.26136,99.898029 557.44014,99.837949 c -160.00116,-0.0356 -245.26316,1.651481 -259.898,5.146931 -82.2187,19.63764 -149.70019,79.72833 -181.70669,161.80511 0,0 -11.79134,50.4847 -11.79134,76.18062 0,112.27345 -1.34317,268.48601 -1.34317,268.48601 l -1.34317,314.43007 H 556.54493 1011.7328 Z M 297.2172,823.65911 c -46.28865,-10.58853 -70.85969,-56.00464 -54.07607,-99.95194 20.54081,-53.78475 98.75702,-63.2014 132.4096,-15.9411 39.17672,55.01877 -12.19451,131.02226 -78.33353,115.89304 z m 482.65217,-0.76801 c -37.59606,-10.37002 -58.80739,-40.44303 -55.17677,-78.23021 5.53339,-57.58709 67.67276,-86.12359 118.76953,-54.54351 17.01187,10.51373 33.0432,39.60491 33.21243,60.26817 0.39108,47.60458 -50.06787,85.39653 -96.80519,72.50555 z M 179.15374,636.11626 c -9.74067,-3.50526 -21.96362,-10.22163 -27.16068,-14.92522 -21.51211,-19.4682 -22.42296,-26.18797 -22.42296,-165.45237 0,-129.08531 0.22753,-84.81668 0.22753,-129.53384 0,-13.72312 9.74992,-26.78781 19.86887,-36.0572 11.34196,-10.38894 27.30148,-22.44045 42.20651,-18.64657 h 364.67476 364.67478 l 20.67094,10.44226 c 11.36827,5.7433 25.38594,17.53869 31.14964,26.21208 10.2697,15.45296 10.4795,18.44442 10.4795,148.98695 0,130.52553 -0.2062,133.53092 -10.4581,148.73608 -5.751,8.53523 -17.75993,19.80865 -26.68574,25.05172 -15.9588,9.37498 -22.3035,9.54983 -382.86913,10.54608 -301.09907,0.83193 -369.80783,-0.12586 -384.35307,-5.35997 z m 744.82769,-52.06478 c 7.80377,-7.06265 8.48709,-17.30895 8.48709,-127.29694 0,-102.55382 -1.03955,-120.6563 -7.29253,-126.90913 -6.50539,-6.50511 -46.33059,-7.29303 -368.63106,-7.29303 -322.30045,0 -341.2151,-7.35944 -363.4091,14.83478 -15.88486,15.88472 -12.51448,53.2885 -12.51448,118.56098 0,104.04083 0.95494,119.86468 7.68076,127.29693 7.31529,8.08322 24.80498,8.48731 367.43648,8.48731 328.24414,0 360.49879,-0.67265 368.24284,-7.6809 z M 275.29837,227.87537 c -26.84356,-26.84378 -19.67049,-65.43068 14.84459,-79.85191 22.84959,-9.54699 509.95507,-9.54699 532.80395,0 20.36803,8.51027 30.62421,23.94169 30.62421,46.07682 0,14.27746 -3.26016,21.25577 -15.77962,33.77509 l -15.77962,15.77948 H 556.54493 291.07799 Z"
     id="path3717-8"
     inkscape:connector-curvature="0"
     sodipodi:nodetypes="csccscsssssscssssccsccccccsccccccscsccccccscscccsssscsscccccsssscccccccssasccccsccsccscscscscsccsccccsc" />
</svg>
