<?xml version="1.0" encoding="UTF-8" standalone="no"?>
<svg
   xmlns:dc="http://purl.org/dc/elements/1.1/"
   xmlns:cc="http://creativecommons.org/ns#"
   xmlns:rdf="http://www.w3.org/1999/02/22-rdf-syntax-ns#"
   xmlns:svg="http://www.w3.org/2000/svg"
   xmlns="http://www.w3.org/2000/svg"
   xmlns:sodipodi="http://sodipodi.sourceforge.net/DTD/sodipodi-0.dtd"
   xmlns:inkscape="http://www.inkscape.org/namespaces/inkscape"
   viewBox="0 0 1740.3583 1139.1561"
   height="1139.1561"
   width="1740.3583"
   id="svg3707"
   version="1.1"
   sodipodi:docname="hat.svg"
   inkscape:version="0.92.1 r15371">
  <sodipodi:namedview
     pagecolor="#ffffff"
     bordercolor="#666666"
     borderopacity="1"
     objecttolerance="10"
     gridtolerance="10"
     guidetolerance="10"
     inkscape:pageopacity="0"
     inkscape:pageshadow="2"
     inkscape:window-width="1486"
     inkscape:window-height="866"
     id="namedview3793"
     showgrid="false"
     fit-margin-top="0"
     fit-margin-left="0"
     fit-margin-right="0"
     fit-margin-bottom="0"
     inkscape:zoom="0.24022014"
     inkscape:cx="2323.0064"
     inkscape:cy="431.78343"
     inkscape:window-x="281"
     inkscape:window-y="75"
     inkscape:window-maximized="0"
     inkscape:current-layer="svg3707" />
  <metadata
     id="metadata3713">
    <rdf:RDF>
      <cc:Work
         rdf:about="">
        <dc:format>image/svg+xml</dc:format>
        <dc:type
           rdf:resource="http://purl.org/dc/dcmitype/StillImage" />
        <dc:title></dc:title>
      </cc:Work>
    </rdf:RDF>
  </metadata>
  <defs
     id="defs3711" />
  <path
     id="path3717-3"
     d="m 764.04906,1137.5033 c -146.6213,-15.4143 -269.0539,-50.3699 -394.2676,-112.5673 -82.0974,-40.78028 -139.7012,-77.84719 -151.6175,-97.56266 -8.5236,-14.10456 -9.1468,-25.11475 -11.2785,-199.38765 l -2.2559,-184.45936 -81.2053,-35.20231 C 22.837165,464.72047 19.465865,462.7255 7.8301647,439.91653 -9.0462353,406.83684 2.1166647,368.36602 34.009865,349.6855 66.641665,330.57187 829.09336,2.1497118 845.49319,0.14251182 861.90665,-1.8664382 904.35508,15.541892 1260.5453,170.35655 c 218.2236,94.84852 402.2729,175.26951 408.9998,178.71353 6.7269,3.44403 17.3851,15.05692 23.6849,25.80638 11.4086,19.46639 11.4542,19.98338 11.4542,128.39248 0,104.17057 0.3883,109.05423 9.009,113.66852 4.9545,2.65135 13.1568,12.95274 18.2268,22.89148 8.7964,17.24185 9.1594,24.56933 7.9101,159.68289 -1.2473,134.90254 -1.7511,142.20206 -10.6116,154.06218 -17.1114,22.90459 -31.863,30.73149 -57.9193,30.73149 -19.5731,0 -27.3134,-2.42625 -40.9662,-12.84005 -28.5345,-21.7645 -29.412,-27.08847 -29.412,-178.60889 0,-126.83869 0.5921,-136.82072 9.0381,-153.38309 4.9709,-9.74343 13.0908,-19.88466 18.0462,-22.53601 8.3421,-4.46548 9.007,-9.47271 9.007,-67.82285 0,-34.65056 -1.522,-63.03519 -3.3828,-63.07626 -1.8609,-0.0485 -34.3432,13.418 -72.1837,29.90911 l -68.7989,29.98395 v 182.42508 c 0,126.27938 -1.5619,185.4582 -5.0748,192.27946 -9.9797,19.37534 -24.9944,31.53046 -77.1634,62.4654 -125.5796,74.46635 -249.8012,119.93815 -393.4726,144.03095 -52.70184,8.838 -207.20134,15.1739 -252.88704,10.371 z M 941.30065,995.66038 C 1073.5732,981.29635 1205.2051,939.63233 1313.3171,877.91039 l 39.4752,-22.53699 V 731.64763 c 0,-68.04883 -0.7184,-123.72539 -1.5997,-123.72539 -0.8834,0 -108.9856,46.91265 -240.2351,104.25036 -192.69917,84.18302 -242.54235,104.28113 -258.93542,104.41014 -16.76485,0.13104 -62.03802,-18.02733 -259.90222,-104.25046 -131.7804,-57.42517 -240.901,-104.41004 -242.49,-104.41004 -1.589,0 -2.8897,55.5097 -2.8897,123.35497 v 123.35497 l 41.7311,23.0765 c 124.5011,68.8478 231.7754,101.87925 389.1122,119.81446 31.4747,3.58796 123.12764,2.54486 163.71719,-1.86276 z M 1140.5637,546.36813 c 157.6668,-68.5929 293.6057,-127.6369 302.0876,-131.20905 l 15.4204,-6.4951 L 1154.5815,276.75846 851.09118,144.85294 549.04916,276.00821 c -197.7798,85.88202 -300.0113,132.45726 -296.1615,134.92816 8.8148,5.65779 591.6824,259.47427 596.6873,259.83469 2.37626,0.17182 133.32089,-55.81013 290.98874,-124.40293 z"
     style="fill:#181818;stroke-width:4.51144218"
     inkscape:connector-curvature="0" />
</svg>
