<?xml version="1.0" encoding="UTF-8" standalone="no"?>
<svg
   xmlns:dc="http://purl.org/dc/elements/1.1/"
   xmlns:cc="http://creativecommons.org/ns#"
   xmlns:rdf="http://www.w3.org/1999/02/22-rdf-syntax-ns#"
   xmlns:svg="http://www.w3.org/2000/svg"
   xmlns="http://www.w3.org/2000/svg"
   viewBox="0 0 982.79523 982.43216"
   height="982.43219"
   width="982.79523"
   id="svg3707"
   version="1.1">
  <metadata
     id="metadata3713">
    <rdf:RDF>
      <cc:Work
         rdf:about="">
        <dc:format>image/svg+xml</dc:format>
        <dc:type
           rdf:resource="http://purl.org/dc/dcmitype/StillImage" />
        <dc:title></dc:title>
      </cc:Work>
    </rdf:RDF>
  </metadata>
  <defs
     id="defs3711" />
  <path
     id="path3717-0"
     d="M 64.139384,975.64927 C 39.499309,967.49054 11.388434,940.19056 4.8068475,918.02786 -6.4366481,880.16674 1.9799535,842.28698 30.733957,801.34304 81.633969,728.86403 151.87479,675.75152 260.88405,675.75152 h 26.56403 v -249.9702 c 0,-242.65343 0.22137,-250.25447 7.6356,-259.67771 4.19976,-5.33883 12.50102,-11.6039 18.44724,-13.92204 C 333.4819,144.40305 931.80394,0 944.08125,0 c 8.63021,0 15.96172,3.8339178 25.42108,13.292886 l 13.29288,13.293275 -1.05945,312.068269 -1.05984,234.28848 c 0,0 4.61996,74.02431 -12.348,104.858 -35.44395,64.40727 -96.24838,112.9006 -171.23388,138.99704 -28.15205,9.79801 -40.21149,15.62772 -71.11081,15.88676 -34.03108,0.28351 -39.15903,-0.68468 -60.02965,-11.35806 -74.02042,-37.85568 -71.86229,-124.98025 5.02153,-202.74332 46.24976,-46.77871 111.10948,-80.90532 171.27194,-90.11729 15.71162,-2.40552 34.49867,-3.26109 41.74902,-1.90104 l 13.18182,2.47309 V 410.15515 c 0,-65.38556 -1.31073,-118.90935 -2.91273,-118.94159 -1.60199,-0.0388 -119.56724,28.35128 -262.14498,63.07403 l -259.23227,63.13228 v 177.18127 c 0,99.12809 -1.6719,185.99672 -3.79508,197.19322 -11.62642,61.30581 -74.44528,129.36875 -152.8243,165.58204 -53.78205,24.84902 -111.37589,31.76692 -152.129146,18.27287 z M 161.0208,887.90332 c 37.49139,-13.60863 65.92965,-32.27413 93.36905,-61.28212 44.41241,-46.95114 42.50011,-67.96196 -5.83826,-64.14746 -55.14404,4.35122 -119.82706,43.86482 -152.957134,93.4374 -10.701733,16.01337 -13.327455,35.3721 -5.24057,38.63513 12.727044,5.13532 47.126674,1.90181 70.666914,-6.64295 z m 589.359,-142.71678 c 65.42401,-13.84126 143.26825,-75.82787 144.44033,-115.01679 0.36895,-12.28392 -0.93983,-14.27739 -11.23495,-17.13069 -6.75674,-1.87269 -21.22714,-1.50724 -34.44896,0.86993 -59.64167,10.72387 -129.01572,60.27432 -147.99929,105.70812 -7.82745,18.73424 -7.49618,21.76774 2.83039,25.91857 11.99498,4.82152 22.3398,4.74385 46.41248,-0.34953 z M 635.0329,265.88143 c 136.70375,-33.2796 251.61064,-61.39669 255.34863,-62.48216 6.03749,-1.75346 6.79636,-7.79911 6.79636,-54.14129 0,-28.69187 -1.31073,-52.091511 -2.91273,-51.999081 -1.60199,0.0932 -119.13033,28.600211 -261.17408,63.350151 l -258.26135,63.1816 -1.08237,53.45583 c -1.00703,49.72793 -0.6008,53.30592 5.82544,51.30003 3.79936,-1.18606 118.75634,-29.3851 255.4601,-62.66508 z"
     style="fill:#181818;stroke-width:3.88362932" />
</svg>
