<?xml version="1.0" encoding="UTF-8" standalone="no"?>
<svg
   xmlns:dc="http://purl.org/dc/elements/1.1/"
   xmlns:cc="http://creativecommons.org/ns#"
   xmlns:rdf="http://www.w3.org/1999/02/22-rdf-syntax-ns#"
   xmlns:svg="http://www.w3.org/2000/svg"
   xmlns="http://www.w3.org/2000/svg"
   version="1.1"
   id="svg2"
   width="1280"
   height="1319"
   viewBox="0 0 1280 1319">
  <metadata
     id="metadata8">
    <rdf:RDF>
      <cc:Work
         rdf:about="">
        <dc:format>image/svg+xml</dc:format>
        <dc:type
           rdf:resource="http://purl.org/dc/dcmitype/StillImage" />
        <dc:title></dc:title>
      </cc:Work>
    </rdf:RDF>
  </metadata>
  <defs
     id="defs6" />
  <g
     transform="translate(1.1849153e-5,50.300846)"
     id="g27">
    <path
       id="path41"
       d="m 613.72354,1249.783 c 0.72187,-0.2889 1.58438,-0.2534 1.91667,0.079 0.33229,0.3323 -0.25834,0.5687 -1.3125,0.5253 -1.16495,-0.048 -1.4019,-0.285 -0.60417,-0.6042 z m 64,0 c 0.72187,-0.2889 1.58438,-0.2534 1.91667,0.079 0.33229,0.3323 -0.25834,0.5687 -1.3125,0.5253 -1.16495,-0.048 -1.4019,-0.285 -0.60417,-0.6042 z m -80,-1 c 0.72187,-0.2889 1.58438,-0.2534 1.91667,0.079 0.33229,0.3323 -0.25834,0.5687 -1.3125,0.5253 -1.16495,-0.048 -1.4019,-0.285 -0.60417,-0.6042 z m 96,0 c 0.72187,-0.2889 1.58438,-0.2534 1.91667,0.079 0.33229,0.3323 -0.25834,0.5687 -1.3125,0.5253 -1.16495,-0.048 -1.4019,-0.285 -0.60417,-0.6042 z M 1063.911,1091.0885 c 0,-0.2076 0.7875,-0.9951 1.75,-1.75 1.5861,-1.2438 1.6214,-1.2085 0.3776,0.3776 -1.3064,1.6657 -2.1276,2.1955 -2.1276,1.3724 z m -849.07565,-12.3724 -2.42431,-2.75 2.75,2.4243 c 2.57029,2.2659 3.20859,3.0757 2.42431,3.0757 -0.17912,0 -1.41662,-1.2375 -2.75,-2.75 z m 863.07565,-0.75 c 1.2917,-1.375 2.5736,-2.5 2.8486,-2.5 0.275,0 -0.5569,1.125 -1.8486,2.5 -1.2917,1.375 -2.5736,2.5 -2.8486,2.5 -0.275,0 0.5569,-1.125 1.8486,-2.5 z m 21,-20.6258 c 0,-0.275 1.35,-1.7934 3,-3.3742 1.65,-1.5808 3,-2.6492 3,-2.3742 0,0.275 -1.35,1.7934 -3,3.3742 -1.65,1.5808 -3,2.6492 -3,2.3742 z m -910.07565,-4.6242 -2.42431,-2.75 2.75,2.4243 c 2.57029,2.2659 3.20859,3.0757 2.42431,3.0757 -0.17912,0 -1.41662,-1.2375 -2.75,-2.75 z m 393.88819,-99.93309 c 0.72187,-0.28887 1.58438,-0.25335 1.91667,0.0789 0.33229,0.33229 -0.25834,0.56864 -1.3125,0.52522 -1.16495,-0.048 -1.4019,-0.28494 -0.60417,-0.60416 z m -81.33126,-51.56689 -9.98124,-10.25 10.25,9.98124 c 5.6375,5.48968 10.25,10.10218 10.25,10.25 0,0.72337 -1.24814,-0.461 -10.51876,-9.98124 z m 162.01876,-8.75 c 5.47936,-5.5 10.18748,-10 10.46248,-10 0.275,0 -3.98312,4.5 -9.46248,10 -5.47936,5.5 -10.18748,10 -10.46248,10 -0.275,0 3.98312,-4.5 9.46248,-10 z m -226.5,-57.5 c -10.71442,-10.725 -19.25577,-19.5 -18.98077,-19.5 0.275,0 9.26635,8.775 19.98077,19.5 10.71442,10.725 19.25577,19.5 18.98077,19.5 -0.275,0 -9.26635,-8.775 -19.98077,-19.5 z m 314.5,-31.5 c 7.13413,-7.15 13.19614,-13 13.47114,-13 0.275,0 -5.33701,5.85 -12.47114,13 -7.13413,7.15 -13.19614,13 -13.47114,13 -0.275,0 5.33701,-5.85 12.47114,-13 z m 94,-95 c 7.13413,-7.15 13.19614,-13 13.47114,-13 0.275,0 -5.33701,5.85 -12.47114,13 -7.13413,7.15 -13.19614,13 -13.47114,13 -0.275,0 5.33701,-5.85 12.47114,-13 z m -543.01563,-9.25 -11.98437,-12.25 12.25,11.98437 c 11.37875,11.13201 12.70364,12.51563 11.98437,12.51563 -0.1461,0 -5.6586,-5.5125 -12.25,-12.25 z m 254.99687,-34 -9.98124,-10.25 10.25,9.98124 c 9.52024,9.27062 10.70461,10.51876 9.98124,10.51876 -0.14782,0 -4.76032,-4.6125 -10.25,-10.25 z m 69.01876,-26.75 c 5.47936,-5.5 10.18748,-10 10.46248,-10 0.275,0 -3.98312,4.5 -9.46248,10 -5.47936,5.5 -10.18748,10 -10.46248,10 -0.275,0 3.98312,-4.5 9.46248,-10 z m -612.421056,3.41667 c 0.04798,-1.16495 0.284941,-1.4019 0.604167,-0.60417 0.288871,0.72187 0.253344,1.58438 -0.07895,1.91667 -0.332292,0.33229 -0.568641,-0.25834 -0.52522,-1.3125 z m 1263.999916,0 c 0.048,-1.16495 0.285,-1.4019 0.6042,-0.60417 0.2889,0.72187 0.2534,1.58438 -0.079,1.91667 -0.3323,0.33229 -0.5687,-0.25834 -0.5253,-1.3125 z M 938.41104,614.46612 c 7.13413,-7.15 13.19614,-13 13.47114,-13 0.275,0 -5.33701,5.85 -12.47114,13 -7.13413,7.15 -13.19614,13 -13.47114,13 -0.275,0 5.33701,-5.85 12.47114,-13 z m -451.51975,-20.75 -9.48025,-9.75 9.75,9.48025 c 9.0557,8.80516 10.20489,10.01975 9.48025,10.01975 -0.14836,0 -4.53586,-4.3875 -9.75,-9.75 z M 13.989984,575.88279 c 0.04798,-1.16495 0.284941,-1.4019 0.604167,-0.60417 0.288871,0.72187 0.253344,1.58438 -0.07895,1.91667 -0.332292,0.33229 -0.568641,-0.25834 -0.52522,-1.3125 z m 1263.999916,0 c 0.048,-1.16495 0.285,-1.4019 0.6042,-0.60417 0.2889,0.72187 0.2534,1.58438 -0.079,1.91667 -0.3323,0.33229 -0.5687,-0.25834 -0.5253,-1.3125 z m -581.07886,-8.91667 c 5.20327,-5.225 9.6855,-9.5 9.9605,-9.5 0.275,0 -3.75723,4.275 -8.9605,9.5 -5.20327,5.225 -9.6855,9.5 -9.9605,9.5 -0.275,0 3.75723,-4.275 8.9605,-9.5 z M 14.989984,559.88279 c 0.04798,-1.16495 0.284941,-1.4019 0.604167,-0.60417 0.288871,0.72187 0.253344,1.58438 -0.07895,1.91667 -0.332292,0.33229 -0.56864,-0.25834 -0.52522,-1.3125 z m 1261.999916,0 c 0.048,-1.16495 0.285,-1.4019 0.6042,-0.60417 0.2889,0.72187 0.2534,1.58438 -0.079,1.91667 -0.3323,0.33229 -0.5687,-0.25834 -0.5253,-1.3125 z M 343.41104,547.46612 c 4.37419,-4.4 8.17808,-8 8.45308,-8 0.275,0 -3.07889,3.6 -7.45308,8 -4.37419,4.4 -8.17808,8 -8.45308,8 -0.275,0 3.07889,-3.6 7.45308,-8 z m 682.49996,-21.5 c 3.5432,-3.575 6.6672,-6.5 6.9422,-6.5 0.275,0 -2.399,2.925 -5.9422,6.5 -3.5432,3.575 -6.6672,6.5 -6.9422,6.5 -0.275,0 2.399,-2.925 5.9422,-6.5 z m -638.18746,-2.18311 c 0.72187,-0.28887 1.58438,-0.25335 1.91667,0.0789 0.33229,0.33229 -0.25834,0.56864 -1.3125,0.52522 -1.16495,-0.048 -1.4019,-0.28494 -0.60417,-0.60416 z m 379.6875,-28.31689 c 5.47936,-5.5 10.18748,-10 10.46248,-10 0.275,0 -3.98312,4.5 -9.46248,10 -5.47936,5.5 -10.18748,10 -10.46248,10 -0.275,0 3.98312,-4.5 9.46248,-10 z m 281.73196,-19 c 0,-1.925 0.2058,-2.7125 0.4573,-1.75 0.2516,0.9625 0.2516,2.5375 0,3.5 -0.2515,0.9625 -0.4573,0.175 -0.4573,-1.75 z m -210.73196,-53 c 5.47936,-5.5 10.18748,-10 10.46248,-10 0.275,0 -3.98312,4.5 -9.46248,10 -5.47936,5.5 -10.18748,10 -10.46248,10 -0.275,0 3.98312,-4.5 9.46248,-10 z m 152.98124,-31.25 -9.98124,-10.25 10.25,9.98124 c 5.6375,5.48968 10.24996,10.10218 10.24996,10.25 0,0.72337 -1.2481,-0.461 -10.51872,-9.98124 z M 181.91104,172.08856 c 0,-0.20765 0.7875,-0.99515 1.75,-1.75 1.58606,-1.24387 1.62143,-1.2085 0.37756,0.37756 -1.30637,1.66575 -2.12756,2.19548 -2.12756,1.37244 z m 925.99996,-2.12244 c -0.6847,-0.825 -1.0199,-1.5 -0.7449,-1.5 0.275,0 1.0602,0.675 1.7449,1.5 0.6847,0.825 1.0199,1.5 0.7449,1.5 -0.275,0 -1.0602,-0.675 -1.7449,-1.5 z m -905.49996,-19.5 c 0.99549,-1.1 2.03498,-2 2.30998,-2 0.275,0 -0.31449,0.9 -1.30998,2 -0.99549,1.1 -2.03498,2 -2.30998,2 -0.275,0 0.31449,-0.9 1.30998,-2 z m 867.49996,-18.5 c -0.6847,-0.825 -1.0199,-1.5 -0.7449,-1.5 0.275,0 1.0602,0.675 1.7449,1.5 0.6847,0.825 1.0199,1.5 0.7449,1.5 -0.275,0 -1.0602,-0.675 -1.7449,-1.5 z M 613.72354,-33.216992 c 0.72187,-0.288871 1.58438,-0.253344 1.91667,0.07895 0.33229,0.332292 -0.25834,0.568641 -1.3125,0.52522 -1.16495,-0.04798 -1.4019,-0.284941 -0.60417,-0.604167 z m 64,0 c 0.72187,-0.288871 1.58438,-0.253344 1.91667,0.07895 0.33229,0.332292 -0.25834,0.568641 -1.3125,0.52522 -1.16495,-0.04798 -1.4019,-0.284941 -0.60417,-0.604167 z"
       style="fill:#cff5e8" />
    <path
       id="path39"
       d="m 616.72354,1249.783 c 0.72187,-0.2889 1.58438,-0.2534 1.91667,0.079 0.33229,0.3323 -0.25834,0.5687 -1.3125,0.5253 -1.16495,-0.048 -1.4019,-0.285 -0.60417,-0.6042 z m 58,0 c 0.72187,-0.2889 1.58438,-0.2534 1.91667,0.079 0.33229,0.3323 -0.25834,0.5687 -1.3125,0.5253 -1.16495,-0.048 -1.4019,-0.285 -0.60417,-0.6042 z m -464.40751,-175.5669 -1.90499,-2.25 2.25,1.905 c 1.2375,1.0477 2.25,2.0602 2.25,2.25 0,0.8002 -0.80479,0.2094 -2.59501,-1.905 z m 872.59497,-1.25 c 1.2917,-1.375 2.5736,-2.5 2.8486,-2.5 0.275,0 -0.5569,1.125 -1.8486,2.5 -1.2917,1.375 -2.5736,2.5 -2.8486,2.5 -0.275,0 0.5569,-1.125 1.8486,-2.5 z m 13.5,-13.5 c 0.9955,-1.1 2.035,-2 2.31,-2 0.275,0 -0.3145,0.9 -1.31,2 -0.9955,1.1 -2.035,2 -2.31,2 -0.275,0 0.3145,-0.9 1.31,-2 z m -902.57565,-1.75 -2.42431,-2.75 2.75,2.4243 c 2.57029,2.2659 3.20859,3.0757 2.42431,3.0757 -0.17912,0 -1.41662,-1.2375 -2.75,-2.75 z m 292.04153,-171.99998 -5.46584,-5.75 5.75,5.46584 c 3.1625,3.00621 5.75,5.59371 5.75,5.75 0,0.74225 -0.95622,-0.12391 -6.03416,-5.46584 z m 188.03416,-3.31261 c 0,-0.275 2.7,-3.17182 6,-6.43739 3.3,-3.26557 6,-5.71239 6,-5.43739 0,0.275 -2.7,3.17182 -6,6.43739 -3.3,3.26557 -6,5.71239 -6,5.43739 z m -267.51705,-78.18739 -10.98295,-11.25 11.25,10.98295 c 10.44944,10.20139 11.70409,11.51705 10.98295,11.51705 -0.14688,0 -5.20938,-5.0625 -11.25,-11.25 z m 358.51705,-13.80006 c 0,-0.275 3.375,-3.85247 7.5,-7.94994 4.125,-4.09747 7.5,-7.22494 7.5,-6.94994 0,0.275 -3.375,3.85247 -7.5,7.94994 -4.125,4.09747 -7.5,7.22494 -7.5,6.94994 z m 100.5,-101.94994 c 3.8205,-3.85 7.17136,-7 7.44636,-7 0.275,0 -2.62586,3.15 -6.44636,7 -3.8205,3.85 -7.17136,7 -7.44636,7 -0.275,0 2.62586,-3.15 6.44636,-7 z m -292.53416,-7.75 -5.46584,-5.75 5.75,5.46584 c 3.1625,3.00621 5.75,5.59371 5.75,5.75 0,0.74225 -0.95622,-0.12391 -6.03416,-5.46584 z m 38.03416,-26.75 c 2.98742,-3.025 5.65668,-5.5 5.93168,-5.5 0.275,0 -1.94426,2.475 -4.93168,5.5 -2.98742,3.025 -5.65668,5.5 -5.93168,5.5 -0.275,0 1.94426,-2.475 4.93168,-5.5 z M 13.989984,638.88279 c 0.04798,-1.16495 0.284941,-1.4019 0.604167,-0.60417 0.288871,0.72187 0.253344,1.58438 -0.07895,1.91667 -0.332292,0.33229 -0.568641,-0.25834 -0.52522,-1.3125 z m 1263.999916,0 c 0.048,-1.16495 0.285,-1.4019 0.6042,-0.60417 0.2889,0.72187 0.2534,1.58438 -0.079,1.91667 -0.3323,0.33229 -0.5687,-0.25834 -0.5253,-1.3125 z m -776.11302,-30.16667 -5.46584,-5.75 5.75,5.46584 c 3.1625,3.00621 5.75,5.59371 5.75,5.75 0,0.74225 -0.95622,-0.12391 -6.03416,-5.46584 z m 450.03416,-7.30006 c 0,-0.275 3.375,-3.85247 7.5,-7.94994 4.125,-4.09747 7.5,-7.22494 7.5,-6.94994 0,0.275 -3.375,3.85247 -7.5,7.94994 -4.125,4.09747 -7.5,7.22494 -7.5,6.94994 z m -270,-19.44994 c 2.98742,-3.025 5.65668,-5.5 5.93168,-5.5 0.275,0 -1.94426,2.475 -4.93168,5.5 -2.98742,3.025 -5.65668,5.5 -5.93168,5.5 -0.275,0 1.94426,-2.475 4.93168,-5.5 z M 13.989984,578.88279 c 0.04798,-1.16495 0.284941,-1.4019 0.604167,-0.60417 0.288871,0.72187 0.253344,1.58438 -0.07895,1.91667 -0.332292,0.33229 -0.568641,-0.25834 -0.52522,-1.3125 z m 1263.999916,0 c 0.048,-1.16495 0.285,-1.4019 0.6042,-0.60417 0.2889,0.72187 0.2534,1.58438 -0.079,1.91667 -0.3323,0.33229 -0.5687,-0.25834 -0.5253,-1.3125 z M 329.91104,560.96612 c 2.98742,-3.025 5.65668,-5.5 5.93168,-5.5 0.275,0 -1.94426,2.475 -4.93168,5.5 -2.98742,3.025 -5.65668,5.5 -5.93168,5.5 -0.275,0 1.94426,-2.475 4.93168,-5.5 z m 422,-50 c 2.98742,-3.025 5.65668,-5.5 5.93168,-5.5 0.275,0 -1.94426,2.475 -4.93168,5.5 -2.98742,3.025 -5.65668,5.5 -5.93168,5.5 -0.275,0 1.94426,-2.475 4.93168,-5.5 z m 71,-72 c 2.98742,-3.025 5.65668,-5.5 5.93168,-5.5 0.275,0 -1.94426,2.475 -4.93168,5.5 -2.98742,3.025 -5.65668,5.5 -5.93168,5.5 -0.275,0 1.94426,-2.475 4.93168,-5.5 z m 183.96586,-31.25 -5.4659,-5.75 5.75,5.46584 c 5.342,5.07794 6.2081,6.03416 5.4659,6.03416 -0.1563,0 -2.7438,-2.5875 -5.75,-5.75 z m 66.0341,-272.75 c -0.6847,-0.825 -1.0199,-1.5 -0.7449,-1.5 0.275,0 1.0602,0.675 1.7449,1.5 0.6847,0.825 1.0199,1.5 0.7449,1.5 -0.275,0 -1.0602,-0.675 -1.7449,-1.5 z m -853.99996,0.12244 c 0,-0.20765 0.7875,-0.99515 1.75,-1.75 1.58606,-1.24387 1.62143,-1.2085 0.37756,0.37756 -1.30637,1.66575 -2.12756,2.19548 -2.12756,1.37244 z m 397.8125,-168.305552 c 0.72187,-0.288871 1.58438,-0.253344 1.91667,0.07895 0.33229,0.332292 -0.25834,0.568641 -1.3125,0.52522 -1.16495,-0.04798 -1.4019,-0.284941 -0.60417,-0.604167 z m 58,0 c 0.72187,-0.288871 1.58438,-0.253344 1.91667,0.07895 0.33229,0.332292 -0.25834,0.568641 -1.3125,0.52522 -1.16495,-0.04798 -1.4019,-0.284941 -0.60417,-0.604167 z"
       style="fill:#aeefd8" />
    <path
       id="path37"
       d="m 619.72354,1249.783 c 0.72187,-0.2889 1.58438,-0.2534 1.91667,0.079 0.33229,0.3323 -0.25834,0.5687 -1.3125,0.5253 -1.16495,-0.048 -1.4019,-0.285 -0.60417,-0.6042 z m -417.3438,-183.5669 -5.9687,-6.25 6.25,5.9687 c 5.80572,5.5444 6.7076,6.5313 5.9687,6.5313 -0.15472,0 -2.96722,-2.8125 -6.25,-6.25 z m 887.53126,-0.25 c 2.429,-2.475 4.6414,-4.5 4.9164,-4.5 0.275,0 -1.4874,2.025 -3.9164,4.5 -2.429,2.475 -4.6414,4.5 -4.9164,4.5 -0.275,0 1.4874,-2.025 3.9164,-4.5 z m -612.07565,-188.24998 -2.42431,-2.75 2.75,2.42431 c 2.57029,2.26589 3.20859,3.07569 2.42431,3.07569 -0.17912,0 -1.41662,-1.2375 -2.75,-2.75 z m 212.57569,-12.25 c 2.70865,-2.75 5.14982,-5 5.42482,-5 0.275,0 -1.71617,2.25 -4.42482,5 -2.70865,2.75 -5.14982,5 -5.42482,5 -0.275,0 1.71617,-2.25 4.42482,-5 z m -303.02346,-80.25 -7.97654,-8.25 8.25,7.97654 c 4.5375,4.3871 8.25,8.0996 8.25,8.25 0,0.72935 -1.11509,-0.31419 -8.52346,-7.97654 z m 397.02346,-14.75 c 2.70865,-2.75 5.14982,-5 5.42482,-5 0.275,0 -1.71617,2.25 -4.42482,5 -2.70865,2.75 -5.14982,5 -5.42482,5 -0.275,0 1.71617,-2.25 4.42482,-5 z m 93,-94 c 2.70865,-2.75 5.14982,-5 5.42482,-5 0.275,0 -1.71617,2.25 -4.42482,5 -2.70865,2.75 -5.14982,5 -5.42482,5 -0.275,0 1.71617,-2.25 4.42482,-5 z m -276,-13 c 2.14824,-2.2 4.1309,-4 4.4059,-4 0.275,0 -1.25766,1.8 -3.4059,4 -2.14824,2.2 -4.1309,4 -4.4059,4 -0.275,0 1.25766,-1.8 3.4059,-4 z m -90.04705,-45.25 -3.95295,-4.25 4.25,3.95295 c 2.3375,2.17412 4.25,4.08662 4.25,4.25 0,0.75658 -0.87085,-4.9e-4 -4.54705,-3.95295 z m 161.04705,-26.75 c 2.14824,-2.2 4.1309,-4 4.4059,-4 0.275,0 -1.25766,1.8 -3.4059,4 -2.14824,2.2 -4.1309,4 -4.4059,4 -0.275,0 1.25766,-1.8 3.4059,-4 z m 299,-10 c 2.70865,-2.75 5.14982,-5 5.42482,-5 0.275,0 -1.71617,2.25 -4.42482,5 -2.70865,2.75 -5.14982,5 -5.42482,5 -0.275,0 1.71617,-2.25 4.42482,-5 z m -957.421056,0.41667 c 0.04798,-1.16495 0.284941,-1.4019 0.604167,-0.60417 0.288871,0.72187 0.253344,1.58438 -0.07895,1.91667 -0.332292,0.33229 -0.568641,-0.25834 -0.52522,-1.3125 z M 320.91104,569.96612 c 1.86578,-1.925 3.61733,-3.5 3.89233,-3.5 0.275,0 -1.02655,1.575 -2.89233,3.5 -1.86578,1.925 -3.61733,3.5 -3.89233,3.5 -0.275,0 1.02655,-1.575 2.89233,-3.5 z m 119.45295,-23.75 -3.95295,-4.25 4.25,3.95295 c 2.3375,2.17412 4.25,4.08662 4.25,4.25 0,0.75658 -0.87085,-4.9e-4 -4.54705,-3.95295 z m 302.54705,-26.25 c 1.86578,-1.925 3.61733,-3.5 3.89233,-3.5 0.275,0 -1.02655,1.575 -2.89233,3.5 -1.86578,1.925 -3.61733,3.5 -3.89233,3.5 -0.275,0 1.02655,-1.575 2.89233,-3.5 z m 70.5,-71.5 c 2.14824,-2.2 4.1309,-4 4.4059,-4 0.275,0 -1.25766,1.8 -3.4059,4 -2.14824,2.2 -4.1309,4 -4.4059,4 -0.275,0 1.25766,-1.8 3.4059,-4 z m 202.95286,-31.25 -3.9529,-4.25 4.25,3.95295 c 3.9525,3.6762 4.7095,4.54705 3.9529,4.54705 -0.1633,0 -2.0758,-1.9125 -4.25,-4.25 z m -131.95286,-40.75 c 2.14824,-2.2 4.1309,-4 4.4059,-4 0.275,0 -1.25766,1.8 -3.4059,4 -2.14824,2.2 -4.1309,4 -4.4059,4 -0.275,0 1.25766,-1.8 3.4059,-4 z m 43.3125,-20.68311 c 0.72187,-0.28887 1.58438,-0.25335 1.91667,0.0789 0.33229,0.33229 -0.25834,0.56864 -1.3125,0.52522 -1.16495,-0.048 -1.4019,-0.28494 -0.60417,-0.60416 z m 4,0 c 0.72187,-0.28887 1.58438,-0.25335 1.91667,0.0789 0.33229,0.33229 -0.25834,0.56864 -1.3125,0.52522 -1.16495,-0.048 -1.4019,-0.28494 -0.60417,-0.60416 z m -312,-389.000002 c 0.72187,-0.288871 1.58438,-0.253344 1.91667,0.07895 0.33229,0.332292 -0.25834,0.568641 -1.3125,0.52522 -1.16495,-0.04798 -1.4019,-0.284941 -0.60417,-0.604167 z"
       style="fill:#90e9ca" />
    <path
       id="path35"
       d="m 622.72354,1249.783 c 0.72187,-0.2889 1.58438,-0.2534 1.91667,0.079 0.33229,0.3323 -0.25834,0.5687 -1.3125,0.5253 -1.16495,-0.048 -1.4019,-0.285 -0.60417,-0.6042 z m 47,0 c 0.72187,-0.2889 1.58438,-0.2534 1.91667,0.079 0.33229,0.3323 -0.25834,0.5687 -1.3125,0.5253 -1.16495,-0.048 -1.4019,-0.285 -0.60417,-0.6042 z m -45.3125,-317.31688 c 2.14824,-2.2 4.1309,-4 4.4059,-4 0.275,0 -1.25766,1.8 -3.4059,4 -2.14824,2.2 -4.1309,4 -4.4059,4 -0.275,0 1.25766,-1.8 3.4059,-4 z m 76.5,-77.5 c 2.98742,-3.025 5.65668,-5.5 5.93168,-5.5 0.275,0 -1.94426,2.475 -4.93168,5.5 -2.98742,3.025 -5.65668,5.5 -5.93168,5.5 -0.275,0 1.94426,-2.475 4.93168,-5.5 z m -329.52346,-85.75 -7.97654,-8.25 8.25,7.97654 c 7.66235,7.40837 8.70589,8.52346 7.97654,8.52346 -0.1504,0 -3.8629,-3.7125 -8.25,-8.25 z m 423.02346,-8.75 c 2.70865,-2.75 5.14982,-5 5.42482,-5 0.275,0 -1.71617,2.25 -4.42482,5 -2.70865,2.75 -5.14982,5 -5.42482,5 -0.275,0 1.71617,-2.25 4.42482,-5 z m -200.5,-89.5 c 1.86578,-1.925 3.61733,-3.5 3.89233,-3.5 0.275,0 -1.02655,1.575 -2.89233,3.5 -1.86578,1.925 -3.61733,3.5 -3.89233,3.5 -0.275,0 1.02655,-1.575 2.89233,-3.5 z m 294,-5 c 2.98742,-3.025 5.65668,-5.5 5.93168,-5.5 0.275,0 -1.94426,2.475 -4.93168,5.5 -2.98742,3.025 -5.65668,5.5 -5.93168,5.5 -0.275,0 1.94426,-2.475 4.93168,-5.5 z M 13.989984,633.88279 c 0.04798,-1.16495 0.284941,-1.4019 0.604167,-0.60417 0.288871,0.72187 0.253344,1.58438 -0.07895,1.91667 -0.332292,0.33229 -0.568641,-0.25834 -0.52522,-1.3125 z m 1263.999916,0 c 0.048,-1.16495 0.285,-1.4019 0.6042,-0.60417 0.2889,0.72187 0.2534,1.58438 -0.079,1.91667 -0.3323,0.33229 -0.5687,-0.25834 -0.5253,-1.3125 z m -758.62591,-7.66667 -3.95295,-4.25 4.25,3.95295 c 2.3375,2.17412 4.25,4.08662 4.25,4.25 0,0.75658 -0.87085,-4.9e-4 -4.54705,-3.95295 z m 145.04705,-26.75 c 2.14824,-2.2 4.1309,-4 4.4059,-4 0.275,0 -1.25766,1.8 -3.4059,4 -2.14824,2.2 -4.1309,4 -4.4059,4 -0.275,0 1.25766,-1.8 3.4059,-4 z m 613.57886,-15.58333 c 0.048,-1.16495 0.285,-1.4019 0.6042,-0.60417 0.2889,0.72187 0.2534,1.58438 -0.079,1.91667 -0.3323,0.33229 -0.5687,-0.25834 -0.5253,-1.3125 z m -964.57886,-6.41667 c 2.14824,-2.2 4.1309,-4 4.4059,-4 0.275,0 -1.25766,1.8 -3.4059,4 -2.14824,2.2 -4.1309,4 -4.4059,4 -0.275,0 1.25766,-1.8 3.4059,-4 z m 668.5,-6.5 c 2.98742,-3.025 5.65668,-5.5 5.93168,-5.5 0.275,0 -1.94426,2.475 -4.93168,5.5 -2.98742,3.025 -5.65668,5.5 -5.93168,5.5 -0.275,0 1.94426,-2.475 4.93168,-5.5 z m -533.54705,-16.75 -3.95295,-4.25 4.25,3.95295 c 2.3375,2.17412 4.25,4.08662 4.25,4.25 0,0.75658 -0.87085,-4.9e-4 -4.54705,-3.95295 z m 287.04705,-26.75 c 2.14824,-2.2 4.1309,-4 4.4059,-4 0.275,0 -1.25766,1.8 -3.4059,4 -2.14824,2.2 -4.1309,4 -4.4059,4 -0.275,0 1.25766,-1.8 3.4059,-4 z m 70.5,-71.5 c 1.86578,-1.925 3.61733,-3.5 3.89233,-3.5 0.275,0 -1.02655,1.575 -2.89233,3.5 -1.86578,1.925 -3.61733,3.5 -3.89233,3.5 -0.275,0 1.02655,-1.575 2.89233,-3.5 z m 218.45286,-30.75 -3.9529,-4.25 4.25,3.95295 c 3.9525,3.6762 4.7095,4.54705 3.9529,4.54705 -0.1633,0 -2.0758,-1.9125 -4.25,-4.25 z m -147.95286,-40.75 c 2.14824,-2.2 4.1309,-4 4.4059,-4 0.275,0 -1.25766,1.8 -3.4059,4 -2.14824,2.2 -4.1309,4 -4.4059,4 -0.275,0 1.25766,-1.8 3.4059,-4 z m 225.49996,-220.5 c -0.6847,-0.825 -1.0199,-1.5 -0.7449,-1.5 0.275,0 1.0602,0.675 1.7449,1.5 0.6847,0.825 1.0199,1.5 0.7449,1.5 -0.275,0 -1.0602,-0.675 -1.7449,-1.5 z M 622.72354,-33.216992 c 0.72187,-0.288871 1.58438,-0.253344 1.91667,0.07895 0.33229,0.332292 -0.25834,0.568641 -1.3125,0.52522 -1.16495,-0.04798 -1.4019,-0.284941 -0.60417,-0.604167 z m 47,0 c 0.72187,-0.288871 1.58438,-0.253344 1.91667,0.07895 0.33229,0.332292 -0.25834,0.568641 -1.3125,0.52522 -1.16495,-0.04798 -1.4019,-0.284941 -0.60417,-0.604167 z"
       style="fill:#7be5c1" />
    <path
       id="path33"
       d="m 625.66104,1249.8038 c 0.6875,-0.2774 1.8125,-0.2774 2.5,0 0.6875,0.2774 0.125,0.5044 -1.25,0.5044 -1.375,0 -1.9375,-0.227 -1.25,-0.5044 z m 38.98097,0.01 c 0.67703,-0.274 2.02703,-0.2906 3,-0.037 0.97297,0.2536 0.41903,0.4777 -1.23097,0.4981 -1.65,0.02 -2.44606,-0.1871 -1.76903,-0.461 z m -59.91847,-1.0272 c 0.72187,-0.2889 1.58438,-0.2534 1.91667,0.079 0.33229,0.3323 -0.25834,0.5687 -1.3125,0.5253 -1.16495,-0.048 -1.4019,-0.285 -0.60417,-0.6042 z m 82,0 c 0.72187,-0.2889 1.58438,-0.2534 1.91667,0.079 0.33229,0.3323 -0.25834,0.5687 -1.3125,0.5253 -1.16495,-0.048 -1.4019,-0.285 -0.60417,-0.6042 z M 1106.911,1048.0885 c 0,-0.2076 0.7875,-0.9951 1.75,-1.75 1.5861,-1.2438 1.6214,-1.2085 0.3776,0.3776 -1.3064,1.6657 -2.1276,2.1955 -2.1276,1.3724 z m -577.52678,-117.87238 -6.97318,-7.25 7.25,6.97318 c 6.7338,6.47669 7.70669,7.52682 6.97318,7.52682 -0.15225,0 -3.41475,-3.2625 -7.25,-7.25 z m 106.02682,-8.75 c 3.8205,-3.85 7.17136,-7 7.44636,-7 0.275,0 -2.62586,3.15 -6.44636,7 -3.8205,3.85 -7.17136,7 -7.44636,7 -0.275,0 2.62586,-3.15 6.44636,-7 z m 80,-81 c 4.92707,-4.95 9.1833,-9 9.4583,-9 0.275,0 -3.53123,4.05 -8.4583,9 -4.92707,4.95 -9.1833,9 -9.4583,9 -0.275,0 3.53123,-4.05 8.4583,-9 z m -365.5,-92.5 c -7.40972,-7.425 -13.24721,-13.5 -12.97221,-13.5 0.275,0 6.56249,6.075 13.97221,13.5 7.40972,7.425 13.24721,13.5 12.97221,13.5 -0.275,0 -6.56249,-6.075 -13.97221,-13.5 z m 458.5,-1.5 c 4.92707,-4.95 9.1833,-9 9.4583,-9 0.275,0 -3.53123,4.05 -8.4583,9 -4.92707,4.95 -9.1833,9 -9.4583,9 -0.275,0 3.53123,-4.05 8.4583,-9 z m -229.5,-60.06261 c 0,-0.275 2.7,-3.17182 6,-6.43739 3.3,-3.26557 6,-5.71239 6,-5.43739 0,0.275 -2.7,3.17182 -6,6.43739 -3.3,3.26557 -6,5.71239 -6,5.43739 z m 323.5,-34.93739 c 4.92707,-4.95 9.1833,-9 9.4583,-9 0.275,0 -3.53123,4.05 -8.4583,9 -4.92707,4.95 -9.1833,9 -9.4583,9 -0.275,0 3.53123,-4.05 8.4583,-9 z M 14.989984,650.88279 c 0.04798,-1.16495 0.284941,-1.4019 0.604167,-0.60417 0.288871,0.72187 0.253344,1.58438 -0.07895,1.91667 -0.332292,0.33229 -0.56864,-0.25834 -0.52522,-1.3125 z m 1261.999916,0 c 0.048,-1.16495 0.285,-1.4019 0.6042,-0.60417 0.2889,0.72187 0.2534,1.58438 -0.079,1.91667 -0.3323,0.33229 -0.5687,-0.25834 -0.5253,-1.3125 z m -746.60568,-13.66667 -6.97318,-7.25 7.25,6.97318 c 3.9875,3.83525 7.25,7.09775 7.25,7.25 0,0.73351 -1.05013,-0.23938 -7.52682,-6.97318 z m -516.278234,-7.25 c 0.02038,-1.65 0.244498,-2.20394 0.498042,-1.23097 0.253543,0.97297 0.236869,2.32297 -0.03705,3 -0.273923,0.67703 -0.481368,-0.11903 -0.460988,-1.76903 z m 1263.999914,0 c 0.02,-1.65 0.2445,-2.20394 0.4981,-1.23097 0.2535,0.97297 0.2369,2.32297 -0.037,3 -0.2739,0.67703 -0.4813,-0.11903 -0.461,-1.76903 z m -624.69486,-19.5 c 3.8205,-3.85 7.17136,-7 7.44636,-7 0.275,0 -2.62586,3.15 -6.44636,7 -3.8205,3.85 -7.17136,7 -7.44636,7 -0.275,0 2.62586,-3.15 6.44636,-7 z m -351,-22 c 3.8205,-3.85 7.17136,-7 7.44636,-7 0.275,0 -2.62586,3.15 -6.44636,7 -3.8205,3.85 -7.17136,7 -7.44636,7 -0.275,0 2.62586,-3.15 6.44636,-7 z m -288.305054,-0.5 c 0.02038,-1.65 0.244498,-2.20394 0.498042,-1.23097 0.253543,0.97297 0.236869,2.32297 -0.03705,3 -0.273923,0.67703 -0.481368,-0.11903 -0.460988,-1.76903 z m 1263.999914,0 c 0.02,-1.65 0.2445,-2.20394 0.4981,-1.23097 0.2535,0.97297 0.2369,2.32297 -0.037,3 -0.2739,0.67703 -0.4813,-0.11903 -0.461,-1.76903 z m -818.72168,-22.75 -6.97318,-7.25 7.25,6.97318 c 3.9875,3.83525 7.25,7.09775 7.25,7.25 0,0.73351 -1.05013,-0.23938 -7.52682,-6.97318 z m -444.394236,2.66667 c 0.04798,-1.16495 0.284941,-1.4019 0.604167,-0.60417 0.288871,0.72187 0.253344,1.58438 -0.07895,1.91667 -0.332292,0.33229 -0.56864,-0.25834 -0.52522,-1.3125 z m 1261.999916,0 c 0.048,-1.16495 0.285,-1.4019 0.6042,-0.60417 0.2889,0.72187 0.2534,1.58438 -0.079,1.91667 -0.3323,0.33229 -0.5687,-0.25834 -0.5253,-1.3125 z M 996.41104,556.46612 c 4.92706,-4.95 9.18326,-9 9.45826,-9 0.275,0 -3.5312,4.05 -8.45826,9 -4.92707,4.95 -9.1833,9 -9.4583,9 -0.275,0 3.53123,-4.05 8.4583,-9 z m -272,-18 c 3.8205,-3.85 7.17136,-7 7.44636,-7 0.275,0 -2.62586,3.15 -6.44636,7 -3.8205,3.85 -7.17136,7 -7.44636,7 -0.275,0 2.62586,-3.15 6.44636,-7 z m 71,-72 c 3.8205,-3.85 7.17136,-7 7.44636,-7 0.275,0 -2.62586,3.15 -6.44636,7 -3.8205,3.85 -7.17136,7 -7.44636,7 -0.275,0 2.62586,-3.15 6.44636,-7 z m 235.42426,-34.75 -2.4243,-2.75 2.75,2.42431 c 1.5125,1.33338 2.75,2.57088 2.75,2.75 0,0.78428 -0.8098,0.14598 -3.0757,-2.42431 z m -165.42426,-36.25 c 3.8205,-3.85 7.17136,-7 7.44636,-7 0.275,0 -2.62586,3.15 -6.44636,7 -3.8205,3.85 -7.17136,7 -7.44636,7 -0.275,0 2.62586,-3.15 6.44636,-7 z m 246.49996,-220.5 c -0.6847,-0.825 -1.0199,-1.5 -0.7449,-1.5 0.275,0 1.0602,0.675 1.7449,1.5 0.6847,0.825 1.0199,1.5 0.7449,1.5 -0.275,0 -1.0602,-0.675 -1.7449,-1.5 z m -918.99996,-14 c 1.29175,-1.375 2.57363,-2.5 2.84863,-2.5 0.275,0 -0.55688,1.125 -1.84863,2.5 -1.29175,1.375 -2.57363,2.5 -2.84863,2.5 -0.275,0 0.55688,-1.125 1.84863,-2.5 z m 904.92426,-1.25 -2.4243,-2.75 2.75,2.42431 c 1.5125,1.33338 2.75,2.57088 2.75,2.75 0,0.78428 -0.8098,0.14598 -3.0757,-2.42431 z m -18,-18 -2.4243,-2.75 2.75,2.42431 c 1.5125,1.33338 2.75,2.57088 2.75,2.75 0,0.78428 -0.8098,0.14598 -3.0757,-2.42431 z m -866.42426,-1.25 c 0.99549,-1.1 2.03498,-2 2.30998,-2 0.275,0 -0.31449,0.9 -1.30998,2 -0.99549,1.1 -2.03498,2 -2.30998,2 -0.275,0 0.31449,-0.9 1.30998,-2 z m 391.3125,-172.683112 c 0.72187,-0.288871 1.58438,-0.253344 1.91667,0.07895 0.33229,0.332292 -0.25834,0.56864 -1.3125,0.525219 -1.16495,-0.04798 -1.4019,-0.28494 -0.60417,-0.604166 z m 82,0 c 0.72187,-0.288871 1.58438,-0.253344 1.91667,0.07895 0.33229,0.332292 -0.25834,0.56864 -1.3125,0.525219 -1.16495,-0.04798 -1.4019,-0.28494 -0.60417,-0.604166 z m -61.0625,-0.979167 c 0.6875,-0.277412 1.8125,-0.277412 2.5,0 0.6875,0.277413 0.125,0.504386 -1.25,0.504386 -1.375,0 -1.9375,-0.226973 -1.25,-0.504386 z m 38.98097,0.0063 c 0.67703,-0.273923 2.02703,-0.290597 3,-0.03705 0.97297,0.253544 0.41903,0.477663 -1.23097,0.498042 -1.65,0.02038 -2.44606,-0.187065 -1.76903,-0.460988 z"
       style="fill:#5bdfb2" />
    <path
       id="path31"
       d="m 631.16104,1249.7498 c 1.5125,-0.2291 3.9875,-0.2291 5.5,0 1.5125,0.2292 0.275,0.4166 -2.75,0.4166 -3.025,0 -4.2625,-0.1874 -2.75,-0.4166 z m 25,0 c 1.5125,-0.2291 3.9875,-0.2291 5.5,0 1.5125,0.2292 0.275,0.4166 -2.75,0.4166 -3.025,0 -4.2625,-0.1874 -2.75,-0.4166 z m -48.4375,-0.9668 c 0.72187,-0.2889 1.58438,-0.2534 1.91667,0.079 0.33229,0.3323 -0.25834,0.5687 -1.3125,0.5253 -1.16495,-0.048 -1.4019,-0.285 -0.60417,-0.6042 z m 76,0 c 0.72187,-0.2889 1.58438,-0.2534 1.91667,0.079 0.33229,0.3323 -0.25834,0.5687 -1.3125,0.5253 -1.16495,-0.048 -1.4019,-0.285 -0.60417,-0.6042 z m -454.8125,-157.8169 c -0.68469,-0.825 -1.01989,-1.5 -0.74489,-1.5 0.275,0 1.0602,0.675 1.74489,1.5 0.68469,0.825 1.01989,1.5 0.74489,1.5 -0.275,0 -1.0602,-0.675 -1.74489,-1.5 z m 832.99996,1.1224 c 0,-0.2076 0.7875,-0.9951 1.75,-1.75 1.5861,-1.2438 1.6214,-1.2085 0.3776,0.3776 -1.3064,1.6657 -2.1276,2.1955 -2.1276,1.3724 z m -844.07565,-11.3724 -2.42431,-2.75 2.75,2.4243 c 2.57029,2.2659 3.20859,3.0757 2.42431,3.0757 -0.17912,0 -1.41662,-1.2375 -2.75,-2.75 z m 857.07565,-0.75 c 1.2917,-1.375 2.5736,-2.5 2.8486,-2.5 0.275,0 -0.5569,1.125 -1.8486,2.5 -1.2917,1.375 -2.5736,2.5 -2.8486,2.5 -0.275,0 0.5569,-1.125 1.8486,-2.5 z m 26,-25.6258 c 0,-0.275 1.35,-1.7934 3,-3.3742 1.65,-1.5808 3,-2.6492 3,-2.3742 0,0.275 -1.35,1.7934 -3,3.3742 -1.65,1.5808 -3,2.6492 -3,2.3742 z m -914.07565,-4.6242 -2.42431,-2.75 2.75,2.4243 c 2.57029,2.2659 3.20859,3.0757 2.42431,3.0757 -0.17912,0 -1.41662,-1.2375 -2.75,-2.75 z m -16.92431,-18.75 c -0.68469,-0.825 -1.01989,-1.5 -0.74489,-1.5 0.275,0 1.0602,0.675 1.74489,1.5 0.68469,0.825 1.01989,1.5 0.74489,1.5 -0.275,0 -1.0602,-0.675 -1.74489,-1.5 z m 340.98369,-119.24998 -11.48369,-11.75 11.75,11.48369 c 6.4625,6.31603 11.75,11.60353 11.75,11.75 0,0.72017 -1.34959,-0.5696 -12.01631,-11.48369 z m 143.01631,-8.75 c 6.30706,-6.325 11.69238,-11.5 11.96738,-11.5 0.275,0 -4.66032,5.175 -10.96738,11.5 -6.30706,6.325 -11.69238,11.5 -11.96738,11.5 -0.275,0 4.66032,-5.175 10.96738,-11.5 z m -203.01014,-53.25 -18.48986,-18.75 18.75,18.48986 c 17.42066,17.17896 19.20171,19.01014 18.48986,19.01014 -0.14307,0 -8.58057,-8.4375 -18.75,-18.75 z m 274.01014,-18.27501 c 0,-0.275 6.75,-7.23874 15,-15.47499 8.25,-8.23625 15,-14.74999 15,-14.47499 0,0.275 -6.75,7.23874 -15,15.47499 -8.25,8.23625 -15,14.74999 -15,14.47499 z m 108,-109.47499 c 8.51169,-8.525 15.7008,-15.5 15.9758,-15.5 0.275,0 -6.46411,6.975 -14.9758,15.5 -8.51169,8.525 -15.7008,15.5 -15.9758,15.5 -0.275,0 6.46411,-6.975 14.9758,-15.5 z m -519.50815,-10.75 -22.99185,-23.25 23.25,22.99185 c 12.7875,12.64551 23.25,23.10801 23.25,23.25 0,0.7091 -2.14386,-1.38768 -23.50815,-22.99185 z m 235.49184,-55.5 -11.48369,-11.75 11.75,11.48369 c 10.91409,10.66672 12.20386,12.01631 11.48369,12.01631 -0.14647,0 -5.43397,-5.2875 -11.75,-11.75 z M 14.989984,647.88279 c 0.04798,-1.16495 0.284941,-1.4019 0.604167,-0.60417 0.288871,0.72187 0.253344,1.58438 -0.07895,1.91667 -0.332292,0.33229 -0.56864,-0.25834 -0.52522,-1.3125 z m 1261.999916,0 c 0.048,-1.16495 0.285,-1.4019 0.6042,-0.60417 0.2889,0.72187 0.2534,1.58438 -0.079,1.91667 -0.3323,0.33229 -0.5687,-0.25834 -0.5253,-1.3125 z M 273.1834,644.46612 c 0,-2.475 0.19502,-3.4875 0.43337,-2.25 0.23836,1.2375 0.23836,3.2625 0,4.5 -0.23835,1.2375 -0.43337,0.225 -0.43337,-2.25 z m 653.72764,-17.5 c 8.51169,-8.525 15.7008,-15.5 15.9758,-15.5 0.275,0 -6.46411,6.975 -14.9758,15.5 -8.51169,8.525 -15.7008,15.5 -15.9758,15.5 -0.275,0 6.46411,-6.975 14.9758,-15.5 z m -292,2 c 6.30706,-6.325 11.69238,-11.5 11.96738,-11.5 0.275,0 -4.66032,5.175 -10.96738,11.5 -6.30706,6.325 -11.69238,11.5 -11.96738,11.5 -0.275,0 4.66032,-5.175 10.96738,-11.5 z m -620.679929,-7.5 c 0,-3.575 0.181495,-5.0375 0.403322,-3.25 0.221826,1.7875 0.221826,4.7125 0,6.5 -0.221827,1.7875 -0.403322,0.325 -0.403322,-3.25 z m 1263.952289,2 c 0,-2.475 0.195,-3.4875 0.4333,-2.25 0.2384,1.2375 0.2384,3.2625 0,4.5 -0.2383,1.2375 -0.4333,0.225 -0.4333,-2.25 z m -1263.952289,-27 c 0,-3.575 0.181495,-5.0375 0.403322,-3.25 0.221826,1.7875 0.221826,4.7125 0,6.5 -0.221827,1.7875 -0.403322,0.325 -0.403322,-3.25 z m 277.679929,2.5 c 1.86578,-1.925 3.61733,-3.5 3.89233,-3.5 0.275,0 -1.02655,1.575 -2.89233,3.5 -1.86578,1.925 -3.61733,3.5 -3.89233,3.5 -0.275,0 1.02655,-1.575 2.89233,-3.5 z m 986.27236,-4.5 c 0,-2.475 0.195,-3.4875 0.4333,-2.25 0.2384,1.2375 0.2384,3.2625 0,4.5 -0.2383,1.2375 -0.4333,0.225 -0.4333,-2.25 z m -800.28867,-10.75 -11.48369,-11.75 11.75,11.48369 c 6.4625,6.31603 11.75,11.60353 11.75,11.75 0,0.72017 -1.34959,-0.5696 -12.01631,-11.48369 z m 228.01631,-26.75 c 6.30706,-6.325 11.69238,-11.5 11.96738,-11.5 0.275,0 -4.66032,5.175 -10.96738,11.5 -6.30706,6.325 -11.69238,11.5 -11.96738,11.5 -0.275,0 4.66032,-5.175 10.96738,-11.5 z m -359.5,-13.5 c 2.14824,-2.2 4.1309,-4 4.4059,-4 0.275,0 -1.25766,1.8 -3.4059,4 -2.14824,2.2 -4.1309,4 -4.4059,4 -0.275,0 1.25766,-1.8 3.4059,-4 z m 659.49996,3.73611 c 0,-0.14515 6.1875,-6.33265 13.75,-13.75 l 13.75,-13.48611 -13.4861,13.75 c -12.5277,12.77286 -14.0139,14.20306 -14.0139,13.48611 z M 776.91104,484.96612 c 6.30706,-6.325 11.69238,-11.5 11.96738,-11.5 0.275,0 -4.66032,5.175 -10.96738,11.5 -6.30706,6.325 -11.69238,11.5 -11.96738,11.5 -0.275,0 4.66032,-5.175 10.96738,-11.5 z m 70,-71 c 6.30706,-6.325 11.69238,-11.5 11.96738,-11.5 0.275,0 -4.66032,5.175 -10.96738,11.5 -6.30706,6.325 -11.69238,11.5 -11.96738,11.5 -0.275,0 4.66032,-5.175 10.96738,-11.5 z m 135.48437,-31.75 -11.98437,-12.25 12.25,11.98437 c 11.37875,11.13201 12.70364,12.51563 11.98437,12.51563 -0.1461,0 -5.6586,-5.5125 -12.25,-12.25 z M 172.91104,183.08856 c 0,-0.20765 0.7875,-0.99515 1.75,-1.75 1.58606,-1.24387 1.62143,-1.2085 0.37756,0.37756 -1.30637,1.66575 -2.12756,2.19548 -2.12756,1.37244 z m 9.5,-10.62244 c 0.99549,-1.1 2.03498,-2 2.30998,-2 0.275,0 -0.31449,0.9 -1.30998,2 -0.99549,1.1 -2.03498,2 -2.30998,2 -0.275,0 0.31449,-0.9 1.30998,-2 z m 925.90496,-1.25 -1.905,-2.25 2.25,1.90499 c 2.1144,1.79022 2.7052,2.59501 1.905,2.59501 -0.1898,0 -1.2023,-1.0125 -2.25,-2.25 z m -904.90496,-20.75 c 4.37419,-4.4 8.17808,-8 8.45308,-8 0.275,0 -3.07889,3.6 -7.45308,8 -4.37419,4.4 -8.17808,8 -8.45308,8 -0.275,0 3.07889,-3.6 7.45308,-8 z m 885.47106,0.25 -6.4711,-6.75 6.75,6.47111 c 3.7125,3.55911 6.75,6.59661 6.75,6.75 0,0.73602 -1.0182,-0.20142 -7.0289,-6.47111 z m -20.5661,-19.5 -1.905,-2.25 2.25,1.90499 c 2.1144,1.79022 2.7052,2.59501 1.905,2.59501 -0.1898,0 -1.2023,-1.0125 -2.25,-2.25 z m -843.90496,-0.75 c 0.99549,-1.1 2.03498,-2 2.30998,-2 0.275,0 -0.31449,0.9 -1.30998,2 -0.99549,1.1 -2.03498,2 -2.30998,2 -0.275,0 0.31449,-0.9 1.30998,-2 z m 383.3125,-162.683112 c 0.72187,-0.288871 1.58438,-0.253344 1.91667,0.07895 0.33229,0.332292 -0.25834,0.56864 -1.3125,0.525219 -1.16495,-0.04798 -1.4019,-0.28494 -0.60417,-0.604166 z m 76,0 c 0.72187,-0.288871 1.58438,-0.253344 1.91667,0.07895 0.33229,0.332292 -0.25834,0.56864 -1.3125,0.525219 -1.16495,-0.04798 -1.4019,-0.28494 -0.60417,-0.604166 z m -52.5625,-1.03314 c 1.5125,-0.229125 3.9875,-0.229125 5.5,0 1.5125,0.229124 0.275,0.41659 -2.75,0.41659 -3.025,0 -4.2625,-0.187466 -2.75,-0.41659 z m 25,0 c 1.5125,-0.229125 3.9875,-0.229125 5.5,0 1.5125,0.229124 0.275,0.41659 -2.75,0.41659 -3.025,0 -4.2625,-0.187466 -2.75,-0.41659 z"
       style="fill:#28d69a" />
    <path
       id="path29"
       d="m 619.91104,1249.4199 c -86.62815,-3.5478 -171.56537,-25.212 -249,-63.5101 -39.44565,-19.5093 -70.0083,-38.4014 -104,-64.2869 C 137.51233,1023.0824 50.249426,878.12187 23.439715,717.16995 16.975806,678.36392 14.783838,651.1723 14.757507,609.46612 c -0.02597,-41.1392 2.048976,-67.91928 8.212988,-106 10.127461,-62.56655 29.519455,-123.25308 57.542359,-180.0767 16.688836,-33.84089 30.522996,-57.3005 51.258786,-86.9233 37.48243,-53.54677 86.38079,-104.14357 138.77172,-143.591808 88.0322,-66.284667 192.00341,-108.293493 300.36768,-121.361418 47.31493,-5.705829 98.27661,-5.869583 147,-0.472351 180.83976,20.032145 347.34726,122.376589 451.35266,277.425577 21.7086,32.36265 48.0016,81.76373 61.4732,115.5 26.3136,65.89576 40.7739,128.417 46.2573,200 2.4452,31.92189 1.3018,82.99762 -2.6528,118.5 -28.6189,256.92141 -209.7104,472.78178 -455.91438,543.44828 -63.19043,18.1372 -131.65432,26.2437 -198.51598,23.5055 z m -26.4601,-297.46243 c 3.27806,-0.82975 9.3351,-3.16822 13.4601,-5.19659 6.80683,-3.34711 9.91156,-6.09588 33.59282,-29.74136 51.74792,-51.66973 391.86764,-395.89185 395.64604,-400.41813 5.0426,-6.04075 10.2699,-16.92103 12.3293,-25.6629 2.1642,-9.18606 1.4681,-25.51865 -1.4382,-33.74767 -4.9158,-13.91883 -7.0275,-16.55798 -41.5665,-51.94827 -18.11505,-18.56157 -35.5372,-35.57261 -38.71586,-37.80231 -23.0874,-16.19489 -52.49931,-15.74538 -73.95452,1.13026 -1.9838,1.56037 -73.28113,73.50944 -158.43851,159.88682 -85.15738,86.37739 -155.15087,156.92807 -155.54111,156.7793 -0.39023,-0.14878 -33.18282,-33.2148 -72.87241,-73.48005 -39.6896,-40.26526 -74.33687,-74.8054 -76.99394,-76.75587 -10.38886,-7.62612 -22.7103,-11.53458 -36.36286,-11.53458 -14.17454,0 -27.14955,4.43119 -37.71127,12.87904 -2.48986,1.99153 -18.93478,18.24596 -36.54427,36.12096 -33.39233,33.89581 -37.30423,38.69667 -41.35043,50.74716 -6.79146,20.22645 -3.9939,40.06208 8.21583,58.25284 1.66124,2.475 36.6017,38.25 77.64547,79.5 41.04377,41.25 88.54908,89.4 105.56735,107 68.17899,70.50953 73.5327,75.57847 85.05973,80.53534 2.71334,1.16679 7.18334,2.73155 9.93334,3.47724 6.8059,1.84549 22.70961,1.83425 30.0399,-0.0212 z"
       style="fill:#00cf88" />
  </g>
</svg>
