<?xml version="1.0" encoding="UTF-8" standalone="no"?>
<!-- Created with Inkscape (http://www.inkscape.org/) -->

<svg
   xmlns:dc="http://purl.org/dc/elements/1.1/"
   xmlns:cc="http://creativecommons.org/ns#"
   xmlns:rdf="http://www.w3.org/1999/02/22-rdf-syntax-ns#"
   xmlns:svg="http://www.w3.org/2000/svg"
   xmlns="http://www.w3.org/2000/svg"
   xmlns:sodipodi="http://sodipodi.sourceforge.net/DTD/sodipodi-0.dtd"
   xmlns:inkscape="http://www.inkscape.org/namespaces/inkscape"
   width="51.166058mm"
   height="51.166004mm"
   viewBox="0 0 51.166058 51.166004"
   version="1.1"
   id="svg8"
   inkscape:version="0.92.1 r15371"
   sodipodi:docname="icon_2.svg">
  <defs
     id="defs2" />
  <sodipodi:namedview
     id="base"
     pagecolor="#ffffff"
     bordercolor="#666666"
     borderopacity="1.0"
     inkscape:pageopacity="0.0"
     inkscape:pageshadow="2"
     inkscape:zoom="0.35"
     inkscape:cx="216.69174"
     inkscape:cy="473.83396"
     inkscape:document-units="mm"
     inkscape:current-layer="layer1"
     showgrid="false"
     inkscape:window-width="1920"
     inkscape:window-height="1017"
     inkscape:window-x="-8"
     inkscape:window-y="-8"
     inkscape:window-maximized="1"
     fit-margin-top="0"
     fit-margin-left="0"
     fit-margin-right="0"
     fit-margin-bottom="0" />
  <metadata
     id="metadata5">
    <rdf:RDF>
      <cc:Work
         rdf:about="">
        <dc:format>image/svg+xml</dc:format>
        <dc:type
           rdf:resource="http://purl.org/dc/dcmitype/StillImage" />
        <dc:title></dc:title>
      </cc:Work>
    </rdf:RDF>
  </metadata>
  <g
     inkscape:label="Layer 1"
     inkscape:groupmode="layer"
     id="layer1"
     transform="translate(-48.50031,-223.0359)">
    <g
       id="layer1-5"
       transform="matrix(0.15535158,0,0,0.15535158,95.533493,241.16883)">
      <g
         id="g48"
         transform="translate(-196.54762,-48.380953)">
        <path
           style="fill:#d0e9ed;stroke-width:0.26458332"
           d="m 50.072499,260.86118 c 0.179131,-0.0725 0.536319,-0.0769 0.79375,-0.01 0.257432,0.0671 0.110869,0.12639 -0.325694,0.13179 -0.436562,0.005 -0.647187,-0.0495 -0.468056,-0.12197 z m 15.875,0 c 0.179131,-0.0725 0.536318,-0.0769 0.79375,-0.01 0.257432,0.0671 0.110868,0.12639 -0.325694,0.13179 -0.436563,0.005 -0.647187,-0.0495 -0.468056,-0.12197 z m -20.103298,-0.26627 c 0.181901,-0.0734 0.479557,-0.0734 0.661458,0 0.181901,0.0734 0.03307,0.13345 -0.330729,0.13345 -0.363802,0 -0.51263,-0.0601 -0.330729,-0.13345 z m 24.60625,0 c 0.181901,-0.0734 0.479557,-0.0734 0.661458,0 0.181901,0.0734 0.03307,0.13345 -0.330729,0.13345 -0.363802,0 -0.51263,-0.0601 -0.330729,-0.13345 z M 15.433655,237.57065 c 0.190995,-0.0764 0.4192,-0.067 0.507119,0.0209 0.08792,0.0879 -0.06835,0.15046 -0.347266,0.13898 -0.308226,-0.0127 -0.370919,-0.0754 -0.159853,-0.15986 z m -64.508723,-16.35572 c -0.181157,-0.21828 -0.269846,-0.39687 -0.197085,-0.39687 0.07276,0 0.280511,0.17859 0.461668,0.39687 0.181158,0.21828 0.269846,0.39688 0.197086,0.39688 -0.07276,0 -0.280511,-0.1786 -0.461669,-0.39688 z m -2.116666,-1.85208 c -0.181158,-0.21828 -0.269846,-0.39688 -0.197086,-0.39688 0.07276,0 0.280511,0.1786 0.461669,0.39688 0.181157,0.21828 0.269846,0.39687 0.197085,0.39687 -0.07276,0 -0.280511,-0.17859 -0.461668,-0.39687 z m 218.810414,0.29697 c 0,-0.0549 0.20836,-0.26329 0.46302,-0.46302 0.41965,-0.32909 0.42899,-0.31975 0.0999,0.0999 -0.34566,0.44072 -0.56293,0.5809 -0.56293,0.36312 z m 3.43958,-3.20739 c 0.34176,-0.3638 0.68093,-0.66146 0.75369,-0.66146 0.0728,0 -0.14734,0.29766 -0.48911,0.66146 -0.34176,0.3638 -0.68093,0.66146 -0.75369,0.66146 -0.0728,0 0.14735,-0.29766 0.48911,-0.66146 z m -225.582424,-0.19843 -0.504029,-0.59532 0.595313,0.50403 c 0.327422,0.27721 0.595312,0.5451 0.595312,0.59532 0,0.21172 -0.212934,0.0554 -0.686596,-0.50403 z m -7.14375,-7.14375 -0.504029,-0.59532 0.595313,0.50403 c 0.327422,0.27721 0.595312,0.5451 0.595312,0.59532 0,0.21172 -0.212934,0.0554 -0.686596,-0.50403 z m 240.134504,-0.0662 c 0.34177,-0.3638 0.68094,-0.66146 0.7537,-0.66146 0.0728,0 -0.14735,0.29766 -0.48911,0.66146 -0.34176,0.3638 -0.68093,0.66146 -0.75369,0.66146 -0.0728,0 0.14734,-0.29766 0.4891,-0.66146 z m -243.152074,-3.175 c -0.181158,-0.21828 -0.269846,-0.39688 -0.197086,-0.39688 0.07276,0 0.280512,0.1786 0.461669,0.39688 0.181158,0.21828 0.269846,0.39687 0.197086,0.39687 -0.07276,0 -0.280512,-0.17859 -0.461669,-0.39687 z m 36.090486,-0.19844 -0.504029,-0.59531 0.595313,0.50403 c 0.327422,0.2772 0.595312,0.5451 0.595312,0.59531 0,0.21172 -0.212934,0.0554 -0.686596,-0.50403 z m -5.803977,-6.08541 -1.579218,-1.65365 1.653646,1.57922 c 1.536096,1.46695 1.774719,1.72807 1.579218,1.72807 -0.04094,0 -0.785077,-0.74414 -1.653646,-1.65364 z m -4.779356,-5.02709 -0.504029,-0.59531 0.595313,0.50403 c 0.559445,0.47366 0.715761,0.6866 0.504028,0.6866 -0.05021,0 -0.318098,-0.2679 -0.595312,-0.59532 z m 79.466282,0.42008 c 0.181901,-0.0734 0.479557,-0.0734 0.661459,0 0.181901,0.0734 0.03307,0.13346 -0.33073,0.13346 -0.363802,0 -0.51263,-0.0601 -0.330729,-0.13346 z m -16.867187,-7.62997 c -0.181158,-0.21828 -0.269846,-0.39688 -0.197085,-0.39688 0.07276,0 0.280511,0.1786 0.461668,0.39688 0.181158,0.21828 0.269846,0.39687 0.197086,0.39687 -0.07276,0 -0.280511,-0.17859 -0.461669,-0.39687 z m -2.38125,-2.11667 c -0.181157,-0.21828 -0.269846,-0.39687 -0.197085,-0.39687 0.07276,0 0.280511,0.17859 0.461668,0.39687 0.181158,0.21828 0.269846,0.39688 0.197086,0.39688 -0.07276,0 -0.280511,-0.1786 -0.461669,-0.39688 z m -2.645833,-2.38125 c -0.181158,-0.21828 -0.269846,-0.39687 -0.197086,-0.39687 0.07276,0 0.280512,0.17859 0.461669,0.39687 0.181158,0.21828 0.269846,0.39688 0.197086,0.39688 -0.07276,0 -0.280512,-0.1786 -0.461669,-0.39688 z m -2.803263,-2.57969 -0.504029,-0.59531 0.595313,0.50403 c 0.559445,0.47366 0.715761,0.6866 0.504028,0.6866 -0.05021,0 -0.318098,-0.2679 -0.595312,-0.59532 z m -63.255749,-2.97656 c -0.0011,-1.01865 0.04569,-1.46779 0.104138,-0.99809 0.05845,0.4697 0.05941,1.30314 0.0021,1.85209 -0.05728,0.54894 -0.105098,0.16465 -0.106272,-0.854 z m 60.502762,0.52917 c -0.181158,-0.21828 -0.269846,-0.39688 -0.197086,-0.39688 0.07276,0 0.280512,0.1786 0.461669,0.39688 0.181158,0.21828 0.269846,0.39687 0.197086,0.39687 -0.07276,0 -0.280512,-0.17859 -0.461669,-0.39687 z m 164.612609,-5.42396 c 0,-0.3638 0.0601,-0.51263 0.13345,-0.33073 0.0734,0.1819 0.0734,0.47956 0,0.66146 -0.0734,0.1819 -0.13345,0.0331 -0.13345,-0.33073 z m 0,-3.175 c 0,-0.3638 0.0601,-0.51263 0.13345,-0.33073 0.0734,0.1819 0.0734,0.47956 0,0.66146 -0.0734,0.1819 -0.13345,0.0331 -0.13345,-0.33073 z m -224.122969,-3.59392 c 0.0127,-0.30823 0.07539,-0.37092 0.159851,-0.15986 0.07643,0.191 0.06703,0.4192 -0.02088,0.50712 -0.08792,0.0879 -0.150453,-0.0684 -0.138964,-0.34726 z m 166.773759,-4.67431 -0.50403,-0.59531 0.59532,0.50403 c 0.32742,0.27721 0.59531,0.5451 0.59531,0.59531 0,0.21173 -0.21294,0.0554 -0.6866,-0.50403 z m 40.30293,-7.51574 c 0.17912,-0.0725 0.53631,-0.0769 0.79375,-0.01 0.25741,0.0671 0.11086,0.12638 -0.32571,0.13177 -0.43656,0.005 -0.64719,-0.0495 -0.46804,-0.12197 z m 2.38627,-0.002 c 0.1819,-0.0734 0.47956,-0.0734 0.66146,0 0.1819,0.0734 0.0331,0.13346 -0.33073,0.13346 -0.3638,0 -0.51263,-0.0601 -0.33073,-0.13346 z m 42.68494,-41.78327 c 0.0127,-0.30823 0.0754,-0.37092 0.15986,-0.15986 0.0764,0.191 0.067,0.41921 -0.0209,0.50712 -0.0879,0.0879 -0.15047,-0.0684 -0.13899,-0.34726 z m 0.26458,-2.64584 c 0.0127,-0.30822 0.0754,-0.37091 0.15986,-0.15985 0.0764,0.191 0.0671,0.4192 -0.0209,0.50712 -0.0879,0.0879 -0.15047,-0.0683 -0.13898,-0.34727 z m -311.65826,-0.37491 c 0,-0.3638 0.0601,-0.51263 0.13346,-0.33073 0.0734,0.1819 0.0734,0.47956 0,0.66146 -0.0734,0.1819 -0.13346,0.0331 -0.13346,-0.33073 z m 328.6125,0 c 0,-0.3638 0.0601,-0.51263 0.13345,-0.33073 0.0734,0.1819 0.0734,0.47956 0,0.66146 -0.0734,0.1819 -0.13345,0.0331 -0.13345,-0.33073 z m -16.66875,-3.175 c 0,-0.3638 0.0601,-0.51263 0.13345,-0.33073 0.0734,0.1819 0.0734,0.47956 0,0.66146 -0.0734,0.1819 -0.13345,0.0331 -0.13345,-0.33073 z m -312.19853,-1.19063 c 0.005,-0.43656 0.0647,-0.58312 0.13178,-0.32569 0.0671,0.25743 0.0627,0.61462 -0.01,0.79375 -0.0725,0.17913 -0.12736,-0.0315 -0.12197,-0.46806 z m 329.14165,0 c 0.005,-0.43656 0.0647,-0.58312 0.13179,-0.32569 0.0671,0.25743 0.0627,0.61462 -0.01,0.79375 -0.0725,0.17913 -0.12734,-0.0315 -0.12197,-0.46806 z m -255.639062,-3.67177 c 0,-0.0549 0.20836,-0.2633 0.463021,-0.46302 0.419645,-0.329107 0.429004,-0.319748 0.0999,0.0999 -0.345643,0.44073 -0.562917,0.58088 -0.562917,0.36312 z M 206.34886,96.860769 c 0,-1.74625 0.0419,-2.495055 0.0942,-1.664014 0.0523,0.831043 0.0528,2.259793 0,3.174999 -0.0518,0.91521 -0.0946,0.235265 -0.0951,-1.510985 z m -237.035387,1.719792 c 0.263391,-0.291042 0.538422,-0.529167 0.611183,-0.529167 0.07276,0 -0.08321,0.238125 -0.346599,0.529167 -0.26339,0.291042 -0.538422,0.529167 -0.611182,0.529167 -0.07276,0 0.08321,-0.238125 0.346598,-0.529167 z m -35.586457,-1.62079 c 0,-0.07276 0.357187,-0.474498 0.79375,-0.892752 0.436562,-0.418253 0.79375,-0.700928 0.79375,-0.628168 0,0.07276 -0.357188,0.474498 -0.79375,0.892752 -0.436563,0.418253 -0.79375,0.700929 -0.79375,0.628168 z m -12.633277,-1.686502 c -0.0029,-0.582083 0.04884,-0.851363 0.115067,-0.598397 0.06622,0.252965 0.06863,0.729215 0.0053,1.058333 -0.06329,0.329118 -0.11747,0.122148 -0.120407,-0.459936 z m 25.1301,-4.025511 c 0.397577,-0.06037 1.111952,-0.06158 1.5875,-0.0027 0.475549,0.05889 0.15026,0.10828 -0.722865,0.109765 -0.873125,0.0016 -1.262211,-0.04669 -0.864635,-0.107067 z M 206.00414,89.165805 c 0.0127,-0.308226 0.0754,-0.370919 0.15986,-0.159853 0.0764,0.190995 0.067,0.4192 -0.0209,0.507119 -0.0879,0.08792 -0.15047,-0.06835 -0.13899,-0.347266 z m -312.17763,-0.771702 c 0.005,-0.436563 0.0647,-0.583126 0.13178,-0.325694 0.0671,0.257431 0.0627,0.614619 -0.01,0.79375 -0.0725,0.179131 -0.12736,-0.03149 -0.12197,-0.468056 z m 329.14165,0 c 0.005,-0.436563 0.0647,-0.583126 0.13179,-0.325694 0.0671,0.257431 0.0627,0.614619 -0.01,0.79375 -0.0725,0.179131 -0.12734,-0.03149 -0.12197,-0.468056 z M -79.158282,86.938895 c 0,-0.800365 0.0496,-1.127787 0.110223,-0.727605 0.06062,0.400183 0.06062,1.055027 0,1.455209 -0.06062,0.400182 -0.110223,0.07276 -0.110223,-0.727604 z m -26.760428,-2.910417 c 0,-0.363802 0.0601,-0.51263 0.13346,-0.330729 0.0734,0.181901 0.0734,0.479557 0,0.661458 -0.0734,0.181901 -0.13346,0.03307 -0.13346,-0.330729 z m 328.6125,0 c 0,-0.363802 0.0601,-0.51263 0.13345,-0.330729 0.0734,0.181901 0.0734,0.479557 0,0.661458 -0.0734,0.181901 -0.13345,0.03307 -0.13345,-0.330729 z m -17.21882,-0.683506 c 0.0127,-0.308226 0.0754,-0.370919 0.15986,-0.159853 0.0764,0.190994 0.067,0.4192 -0.0209,0.507119 -0.0879,0.08792 -0.15047,-0.06835 -0.13899,-0.347266 z m -53.51632,-1.878483 c 0.191,-0.07643 0.4192,-0.06703 0.50712,0.02088 0.0879,0.08792 -0.0683,0.150453 -0.34726,0.138965 -0.30823,-0.0127 -0.37092,-0.07539 -0.15986,-0.159851 z m 6.33347,0.0055 c 0.1819,-0.0734 0.47955,-0.0734 0.66145,0 0.1819,0.0734 0.0331,0.133453 -0.33073,0.133453 -0.3638,0 -0.51263,-0.06006 -0.33072,-0.133453 z M 202.4725,80.15075 c 0.17913,-0.07247 0.53631,-0.07689 0.79375,-0.0098 0.25742,0.06708 0.11086,0.126381 -0.3257,0.131773 -0.43656,0.0054 -0.6472,-0.04949 -0.46805,-0.12197 z m -307.88293,-1.832864 c 0.0127,-0.308227 0.0754,-0.37092 0.15985,-0.159853 0.0764,0.190994 0.067,0.4192 -0.0209,0.507118 -0.0879,0.08792 -0.15045,-0.06835 -0.13896,-0.347265 z m 26.244925,-2.491494 c 0,-0.654844 0.0516,-0.922734 0.114662,-0.595313 0.06307,0.327422 0.06307,0.863204 0,1.190625 -0.06306,0.327422 -0.114662,0.05953 -0.114662,-0.595312 z M 193.81243,74.63577 c -0.18116,-0.218281 -0.26985,-0.396875 -0.19709,-0.396875 0.0728,0 0.28051,0.178594 0.46167,0.396875 0.18116,0.218281 0.26985,0.396875 0.19709,0.396875 -0.0728,0 -0.28051,-0.178594 -0.46167,-0.396875 z M 27.918681,70.66702 c -0.181158,-0.218281 -0.269846,-0.396875 -0.197086,-0.396875 0.07276,0 0.280511,0.178594 0.461669,0.396875 0.181158,0.218281 0.269846,0.396875 0.197085,0.396875 -0.07276,0 -0.280511,-0.178594 -0.461668,-0.396875 z m -106.84989,-0.396875 c 0,-0.363802 0.06005,-0.51263 0.133453,-0.330729 0.0734,0.181901 0.0734,0.479557 0,0.661458 -0.0734,0.181901 -0.133453,0.03307 -0.133453,-0.330729 z m 197.379159,-0.79375 c 0,-0.363802 0.0601,-0.51263 0.13346,-0.330729 0.0734,0.181901 0.0734,0.479557 0,0.661458 -0.0734,0.181901 -0.13346,0.03307 -0.13346,-0.330729 z M 21.89941,68.764843 c 0.254661,-0.06655 0.67138,-0.06655 0.926042,0 0.254661,0.06655 0.0463,0.121002 -0.463021,0.121002 -0.509323,0 -0.717683,-0.05445 -0.463021,-0.121002 z m 111.58802,0.08249 c 0,-0.05494 0.20836,-0.2633 0.46302,-0.46302 0.41964,-0.329108 0.429,-0.319749 0.0999,0.0999 -0.34565,0.440729 -0.56292,0.580887 -0.56292,0.363124 z m -14.73468,-6.382395 c 0.002,-0.873125 0.0509,-1.198414 0.10976,-0.722865 0.0589,0.475548 0.0577,1.189923 -0.003,1.587499 -0.0604,0.397577 -0.10855,0.0085 -0.10706,-0.864634 z m -3.25699,-6.846771 c 0,-0.05494 0.20836,-0.2633 0.46302,-0.463021 0.41965,-0.329107 0.42901,-0.319749 0.0999,0.0999 -0.34564,0.44073 -0.56292,0.580888 -0.56292,0.363125 z m 3.46047,-0.848193 c 0.0127,-0.308227 0.0754,-0.37092 0.15986,-0.159854 0.0764,0.190995 0.067,0.419201 -0.0209,0.507119 -0.0879,0.08792 -0.15045,-0.06835 -0.13897,-0.347265 z m 48.64242,-5.335765 -0.64143,-0.727604 0.7276,0.641432 c 0.68006,0.599517 0.84895,0.813776 0.64143,0.813776 -0.0474,0 -0.37481,-0.327422 -0.7276,-0.727604 z M 162.0833,48.15539 c 0.0127,-0.308227 0.0754,-0.37092 0.15986,-0.159854 0.0764,0.190995 0.0671,0.419201 -0.0209,0.507119 -0.0879,0.08792 -0.15047,-0.06835 -0.13898,-0.347265 z M -6.1464229,44.687761 c 0.2546615,-0.06655 0.6713802,-0.06655 0.9260417,0 0.2546614,0.06655 0.046302,0.121001 -0.4630208,0.121001 -0.509323,0 -0.7176823,-0.05445 -0.4630209,-0.121001 z m 48.3325769,-2.397303 -0.641432,-0.727604 0.727604,0.641432 c 0.400182,0.35279 0.727604,0.680212 0.727604,0.727604 0,0.207508 -0.214259,0.03862 -0.813776,-0.641432 z m -24.600466,-2.645833 -0.911799,-0.992187 0.992188,0.911799 c 0.545703,0.501488 0.992187,0.947973 0.992187,0.992187 0,0.202041 -0.223896,0.0117 -1.072576,-0.911799 z m 176.755902,0.595313 c -0.18116,-0.218282 -0.26984,-0.396875 -0.19708,-0.396875 0.0728,0 0.28051,0.178593 0.46167,0.396875 0.18116,0.218281 0.26985,0.396875 0.19709,0.396875 -0.0728,0 -0.28052,-0.178594 -0.46168,-0.396875 z m -69.58541,-2.116667 c 0.34177,-0.363802 0.68094,-0.661458 0.7537,-0.661458 0.0728,0 -0.14734,0.297656 -0.48912,0.661458 -0.34177,0.363802 -0.68094,0.661458 -0.7537,0.661458 -0.0728,0 0.14734,-0.297656 0.48912,-0.661458 z M 8.5544883,35.164407 c 0.1909948,-0.07643 0.4192005,-0.06703 0.5071189,0.02088 0.087918,0.08792 -0.068352,0.150453 -0.3472656,0.138965 -0.3082263,-0.0127 -0.3709194,-0.07539 -0.1598533,-0.159851 z M 23.420764,33.889938 c 0.341776,-0.363802 0.68094,-0.661459 0.7537,-0.661459 0.07276,0 -0.147341,0.297657 -0.489117,0.661459 -0.341775,0.363802 -0.680939,0.661458 -0.7537,0.661458 -0.07276,0 0.147342,-0.297656 0.489117,-0.661458 z m 96.969786,-3.571875 c 0.26339,-0.291042 0.53843,-0.529167 0.61119,-0.529167 0.0728,0 -0.0832,0.238125 -0.3466,0.529167 -0.26339,0.291042 -0.53842,0.529167 -0.61119,0.529167 -0.0728,0 0.0832,-0.238125 0.3466,-0.529167 z M 108.6166,28.862855 c -0.18116,-0.218282 -0.26985,-0.396875 -0.19709,-0.396875 0.0728,0 0.28051,0.178593 0.46167,0.396875 0.18116,0.218281 0.26984,0.396875 0.19708,0.396875 -0.0728,0 -0.28051,-0.178594 -0.46166,-0.396875 z M -6.7417354,21.983688 c 0.4936543,-0.509323 0.9570853,-0.926042 1.0298457,-0.926042 0.07276,0 -0.271608,0.416719 -0.7652623,0.926042 -0.4936543,0.509323 -0.9570852,0.926042 -1.0298457,0.926042 -0.07276,0 0.2716081,-0.416719 0.7652623,-0.926042 z M 27.970261,21.719105 c 0.0054,-0.436563 0.06469,-0.583126 0.131773,-0.325694 0.06708,0.257431 0.06267,0.614619 -0.0098,0.79375 -0.07248,0.17913 -0.127362,-0.03149 -0.12197,-0.468056 z m 14.785975,-0.02204 c 0.0127,-0.308226 0.07539,-0.370919 0.159851,-0.159853 0.07643,0.190994 0.06703,0.4192 -0.02088,0.507119 -0.08792,0.08792 -0.150453,-0.06835 -0.138965,-0.347266 z M 27.970261,19.867021 c 0.0054,-0.436562 0.06469,-0.583125 0.131773,-0.325694 0.06708,0.257432 0.06267,0.614619 -0.0098,0.79375 -0.07248,0.179131 -0.127362,-0.03149 -0.12197,-0.468056 z m 97.434929,-0.46302 -1.04589,-1.124479 1.12448,1.045884 c 1.04576,0.972661 1.24607,1.203074 1.04589,1.203074 -0.0432,0 -0.54925,-0.506016 -1.12448,-1.124479 z M 20.266653,17.463724 c 0.0127,-0.308227 0.07539,-0.37092 0.159851,-0.159853 0.07643,0.190994 0.06703,0.4192 -0.02088,0.507118 -0.08792,0.08792 -0.150453,-0.06835 -0.138964,-0.347265 z m -10.075055,0.05444 c 0,-0.05494 0.208359,-0.2633 0.46302,-0.463021 0.419645,-0.329107 0.429004,-0.319749 0.0999,0.0999 -0.345644,0.44073 -0.562917,0.580888 -0.562917,0.363125 z m -62.441666,-2.910416 c 0,-0.05494 0.20836,-0.263301 0.463021,-0.463021 0.419645,-0.329108 0.429003,-0.319749 0.0999,0.0999 -0.345644,0.440729 -0.562917,0.580887 -0.562917,0.363125 z m 2.116667,-2.38125 c 0,-0.05494 0.208359,-0.2633 0.463021,-0.463021 0.419645,-0.329107 0.429003,-0.319749 0.0999,0.0999 -0.345644,0.44073 -0.562917,0.580887 -0.562917,0.363125 z m 151.922411,-0.56156 c 0.005,-0.436562 0.0647,-0.583125 0.13177,-0.325694 0.0671,0.257432 0.0627,0.614619 -0.01,0.79375 -0.0725,0.179131 -0.12737,-0.03149 -0.12197,-0.468056 z m 0,-2.6458329 c 0.005,-0.4365625 0.0647,-0.5831258 0.13177,-0.3256941 0.0671,0.2574316 0.0627,0.6146191 -0.01,0.79375 -0.0725,0.1791308 -0.12737,-0.031493 -0.12197,-0.4680559 z M -46.958401,8.7545218 c 0.341775,-0.3638021 0.680939,-0.6614583 0.7537,-0.6614583 0.07276,0 -0.147341,0.2976562 -0.489117,0.6614583 -0.341775,0.3638021 -0.680939,0.6614583 -0.7537,0.6614583 -0.07276,0 0.147341,-0.2976562 0.489117,-0.6614583 z m 8.334375,-8.59895811 c 2.324922,-2.32833329 4.286662,-4.23333319 4.359423,-4.23333319 0.07276,0 -1.769917,1.9049999 -4.09484,4.23333319 -2.324923,2.32833331 -4.286663,4.23333321 -4.359423,4.23333321 -0.07276,0 1.769917,-1.9049999 4.09484,-4.23333321 z M -2.9957937,-1.6965196 c 0,-0.3638021 0.060055,-0.5126302 0.1334532,-0.3307291 0.073398,0.181901 0.073398,0.4795572 0,0.6614583 -0.073398,0.181901 -0.1334532,0.033073 -0.1334532,-0.3307292 z M 111.4774,-1.3480925 c 0.191,-0.07643 0.4192,-0.067032 0.50712,0.020876 0.0879,0.087918 -0.0684,0.1504526 -0.34726,0.1389644 -0.30823,-0.0127 -0.37092,-0.07539 -0.15986,-0.1598506 z m 56.14128,-1.8036354 c -0.18116,-0.2182812 -0.26985,-0.396875 -0.19709,-0.396875 0.0728,0 0.28051,0.1785938 0.46167,0.396875 0.18116,0.2182813 0.26985,0.396875 0.19709,0.396875 -0.0728,0 -0.28051,-0.1785937 -0.46167,-0.396875 z m -4.90474,-5.2255207 -1.31297,-1.3890624 1.38906,1.3129709 c 1.29075,1.2200361 1.5104,1.465154 1.31297,1.465154 -0.0419,0 -0.66693,-0.6250781 -1.38906,-1.3890625 z m -192.474425,-0.066146 c 0.341776,-0.3638021 0.68094,-0.6614583 0.7537,-0.6614583 0.07276,0 -0.147341,0.2976562 -0.489117,0.6614583 -0.341775,0.3638021 -0.680939,0.6614583 -0.7537,0.6614583 -0.07276,0 0.147342,-0.2976562 0.489117,-0.6614583 z m 4.101042,-3.8364584 c 0.26339,-0.291041 0.538421,-0.529166 0.611182,-0.529166 0.07276,0 -0.08321,0.238125 -0.346599,0.529166 -0.26339,0.291042 -0.538422,0.529167 -0.611182,0.529167 -0.07276,0 0.08321,-0.238125 0.346599,-0.529167 z m 183.331113,-0.859895 -0.50403,-0.595313 0.59531,0.504029 c 0.55943,0.473662 0.71575,0.686596 0.50403,0.686596 -0.0502,0 -0.31811,-0.267891 -0.59531,-0.595312 z m -222.621738,0.230833 c 0,-0.05494 0.20836,-0.2633 0.463021,-0.463021 0.419645,-0.329107 0.429004,-0.319749 0.0999,0.0999 -0.345643,0.44073 -0.562917,0.580887 -0.562917,0.363125 z m 246.327078,-0.296979 c -0.18116,-0.218282 -0.26985,-0.396875 -0.19709,-0.396875 0.0728,0 0.28051,0.178593 0.46167,0.396875 0.18116,0.218281 0.26985,0.396875 0.19709,0.396875 -0.0728,0 -0.28051,-0.178594 -0.46167,-0.396875 z m -203.861453,-1.984375 c 0.26339,-0.291042 0.538421,-0.529167 0.611182,-0.529167 0.07276,0 -0.08321,0.238125 -0.346599,0.529167 -0.26339,0.291041 -0.538422,0.529166 -0.611182,0.529166 -0.07276,0 0.08321,-0.238125 0.346599,-0.529166 z m 200.931013,-1.256771 -0.64143,-0.727604 0.7276,0.641432 c 0.68006,0.599517 0.84894,0.813776 0.64143,0.813776 -0.0474,0 -0.37481,-0.327422 -0.7276,-0.727604 z m -239.957054,-0.198438 c 0.341775,-0.363802 0.680939,-0.661458 0.7537,-0.661458 0.07276,0 -0.147341,0.297656 -0.489117,0.661458 -0.341775,0.363803 -0.68094,0.661459 -0.7537,0.661459 -0.07276,0 0.147341,-0.297656 0.489117,-0.661459 z m 41.274999,-0.496771 c 0,-0.05494 0.208359,-0.2633 0.463021,-0.46302 0.419645,-0.329108 0.429003,-0.319749 0.0999,0.0999 -0.345644,0.440729 -0.562917,0.580887 -0.562917,0.363124 z m 2.645833,-2.38125 c 0,-0.05494 0.20836,-0.2633 0.463021,-0.46302 0.419645,-0.329108 0.429003,-0.319749 0.0999,0.0999 -0.345644,0.440729 -0.562917,0.580887 -0.562917,0.363124 z m 2.116667,-1.852083 c 0,-0.05494 0.208359,-0.2633 0.463021,-0.463021 0.419645,-0.329107 0.429003,-0.319749 0.0999,0.0999 -0.345644,0.44073 -0.562917,0.580888 -0.562917,0.363125 z m -39.158333,-2.149062 c 0.341776,-0.363802 0.68094,-0.661458 0.7537,-0.661458 0.07276,0 -0.147341,0.297656 -0.489116,0.661458 -0.341776,0.363802 -0.68094,0.661458 -0.7537,0.661458 -0.07276,0 0.147341,-0.297656 0.489116,-0.661458 z m 225.669548,-0.330729 -0.64143,-0.727604 0.72761,0.641432 c 0.40018,0.35279 0.7276,0.680212 0.7276,0.727604 0,0.207507 -0.21426,0.03862 -0.81378,-0.641432 z m -222.494548,-2.547292 c 0,-0.05494 0.20836,-0.2633 0.463021,-0.463021 0.419645,-0.329107 0.429003,-0.319749 0.0999,0.0999 -0.345644,0.44073 -0.562917,0.580888 -0.562917,0.363125 z m 219.339578,-0.296979 c -0.18116,-0.218281 -0.26985,-0.396875 -0.19709,-0.396875 0.0728,0 0.28051,0.178594 0.46167,0.396875 0.18116,0.218281 0.26985,0.396875 0.19709,0.396875 -0.0728,0 -0.28051,-0.178594 -0.46167,-0.396875 z M -9.1229853,-26.931832 c 0,-0.05494 0.2083594,-0.2633 0.4630208,-0.46302 0.419645,-0.329108 0.4290034,-0.319749 0.099896,0.0999 -0.3456437,0.440729 -0.5629169,0.580887 -0.5629169,0.363124 z M 92.141249,-28.592986 c 0.17913,-0.07248 0.536318,-0.07689 0.793749,-0.0098 0.257432,0.06708 0.110869,0.126381 -0.325694,0.131773 -0.436562,0.0054 -0.647186,-0.04949 -0.468055,-0.121971 z m -5.551215,-0.266261 c 0.181901,-0.0734 0.479557,-0.0734 0.661458,0 0.181901,0.0734 0.03307,0.133453 -0.330729,0.133453 -0.363802,0 -0.51263,-0.06005 -0.330729,-0.133453 z m -85.3942695,-0.48623 c -0.1811576,-0.218281 -0.26984591,-0.396875 -0.19708549,-0.396875 0.0727604,0 0.28051129,0.178594 0.46166879,0.396875 0.1811576,0.218281 0.2698459,0.396875 0.1970855,0.396875 -0.07276,0 -0.2805113,-0.178594 -0.4616688,-0.396875 z M 15.962821,-45.004341 c 0.190995,-0.07643 0.419201,-0.06703 0.507119,0.02087 0.08792,0.08792 -0.06835,0.150453 -0.347265,0.138965 -0.308227,-0.0127 -0.37092,-0.07539 -0.159854,-0.159851 z m 24.870833,0 c 0.190995,-0.07643 0.419201,-0.06703 0.507119,0.02087 0.08792,0.08792 -0.06835,0.150453 -0.347265,0.138965 -0.308227,-0.0127 -0.37092,-0.07539 -0.159854,-0.159851 z M 20.70375,-45.261736 c 0.179131,-0.07248 0.536318,-0.07689 0.79375,-0.0098 0.257432,0.06708 0.110868,0.126381 -0.325694,0.131773 -0.436563,0.0054 -0.647187,-0.04949 -0.468056,-0.12197 z m 15.880035,-0.0016 c 0.181901,-0.0734 0.479557,-0.0734 0.661458,0 0.181901,0.0734 0.03307,0.133453 -0.330729,0.133453 -0.363802,0 -0.51263,-0.06006 -0.330729,-0.133453 z m 36.793619,-5.561761 c 0.190994,-0.07643 0.4192,-0.06703 0.507119,0.02087 0.08792,0.08792 -0.06835,0.150453 -0.347266,0.138965 -0.308226,-0.0127 -0.370919,-0.07539 -0.159853,-0.159851 z m -25.664583,-0.264584 c 0.190995,-0.07643 0.4192,-0.06703 0.507119,0.02088 0.08792,0.08792 -0.06835,0.150452 -0.347266,0.138964 -0.308226,-0.0127 -0.370919,-0.07539 -0.159853,-0.15985 z m 22.754166,0 c 0.190995,-0.07643 0.419201,-0.06703 0.507119,0.02088 0.08792,0.08792 -0.06835,0.150452 -0.347266,0.138964 -0.308226,-0.0127 -0.370919,-0.07539 -0.159853,-0.15985 z m -19.05,-0.264583 c 0.190995,-0.07643 0.419201,-0.06703 0.507119,0.02087 0.08792,0.08792 -0.06835,0.150453 -0.347265,0.138965 -0.308227,-0.0127 -0.37092,-0.07539 -0.159854,-0.159851 z m 15.064714,0.0055 c 0.181901,-0.0734 0.479557,-0.0734 0.661458,0 0.181901,0.0734 0.03307,0.133453 -0.330729,0.133453 -0.363802,0 -0.51263,-0.06006 -0.330729,-0.133453 z m -20.6375,-16.66875 c 0.181901,-0.0734 0.479557,-0.0734 0.661458,0 0.181901,0.0734 0.03307,0.133453 -0.330729,0.133453 -0.363802,0 -0.51263,-0.06005 -0.330729,-0.133453 z m 24.60625,0 c 0.181901,-0.0734 0.479557,-0.0734 0.661458,0 0.181901,0.0734 0.03307,0.133453 -0.330729,0.133453 -0.363802,0 -0.51263,-0.06005 -0.330729,-0.133453 z m -20.377952,-0.262904 c 0.179131,-0.07248 0.536319,-0.07689 0.79375,-0.0098 0.257432,0.06708 0.110869,0.126381 -0.325694,0.131773 -0.436562,0.0054 -0.647187,-0.04949 -0.468056,-0.121969 z m 15.875,0 c 0.179131,-0.07248 0.536318,-0.07689 0.79375,-0.0098 0.257432,0.06708 0.110868,0.126381 -0.325694,0.131773 -0.436563,0.0054 -0.647187,-0.04949 -0.468056,-0.121969 z"
           id="path62"
           inkscape:connector-curvature="0" />
        <path
           style="fill:#b2dbe2;stroke-width:0.26458332"
           d="m 51.416987,260.85399 c 0.190995,-0.0764 0.419201,-0.067 0.507119,0.0209 0.08792,0.0879 -0.06835,0.15047 -0.347265,0.13898 -0.308227,-0.0127 -0.37092,-0.0754 -0.159854,-0.15986 z m 13.758334,0 c 0.190994,-0.0764 0.4192,-0.067 0.507118,0.0209 0.08792,0.0879 -0.06835,0.15047 -0.347265,0.13898 -0.308227,-0.0127 -0.37092,-0.0754 -0.159853,-0.15986 z m -120.884998,-45.79062 -0.641432,-0.7276 0.727604,0.64143 c 0.680056,0.59951 0.848939,0.81377 0.641432,0.81377 -0.04739,0 -0.374814,-0.32742 -0.727604,-0.7276 z m 227.958567,0.19844 c 0.26339,-0.29104 0.53842,-0.52917 0.61118,-0.52917 0.0728,0 -0.0832,0.23813 -0.3466,0.52917 -0.26339,0.29104 -0.53843,0.52916 -0.61119,0.52916 -0.0728,0 0.0832,-0.23812 0.34661,-0.52916 z M 62.335402,210.60956 c 0.0127,-0.30824 0.07539,-0.37092 0.159851,-0.15986 0.07643,0.191 0.06703,0.4192 -0.02088,0.50713 -0.08792,0.0879 -0.150452,-0.0684 -0.138964,-0.34727 z m -122.944983,-0.44098 -0.504028,-0.59531 0.595312,0.50403 c 0.327422,0.2772 0.595313,0.54509 0.595313,0.59531 0,0.21172 -0.212934,0.0554 -0.686597,-0.50403 z m 237.753261,0.23082 c 0,-0.0549 0.20836,-0.26329 0.46302,-0.46302 0.41965,-0.32909 0.42899,-0.31975 0.0999,0.0999 -0.34566,0.44071 -0.56293,0.58089 -0.56293,0.36311 z M -36.375068,197.66702 c -0.181158,-0.21828 -0.269846,-0.39688 -0.197086,-0.39688 0.07276,0 0.280512,0.1786 0.461669,0.39688 0.181158,0.21828 0.269846,0.39687 0.197086,0.39687 -0.07276,0 -0.280512,-0.17859 -0.461669,-0.39687 z m 75.604686,-2.68878 c 0.181901,-0.0734 0.479557,-0.0734 0.661458,0 0.181901,0.0734 0.03307,0.13346 -0.330729,0.13346 -0.363802,0 -0.51263,-0.0601 -0.330729,-0.13346 z m 2.133203,-0.006 c 0.190995,-0.0764 0.419201,-0.067 0.507119,0.0209 0.08792,0.0879 -0.06835,0.15047 -0.347266,0.13898 -0.308226,-0.0127 -0.370919,-0.0754 -0.159853,-0.15986 z M 177.48033,170.81181 c 0,-0.65484 0.0516,-0.92274 0.11465,-0.59531 0.0631,0.32742 0.0631,0.8632 0,1.19062 -0.0631,0.32742 -0.11465,0.0595 -0.11465,-0.59531 z M 161.7317,153.43866 c 0.1819,-0.0734 0.47956,-0.0734 0.66146,0 0.1819,0.0734 0.0331,0.13346 -0.33073,0.13346 -0.3638,0 -0.51263,-0.0601 -0.33073,-0.13346 z m -50.15311,-11.86331 c 0.005,-0.43656 0.0647,-0.58312 0.13178,-0.32569 0.0671,0.25743 0.0627,0.61462 -0.01,0.79375 -0.0725,0.17913 -0.12736,-0.0315 -0.12197,-0.46806 z M -52.971756,130.06598 c 0,-0.65485 0.0516,-0.92274 0.114663,-0.59532 0.06307,0.32743 0.06307,0.86321 0,1.19063 -0.06306,0.32742 -0.114663,0.0595 -0.114663,-0.59531 z m -53.232424,-26.87726 c 0.0127,-0.30822 0.0754,-0.37092 0.15985,-0.15985 0.0764,0.19099 0.067,0.4192 -0.0209,0.50712 -0.0879,0.0879 -0.15045,-0.0684 -0.13896,-0.34727 z m 329.14165,0 c 0.0127,-0.30822 0.0754,-0.37092 0.15986,-0.15985 0.0764,0.19099 0.067,0.4192 -0.0209,0.50712 -0.0879,0.0879 -0.15047,-0.0684 -0.13899,-0.34727 z m -16.63806,-2.62378 c 0.005,-0.43657 0.0647,-0.58313 0.13179,-0.3257 0.0671,0.25743 0.0627,0.61462 -0.01,0.79375 -0.0725,0.17913 -0.12734,-0.0315 -0.12197,-0.46805 z M -78.952095,96.574138 c 0.0127,-0.308226 0.07539,-0.370919 0.159851,-0.159853 0.07643,0.190995 0.06703,0.419201 -0.02088,0.507119 -0.08792,0.08792 -0.150453,-0.06835 -0.138965,-0.347266 z M 206.28962,93.288894 c 0,-0.363802 0.0601,-0.51263 0.13346,-0.330729 0.0734,0.181901 0.0734,0.479558 0,0.661459 -0.0734,0.181901 -0.13346,0.03307 -0.13346,-0.33073 z m -312.4938,-3.858505 c 0.0127,-0.308227 0.0754,-0.37092 0.15985,-0.159854 0.0764,0.190995 0.067,0.419201 -0.0209,0.507119 -0.0879,0.08792 -0.15045,-0.06835 -0.13896,-0.347265 z m 329.14165,0 c 0.0127,-0.308227 0.0754,-0.37092 0.15986,-0.159854 0.0764,0.190995 0.067,0.419201 -0.0209,0.507119 -0.0879,0.08792 -0.15047,-0.06835 -0.13899,-0.347265 z M -79.185987,88.92327 c 0.0054,-0.436563 0.06469,-0.583126 0.131773,-0.325695 0.06708,0.257432 0.06267,0.61462 -0.0098,0.79375 -0.07248,0.179131 -0.127363,-0.03149 -0.121971,-0.468055 z m -0.03069,-14.574131 c 0.0127,-0.308226 0.07539,-0.370919 0.15985,-0.159853 0.07643,0.190994 0.06703,0.4192 -0.02088,0.507119 -0.08792,0.08792 -0.150453,-0.06835 -0.138965,-0.347266 z M 118.72234,60.34827 c 0.005,-0.436562 0.0647,-0.583125 0.13178,-0.325694 0.0671,0.257432 0.0627,0.614619 -0.01,0.79375 -0.0725,0.179131 -0.12736,-0.03149 -0.12197,-0.468056 z M 25.293736,55.828306 c 0.0127,-0.308226 0.07539,-0.370919 0.159851,-0.159853 0.07643,0.190995 0.06703,0.4192 -0.02088,0.507119 -0.08792,0.08792 -0.150452,-0.06835 -0.138964,-0.347266 z m 82.285414,-1.852083 c 0.0127,-0.308227 0.0754,-0.37092 0.15985,-0.159853 0.0764,0.190994 0.067,0.4192 -0.0209,0.507118 -0.0879,0.08792 -0.15046,-0.06835 -0.13897,-0.347265 z m 8.92534,-21.986816 c 0.19099,-0.07643 0.4192,-0.06703 0.50712,0.02087 0.0879,0.08792 -0.0684,0.150453 -0.34727,0.138965 -0.30823,-0.0127 -0.37092,-0.07539 -0.15985,-0.159851 z m -73.748254,-11.0861 c 0.0127,-0.308226 0.07539,-0.370919 0.159851,-0.159853 0.07643,0.190995 0.06703,0.4192 -0.02088,0.507119 -0.08792,0.08792 -0.150453,-0.06835 -0.138965,-0.347266 z m 0,-1.322917 c 0.0127,-0.308226 0.07539,-0.370919 0.159851,-0.159853 0.07643,0.190995 0.06703,0.419201 -0.02088,0.507119 -0.08792,0.08792 -0.150453,-0.06835 -0.138965,-0.347266 z M 20.266653,16.669974 c 0.0127,-0.308227 0.07539,-0.37092 0.159851,-0.159853 0.07643,0.190994 0.06703,0.4192 -0.02088,0.507118 -0.08792,0.08792 -0.150453,-0.06835 -0.138964,-0.347265 z m 0,-1.322917 c 0.0127,-0.308226 0.07539,-0.370919 0.159851,-0.159853 0.07643,0.190995 0.06703,0.4192 -0.02088,0.507119 -0.08792,0.08792 -0.150453,-0.06835 -0.138964,-0.347266 z M -43.518818,5.0827508 c 0,-0.054941 0.208359,-0.2633001 0.463021,-0.4630208 0.419645,-0.3291073 0.429003,-0.319749 0.0999,0.099896 -0.345644,0.4407296 -0.562917,0.5808874 -0.562917,0.3631247 z m 9.657292,-9.689687 c 0.26339,-0.2910416 0.538421,-0.5291666 0.611182,-0.5291666 0.07276,0 -0.08321,0.238125 -0.346599,0.5291666 -0.26339,0.2910417 -0.538422,0.5291667 -0.611182,0.5291667 -0.07276,0 0.08321,-0.238125 0.346599,-0.5291667 z m 198.549756,-1.7859374 -0.64143,-0.7276042 0.72761,0.641432 c 0.40018,0.3527901 0.7276,0.680212 0.7276,0.7276042 0,0.2075074 -0.21426,0.038624 -0.81378,-0.641432 z M -28.966735,-9.2047488 c 0,-0.054941 0.208359,-0.2633001 0.463021,-0.4630208 0.419645,-0.3291073 0.429003,-0.319749 0.0999,0.099896 -0.345644,0.4407296 -0.562917,0.5808874 -0.562917,0.3631247 z M 161.00409,-10.030894 c -0.18116,-0.218282 -0.26984,-0.396875 -0.19708,-0.396875 0.0728,0 0.28051,0.178593 0.46167,0.396875 0.18116,0.2182809 0.26985,0.3968746 0.19709,0.3968746 -0.0728,0 -0.28052,-0.1785937 -0.46168,-0.3968746 z m 16.24674,-7.606771 -0.50403,-0.595312 0.59532,0.504028 c 0.55943,0.473662 0.71575,0.686596 0.50403,0.686596 -0.0502,0 -0.31811,-0.26789 -0.59532,-0.595312 z m -237.438398,-0.330729 c 0.341776,-0.363802 0.68094,-0.661458 0.7537,-0.661458 0.07276,0 -0.147341,0.297656 -0.489116,0.661458 -0.341776,0.363802 -0.68094,0.661458 -0.7537,0.661458 -0.07276,0 0.147341,-0.297656 0.489116,-0.661458 z m 4.365625,-4.365625 c 0.26339,-0.291042 0.538422,-0.529167 0.611182,-0.529167 0.07276,0 -0.08321,0.238125 -0.346598,0.529167 -0.26339,0.291042 -0.538422,0.529167 -0.611183,0.529167 -0.07276,0 0.08321,-0.238125 0.346599,-0.529167 z m 228.045693,-0.330729 -0.50403,-0.595313 0.59531,0.504029 c 0.55944,0.473662 0.71575,0.686596 0.50403,0.686596 -0.0502,0 -0.31811,-0.26789 -0.59531,-0.595312 z m -80.85468,-5.935427 c 0.190995,-0.07643 0.419201,-0.06703 0.507119,0.02088 0.08792,0.08792 -0.06835,0.150452 -0.347266,0.138964 -0.308226,-0.0127 -0.370919,-0.07539 -0.159853,-0.159851 z M 22.031702,-45.263413 c 0.181901,-0.0734 0.479557,-0.0734 0.661458,0 0.181901,0.0734 0.03307,0.133453 -0.330729,0.133453 -0.363802,0 -0.51263,-0.06006 -0.330729,-0.133453 z m 13.774869,-0.0055 c 0.190995,-0.07643 0.419201,-0.06703 0.507119,0.02088 0.08792,0.08792 -0.06835,0.150453 -0.347266,0.138964 -0.308226,-0.0127 -0.370919,-0.07539 -0.159853,-0.15985 z m 20.756893,-6.35912 c 0.402182,-0.06082 0.997495,-0.05919 1.322917,0.0036 0.325421,0.0628 -0.0036,0.112559 -0.731243,0.110574 -0.727604,-0.0021 -0.993857,-0.05337 -0.591674,-0.114186 z m 2.774487,-0.0016 c 0.472943,-0.05869 1.246849,-0.05869 1.719791,0 0.472943,0.05869 0.08599,0.106714 -0.859895,0.106714 -0.945886,0 -1.332839,-0.04802 -0.859896,-0.106714 z m -7.920964,-16.658051 c 0.190995,-0.07643 0.419201,-0.06703 0.507119,0.02089 0.08792,0.08792 -0.06835,0.150453 -0.347265,0.138964 -0.308227,-0.01269 -0.37092,-0.07539 -0.159854,-0.159852 z m 13.758334,0 c 0.190994,-0.07643 0.4192,-0.06703 0.507118,0.02089 0.08792,0.08792 -0.06835,0.150453 -0.347265,0.138964 -0.308227,-0.01269 -0.37092,-0.07539 -0.159853,-0.159852 z"
           id="path60"
           inkscape:connector-curvature="0" />
        <path
           style="fill:#a5d5dd;stroke-width:0.26458332"
           d="m 52.194201,260.85949 c 0.181901,-0.0734 0.479557,-0.0734 0.661458,0 0.181901,0.0734 0.03307,0.13346 -0.330729,0.13346 -0.363802,0 -0.51263,-0.0601 -0.330729,-0.13346 z m 11.90625,0 c 0.181901,-0.0734 0.479557,-0.0734 0.661458,0 0.181901,0.0734 0.03307,0.13346 -0.330729,0.13346 -0.363802,0 -0.51263,-0.0601 -0.330729,-0.13346 z M 173.43951,214.07118 c 0.34176,-0.3638 0.68093,-0.66146 0.75369,-0.66146 0.0728,0 -0.14734,0.29766 -0.48911,0.66146 -0.34176,0.3638 -0.68093,0.66146 -0.75369,0.66146 -0.0728,0 0.14735,-0.29766 0.48911,-0.66146 z m -230.472104,-0.33073 -0.641432,-0.7276 0.727604,0.64143 c 0.680056,0.59952 0.84894,0.81378 0.641432,0.81378 -0.04739,0 -0.374814,-0.32742 -0.727604,-0.72761 z m -2.38125,-2.38125 -0.641432,-0.7276 0.727604,0.64143 c 0.680056,0.59952 0.84894,0.81378 0.641432,0.81378 -0.04739,0 -0.374814,-0.32742 -0.727604,-0.72761 z m 235.763774,-0.16605 c 0,-0.0549 0.20836,-0.26329 0.46302,-0.46302 0.41965,-0.32909 0.42899,-0.31975 0.0999,0.0999 -0.34566,0.44071 -0.56293,0.58089 -0.56293,0.36311 z M 111.5479,142.61164 c 0.0127,-0.30823 0.0754,-0.37092 0.15985,-0.15986 0.0764,0.191 0.067,0.4192 -0.0209,0.50712 -0.0879,0.0879 -0.15046,-0.0684 -0.13897,-0.34726 z m 0.0307,-2.35921 c 0.005,-0.43656 0.0647,-0.58312 0.13178,-0.32569 0.0671,0.25743 0.0627,0.61462 -0.01,0.79375 -0.0725,0.17913 -0.12736,-0.0315 -0.12197,-0.46806 z m -170.856761,-23.74635 -0.777105,-0.85989 0.859896,0.7771 c 0.801544,0.72437 0.981511,0.94269 0.777105,0.94269 -0.04554,0 -0.432488,-0.38696 -0.859896,-0.8599 z m -46.926009,-14.11111 c 0.0127,-0.30822 0.0754,-0.37092 0.15985,-0.15985 0.0764,0.19099 0.067,0.4192 -0.0209,0.50712 -0.0879,0.0879 -0.15045,-0.0684 -0.13896,-0.34727 z m 329.14165,0 c 0.0127,-0.30822 0.0754,-0.37092 0.15986,-0.15985 0.0764,0.19099 0.067,0.4192 -0.0209,0.50712 -0.0879,0.0879 -0.15047,-0.0684 -0.13899,-0.34727 z m -16.66875,-0.79375 c 0.0127,-0.30822 0.0754,-0.37092 0.15986,-0.15985 0.0764,0.19099 0.067,0.4192 -0.0209,0.50712 -0.0879,0.0879 -0.15047,-0.0684 -0.13899,-0.34727 z M -78.952095,97.367888 c 0.0127,-0.308226 0.07539,-0.370919 0.159851,-0.159853 0.07643,0.190995 0.06703,0.419201 -0.02088,0.507119 -0.08792,0.08792 -0.150453,-0.06835 -0.138965,-0.347266 z M 206.26872,92.340805 c 0.0127,-0.308226 0.0754,-0.370919 0.15986,-0.159853 0.0764,0.190995 0.067,0.4192 -0.0209,0.507119 -0.0879,0.08792 -0.15047,-0.06835 -0.13899,-0.347266 z m -312.4729,-2.116667 c 0.0127,-0.308226 0.0754,-0.370919 0.15985,-0.159853 0.0764,0.190995 0.067,0.419201 -0.0209,0.507119 -0.0879,0.08792 -0.15045,-0.06835 -0.13896,-0.347266 z m 27.008388,-0.110243 c 0,-0.363803 0.06005,-0.512631 0.133453,-0.33073 0.0734,0.181901 0.0734,0.479558 0,0.661459 -0.0734,0.181901 -0.133453,0.03307 -0.133453,-0.330729 z m 302.133262,0.110243 c 0.0127,-0.308226 0.0754,-0.370919 0.15986,-0.159853 0.0764,0.190995 0.067,0.419201 -0.0209,0.507119 -0.0879,0.08792 -0.15047,-0.06835 -0.13899,-0.347266 z M 120.19212,89.938666 c 0.1819,-0.0734 0.47955,-0.0734 0.66145,0 0.18191,0.0734 0.0331,0.133453 -0.33072,0.133453 -0.36381,0 -0.51263,-0.06006 -0.33073,-0.133453 z m 15.41198,-3.893417 c 0,-0.05494 0.20835,-0.263301 0.46302,-0.463021 0.41964,-0.329107 0.429,-0.319749 0.0999,0.0999 -0.34564,0.44073 -0.56291,0.580887 -0.56291,0.363125 z m 1.05833,-1.058334 c 0,-0.05494 0.20836,-0.2633 0.46302,-0.463021 0.41964,-0.329107 0.429,-0.319748 0.0999,0.0999 -0.34565,0.440729 -0.56292,0.580887 -0.56292,0.363124 z m -3.15411,-6.404443 c 0.0127,-0.308226 0.0754,-0.370919 0.15985,-0.159853 0.0764,0.190995 0.067,0.4192 -0.0209,0.507119 -0.0879,0.08792 -0.15045,-0.06835 -0.13896,-0.347266 z m 0,-1.058333 c 0.0127,-0.308227 0.0754,-0.37092 0.15985,-0.159853 0.0764,0.190994 0.067,0.4192 -0.0209,0.507118 -0.0879,0.08792 -0.15045,-0.06835 -0.13896,-0.347265 z m 61.607,-1.631598 -0.64143,-0.727604 0.7276,0.641432 c 0.68006,0.599516 0.84894,0.813776 0.64143,0.813776 -0.0474,0 -0.37481,-0.327422 -0.7276,-0.727604 z M -79.216678,73.555389 c 0.0127,-0.308226 0.07539,-0.370919 0.15985,-0.159853 0.07643,0.190994 0.06703,0.4192 -0.02088,0.507119 -0.08792,0.08792 -0.150453,-0.06835 -0.138965,-0.347266 z M 155.66282,60.299823 c 0.191,-0.07643 0.4192,-0.06703 0.50713,0.02087 0.0879,0.08792 -0.0684,0.150453 -0.34727,0.138965 -0.30824,-0.0127 -0.37092,-0.07539 -0.15986,-0.159851 z m -36.95028,-1.142178 c 0,-0.363802 0.06,-0.51263 0.13345,-0.330729 0.0734,0.181901 0.0734,0.479558 0,0.661459 -0.0734,0.181901 -0.13345,0.03307 -0.13345,-0.33073 z M 116.3104,18.78664 c 0.0127,-0.308226 0.0754,-0.370919 0.15985,-0.159853 0.0764,0.190995 0.067,0.419201 -0.0209,0.507119 -0.0879,0.08792 -0.15046,-0.06835 -0.13897,-0.347266 z M 0.33586867,18.765752 c 0.18190104,-0.0734 0.47955728,-0.0734 0.66145832,0 0.18190101,0.0734 0.0330729,0.133453 -0.33072916,0.133453 -0.36380208,0 -0.5126302,-0.06005 -0.33072916,-0.133453 z M 66.879152,8.2253551 c -0.0029,-0.5820833 0.04885,-0.851363 0.115068,-0.5983975 0.06622,0.2529655 0.06862,0.7292155 0.0053,1.0583333 -0.06329,0.3291179 -0.117469,0.1221476 -0.120406,-0.4599358 z M -44.312568,5.8765008 c 0,-0.054941 0.208359,-0.2633001 0.463021,-0.4630208 0.419645,-0.3291073 0.429003,-0.319749 0.0999,0.099896 -0.345644,0.4407297 -0.562917,0.5808874 -0.562917,0.3631248 z M 112.51416,-1.3409037 c 0.17914,-0.072475 0.53632,-0.076885 0.79375,-0.00982 0.25744,0.067082 0.11087,0.1263809 -0.32569,0.1317731 -0.43656,0.0054 -0.64719,-0.049493 -0.46806,-0.1219703 z M 63.108263,-2.8871446 c -0.181157,-0.2182812 -0.269846,-0.3968749 -0.197085,-0.3968749 0.07276,0 0.280511,0.1785937 0.461669,0.3968749 0.181157,0.2182813 0.269845,0.396875 0.197085,0.396875 -0.07276,0 -0.280511,-0.1785937 -0.461669,-0.396875 z m -96.308331,-2.3488543 c 0,-0.054941 0.208359,-0.2633001 0.463021,-0.4630208 0.419645,-0.3291073 0.429003,-0.319749 0.0999,0.099896 -0.345644,0.4407297 -0.562917,0.5808874 -0.562917,0.3631248 z m 86.469139,-1.1391768 c 0.190995,-0.07643 0.4192,-0.067032 0.507119,0.020876 0.08792,0.087918 -0.06835,0.1504526 -0.347266,0.1389644 -0.308226,-0.0127 -0.370919,-0.07539 -0.159853,-0.1598506 z m 1.30638,0.0055 c 0.181901,-0.073398 0.479557,-0.073398 0.661458,0 0.181901,0.073398 0.03307,0.1334532 -0.330729,0.1334532 -0.363802,0 -0.51263,-0.060055 -0.330729,-0.1334532 z M 160.21034,-10.824644 c -0.18116,-0.218282 -0.26984,-0.396875 -0.19708,-0.396875 0.0728,0 0.28051,0.178593 0.46167,0.396875 0.18116,0.218281 0.26985,0.396875 0.19709,0.396875 -0.0728,0 -0.28052,-0.178594 -0.46168,-0.396875 z m 15.98216,-7.871354 -0.50403,-0.595313 0.59531,0.504029 c 0.55944,0.473662 0.71575,0.686596 0.50403,0.686596 -0.0502,0 -0.31811,-0.26789 -0.59531,-0.595312 z m -235.057151,-0.595313 c 0.341776,-0.363802 0.68094,-0.661458 0.7537,-0.661458 0.07276,0 -0.147341,0.297656 -0.489117,0.661458 -0.341775,0.363802 -0.680939,0.661459 -0.7537,0.661459 -0.07276,0 0.147341,-0.297657 0.489117,-0.661459 z m 1.058333,-0.959331 c 0,-0.07276 0.357188,-0.474499 0.79375,-0.892752 0.436563,-0.418253 0.79375,-0.700929 0.79375,-0.628168 0,0.07276 -0.357187,0.474498 -0.79375,0.892751 -0.436562,0.418254 -0.79375,0.700929 -0.79375,0.628169 z m 231.361478,-1.09119 -0.77711,-0.859895 0.8599,0.777105 c 0.80155,0.724371 0.98152,0.942686 0.77711,0.942686 -0.0455,0 -0.43249,-0.386953 -0.8599,-0.859896 z M 3.8833728,-23.656936 c 0,-0.363802 0.060055,-0.51263 0.1334532,-0.330729 0.073398,0.181901 0.073398,0.479557 0,0.661459 -0.073398,0.181901 -0.1334532,0.03307 -0.1334532,-0.33073 z M 23.090035,-45.263413 c 0.181901,-0.0734 0.479557,-0.0734 0.661458,0 0.181901,0.0734 0.03307,0.133453 -0.330729,0.133453 -0.363802,0 -0.51263,-0.06006 -0.330729,-0.133453 z m 11.922786,-0.0055 c 0.190995,-0.07643 0.419201,-0.06703 0.507119,0.02088 0.08792,0.08792 -0.06835,0.150453 -0.347266,0.138964 -0.308226,-0.0127 -0.370919,-0.07539 -0.159853,-0.15985 z m 20.091797,-6.344496 c 0.181901,-0.0734 0.479557,-0.0734 0.661458,0 0.181901,0.0734 0.03307,0.133453 -0.330729,0.133453 -0.363802,0 -0.51263,-0.06005 -0.330729,-0.133453 z m 6.879166,0 c 0.181901,-0.0734 0.479557,-0.0734 0.661458,0 0.181901,0.0734 0.03307,0.133453 -0.330729,0.133453 -0.363802,0 -0.51263,-0.06005 -0.330729,-0.133453 z m -9.789583,-16.66875 c 0.181901,-0.0734 0.479557,-0.0734 0.661458,0 0.181901,0.0734 0.03307,0.133452 -0.330729,0.133452 -0.363802,0 -0.51263,-0.06005 -0.330729,-0.133452 z m 11.90625,0 c 0.181901,-0.0734 0.479557,-0.0734 0.661458,0 0.181901,0.0734 0.03307,0.133452 -0.330729,0.133452 -0.363802,0 -0.51263,-0.06005 -0.330729,-0.133452 z"
           id="path58"
           inkscape:connector-curvature="0" />
        <path
           style="fill:#8ecbd5;stroke-width:0.26458332"
           d="m 53.252534,260.85949 c 0.181901,-0.0734 0.479558,-0.0734 0.661459,0 0.181901,0.0734 0.03307,0.13346 -0.33073,0.13346 -0.363802,0 -0.51263,-0.0601 -0.330729,-0.13346 z m 9.789583,0 c 0.181901,-0.0734 0.479558,-0.0734 0.661459,0 0.181901,0.0734 0.03307,0.13346 -0.330729,0.13346 -0.363802,0 -0.512631,-0.0601 -0.33073,-0.13346 z M 175.1593,212.35139 c 0.56838,-0.58208 1.09297,-1.05833 1.16573,-1.05833 0.0728,0 -0.33277,0.47625 -0.90114,1.05833 -0.56838,0.58208 -1.09297,1.05833 -1.16573,1.05833 -0.0728,0 0.33276,-0.47625 0.90114,-1.05833 z m -233.387631,0.19844 -0.504028,-0.59531 0.595312,0.50403 c 0.327422,0.2772 0.595313,0.54509 0.595313,0.59531 0,0.21172 -0.212934,0.0554 -0.686597,-0.50403 z m -5.134237,-5.35781 c -0.181157,-0.21828 -0.269845,-0.39688 -0.197085,-0.39688 0.07276,0 0.280511,0.1786 0.461669,0.39688 0.181157,0.21828 0.269846,0.39687 0.197085,0.39687 -0.07276,0 -0.280511,-0.17859 -0.461669,-0.39687 z m 32.650903,-3.63802 -0.504028,-0.59532 0.595312,0.50403 c 0.327422,0.27721 0.595313,0.5451 0.595313,0.59532 0,0.21172 -0.212934,0.0554 -0.686597,-0.50403 z m 89.037402,-1.7198 -0.641432,-0.7276 0.727604,0.64143 c 0.680056,0.59952 0.84894,0.81378 0.641432,0.81378 -0.04739,0 -0.374814,-0.32742 -0.727604,-0.72761 z m -96.023722,-5.4901 c -0.181157,-0.21828 -0.269846,-0.39688 -0.197085,-0.39688 0.07276,0 0.280511,0.1786 0.461669,0.39688 0.181157,0.21828 0.269845,0.39687 0.197085,0.39687 -0.07276,0 -0.280511,-0.17859 -0.461669,-0.39687 z m -3.175,-70.11458 c -0.181157,-0.21828 -0.269846,-0.39688 -0.197085,-0.39688 0.07276,0 0.280511,0.1786 0.461669,0.39688 0.181157,0.21828 0.269846,0.39687 0.197085,0.39687 -0.07276,0 -0.280511,-0.17859 -0.461669,-0.39687 z M 206.26872,102.39497 c 0.0127,-0.30822 0.0754,-0.37092 0.15986,-0.15985 0.0764,0.19099 0.067,0.4192 -0.0209,0.50712 -0.0879,0.0879 -0.15047,-0.0684 -0.13899,-0.34727 z m -312.45201,-0.90399 c 0,-0.3638 0.0601,-0.51263 0.13345,-0.33073 0.0734,0.1819 0.0734,0.47956 0,0.66146 -0.0734,0.1819 -0.13345,0.0331 -0.13345,-0.33073 z m 329.14166,0 c 0,-0.3638 0.0601,-0.51263 0.13346,-0.33073 0.0734,0.1819 0.0734,0.47956 0,0.66146 -0.0734,0.1819 -0.13346,0.0331 -0.13346,-0.33073 z M -78.931209,98.315978 c 0,-0.363802 0.06005,-0.512631 0.133453,-0.330729 0.0734,0.181901 0.0734,0.479557 0,0.661458 -0.0734,0.181901 -0.133453,0.03307 -0.133453,-0.330729 z m -27.252081,-7.14375 c 0,-0.363802 0.0601,-0.51263 0.13345,-0.330729 0.0734,0.181901 0.0734,0.479557 0,0.661458 -0.0734,0.181901 -0.13345,0.03307 -0.13345,-0.330729 z m 26.987498,0 c 0,-0.363802 0.06005,-0.51263 0.133453,-0.330729 0.0734,0.181901 0.0734,0.479557 0,0.661458 -0.0734,0.181901 -0.133453,0.03307 -0.133453,-0.330729 z m 302.154162,0 c 0,-0.363802 0.0601,-0.51263 0.13346,-0.330729 0.0734,0.181901 0.0734,0.479557 0,0.661458 -0.0734,0.181901 -0.13346,0.03307 -0.13346,-0.330729 z m -92.77823,-5.55625 c 0.26339,-0.291042 0.53842,-0.529167 0.61118,-0.529167 0.0728,0 -0.0832,0.238125 -0.3466,0.529167 -0.26339,0.291042 -0.53842,0.529167 -0.61118,0.529167 -0.0728,0 0.0832,-0.238125 0.3466,-0.529167 z m 23.74635,-4.151135 c 0.25466,-0.06655 0.67138,-0.06655 0.92604,0 0.25466,0.06655 0.0463,0.121002 -0.46302,0.121002 -0.50932,0 -0.71768,-0.05445 -0.46302,-0.121002 z m 2.11667,0 c 0.25466,-0.06655 0.67138,-0.06655 0.92604,0 0.25466,0.06655 0.0463,0.121002 -0.46302,0.121002 -0.50932,0 -0.71768,-0.05445 -0.46302,-0.121002 z m 17.13177,-6.002927 c 0,-0.05494 0.20836,-0.263301 0.46302,-0.463021 0.41965,-0.329108 0.42899,-0.319749 0.0999,0.0999 -0.34566,0.440729 -0.56293,0.580887 -0.56293,0.363125 z M 8.0958199,73.555389 c 0.0127,-0.308226 0.07539,-0.370919 0.1598506,-0.159853 0.07643,0.190994 0.067032,0.4192 -0.020876,0.507119 -0.087918,0.08792 -0.1504527,-0.06835 -0.1389644,-0.347266 z m -87.3124979,-0.79375 c 0.0127,-0.308226 0.07539,-0.370919 0.15985,-0.159853 0.07643,0.190994 0.06703,0.4192 -0.02088,0.507119 -0.08792,0.08792 -0.150453,-0.06835 -0.138965,-0.347266 z m 211.666658,-0.79375 c 0.0127,-0.308226 0.0754,-0.370919 0.15985,-0.159853 0.0764,0.190994 0.067,0.4192 -0.0209,0.507119 -0.0879,0.08792 -0.15045,-0.06835 -0.13897,-0.347266 z m 70.77217,-3.362801 c 0.0993,-0.260938 0.2473,-0.407781 0.32877,-0.326319 0.0815,0.08146 1.6e-4,0.294955 -0.18066,0.474433 -0.2613,0.25936 -0.2917,0.22897 -0.14811,-0.148114 z m -84.79508,-1.135116 c 0.0127,-0.308226 0.0754,-0.370919 0.15985,-0.159853 0.0764,0.190995 0.067,0.419201 -0.0209,0.507119 -0.0879,0.08792 -0.15045,-0.06835 -0.13896,-0.347266 z m 30.67077,-4.708056 c 0,-0.05494 0.20836,-0.2633 0.46303,-0.463021 0.41964,-0.329107 0.429,-0.319749 0.0999,0.0999 -0.34564,0.44073 -0.56292,0.580888 -0.56292,0.363125 z m -30.3853,-4.662604 c 0,-0.363802 0.06,-0.51263 0.13345,-0.330729 0.0734,0.181901 0.0734,0.479557 0,0.661458 -0.0734,0.181901 -0.13345,0.03307 -0.13345,-0.330729 z m -7.7643,-0.709906 c 0.19099,-0.07643 0.4192,-0.06703 0.50712,0.02088 0.0879,0.08792 -0.0684,0.150452 -0.34727,0.138964 -0.30823,-0.0127 -0.37092,-0.07539 -0.15985,-0.159851 z m -3.41,-7.161448 -0.64144,-0.727604 0.72761,0.641432 c 0.40018,0.35279 0.7276,0.680212 0.7276,0.727604 0,0.207508 -0.21426,0.03862 -0.81377,-0.641432 z m -0.31071,-4.210124 c 0.1819,-0.0734 0.47956,-0.0734 0.66146,0 0.1819,0.0734 0.0331,0.133453 -0.33073,0.133453 -0.3638,0 -0.51263,-0.06006 -0.33073,-0.133453 z m 58.87038,-6.307063 c -0.003,-0.582083 0.0488,-0.851363 0.11506,-0.598398 0.0662,0.252966 0.0686,0.729216 0.005,1.058334 -0.0633,0.329118 -0.11747,0.122147 -0.12041,-0.459936 z m 25.64942,-3.704167 c 0.005,-0.436562 0.0647,-0.583125 0.13179,-0.325694 0.0671,0.257432 0.0627,0.614619 -0.01,0.79375 -0.0725,0.179131 -0.12735,-0.03149 -0.12198,-0.468056 z M 18.170873,28.995146 c 0,-0.363802 0.06005,-0.51263 0.133453,-0.330729 0.0734,0.181901 0.0734,0.479557 0,0.661458 -0.0734,0.181901 -0.133453,0.03307 -0.133453,-0.330729 z M 119.46451,21.983688 c -0.18116,-0.218281 -0.26984,-0.396875 -0.19708,-0.396875 0.0728,0 0.28051,0.178594 0.46167,0.396875 0.18115,0.218281 0.26984,0.396875 0.19708,0.396875 -0.0728,0 -0.28051,-0.178594 -0.46167,-0.396875 z M 66.833319,6.8803908 c 0.0127,-0.3082264 0.07539,-0.3709194 0.15985,-0.1598533 0.07643,0.1909947 0.06703,0.4192005 -0.02087,0.5071189 -0.08792,0.087918 -0.150453,-0.068352 -0.138965,-0.3472656 z m -111.939637,-0.21014 c 0,-0.054941 0.208359,-0.2633001 0.463021,-0.4630209 0.419645,-0.3291072 0.429003,-0.3197489 0.0999,0.099896 -0.345644,0.4407297 -0.562917,0.5808874 -0.562917,0.3631248 z M 116.04582,-3.4383589 c 0.0127,-0.3082264 0.0754,-0.3709194 0.15985,-0.1598533 0.0764,0.1909947 0.067,0.4192005 -0.0209,0.5071189 -0.0879,0.087918 -0.15045,-0.068353 -0.13896,-0.3472656 z m -148.452138,-2.59139 c 0,-0.054941 0.208359,-0.2633001 0.463021,-0.4630208 0.419645,-0.3291073 0.429003,-0.319749 0.0999,0.099896 -0.345644,0.4407296 -0.562917,0.5808874 -0.562917,0.3631247 z m 4.7625,-4.4979161 c 0,-0.05494 0.208359,-0.263301 0.463021,-0.463021 0.419645,-0.329108 0.429003,-0.319749 0.0999,0.0999 -0.345644,0.44073 -0.562917,0.580887 -0.562917,0.363125 z m 187.060408,-1.090729 c -0.18116,-0.218282 -0.26984,-0.396875 -0.19708,-0.396875 0.0728,0 0.28051,0.178593 0.46167,0.396875 0.18116,0.218281 0.26985,0.396875 0.19709,0.396875 -0.0728,0 -0.28052,-0.178594 -0.46168,-0.396875 z m 20.6375,-2.910417 c -0.18116,-0.218281 -0.26984,-0.396875 -0.19708,-0.396875 0.0728,0 0.28051,0.178594 0.46167,0.396875 0.18116,0.218281 0.26985,0.396875 0.19709,0.396875 -0.0728,0 -0.28052,-0.178594 -0.46168,-0.396875 z m -74.76992,-4.167187 -0.50403,-0.595313 0.59531,0.504029 c 0.55945,0.473662 0.71576,0.686596 0.50403,0.686596 -0.0502,0 -0.3181,-0.26789 -0.59531,-0.595312 z m 69.72281,-1.190625 -0.64143,-0.727604 0.72761,0.641432 c 0.40018,0.35279 0.7276,0.680212 0.7276,0.727604 0,0.207507 -0.21426,0.03862 -0.81378,-0.641432 z m -70.03317,-0.330729 c 0,-0.509323 0.0545,-0.717683 0.121,-0.463021 0.0666,0.254661 0.0666,0.67138 0,0.926041 -0.0665,0.254662 -0.121,0.0463 -0.121,-0.46302 z m -15.208776,-8.377312 c 0.181901,-0.0734 0.479557,-0.0734 0.661458,0 0.181901,0.0734 0.03307,0.133453 -0.330729,0.133453 -0.363802,0 -0.51263,-0.06006 -0.330729,-0.133453 z M 17.814905,-45.004341 c 0.190995,-0.07643 0.4192,-0.06703 0.507119,0.02087 0.08792,0.08792 -0.06835,0.150453 -0.347266,0.138965 -0.308226,-0.0127 -0.370919,-0.07539 -0.159853,-0.159851 z m 6.333463,-0.259072 c 0.181901,-0.0734 0.479557,-0.0734 0.661459,0 0.181901,0.0734 0.03307,0.133453 -0.33073,0.133453 -0.363802,0 -0.51263,-0.06006 -0.330729,-0.133453 z m 9.519965,0.0016 c 0.179131,-0.07247 0.536318,-0.07689 0.79375,-0.0098 0.257432,0.06708 0.110868,0.126381 -0.325694,0.131773 -0.436563,0.0054 -0.647187,-0.04949 -0.468056,-0.12197 z m 20.659071,-6.357188 c 0.190995,-0.07643 0.419201,-0.06703 0.507119,0.02087 0.08792,0.08792 -0.06835,0.150453 -0.347266,0.138965 -0.308226,-0.0127 -0.370919,-0.07539 -0.159853,-0.159851 z m 8.709678,0.0072 c 0.179131,-0.07247 0.536319,-0.07688 0.79375,-0.0098 0.257432,0.06708 0.110869,0.126381 -0.325694,0.131773 -0.436562,0.0054 -0.647186,-0.04949 -0.468056,-0.12197 z m -9.784548,-16.670345 c 0.181901,-0.0734 0.479558,-0.0734 0.661459,0 0.181901,0.0734 0.03307,0.133452 -0.33073,0.133452 -0.363802,0 -0.51263,-0.06005 -0.330729,-0.133452 z m 9.789583,0 c 0.181901,-0.0734 0.479558,-0.0734 0.661459,0 0.181901,0.0734 0.03307,0.133452 -0.330729,0.133452 -0.363802,0 -0.512631,-0.06005 -0.33073,-0.133452 z"
           id="path56"
           inkscape:connector-curvature="0" />
        <path
           style="fill:#7ac2cd;stroke-width:0.26458332"
           d="m 54.443159,260.85235 c 0.254662,-0.0666 0.67138,-0.0666 0.926042,0 0.254661,0.0665 0.0463,0.12099 -0.463021,0.12099 -0.509323,0 -0.717682,-0.0545 -0.463021,-0.12099 z m 7.14375,0 c 0.254662,-0.0666 0.67138,-0.0666 0.926042,0 0.254661,0.0665 0.0463,0.12099 -0.463021,0.12099 -0.509323,0 -0.717682,-0.0545 -0.463021,-0.12099 z M 169.47076,217.80773 c 0,-0.0549 0.20836,-0.26328 0.46302,-0.46302 0.41966,-0.32909 0.429,-0.31975 0.0999,0.0999 -0.34565,0.44072 -0.56293,0.58089 -0.56293,0.36311 z m -222.779161,-0.56155 c -0.181158,-0.21828 -0.269846,-0.39687 -0.197086,-0.39687 0.07276,0 0.280512,0.17859 0.461669,0.39687 0.181158,0.21828 0.269846,0.39688 0.197086,0.39688 -0.07276,0 -0.280512,-0.1786 -0.461669,-0.39688 z m -9.260417,-9.26041 c -0.181157,-0.21828 -0.269845,-0.39688 -0.197085,-0.39688 0.07276,0 0.280511,0.1786 0.461669,0.39688 0.181157,0.21828 0.269846,0.39687 0.197085,0.39687 -0.07276,0 -0.280511,-0.17859 -0.461669,-0.39687 z m 241.829158,0.0324 c 0,-0.0549 0.20836,-0.26329 0.46303,-0.46302 0.41965,-0.32909 0.42899,-0.31975 0.0999,0.0999 -0.34565,0.44071 -0.56293,0.58089 -0.56293,0.36311 z m -211.286428,-5.78707 -0.777105,-0.8599 0.859896,0.77711 c 0.472942,0.42741 0.859895,0.81436 0.859895,0.8599 0,0.20441 -0.218315,0.0243 -0.942686,-0.77711 z m 150.547918,-42.59792 -0.77711,-0.85989 0.8599,0.7771 c 0.80154,0.72437 0.98151,0.94269 0.7771,0.94269 -0.0455,0 -0.43249,-0.38695 -0.85989,-0.8599 z m -167.087758,-13.89062 -0.641432,-0.72761 0.727605,0.64144 c 0.680056,0.59951 0.848939,0.81377 0.641432,0.81377 -0.04739,0 -0.374814,-0.32742 -0.727605,-0.7276 z M 206.26872,103.18872 c 0.0127,-0.30822 0.0754,-0.37092 0.15986,-0.15985 0.0764,0.19099 0.067,0.4192 -0.0209,0.50712 -0.0879,0.0879 -0.15047,-0.0684 -0.13899,-0.34727 z m -312.4324,-3.02066 c 0,-0.509322 0.0545,-0.717681 0.121,-0.46302 0.0666,0.254662 0.0666,0.67138 0,0.92604 -0.0665,0.25466 -0.121,0.0463 -0.121,-0.46302 z m 329.14166,0 c 0,-0.509322 0.0545,-0.717681 0.12099,-0.46302 0.0666,0.254662 0.0666,0.67138 0,0.92604 -0.0665,0.25466 -0.12099,0.0463 -0.12099,-0.46302 z M -78.952095,99.219972 c 0.0127,-0.308227 0.07539,-0.37092 0.159851,-0.159854 0.07643,0.190995 0.06703,0.419201 -0.02088,0.507119 -0.08792,0.08792 -0.150453,-0.06835 -0.138965,-0.347265 z m -27.211585,-6.724828 c 0,-0.509322 0.0545,-0.717682 0.121,-0.46302 0.0666,0.254661 0.0666,0.67138 0,0.926041 -0.0665,0.254662 -0.121,0.0463 -0.121,-0.463021 z m 329.14166,0 c 0,-0.509322 0.0545,-0.717682 0.12099,-0.46302 0.0666,0.254661 0.0666,0.67138 0,0.926041 -0.0665,0.254662 -0.12099,0.0463 -0.12099,-0.463021 z M -79.216678,92.076222 c 0.0127,-0.308227 0.07539,-0.37092 0.15985,-0.159854 0.07643,0.190995 0.06703,0.419201 -0.02088,0.507119 -0.08792,0.08792 -0.150453,-0.06835 -0.138965,-0.347265 z m 58.187443,-5.170617 c 0,-0.07276 0.357187,-0.474499 0.79375,-0.892752 0.436562,-0.418253 0.79375,-0.700929 0.79375,-0.628168 0,0.07276 -0.357188,0.474498 -0.79375,0.892751 -0.436563,0.418254 -0.79375,0.700929 -0.79375,0.628169 z M 7.0165977,75.991082 c 0,-0.05494 0.2083594,-0.2633 0.4630208,-0.463021 0.4196451,-0.329107 0.4290034,-0.319749 0.099896,0.0999 -0.3456437,0.44073 -0.5629169,0.580888 -0.5629169,0.363125 z M 118.42707,66.676222 c 0.0127,-0.308226 0.0754,-0.370919 0.15985,-0.159853 0.0764,0.190995 0.067,0.419201 -0.0209,0.507119 -0.0879,0.08792 -0.15045,-0.06835 -0.13896,-0.347266 z m -95.138598,-6.19566 c 0.26339,-0.291042 0.538422,-0.529167 0.611183,-0.529167 0.07276,0 -0.08321,0.238125 -0.346599,0.529167 -0.26339,0.291042 -0.538422,0.529167 -0.611182,0.529167 -0.07276,0 0.08321,-0.238125 0.346598,-0.529167 z m 95.403178,-3.329339 c 0.0127,-0.308227 0.0754,-0.37092 0.15985,-0.159854 0.0764,0.190995 0.067,0.419201 -0.0209,0.507119 -0.0879,0.08792 -0.15046,-0.06835 -0.13897,-0.347265 z m 43.71103,-6.592536 c 0.003,-0.727604 0.0534,-0.993857 0.1142,-0.591674 0.0608,0.402182 0.0592,0.997495 -0.004,1.322916 -0.0628,0.325422 -0.11255,-0.0037 -0.11057,-0.731242 z m -47.1715,-1.058333 c -0.18116,-0.218281 -0.26985,-0.396875 -0.19709,-0.396875 0.0728,0 0.28051,0.178594 0.46167,0.396875 0.18116,0.218281 0.26985,0.396875 0.19709,0.396875 -0.0728,0 -0.28051,-0.178594 -0.46167,-0.396875 z M -9.9167353,42.885771 c -0.1811577,-0.218281 -0.2698457,-0.396875 -0.1970857,-0.396875 0.07276,0 0.2805115,0.178594 0.461669,0.396875 0.1811576,0.218281 0.2698459,0.396875 0.1970855,0.396875 -0.07276,0 -0.2805112,-0.178594 -0.4616688,-0.396875 z m 203.3071553,-3.902604 -0.50403,-0.595313 0.59531,0.504029 c 0.55943,0.473662 0.71575,0.686596 0.50403,0.686596 -0.0502,0 -0.31811,-0.26789 -0.59531,-0.595312 z M 0.13743117,38.42025 c 0,-0.05494 0.20835937,-0.2633 0.46302083,-0.463021 0.419645,-0.329107 0.4290033,-0.319749 0.0998961,0.0999 -0.34564372,0.44073 -0.56291691,0.580888 -0.56291691,0.363125 z M 121.89734,27.010771 c 0.005,-0.436562 0.0647,-0.583125 0.13178,-0.325694 0.0671,0.257432 0.0627,0.614619 -0.01,0.79375 -0.0725,0.179131 -0.12736,-0.03149 -0.12197,-0.468056 z M 9.2404179,8.5560843 8.7363893,7.9607718 9.3317018,8.4648004 c 0.5594456,0.4736624 0.7157612,0.6865964 0.5040286,0.6865964 -0.050207,0 -0.3180979,-0.2678906 -0.5953125,-0.5953125 z M -45.767776,7.2993135 c 0.26339,-0.2910417 0.538422,-0.5291667 0.611182,-0.5291667 0.07276,0 -0.08321,0.238125 -0.346599,0.5291667 -0.26339,0.2910417 -0.538422,0.5291666 -0.611182,0.5291666 -0.07276,0 0.08321,-0.2381249 0.346599,-0.5291666 z M -0.81374854,3.5290011 -1.3177771,2.9336886 -0.72246464,3.4377172 c 0.55944557,0.4736624 0.7157614,0.6865964 0.50402859,0.6865964 -0.0502073,0 -0.31809795,-0.2678906 -0.59531249,-0.5953125 z M 40.750972,-0.90276961 c 0.26339,-0.29104169 0.538422,-0.52916669 0.611182,-0.52916669 0.07276,0 -0.08321,0.238125 -0.346599,0.52916669 -0.26339,0.29104166 -0.538421,0.52916665 -0.611182,0.52916665 -0.07276,0 0.08321,-0.23812499 0.346599,-0.52916665 z M 109.60375,-1.6054871 c 0.17913,-0.072475 0.53632,-0.076885 0.79375,-0.00982 0.25743,0.067082 0.11087,0.1263809 -0.3257,0.1317731 -0.43656,0.0054 -0.64718,-0.049493 -0.46805,-0.1219703 z m 57.22118,-2.6045741 c -0.18116,-0.2182812 -0.26985,-0.396875 -0.19709,-0.396875 0.0728,0 0.28051,0.1785938 0.46167,0.396875 0.18116,0.2182813 0.26985,0.396875 0.19709,0.396875 -0.0728,0 -0.28051,-0.1785937 -0.46167,-0.396875 z M -31.215693,-7.2527694 c 0.26339,-0.2910417 0.538422,-0.5291667 0.611182,-0.5291667 0.07276,0 -0.08321,0.238125 -0.346599,0.5291667 -0.26339,0.2910416 -0.538422,0.5291666 -0.611182,0.5291666 -0.07276,0 0.08321,-0.238125 0.346599,-0.5291666 z m -31.617708,-7.7728126 c 0,-0.05494 0.208359,-0.2633 0.463021,-0.463021 0.419645,-0.329107 0.429003,-0.319749 0.0999,0.0999 -0.345644,0.44073 -0.562917,0.580888 -0.562917,0.363125 z m 9.260417,-9.260416 c 0,-0.05494 0.208359,-0.2633 0.46302,-0.463021 0.419645,-0.329107 0.429004,-0.319749 0.0999,0.0999 -0.345643,0.44073 -0.562916,0.580887 -0.562916,0.363125 z m 223.308324,-0.561563 c -0.18116,-0.218281 -0.26984,-0.396875 -0.19708,-0.396875 0.0728,0 0.28051,0.178594 0.46167,0.396875 0.18116,0.218282 0.26985,0.396875 0.19709,0.396875 -0.0728,0 -0.28052,-0.178593 -0.46168,-0.396875 z m -80.74752,-3.752614 c 0.190995,-0.07643 0.419201,-0.06703 0.507119,0.02088 0.08792,0.08792 -0.06835,0.150452 -0.347266,0.138964 -0.308226,-0.0127 -0.370919,-0.07539 -0.159853,-0.159851 z m -13.973307,-3.920302 c -0.181158,-0.218281 -0.269846,-0.396875 -0.197085,-0.396875 0.07276,0 0.280511,0.178594 0.461668,0.396875 0.181158,0.218281 0.269846,0.396875 0.197086,0.396875 -0.07276,0 -0.280511,-0.178594 -0.461669,-0.396875 z M 13.790275,-44.86697 c 0.06734,-0.108958 0.297217,-0.131034 0.510839,-0.04906 0.538652,0.2067 0.485195,0.331417 -0.122436,0.285647 -0.280961,-0.02117 -0.455742,-0.127628 -0.388403,-0.236587 z m 11.81694,-0.411075 c 0.402182,-0.06082 0.997495,-0.05919 1.322916,0.0036 0.325422,0.0628 -0.0036,0.112559 -0.731242,0.110574 -0.727604,-0.0021 -0.993857,-0.05337 -0.591674,-0.114186 z m 6.610945,0.0075 c 0.254661,-0.06655 0.67138,-0.06655 0.926041,0 0.254662,0.06655 0.0463,0.121002 -0.46302,0.121002 -0.509323,0 -0.717683,-0.05445 -0.463021,-0.121002 z m 32.163411,-6.348354 c 0.190994,-0.07643 0.4192,-0.06703 0.507118,0.02088 0.08792,0.08792 -0.06835,0.150453 -0.347265,0.138964 -0.308227,-0.0127 -0.37092,-0.07539 -0.159853,-0.15985 z M 54.443159,-68.28928 c 0.254662,-0.06655 0.67138,-0.06655 0.926042,0 0.254661,0.06655 0.0463,0.121 -0.463021,0.121 -0.509323,0 -0.717682,-0.05445 -0.463021,-0.121 z m 7.14375,0 c 0.254662,-0.06655 0.67138,-0.06655 0.926042,0 0.254661,0.06655 0.0463,0.121 -0.463021,0.121 -0.509323,0 -0.717682,-0.05445 -0.463021,-0.121 z"
           id="path54"
           inkscape:connector-curvature="0" />
        <path
           style="fill:#68b9c6;stroke-width:0.26458332"
           d="m 56.162951,260.84801 c 0.327422,-0.0631 0.863203,-0.0631 1.190625,0 0.327422,0.0631 0.05953,0.11464 -0.595313,0.11464 -0.654843,0 -0.922734,-0.0516 -0.595312,-0.11464 z m 3.707252,0 c 0.329117,-0.0633 0.805367,-0.0609 1.058333,0.005 0.252965,0.0662 -0.01633,0.118 -0.598398,0.11507 -0.582083,-0.003 -0.789053,-0.0571 -0.459935,-0.12042 z M 170.26451,217.01398 c 0,-0.0549 0.20836,-0.26328 0.46302,-0.46302 0.41966,-0.32909 0.429,-0.31975 0.0999,0.0999 -0.34565,0.44072 -0.56293,0.58089 -0.56293,0.36311 z m -224.366661,-0.56155 c -0.181158,-0.21828 -0.269846,-0.39687 -0.197086,-0.39687 0.07276,0 0.280512,0.17859 0.461669,0.39687 0.181158,0.21828 0.269846,0.39688 0.197086,0.39688 -0.07276,0 -0.280512,-0.1786 -0.461669,-0.39688 z m -7.672917,-7.67291 c -0.181157,-0.21828 -0.269845,-0.39688 -0.197085,-0.39688 0.07276,0 0.280511,0.1786 0.461669,0.39688 0.181157,0.21828 0.269846,0.39687 0.197085,0.39687 -0.07276,0 -0.280511,-0.17859 -0.461669,-0.39687 z m 240.241658,0.0324 c 0,-0.0549 0.20836,-0.26329 0.46303,-0.46302 0.41965,-0.32909 0.42899,-0.31975 0.0999,0.0999 -0.34565,0.44071 -0.56293,0.58089 -0.56293,0.36311 z M -28.437568,206.1337 c -0.181158,-0.21828 -0.269846,-0.39687 -0.197086,-0.39687 0.07276,0 0.280512,0.17859 0.461669,0.39687 0.181158,0.21828 0.269846,0.39688 0.197086,0.39688 -0.07276,0 -0.280512,-0.1786 -0.461669,-0.39688 z m -5.436407,-5.75468 -1.045885,-1.12448 1.124479,1.04587 c 0.618464,0.57526 1.124479,1.08127 1.124479,1.12448 0,0.20018 -0.230412,-1.1e-4 -1.203073,-1.04587 z m -5.146926,-5.35782 c -0.181158,-0.21828 -0.269846,-0.39687 -0.197086,-0.39687 0.07276,0 0.280511,0.17859 0.461669,0.39687 0.181157,0.21828 0.269846,0.39688 0.197085,0.39688 -0.07276,0 -0.280511,-0.1786 -0.461668,-0.39688 z M 132.90865,166.39774 c 0.191,-0.0764 0.4192,-0.067 0.50712,0.0209 0.0879,0.0879 -0.0684,0.15045 -0.34726,0.13897 -0.30823,-0.0127 -0.37092,-0.0754 -0.15986,-0.15985 z m -179.560693,-3.52343 c 0,-0.3638 0.06005,-0.51263 0.133453,-0.33073 0.0734,0.1819 0.0734,0.47956 0,0.66146 -0.0734,0.1819 -0.133453,0.0331 -0.133453,-0.33073 z m 0,-1.85208 c 0,-0.36381 0.06005,-0.51263 0.133453,-0.33073 0.0734,0.1819 0.0734,0.47955 0,0.66146 -0.0734,0.1819 -0.133453,0.0331 -0.133453,-0.33073 z m 166.381143,-0.1323 c -0.18116,-0.21828 -0.26985,-0.39687 -0.19709,-0.39687 0.0728,0 0.28051,0.17859 0.46167,0.39687 0.18116,0.21829 0.26984,0.39688 0.19708,0.39688 -0.0728,0 -0.28051,-0.17859 -0.46166,-0.39688 z M -52.977095,133.37327 c -0.0029,-0.58208 0.04885,-0.85136 0.115067,-0.5984 0.06622,0.25297 0.06863,0.72922 0.0053,1.05833 -0.06329,0.32912 -0.11747,0.12215 -0.120407,-0.45993 z m 20.570777,-32.77594 c 0,-0.0549 0.208359,-0.2633 0.463021,-0.46302 0.419645,-0.329107 0.429003,-0.319748 0.0999,0.0999 -0.345644,0.44073 -0.562917,0.58088 -0.562917,0.36312 z m -46.545777,-0.58361 c 0.0127,-0.308225 0.07539,-0.370918 0.159851,-0.159852 0.07643,0.190992 0.06703,0.419202 -0.02088,0.507122 -0.08792,0.0879 -0.150453,-0.0684 -0.138965,-0.34727 z m 48.000985,-0.903992 c 0.26339,-0.291042 0.538422,-0.529167 0.611182,-0.529167 0.07276,0 -0.08321,0.238125 -0.346599,0.529167 -0.26339,0.291041 -0.538421,0.529166 -0.611182,0.529166 -0.07276,0 0.08321,-0.238125 0.346599,-0.529166 z m -75.19828,-0.926042 c 0.002,-0.727604 0.0534,-0.993857 0.11418,-0.591674 0.0608,0.402182 0.0592,0.997495 -0.004,1.322916 -0.0628,0.325422 -0.11256,-0.0036 -0.11057,-0.731242 z m 329.14165,0 c 0.003,-0.727604 0.0534,-0.993857 0.1142,-0.591674 0.0608,0.402182 0.0592,0.997495 -0.004,1.322916 -0.0628,0.325422 -0.11255,-0.0036 -0.11057,-0.731242 z m -329.14165,-3.704167 c 0.002,-0.727604 0.0534,-0.993857 0.11418,-0.591674 0.0608,0.402183 0.0592,0.997495 -0.004,1.322917 -0.0628,0.325421 -0.11256,-0.0036 -0.11057,-0.731243 z m 329.14165,0 c 0.003,-0.727604 0.0534,-0.993857 0.1142,-0.591674 0.0608,0.402183 0.0592,0.997495 -0.004,1.322917 -0.0628,0.325421 -0.11255,-0.0036 -0.11057,-0.731243 z M -79.216678,92.869972 c 0.0127,-0.308227 0.07539,-0.37092 0.15985,-0.159854 0.07643,0.190995 0.06703,0.419201 -0.02088,0.507119 -0.08792,0.08792 -0.150453,-0.06835 -0.138965,-0.347265 z m 197.643748,-26.9875 c 0.0127,-0.308226 0.0754,-0.370919 0.15985,-0.159853 0.0764,0.190995 0.067,0.419201 -0.0209,0.507119 -0.0879,0.08792 -0.15045,-0.06835 -0.13896,-0.347266 z m 0.26458,-9.524999 c 0.0127,-0.308227 0.0754,-0.37092 0.15985,-0.159854 0.0764,0.190995 0.067,0.419201 -0.0209,0.507119 -0.0879,0.08792 -0.15046,-0.06835 -0.13897,-0.347265 z m 60.83328,-0.242536 c -0.18116,-0.218281 -0.26985,-0.396875 -0.19709,-0.396875 0.0728,0 0.28051,0.178594 0.46167,0.396875 0.18116,0.218281 0.26985,0.396875 0.19709,0.396875 -0.0728,0 -0.28051,-0.178594 -0.46167,-0.396875 z m -62.42078,-2.932464 c 0.0127,-0.308227 0.0754,-0.37092 0.15985,-0.159853 0.0764,0.190994 0.067,0.4192 -0.0209,0.507118 -0.0879,0.08792 -0.15046,-0.06835 -0.13897,-0.347265 z m 50.24994,-3.682119 c -0.18116,-0.218281 -0.26984,-0.396875 -0.19708,-0.396875 0.0728,0 0.28051,0.178594 0.46167,0.396875 0.18116,0.218281 0.26985,0.396875 0.19709,0.396875 -0.0728,0 -0.28052,-0.178594 -0.46168,-0.396875 z M 42.048751,42.42275 l -0.504029,-0.595312 0.595313,0.504028 c 0.327421,0.277215 0.595312,0.545105 0.595312,0.595313 0,0.211732 -0.212934,0.05542 -0.686596,-0.504029 z m -24.468846,-3.042708 -0.641432,-0.727604 0.727604,0.641432 c 0.680056,0.599516 0.848939,0.813776 0.641432,0.813776 -0.04739,0 -0.374814,-0.327422 -0.727604,-0.727604 z M 163.12076,31.773271 c -0.18116,-0.218281 -0.26985,-0.396875 -0.19709,-0.396875 0.0728,0 0.28051,0.178594 0.46167,0.396875 0.18116,0.218281 0.26985,0.396875 0.19709,0.396875 -0.0728,0 -0.28051,-0.178594 -0.46167,-0.396875 z m -42.8625,-1.025938 c 0,-0.05494 0.20836,-0.2633 0.46302,-0.46302 0.41965,-0.329108 0.42901,-0.319749 0.0999,0.0999 -0.34564,0.440729 -0.56292,0.580887 -0.56292,0.363124 z m 10.62511,-0.42927 c 0,-0.363802 0.0601,-0.51263 0.13345,-0.330729 0.0734,0.181901 0.0734,0.479557 0,0.661458 -0.0734,0.181901 -0.13345,0.03307 -0.13345,-0.330729 z m -22.81597,-1.785938 -0.64143,-0.727604 0.7276,0.641432 c 0.40019,0.35279 0.72761,0.680212 0.72761,0.727604 0,0.207508 -0.21426,0.03862 -0.81378,-0.641432 z m 18.0117,-8.135937 c -0.18116,-0.218281 -0.26985,-0.396875 -0.19709,-0.396875 0.0728,0 0.28051,0.178594 0.46167,0.396875 0.18116,0.218281 0.26984,0.396875 0.19708,0.396875 -0.0728,0 -0.28051,-0.178594 -0.46166,-0.396875 z M 4.0350002,19.296596 c 0.1791309,-0.07248 0.5363184,-0.07689 0.79375,-0.0098 0.2574317,0.06708 0.1108684,0.126381 -0.3256941,0.131773 -0.4365625,0.0054 -0.6471867,-0.04949 -0.4680559,-0.121971 z M 124.4916,18.808688 c -0.18116,-0.218281 -0.26985,-0.396875 -0.19709,-0.396875 0.0728,0 0.28051,0.178594 0.46167,0.396875 0.18116,0.218281 0.26984,0.396875 0.19708,0.396875 -0.0728,0 -0.28051,-0.178594 -0.46166,-0.396875 z m -5.87045,-3.223448 c 0.191,-0.07643 0.4192,-0.06703 0.50712,0.02088 0.0879,0.08792 -0.0683,0.150453 -0.34726,0.138964 -0.30823,-0.0127 -0.37092,-0.07539 -0.15986,-0.15985 z M -46.958401,8.522334 c 0,-0.054941 0.208359,-0.2633001 0.463021,-0.4630208 0.419645,-0.3291072 0.429003,-0.3197489 0.0999,0.099896 -0.345644,0.4407297 -0.562917,0.5808874 -0.562917,0.3631247 z M 37.230678,6.6378552 c 0.0054,-0.4365625 0.06469,-0.5831258 0.131773,-0.3256942 0.06708,0.2574317 0.06267,0.6146192 -0.0098,0.79375 C 37.280171,7.2850419 37.225288,7.074418 37.23068,6.6378552 Z M -41.402151,2.7919434 c 0,-0.07276 1.250156,-1.3781934 2.778125,-2.90096304 1.527968,-1.52276966 2.778125,-2.70914006 2.778125,-2.63637966 0,0.07276 -1.250157,1.3781933 -2.778125,2.90096299 -1.527969,1.52276961 -2.778125,2.70914011 -2.778125,2.63637971 z M -30.15736,-8.3111027 c 0.26339,-0.2910417 0.538422,-0.5291667 0.611182,-0.5291667 0.07276,0 -0.08321,0.238125 -0.346599,0.5291667 -0.26339,0.2910416 -0.538421,0.5291666 -0.611182,0.5291666 -0.07276,0 0.08321,-0.238125 0.346599,-0.5291666 z m 70.726431,-0.7099062 c 0.190995,-0.07643 0.419201,-0.067032 0.507119,0.020876 0.08792,0.087918 -0.06835,0.1504527 -0.347266,0.1389645 -0.308226,-0.0127 -0.370919,-0.07539 -0.159853,-0.1598507 z m -66.889973,-2.8295731 c 0,-0.05494 0.20836,-0.2633 0.463021,-0.463021 0.419645,-0.329107 0.429004,-0.319749 0.0999,0.0999 -0.345643,0.44073 -0.562917,0.580888 -0.562917,0.363125 z m 184.414582,-1.090729 c -0.18116,-0.218281 -0.26985,-0.396875 -0.19709,-0.396875 0.0728,0 0.28051,0.178594 0.46167,0.396875 0.18116,0.218281 0.26985,0.396875 0.19709,0.396875 -0.0728,0 -0.28051,-0.178594 -0.46167,-0.396875 z m -181.239582,-1.819688 c 0,-0.05494 0.20836,-0.2633 0.463021,-0.46302 0.419645,-0.329108 0.429003,-0.319749 0.0999,0.0999 -0.345644,0.440729 -0.562917,0.580887 -0.562917,0.363124 z m 201.877082,-1.090729 c -0.18116,-0.218281 -0.26985,-0.396875 -0.19709,-0.396875 0.0728,0 0.28051,0.178594 0.46167,0.396875 0.18116,0.218282 0.26985,0.396875 0.19709,0.396875 -0.0728,0 -0.28051,-0.178593 -0.46167,-0.396875 z m -240.770831,0.0324 c 0,-0.05494 0.208359,-0.2633 0.463021,-0.463021 0.419645,-0.329107 0.429003,-0.319749 0.0999,0.0999 -0.345644,0.44073 -0.562917,0.580888 -0.562917,0.363125 z m 7.672917,-7.672916 c 0,-0.05494 0.208359,-0.263301 0.46302,-0.463021 0.419645,-0.329107 0.429004,-0.319749 0.0999,0.0999 -0.345643,0.44073 -0.562916,0.580887 -0.562916,0.363125 z m 224.895824,-0.561563 c -0.18116,-0.218281 -0.26984,-0.396875 -0.19708,-0.396875 0.0728,0 0.28051,0.178594 0.46167,0.396875 0.18116,0.218282 0.26985,0.396875 0.19709,0.396875 -0.0728,0 -0.28052,-0.178593 -0.46168,-0.396875 z M 27.720243,-45.27057 c 0.254662,-0.06655 0.67138,-0.06655 0.926042,0 0.254661,0.06655 0.0463,0.121002 -0.463021,0.121002 -0.509323,0 -0.717682,-0.05445 -0.463021,-0.121002 z m 2.513542,-0.0043 c 0.327422,-0.06307 0.863203,-0.06307 1.190625,0 0.327422,0.06306 0.05953,0.114662 -0.595313,0.114662 -0.654844,0 -0.922734,-0.0516 -0.595312,-0.114662 z m 25.929166,-23.01879 c 0.327422,-0.06306 0.863203,-0.06306 1.190625,0 0.327422,0.06307 0.05953,0.114663 -0.595313,0.114663 -0.654843,0 -0.922734,-0.0516 -0.595312,-0.114663 z m 3.707252,-3.96e-4 c 0.329117,-0.06329 0.805367,-0.06088 1.058333,0.0053 0.252965,0.06622 -0.01633,0.118003 -0.598398,0.115066 -0.582083,-0.0029 -0.789053,-0.05712 -0.459935,-0.120405 z"
           id="path52"
           inkscape:connector-curvature="0" />
        <path
           style="fill:#5db5c3;stroke-width:0.26458332"
           d="M 52.260347,260.74998 C 40.913466,260.35723 29.775579,258.78108 18.5955,255.986 6.3741629,252.93059 -3.6617711,249.19303 -15.208402,243.39683 -27.915715,237.01799 -38.791143,229.7224 -50.00111,220.05669 c -3.409283,-2.93962 -12.306305,-11.83664 -15.245929,-15.24592 -18.390209,-21.32841 -30.573701,-45.1389 -36.718501,-71.75991 -3.12386,-13.53343 -4.41699,-27.48978 -3.95383,-42.672382 0.60573,-19.85568 4.94066,-39.423784 12.957998,-58.493061 2.172981,-5.168444 7.357684,-15.274935 10.47792,-20.424507 22.658123,-37.394477 58.962366,-64.25433 101.078952,-74.783699 14.936041,-3.734088 29.686876,-5.264705 45.7754,-4.749873 30.12672,0.964054 59.33149,10.297973 84.72694,27.078946 38.13088,25.196366 64.13357,65.135264 71.66449,110.073236 1.6157,9.64117 2.17453,16.644554 2.17453,27.252083 0,9.210887 -0.38817,15.191867 -1.49392,23.018747 -3.41349,24.16178 -12.14133,47.17352 -25.63958,67.60104 -19.20451,29.06316 -47.22227,51.37272 -79.91072,63.63015 -15.63723,5.86361 -33.806402,9.56048 -49.454222,10.06239 -2.340909,0.0751 -5.208696,0.17397 -6.372863,0.21974 -1.164167,0.0458 -4.67651,-0.005 -7.805208,-0.11369 z m -32.10702,-23.53096 c 4.828735,-0.81991 12.421441,-2.8626 12.792437,-3.44157 0.07276,-0.11355 1.263385,-0.64986 2.645833,-1.19184 5.821627,-2.28224 13.015317,-6.05906 18.452367,-9.68782 5.222261,-3.48541 5.654648,-3.90753 7.171613,-7.0013 1.725972,-3.52004 1.784085,-6.72399 0.18311,-10.0952 -3.463435,-7.293 -15.401517,-12.33755 -24.897526,-10.52066 l -2.047402,0.39172 -1.746186,-1.23563 C 29.586386,192.22811 24.714672,188.16083 18.763433,182.79513 6.1398109,171.41351 1.5239907,167.89605 -5.5182571,164.29141 c -1.5826607,-0.8101 -3.6048129,-2.05893 -4.4936699,-2.77518 -2.044025,-1.64709 -5.851009,-3.60548 -9.429808,-4.85088 -1.527969,-0.53172 -5.814219,-1.7402 -9.525,-2.68551 -11.974226,-3.0504 -15.557333,-4.56172 -19.058945,-8.03886 -3.669059,-3.64342 -4.753554,-6.75213 -4.753554,-13.62604 0,-3.36665 -0.109321,-4.70843 -0.511853,-6.28231 -1.315844,-5.1449 -4.287274,-8.82918 -11.857418,-14.70202 -1.928151,-1.49584 -3.508124,-2.80364 -3.51105,-2.90623 -0.0029,-0.10259 -0.118332,-0.96043 -0.256458,-1.90632 -1.064866,-7.292191 4.919647,-13.676732 13.952691,-14.885341 4.005275,-0.535903 8.156278,0.452721 10.738225,2.557468 2.635126,2.148096 4.070758,4.801833 4.343241,8.028393 0.135607,1.60575 0.161327,1.65365 0.887932,1.65365 1.124053,0 3.095315,-0.74426 4.731414,-1.78637 2.087538,-1.32965 4.469754,-3.889485 8.226038,-8.839389 4.005866,-5.278794 7.619881,-9.002995 10.166612,-10.476579 1.738225,-1.005766 3.416443,-1.707745 2.978859,-1.246023 -0.358336,0.378103 0.380762,0.917109 1.257559,0.917109 0.475382,0 1.145413,-0.235707 1.488959,-0.52379 0.5338124,-0.447641 0.5669224,-0.562973 0.2277477,-0.793282 -0.2182817,-0.148219 -0.7540627,-0.201565 -1.1906247,-0.118544 l -0.79375,0.150945 0.926041,-0.588791 c 2.395776,-1.523269 4.5420362,-2.07927 10.58333352,-2.74166 6.04263608,-0.662537 7.64470668,-1.234082 8.37789618,-2.988855 0.4566549,-1.09293 0.3203045,-2.200513 -0.508971,-4.13436 L 6.9251709,69.415343 7.5661955,68.922387 c 1.0632016,-0.817613 3.8587125,-2.216161 8.0826265,-4.043601 5.996802,-2.594464 7.734644,-3.737223 9.027226,-5.936075 0.622842,-1.059532 0.729091,-1.533072 0.729091,-3.249501 0,-1.851816 -0.09551,-2.204202 -1.219152,-4.497917 C 23.51545,49.826514 22.760838,48.056901 22.509065,47.262818 20.749348,41.712698 16.343978,37.058479 11.440603,35.569124 8.8284934,34.77572 5.5863105,34.947234 3.451377,35.991759 c -2.2454234,1.098584 -4.30087339,3.28559 -5.6527143,6.014502 -0.9803024,1.978909 -1.2318603,2.294782 -1.9403906,2.436487 -2.0406386,0.408128 -3.8236101,-0.03897 -5.232937,-1.312211 -3.9434981,-3.562715 -3.1195861,-13.25599 1.6628454,-19.563244 2.7587891,-3.638399 6.3171201,-5.126638 10.5256962,-4.402277 3.3435369,0.575476 7.2651543,-0.578435 8.4430523,-2.484319 C 12.977189,13.897262 11.413835,9.6116659 7.8421056,7.3196917 7.0970337,6.8415817 6.487431,6.35115 6.487431,6.2298412 6.487431,6.1085351 6.2790717,6.0136264 6.0244102,6.0189339 5.7697488,6.0242521 4.8470144,5.8849251 3.9738894,5.709337 3.1007644,5.5337516 2.1328631,5.3447544 1.8229963,5.2893401 0.95837503,5.1347176 -1.3444736,2.9232958 -1.9448502,1.6710785 -3.175713,-0.89614974 -2.827315,-4.1404837 -0.78821625,-9.099696 c 0.62942522,-1.530805 1.80778145,-4.389345 2.61856535,-6.352312 0.8107838,-1.962965 1.6698912,-4.448834 1.9091248,-5.524148 1.0998094,-4.943422 -0.8087307,-8.50937 -5.5969402,-10.457426 l -1.5432986,-0.62788 -4.6470464,4.001026 C -39.912687,-0.62533548 -59.996583,20.989313 -70.767347,39.439449 c -3.592185,6.153353 -4.67954,8.962643 -6.198336,16.01403 -1.953929,9.071599 -2.384332,15.26723 -2.197891,31.63839 l 0.147881,12.985271 0.967973,2.62515 c 0.532386,1.44383 2.068732,4.88733 3.414098,7.65223 3.692756,7.58907 6.078368,11.59929 14.71653,24.73854 5.630807,8.56485 10.308505,15.89613 11.417122,17.89387 1.928405,3.475 2.300111,8.52918 1.262272,17.16342 -1.022062,8.50296 -0.466574,13.36471 1.959763,17.15236 1.366248,2.13278 5.799365,7.17878 11.894889,13.53931 6.338506,6.61408 9.024538,9.75325 11.442546,13.37288 1.647875,2.46679 3.871952,6.80816 4.227912,8.25281 0.178647,0.72504 2.027836,1.89267 8.6076896,5.43525 7.498945,4.03739 22.1324294,9.82218 24.8926004,9.84033 0.676762,0.005 2.641293,-0.23145 4.365625,-0.52427 z m 155.533823,-50.9675 c 9.93039,-12.77361 18.51001,-28.86484 23.53857,-44.147 6.45465,-19.61616 8.59494,-39.46641 6.4421,-59.747071 l -0.30376,-2.861654 -0.6826,0.212754 c -3.09793,0.965597 -7.22141,-1.137102 -10.85022,-5.532905 -1.75818,-2.12979 -2.92156,-4.214098 -3.00606,-5.385634 -0.11338,-1.571886 1.91333,-1.009499 5.10391,1.41627 1.10059,0.836755 1.29069,0.892305 2.51355,0.734438 1.4288,-0.184454 3.59552,-1.079711 4.58374,-1.893943 l 0.615,-0.506719 -1.10247,-5.021935 c -1.29611,-5.904116 -3.43373,-13.463288 -5.17644,-18.305221 -1.19925,-3.331972 -1.31146,-3.525509 -3.28908,-5.673238 l -2.04746,-2.223582 -0.19732,-2.771404 c -0.18849,-2.647265 -0.26064,-2.897717 -1.61028,-5.591302 C 185.57812,19.692664 178.7593,9.465735 171.37023,0.68473034 167.7788,-3.583221 157.80618,-13.540523 153.72805,-16.930339 128.62026,-37.800378 99.867029,-49.295057 67.341597,-51.465056 c -4.901494,-0.327014 -16.157591,-0.16673 -19.976042,0.284454 -14.013941,1.655865 -22.190479,3.076225 -29.897916,5.193611 -3.812706,1.047428 -4.841343,1.578404 -2.513541,1.29748 2.700697,-0.325924 14.379781,-0.532201 20.108332,-0.355155 13.349751,0.412586 24.873016,2.7951 34.925,7.220976 2.482516,1.093052 2.522492,1.125318 3.238801,2.614268 2.053109,4.267685 5.852631,6.015292 14.195526,6.529295 10.508691,0.647436 12.695363,1.020059 14.883143,2.536198 1.64353,1.138962 2.41166,2.691508 2.55477,5.163674 0.0758,1.30914 0.25449,2.188451 0.48337,2.378406 0.19973,0.165756 0.36314,0.517168 0.36314,0.78092 0,0.26375 0.12796,0.814719 0.28435,1.224373 0.27792,0.72798 0.29318,0.732859 0.67469,0.215662 0.38896,-0.527296 0.39193,-0.527172 0.84013,0.03502 0.24738,0.3103 1.35083,1.619988 2.45211,2.910416 5.47512,6.4154819 7.17395,10.0364317 5.37328,11.4528336 -0.62871,0.4945433 -1.00928,0.5404829 -4.03489,0.4870741 -3.25919,-0.057534 -3.37603,-0.039722 -4.78824,0.72992716 -3.11209,1.69607966 -4.50368,4.74745304 -4.70371,10.31389994 -0.3043,8.4684022 3.15578,17.1377792 8.17865,20.4919232 5.70666,3.810759 12.01016,2.146609 11.97603,-3.161715 -0.0153,-2.377435 -1.51991,-4.706192 -4.11782,-6.37326 l -1.34454,-0.86279 0.11651,-1.404959 c 0.16656,-2.00842 0.73632,-2.558859 2.49754,-2.412806 3.5266,0.292454 9.3139,6.005456 11.11776,10.97504 0.79025,2.177106 0.82872,4.705207 0.0935,6.146303 -0.68425,1.341255 -2.66227,3.061194 -2.98921,2.599203 -0.18337,-0.259125 -0.2694,-0.244909 -0.39043,0.06452 -0.0854,0.218282 -0.86379,1.11125 -1.7298,1.984375 -2.73776,2.760263 -4.19176,5.362353 -5.18818,9.28483 -0.83339,3.28069 -1.08804,6.001784 -1.35954,14.52767 -0.35695,11.209257 -0.69681,13.787582 -2.51464,19.076928 -1.57328,4.577771 -1.16816,7.474913 1.23406,8.825032 4.30244,2.418106 12.53042,-1.289267 15.2747,-6.882498 1.17534,-2.395511 1.36027,-4.69112 0.59695,-7.410299 -0.7318,-2.606908 -0.72213,-4.081878 0.0349,-5.32085 1.22104,-1.998432 3.14618,-2.947339 9.00128,-4.436761 2.28696,-0.581755 4.74222,-1.309015 5.45613,-1.616133 2.21543,-0.95305 2.92829,-2.198846 2.29378,-4.008588 l -0.34339,-0.979421 1.01469,0.51766 c 1.29487,0.66059 3.77537,1.308888 5.00805,1.308888 4.74896,0 7.50901,-5.125844 6.63419,-12.320764 -0.53583,-4.406929 -1.77813,-8.127804 -3.64132,-10.906318 -1.10072,-1.641467 -1.14562,-1.781143 -0.8613,-2.679925 0.79229,-2.504668 2.46882,-4.243287 3.71141,-3.848902 1.56959,0.498168 3.36558,3.039317 4.1071,5.811118 0.47858,1.788898 0.43617,4.779132 -0.0863,6.085417 -1.18676,2.967048 0.70228,6.669063 4.51041,8.839178 0.74805,0.426281 2.5936,1.265269 4.10122,1.864418 3.79265,1.507239 4.56293,1.935017 5.64899,3.137144 1.65026,1.826651 1.57768,3.797442 -0.29419,7.987384 -0.55261,1.236927 -1.34546,3.08021 -1.76189,4.096186 -2.04422,4.987333 -5.94902,8.868304 -10.95872,10.891806 -3.86247,1.560129 -5.26685,1.781561 -11.38262,1.794769 -4.90582,0.01058 -6.10113,-0.07089 -8.68708,-0.592227 l -2.99855,-0.60451 -1.76395,0.963973 c -3.68145,2.011854 -6.91267,5.102894 -9.63192,9.21405 -0.87821,1.327743 -3.59197,6.462202 -6.03057,11.409914 -2.43861,4.94771 -4.92689,9.75043 -5.5295,10.67271 -3.39194,5.19125 -7.04229,14.39079 -8.52087,21.47416 -0.84157,4.03163 -0.85721,11.05854 -0.0319,14.33692 1.22036,4.84774 3.19214,8.38799 6.53823,11.73909 4.62036,4.62729 8.76935,6.51184 14.33633,6.51184 6.63571,0 13.52703,-3.1164 23.11356,-10.45244 l 2.77813,-2.12594 2.24896,-0.10624 c 7.58722,-0.35841 13.2557,3.76393 15.39332,11.1946 0.51724,1.79792 0.60336,2.69018 0.58658,6.07613 -0.0169,3.41583 -0.1176,4.33736 -0.72273,6.61458 -0.78407,2.9508 -2.54468,6.81662 -4.14065,9.09183 -0.98962,1.41078 -1.61102,3.3375 -1.58067,4.90106 0.009,0.47056 0.18266,0.37047 1.09482,-0.63143 0.59615,-0.65484 2.30068,-2.75571 3.7878,-4.66862 z M -30.957582,131.29405 c 0.384509,-0.28116 0.491541,-0.70532 0.491541,-1.94794 0,-2.44735 -0.966182,-3.75892 -4.048763,-5.4961 -3.038988,-1.71262 -6.57066,-1.86729 -7.5244,-0.32955 -0.438756,0.70742 0.501716,2.21158 2.224553,3.55788 0.800364,0.62544 2.068912,1.67331 2.818995,2.3286 2.286084,1.99719 4.80914,2.78573 6.038074,1.88711 z M 27.940731,74.035605 c 1.596509,-1.806911 1.179872,-3.267853 -1.274445,-4.468878 -1.336093,-0.653818 -1.828845,-0.74694 -3.964442,-0.749205 -2.185152,-0.0024 -2.50139,0.05995 -3.041513,0.598879 l -0.602797,0.601464 0.52797,0.974159 c 0.290383,0.535786 1.171507,1.49693 1.958052,2.135875 1.375431,1.11732 1.481606,1.15561 2.778125,1.001943 1.805334,-0.213974 2.223206,0.0661 1.574898,1.055542 l -0.490419,0.748471 0.885259,-0.516752 c 0.486892,-0.284213 1.229082,-0.905886 1.649312,-1.381498 z M 114.12628,56.795133 c 1.18788,-0.61214 2.66815,-2.037172 2.98684,-2.875383 0.50584,-1.330476 -0.58192,-3.61003 -2.41349,-5.057806 -1.68292,-1.330273 -3.67261,-2.268744 -5.69509,-2.686193 -3.504,-0.723239 -4.35083,0.827807 -1.94452,3.561527 1.06866,1.214056 1.09238,1.281006 0.79978,2.257607 -0.70395,2.349566 -0.0515,4.44087 1.6219,5.198309 1.07623,0.487153 3.29596,0.296915 4.64458,-0.398061 z M 50.520902,39.181604 c 0.760172,-1.164166 3.090495,-4.378854 5.178491,-7.14375 6.591202,-8.727971 9.002789,-12.806968 10.480627,-17.727082 0.618067,-2.057699 0.717611,-2.866578 0.732637,-5.9531252 0.0305,-6.2653596 -1.593266,-10.1923318 -5.244468,-12.6834103 -4.829087,-3.2947027 -12.807555,-2.5848309 -18.737183,1.6671131 -3.728103,2.67329966 -5.558631,5.7966926 -5.557781,9.4831136 5.29e-4,1.7779523 0.117755,2.2855369 0.917516,3.9687498 0.504376,1.061532 1.432804,2.525371 2.063173,3.252975 1.902164,2.195571 2.252951,3.238244 2.225347,6.614583 -0.01905,2.329225 -0.193413,3.597281 -0.873199,6.35 -1.809818,7.328652 -2.084633,10.228138 -1.21702,12.840282 0.717648,2.160638 3.204015,4.254095 5.950472,5.010147 0.605784,0.166762 0.747215,0.02447 1.680355,-1.69042 0.560396,-1.02988 1.640859,-2.825009 2.401033,-3.989176 z M 22.739033,34.83209 c 2.062377,-1.638972 3.592706,-4.205163 4.683107,-7.853048 0.798549,-2.6715 0.981784,-7.89941 0.365074,-10.415949 -1.004408,-4.098573 -3.524858,-6.211626 -6.815611,-5.71396 -1.767757,0.26734 -1.814824,0.350956 -1.205735,2.142061 0.714214,2.100231 0.5499,4.84396 -0.586062,9.786244 -0.940353,4.091234 -1.134695,7.195164 -0.57153,9.128125 0.441299,1.514668 2.014787,3.704166 2.66201,3.704166 0.269619,0 0.930556,-0.349938 1.468747,-0.777639 z M 39.25791,-1.1728933 c 1.571323,-0.7130124 4.462129,-3.0533339 4.959448,-4.0150414 0.570095,-1.102442 0.548587,-2.2738741 -0.05217,-2.8413233 -0.749837,-0.7082631 -3.123718,-1.082339 -4.859271,-0.7657253 -1.742525,0.3178863 -2.562823,0.7222093 -3.483552,1.7170294 -1.050068,1.1345677 -1.2891,1.7650194 -1.2891,3.4000174 0,1.2973314 0.101341,1.5942945 0.773398,2.266352 0.941157,0.94115992 2.23139,1.01910087 3.951248,0.2386912 z"
           id="path50"
           inkscape:connector-curvature="0" />
      </g>
    </g>
  </g>
</svg>
