<?xml version="1.0" encoding="UTF-8" standalone="no"?>
<!-- Created with Inkscape (http://www.inkscape.org/) -->

<svg
   xmlns:dc="http://purl.org/dc/elements/1.1/"
   xmlns:cc="http://creativecommons.org/ns#"
   xmlns:rdf="http://www.w3.org/1999/02/22-rdf-syntax-ns#"
   xmlns:svg="http://www.w3.org/2000/svg"
   xmlns="http://www.w3.org/2000/svg"
   xmlns:sodipodi="http://sodipodi.sourceforge.net/DTD/sodipodi-0.dtd"
   xmlns:inkscape="http://www.inkscape.org/namespaces/inkscape"
   width="46.363823mm"
   height="41.411224mm"
   viewBox="0 0 46.363823 41.411224"
   version="1.1"
   id="svg8"
   inkscape:version="0.92.1 r15371"
   sodipodi:docname="icon_3.svg">
  <defs
     id="defs2" />
  <sodipodi:namedview
     id="base"
     pagecolor="#ffffff"
     bordercolor="#666666"
     borderopacity="1.0"
     inkscape:pageopacity="0.0"
     inkscape:pageshadow="2"
     inkscape:zoom="0.35"
     inkscape:cx="160.47381"
     inkscape:cy="178.68811"
     inkscape:document-units="mm"
     inkscape:current-layer="layer1"
     showgrid="false"
     inkscape:window-width="1920"
     inkscape:window-height="1017"
     inkscape:window-x="-8"
     inkscape:window-y="-8"
     inkscape:window-maximized="1"
     fit-margin-top="0"
     fit-margin-left="0"
     fit-margin-right="0"
     fit-margin-bottom="0" />
  <metadata
     id="metadata5">
    <rdf:RDF>
      <cc:Work
         rdf:about="">
        <dc:format>image/svg+xml</dc:format>
        <dc:type
           rdf:resource="http://purl.org/dc/dcmitype/StillImage" />
        <dc:title></dc:title>
      </cc:Work>
    </rdf:RDF>
  </metadata>
  <g
     inkscape:label="Layer 1"
     inkscape:groupmode="layer"
     id="layer1"
     transform="translate(-63.374637,-154.7)">
    <g
       transform="matrix(0.13865539,0,0,0.13865539,105.5442,171.93216)"
       id="layer1-0"
       inkscape:label="Layer 1">
      <g
         transform="translate(-3.023809,-6.0476224)"
         id="g75">
        <path
           inkscape:connector-curvature="0"
           id="path89"
           d="m -228.94623,180.26885 c 0.19099,-0.0764 0.4192,-0.067 0.50712,0.0209 0.0879,0.0879 -0.0684,0.15047 -0.34727,0.13899 -0.30822,-0.0127 -0.37092,-0.0754 -0.15985,-0.15987 z m 189.706245,0 c 0.190995,-0.0764 0.419206,-0.067 0.507127,0.0209 0.08792,0.0879 -0.06837,0.15047 -0.347273,0.13899 -0.308227,-0.0127 -0.37092,-0.0754 -0.159854,-0.15987 z m 14.072526,-5.93797 c 0,-0.0728 0.357188,-0.4745 0.79375,-0.89275 0.436563,-0.41826 0.79375,-0.70094 0.79375,-0.62818 0,0.0728 -0.357187,0.47451 -0.79375,0.89276 -0.436562,0.41825 -0.79375,0.70093 -0.79375,0.62817 z m -218.565851,-0.9589 -0.64144,-0.7276 0.72761,0.64143 c 0.68005,0.59952 0.84894,0.81378 0.64143,0.81378 -0.0474,0 -0.37481,-0.32743 -0.7276,-0.72761 z m 40.69005,-21.95671 c 0.75867,-0.0533 2.06836,-0.0537 2.91042,0 0.84205,0.0527 0.22132,0.0962 -1.37941,0.0968 -1.60073,0 -2.28968,-0.0425 -1.53101,-0.0958 z m 135.20208,0 c 0.758671,-0.0533 2.068359,-0.0537 2.910416,0 0.842058,0.0527 0.221327,0.0962 -1.379402,0.0968 -1.600729,0 -2.289686,-0.0425 -1.531014,-0.0958 z m -13.682528,-5.22923 c -0.181157,-0.21828 -0.269846,-0.39687 -0.197085,-0.39687 0.07276,0 0.280511,0.17859 0.461669,0.39687 0.181157,0.21829 0.269846,0.39688 0.197085,0.39688 -0.07276,0 -0.280511,-0.17859 -0.461669,-0.39688 z M -202.43829,63.90063 c -0.18116,-0.218281 -0.26984,-0.396875 -0.19708,-0.396875 0.0728,0 0.28051,0.178594 0.46166,0.396875 0.18116,0.218281 0.26985,0.396875 0.19709,0.396875 -0.0728,0 -0.28051,-0.178594 -0.46167,-0.396875 z m 136.524999,0.296979 c 0,-0.05494 0.208359,-0.2633 0.46302,-0.463021 0.419646,-0.329107 0.429004,-0.319749 0.0999,0.0999 -0.345644,0.44073 -0.562917,0.580887 -0.562917,0.363125 z m 1.852083,-1.852083 c 0,-0.05494 0.208359,-0.263301 0.463021,-0.463021 0.419645,-0.329108 0.429003,-0.319749 0.0999,0.0999 -0.345644,0.440729 -0.562917,0.580887 -0.562917,0.363125 z m 79.304434,-7.34127 c 0.179493,-0.180821 0.392986,-0.262114 0.474451,-0.180652 0.08144,0.08146 -0.06541,0.229407 -0.326337,0.328766 -0.377084,0.143584 -0.407459,0.113194 -0.148114,-0.148114 z M -296.62995,48.290214 c -0.18116,-0.218282 -0.26985,-0.396875 -0.19709,-0.396875 0.0728,0 0.28051,0.178593 0.46167,0.396875 0.18116,0.218281 0.26985,0.396875 0.19709,0.396875 -0.0728,0 -0.28052,-0.178594 -0.46167,-0.396875 z m 324.908323,0.296979 c 0,-0.05494 0.20836,-0.263301 0.463021,-0.463021 0.419656,-0.329108 0.428996,-0.319749 0.09991,0.0999 -0.345652,0.440729 -0.562928,0.580887 -0.562928,0.363125 z M 27.59178,12.63761 l -0.504032,-0.595312 0.595313,0.504029 c 0.559435,0.473662 0.715751,0.686596 0.504031,0.686596 -0.05022,0 -0.318108,-0.267891 -0.595312,-0.595313 z m -268.92382,-25.962916 c 0,-0.05494 0.20836,-0.2633 0.46302,-0.463021 0.41965,-0.329107 0.42901,-0.319749 0.0999,0.0999 -0.34564,0.440729 -0.56292,0.580887 -0.56292,0.363124 z m 204.522915,-0.296979 c -0.18116,-0.218281 -0.269849,-0.396875 -0.197088,-0.396875 0.07276,0 0.280511,0.178594 0.461671,0.396875 0.18116,0.218282 0.269849,0.396875 0.197088,0.396875 -0.07276,0 -0.280511,-0.178593 -0.461671,-0.396875 z m -164.570835,-0.232187 c 0,-0.05494 0.20836,-0.2633 0.46303,-0.463021 0.41964,-0.329107 0.429,-0.319749 0.0999,0.0999 -0.34564,0.44073 -0.56292,0.580887 -0.56292,0.363125 z m 123.932156,-1.024583 -0.504029,-0.595313 0.595313,0.504029 c 0.559445,0.473662 0.715761,0.686596 0.504028,0.686596 -0.05021,0 -0.318098,-0.267891 -0.595312,-0.595312 z m -161.502986,-1.092084 c 0,-0.05494 0.20836,-0.2633 0.46302,-0.463021 0.41965,-0.329107 0.42901,-0.319749 0.0999,0.0999 -0.34564,0.44073 -0.56292,0.580888 -0.56292,0.363125 z m 199.602985,-0.495416 -0.504029,-0.595313 0.595313,0.504029 c 0.559435,0.473662 0.715751,0.686596 0.504031,0.686596 -0.05022,0 -0.3181,-0.267891 -0.595315,-0.595312 z m -159.386315,-0.298334 c 0,-0.05494 0.20836,-0.2633 0.46302,-0.463021 0.41964,-0.329107 0.429,-0.319749 0.0999,0.0999 -0.34564,0.44073 -0.56291,0.580888 -0.56291,0.363125 z m 118.797912,-0.826146 c -0.181157,-0.218281 -0.269846,-0.396875 -0.197085,-0.396875 0.07276,0 0.280511,0.178594 0.461669,0.396875 0.181157,0.218282 0.269845,0.396875 0.197085,0.396875 -0.07276,0 -0.280511,-0.178593 -0.461669,-0.396875 z m -156.368742,-1.290521 c 0,-0.05494 0.20835,-0.2633 0.46302,-0.46302 0.41964,-0.329108 0.429,-0.319749 0.0999,0.0999 -0.34564,0.440729 -0.56291,0.580887 -0.56291,0.363124 z m 194.468742,-0.296978 c -0.181158,-0.218282 -0.269846,-0.396875 -0.197086,-0.396875 0.07276,0 0.280511,0.178593 0.461669,0.396875 0.181157,0.218281 0.269846,0.396874 0.197085,0.396874 -0.07276,0 -0.280511,-0.178593 -0.461668,-0.396874 z m -154.252082,-0.496772 c 0,-0.05494 0.20836,-0.2633 0.46302,-0.46302 0.41965,-0.329108 0.42901,-0.319749 0.0999,0.0999 -0.34565,0.440729 -0.56292,0.580887 -0.56292,0.363124 z m 113.506249,-0.826145 c -0.181158,-0.218281 -0.269846,-0.396875 -0.197085,-0.396875 0.07276,0 0.280511,0.178594 0.461668,0.396875 0.181158,0.218281 0.269846,0.396875 0.197086,0.396875 -0.07276,0 -0.280511,-0.178594 -0.461669,-0.396875 z m -151.077079,-1.290521 c 0,-0.05494 0.20836,-0.2633 0.46302,-0.463021 0.41964,-0.329107 0.429,-0.319749 0.0999,0.0999 -0.34565,0.44073 -0.56292,0.580887 -0.56292,0.363125 z m 189.177078,-0.296979 c -0.181157,-0.218281 -0.269846,-0.396875 -0.197085,-0.396875 0.07276,0 0.280511,0.178594 0.461669,0.396875 0.181157,0.218281 0.269845,0.396875 0.197085,0.396875 -0.07276,0 -0.280511,-0.178594 -0.461669,-0.396875 z m -148.960418,-0.496771 c 0,-0.05494 0.20836,-0.2633 0.46303,-0.463021 0.41964,-0.329107 0.429,-0.319749 0.0999,0.0999 -0.34564,0.44073 -0.56292,0.580888 -0.56292,0.363125 z m 108.214586,-0.826146 c -0.181158,-0.218281 -0.269846,-0.396875 -0.197086,-0.396875 0.07276,0 0.280511,0.178594 0.461669,0.396875 0.181158,0.218282 0.269846,0.396875 0.197086,0.396875 -0.07276,0 -0.280512,-0.178593 -0.461669,-0.396875 z M -230.881,-24.867076 c 0.26339,-0.291042 0.53843,-0.529167 0.61119,-0.529167 0.0728,0 -0.0832,0.238125 -0.3466,0.529167 -0.26339,0.291042 -0.53842,0.529167 -0.61119,0.529167 -0.0728,0 0.0832,-0.238125 0.3466,-0.529167 z m 183.753125,-0.132292 c -0.181158,-0.218281 -0.269846,-0.396875 -0.197086,-0.396875 0.07276,0 0.280512,0.178594 0.461669,0.396875 0.181158,0.218282 0.269846,0.396875 0.197086,0.396875 -0.07276,0 -0.280511,-0.178593 -0.461669,-0.396875 z m -143.536455,-0.661458 c 0.26339,-0.291042 0.53842,-0.529167 0.61118,-0.529167 0.0728,0 -0.0832,0.238125 -0.3466,0.529167 -0.26339,0.291042 -0.53842,0.529167 -0.61118,0.529167 -0.0728,0 0.0832,-0.238125 0.3466,-0.529167 z m 102.897776,-0.595312 -0.504029,-0.595313 0.595313,0.504029 c 0.559445,0.473662 0.715761,0.686596 0.504029,0.686596 -0.05021,0 -0.318098,-0.267891 -0.595313,-0.595312 z m -140.865486,-1.092084 c 0,-0.05494 0.20836,-0.2633 0.46302,-0.463021 0.41965,-0.329107 0.42901,-0.319749 0.0999,0.0999 -0.34564,0.44073 -0.56292,0.580888 -0.56292,0.363125 z m 178.858332,-0.561562 c -0.181158,-0.218281 -0.269846,-0.396875 -0.197086,-0.396875 0.07276,0 0.280511,0.178594 0.461669,0.396875 0.181158,0.218281 0.269846,0.396875 0.197085,0.396875 -0.07276,0 -0.280511,-0.178594 -0.461668,-0.396875 z m -138.641662,-0.232188 c 0,-0.05494 0.20836,-0.2633 0.46302,-0.463021 0.41964,-0.329107 0.429,-0.319749 0.0999,0.0999 -0.34564,0.44073 -0.56291,0.580888 -0.56291,0.363125 z m 98.160412,-0.826146 c -0.181157,-0.218281 -0.269845,-0.396875 -0.197085,-0.396875 0.07276,0 0.280511,0.178594 0.461669,0.396875 0.181157,0.218282 0.269846,0.396875 0.197085,0.396875 -0.07276,0 -0.280511,-0.178593 -0.461669,-0.396875 z M -225.9862,-30.258639 c 0,-0.05494 0.20835,-0.2633 0.46302,-0.46302 0.41964,-0.329108 0.429,-0.319749 0.0999,0.0999 -0.34564,0.440729 -0.56291,0.580887 -0.56291,0.363124 z m 173.673812,-0.495416 -0.504029,-0.595312 0.595313,0.504028 c 0.559445,0.473662 0.715761,0.686596 0.504028,0.686596 -0.05021,0 -0.318097,-0.26789 -0.595312,-0.595312 z m -133.457152,-0.298334 c 0,-0.05494 0.20836,-0.2633 0.46302,-0.46302 0.41965,-0.329108 0.42901,-0.319749 0.0999,0.0999 -0.34565,0.440729 -0.56292,0.580887 -0.56292,0.363124 z m 92.868749,-0.826145 c -0.181157,-0.218281 -0.269846,-0.396875 -0.197085,-0.396875 0.07276,0 0.280511,0.178594 0.461669,0.396875 0.181157,0.218281 0.269845,0.396875 0.197085,0.396875 -0.07276,0 -0.280511,-0.178594 -0.461669,-0.396875 z m -130.439579,-1.290521 c 0,-0.05494 0.20836,-0.2633 0.46302,-0.463021 0.41964,-0.329107 0.429,-0.319749 0.0999,0.0999 -0.34565,0.44073 -0.56292,0.580887 -0.56292,0.363125 z m 168.539578,-0.296979 c -0.181157,-0.218281 -0.269845,-0.396875 -0.197085,-0.396875 0.07276,0 0.280511,0.178594 0.461669,0.396875 0.181157,0.218281 0.269846,0.396875 0.197085,0.396875 -0.07276,0 -0.280511,-0.178594 -0.461669,-0.396875 z m -128.322918,-0.496771 c 0,-0.05494 0.20836,-0.2633 0.46303,-0.463021 0.41964,-0.329107 0.429,-0.319749 0.0999,0.0999 -0.34564,0.44073 -0.56292,0.580887 -0.56292,0.363125 z m 87.577086,-0.826146 c -0.181158,-0.218281 -0.269846,-0.396875 -0.197086,-0.396875 0.07276,0 0.280512,0.178594 0.461669,0.396875 0.181158,0.218282 0.269846,0.396875 0.197086,0.396875 -0.07276,0 -0.280512,-0.178593 -0.461669,-0.396875 z m -125.015626,-1.455208 c 0.26339,-0.291042 0.53843,-0.529167 0.61119,-0.529167 0.0728,0 -0.0832,0.238125 -0.3466,0.529167 -0.26339,0.291042 -0.53843,0.529167 -0.61119,0.529167 -0.0728,0 0.0832,-0.238125 0.3466,-0.529167 z m 163.115625,-0.132292 c -0.181157,-0.218281 -0.269846,-0.396875 -0.197085,-0.396875 0.07276,0 0.280511,0.178594 0.461668,0.396875 0.181158,0.218282 0.269846,0.396875 0.197086,0.396875 -0.07276,0 -0.280511,-0.178593 -0.461669,-0.396875 z m -123.031245,-0.496771 c 0,-0.05494 0.20836,-0.2633 0.46302,-0.463021 0.41964,-0.329107 0.429,-0.319749 0.0999,0.0999 -0.34564,0.440729 -0.56291,0.580887 -0.56291,0.363124 z m 82.392566,-0.759999 -0.504028,-0.595313 0.595312,0.504029 c 0.559446,0.473662 0.715762,0.686596 0.504029,0.686596 -0.05021,0 -0.318098,-0.267891 -0.595313,-0.595312 z m -120.227986,-1.092084 c 0,-0.05494 0.20836,-0.2633 0.46302,-0.463021 0.41965,-0.329107 0.42901,-0.319749 0.0999,0.0999 -0.34565,0.44073 -0.56292,0.580888 -0.56292,0.363125 z m 158.220832,-0.561562 c -0.181158,-0.218282 -0.269846,-0.396875 -0.197086,-0.396875 0.07276,0 0.280512,0.178593 0.461669,0.396875 0.181158,0.218281 0.269846,0.396875 0.197086,0.396875 -0.07276,0 -0.280512,-0.178594 -0.461669,-0.396875 z m -117.739582,-0.496771 c 0,-0.05494 0.20836,-0.2633 0.46302,-0.463021 0.41965,-0.329107 0.42901,-0.319749 0.0999,0.0999 -0.34565,0.44073 -0.56292,0.580887 -0.56292,0.363125 z m 77.25833,-0.561563 c -0.18115,-0.218281 -0.26984,-0.396875 -0.19708,-0.396875 0.0728,0 0.28051,0.178594 0.46167,0.396875 0.18115,0.218282 0.26984,0.396875 0.19708,0.396875 -0.0728,0 -0.28051,-0.178593 -0.46167,-0.396875 z m -115.09375,-1.290521 c 0,-0.05494 0.20836,-0.2633 0.46303,-0.46302 0.41964,-0.329108 0.429,-0.319749 0.0999,0.0999 -0.34564,0.440729 -0.56292,0.580887 -0.56292,0.363124 z m 152.929169,-0.561562 c -0.181158,-0.218281 -0.269846,-0.396875 -0.197086,-0.396875 0.07276,0 0.280511,0.178594 0.461669,0.396875 0.181157,0.218281 0.269846,0.396875 0.197085,0.396875 -0.07276,0 -0.280511,-0.178594 -0.461668,-0.396875 z m -112.447919,-0.496771 c 0,-0.05494 0.20836,-0.2633 0.46302,-0.463021 0.41965,-0.329107 0.42901,-0.319749 0.0999,0.0999 -0.34564,0.44073 -0.56292,0.580888 -0.56292,0.363125 z m 71.96667,-0.561562 c -0.18116,-0.218281 -0.26985,-0.396875 -0.19709,-0.396875 0.0728,0 0.28052,0.178594 0.46167,0.396875 0.18116,0.218281 0.26985,0.396875 0.19709,0.396875 -0.0728,0 -0.28051,-0.178594 -0.46167,-0.396875 z m -109.80208,-1.290521 c 0,-0.05494 0.20836,-0.2633 0.46302,-0.463021 0.41964,-0.329107 0.429,-0.319749 0.0999,0.0999 -0.34565,0.44073 -0.56292,0.580887 -0.56292,0.363125 z m 147.744649,-0.495417 -0.504029,-0.595312 0.595313,0.504028 c 0.559445,0.473663 0.715761,0.686597 0.504028,0.686597 -0.05021,0 -0.318098,-0.267891 -0.595312,-0.595313 z m -107.131109,-0.727604 c 0.26339,-0.291041 0.53842,-0.529166 0.61118,-0.529166 0.0728,0 -0.0832,0.238125 -0.3466,0.529166 -0.26339,0.291042 -0.53842,0.529167 -0.61118,0.529167 -0.0728,0 0.0832,-0.238125 0.3466,-0.529167 z m 66.54271,-0.396875 c -0.18116,-0.218281 -0.26985,-0.396875 -0.19709,-0.396875 0.0728,0 0.28051,0.178594 0.46167,0.396875 0.18116,0.218281 0.26985,0.396875 0.19708,0.396875 -0.0728,0 -0.28051,-0.178594 -0.46166,-0.396875 z m -104.37813,-1.455208 c 0.26339,-0.291042 0.53842,-0.529167 0.61119,-0.529167 0.0728,0 -0.0832,0.238125 -0.3466,0.529167 -0.26339,0.291042 -0.53843,0.529167 -0.61119,0.529167 -0.0728,0 0.0832,-0.238125 0.3466,-0.529167 z m 142.320696,-0.330729 -0.504029,-0.595313 0.595313,0.504029 c 0.559445,0.473662 0.715761,0.686596 0.504028,0.686596 -0.05021,0 -0.318098,-0.26789 -0.595312,-0.595312 z m -101.839446,-0.727604 c 0.26339,-0.291042 0.53842,-0.529167 0.61118,-0.529167 0.0728,0 -0.0832,0.238125 -0.34659,0.529167 -0.26339,0.291041 -0.53843,0.529166 -0.61119,0.529166 -0.0728,0 0.0832,-0.238125 0.3466,-0.529166 z m 61.3582,-0.33073 -0.50403,-0.595312 0.59531,0.504029 c 0.55945,0.473662 0.71576,0.686596 0.50403,0.686596 -0.0502,0 -0.3181,-0.267891 -0.59531,-0.595313 z m -99.59049,-1.092083 c 0,-0.05494 0.20836,-0.2633 0.46302,-0.463021 0.41965,-0.329107 0.42901,-0.319749 0.0999,0.0999 -0.34565,0.44073 -0.56292,0.580888 -0.56292,0.363125 z m 137.583332,-0.561562 c -0.181157,-0.218282 -0.269846,-0.396875 -0.197085,-0.396875 0.07276,0 0.280511,0.178593 0.461668,0.396875 0.181158,0.218281 0.269846,0.396875 0.197086,0.396875 -0.07276,0 -0.280511,-0.178594 -0.461669,-0.396875 z m -97.102082,-0.496771 c 0,-0.05494 0.20836,-0.2633 0.46302,-0.463021 0.41965,-0.329107 0.429,-0.319749 0.0999,0.0999 -0.34565,0.44073 -0.56292,0.580887 -0.56292,0.363125 z m 56.62083,-0.561563 c -0.18115,-0.218281 -0.26984,-0.396875 -0.19708,-0.396875 0.0728,0 0.28051,0.178594 0.46167,0.396875 0.18115,0.218282 0.26984,0.396875 0.19708,0.396875 -0.0728,0 -0.28051,-0.178593 -0.46167,-0.396875 z m -94.45625,-1.290521 c 0,-0.05494 0.20836,-0.2633 0.46303,-0.46302 0.41964,-0.329108 0.429,-0.319749 0.0999,0.0999 -0.34564,0.440729 -0.56292,0.580887 -0.56292,0.363124 z m 132.291669,-0.561562 c -0.181158,-0.218281 -0.269846,-0.396875 -0.197086,-0.396875 0.07276,0 0.280512,0.178594 0.461669,0.396875 0.181158,0.218281 0.269846,0.396875 0.197086,0.396875 -0.07276,0 -0.280512,-0.178594 -0.461669,-0.396875 z m -91.810419,-0.496771 c 0,-0.05494 0.20836,-0.2633 0.46302,-0.463021 0.41965,-0.329107 0.42901,-0.319749 0.0999,0.0999 -0.34564,0.44073 -0.56292,0.580888 -0.56292,0.363125 z m 51.32917,-0.561562 c -0.18116,-0.218281 -0.26985,-0.396875 -0.19709,-0.396875 0.0728,0 0.28052,0.178594 0.46167,0.396875 0.18116,0.218281 0.26985,0.396875 0.19709,0.396875 -0.0728,0 -0.28051,-0.178594 -0.46167,-0.396875 z m -89.16458,-1.290521 c 0,-0.05494 0.20836,-0.2633 0.46302,-0.463021 0.41964,-0.329107 0.429,-0.319749 0.0999,0.0999 -0.34564,0.44073 -0.56291,0.580887 -0.56291,0.363125 z m 126.999996,-0.561562 c -0.181158,-0.218282 -0.269846,-0.396875 -0.197086,-0.396875 0.07276,0 0.280511,0.178593 0.461669,0.396875 0.181157,0.218281 0.269846,0.396875 0.197085,0.396875 -0.07276,0 -0.280511,-0.178594 -0.461668,-0.396875 z m -86.518746,-0.496772 c 0,-0.05494 0.20836,-0.2633 0.46302,-0.46302 0.41964,-0.329108 0.429,-0.319749 0.0999,0.0999 -0.34564,0.440729 -0.56291,0.580887 -0.56291,0.363124 z m 46.0375,-0.561562 c -0.18116,-0.218281 -0.26985,-0.396875 -0.19709,-0.396875 0.0728,0 0.28051,0.178594 0.46167,0.396875 0.18116,0.218281 0.26985,0.396875 0.19709,0.396875 -0.0728,0 -0.28052,-0.178594 -0.46167,-0.396875 z m -84.1375,-1.025937 c 0,-0.05494 0.20836,-0.263301 0.46302,-0.463021 0.41964,-0.329108 0.429,-0.319749 0.0999,0.0999 -0.34564,0.440729 -0.56291,0.580887 -0.56291,0.363125 z M -78.348708,-59.3952 c -0.181157,-0.218281 -0.269846,-0.396875 -0.197085,-0.396875 0.07276,0 0.280511,0.178594 0.461669,0.396875 0.181157,0.218281 0.269845,0.396875 0.197085,0.396875 -0.07276,0 -0.280511,-0.178594 -0.461669,-0.396875 z m -81.227082,-0.496771 c 0,-0.05494 0.20836,-0.2633 0.46302,-0.463021 0.41965,-0.329107 0.429,-0.319749 0.0999,0.0999 -0.34565,0.44073 -0.56292,0.580888 -0.56292,0.363125 z m 40.85299,-0.495417 -0.50403,-0.595312 0.59531,0.504029 c 0.55945,0.473662 0.71576,0.686596 0.50403,0.686596 -0.0502,0 -0.3181,-0.267891 -0.59531,-0.595313 z m -78.95299,-1.092083 c 0,-0.05494 0.20836,-0.2633 0.46302,-0.463021 0.41965,-0.329107 0.42901,-0.319749 0.0999,0.0999 -0.34565,0.44073 -0.56292,0.580888 -0.56292,0.363125 z m 116.788403,-0.76 -0.504029,-0.595312 0.595312,0.504028 c 0.559446,0.473663 0.715762,0.686597 0.504029,0.686597 -0.05021,0 -0.318098,-0.267891 -0.595312,-0.595313 z m -76.042573,-0.562917 c 0,-0.05494 0.20836,-0.2633 0.46302,-0.463021 0.41965,-0.329107 0.42901,-0.319748 0.0999,0.0999 -0.34564,0.440729 -0.56292,0.580887 -0.56292,0.363124 z m 35.71875,-0.296979 c -0.18115,-0.218281 -0.26984,-0.396875 -0.19708,-0.396875 0.0728,0 0.28051,0.178594 0.46167,0.396875 0.18115,0.218282 0.26984,0.396875 0.19708,0.396875 -0.0728,0 -0.28051,-0.178593 -0.46167,-0.396875 z m -73.81875,-1.290521 c 0,-0.05494 0.20836,-0.2633 0.46303,-0.46302 0.41964,-0.329108 0.429,-0.319749 0.0999,0.0999 -0.34564,0.440729 -0.56292,0.580887 -0.56292,0.363124 z m 111.654169,-0.561562 c -0.181158,-0.218281 -0.269846,-0.396875 -0.197085,-0.396875 0.07276,0 0.280511,0.178594 0.461668,0.396875 0.181158,0.218281 0.269846,0.396875 0.197086,0.396875 -0.07276,0 -0.280511,-0.178594 -0.461669,-0.396875 z m -70.776039,-0.926042 c 0.26339,-0.291041 0.53842,-0.529166 0.61118,-0.529166 0.0728,0 -0.0832,0.238125 -0.3466,0.529166 -0.26339,0.291042 -0.53842,0.529167 -0.61118,0.529167 -0.0728,0 0.0832,-0.238125 0.3466,-0.529167 z m 30.29479,-0.132291 c -0.18116,-0.218281 -0.26985,-0.396875 -0.19709,-0.396875 0.0728,0 0.28052,0.178594 0.46167,0.396875 0.18116,0.218281 0.26985,0.396875 0.19709,0.396875 -0.0728,0 -0.28051,-0.178594 -0.46167,-0.396875 z m -68.39479,-1.455209 c 0.26339,-0.291041 0.53842,-0.529166 0.61118,-0.529166 0.0728,0 -0.0832,0.238125 -0.3466,0.529166 -0.26339,0.291042 -0.53842,0.529167 -0.61118,0.529167 -0.0728,0 0.0832,-0.238125 0.3466,-0.529167 z m 106.230206,-0.396874 c -0.181158,-0.218282 -0.269846,-0.396875 -0.197086,-0.396875 0.07276,0 0.280511,0.178593 0.461669,0.396875 0.181158,0.218281 0.269846,0.396874 0.197086,0.396874 -0.07276,0 -0.280512,-0.178593 -0.461669,-0.396874 z M -151.506,-68.787908 c 0.26339,-0.291042 0.53842,-0.529167 0.61118,-0.529167 0.0728,0 -0.0832,0.238125 -0.34659,0.529167 -0.26339,0.291042 -0.53843,0.529167 -0.61119,0.529167 -0.0728,0 0.0832,-0.238125 0.3466,-0.529167 z m 25.00313,-0.132292 c -0.18116,-0.218281 -0.26985,-0.396875 -0.19709,-0.396875 0.0728,0 0.28051,0.178594 0.46167,0.396875 0.18116,0.218281 0.26985,0.396875 0.19709,0.396875 -0.0728,0 -0.28052,-0.178594 -0.46167,-0.396875 z m -63.5,-1.025938 c 0,-0.05494 0.20836,-0.2633 0.46302,-0.46302 0.41964,-0.329108 0.429,-0.319749 0.0999,0.0999 -0.34564,0.440729 -0.56291,0.580887 -0.56291,0.363124 z m 101.335412,-0.826145 c -0.181157,-0.218281 -0.269845,-0.396875 -0.197085,-0.396875 0.07276,0 0.280511,0.178594 0.461669,0.396875 0.181157,0.218281 0.269846,0.396875 0.197085,0.396875 -0.07276,0 -0.280511,-0.178594 -0.461669,-0.396875 z m -60.192702,-0.926042 c 0.26339,-0.291041 0.53842,-0.529166 0.61118,-0.529166 0.0728,0 -0.0832,0.238125 -0.3466,0.529166 -0.26339,0.291042 -0.53842,0.529167 -0.61118,0.529167 -0.0728,0 0.0832,-0.238125 0.3466,-0.529167 z m 19.81861,-0.06615 -0.50403,-0.595312 0.59531,0.504029 c 0.55945,0.473662 0.71576,0.686596 0.50403,0.686596 -0.0502,0 -0.3181,-0.267891 -0.59531,-0.595313 z m -58.31549,-1.092083 c 0,-0.05494 0.20836,-0.2633 0.46302,-0.463021 0.41965,-0.329107 0.42901,-0.319749 0.0999,0.0999 -0.34565,0.44073 -0.56292,0.580888 -0.56292,0.363125 z m 96.043749,-0.826146 c -0.181157,-0.218281 -0.269846,-0.396875 -0.197085,-0.396875 0.07276,0 0.280511,0.178594 0.461668,0.396875 0.181158,0.218282 0.269846,0.396875 0.197086,0.396875 -0.07276,0 -0.280511,-0.178593 -0.461669,-0.396875 z m -93.397919,-2.084271 c 0,-0.05494 0.20836,-0.2633 0.46303,-0.463021 0.41964,-0.329107 0.429,-0.319748 0.0999,0.0999 -0.34564,0.440729 -0.56292,0.580887 -0.56292,0.363124 z m 90.859239,-0.759999 -0.504028,-0.595313 0.595312,0.504029 c 0.559446,0.473662 0.715762,0.686596 0.504029,0.686596 -0.05021,0 -0.318098,-0.267891 -0.595313,-0.595312 z m -88.081109,-2.315105 c 0.26339,-0.291041 0.53842,-0.529166 0.61118,-0.529166 0.0728,0 -0.0832,0.238125 -0.3466,0.529166 -0.26339,0.291042 -0.53842,0.529167 -0.61118,0.529167 -0.0728,0 0.0832,-0.238125 0.3466,-0.529167 z m 85.592706,-0.396875 c -0.181158,-0.218281 -0.269846,-0.396875 -0.197086,-0.396875 0.07276,0 0.280512,0.178594 0.461669,0.396875 0.181158,0.218282 0.269846,0.396875 0.197086,0.396875 -0.07276,0 -0.280512,-0.178593 -0.461669,-0.396875 z m -83.343746,-2.084271 c 0,-0.05494 0.20836,-0.2633 0.46302,-0.46302 0.41964,-0.329108 0.429,-0.319749 0.0999,0.0999 -0.34564,0.440729 -0.56291,0.580887 -0.56291,0.363124 z m 80.697913,-0.826145 c -0.181158,-0.218281 -0.269846,-0.396875 -0.197086,-0.396875 0.07276,0 0.280511,0.178594 0.461669,0.396875 0.181158,0.218281 0.269846,0.396875 0.197085,0.396875 -0.07276,0 -0.280511,-0.178594 -0.461668,-0.396875 z m -78.052083,-2.084271 c 0,-0.05494 0.20836,-0.2633 0.46302,-0.463021 0.41965,-0.329107 0.42901,-0.319749 0.0999,0.0999 -0.34565,0.44073 -0.56292,0.580888 -0.56292,0.363125 z m 75.40625,-0.826146 c -0.18116,-0.218281 -0.26985,-0.396875 -0.19709,-0.396875 0.0728,0 0.28052,0.178594 0.46167,0.396875 0.18116,0.218282 0.26985,0.396875 0.19709,0.396875 -0.0728,0 -0.28051,-0.178593 -0.46167,-0.396875 z m -72.76042,-2.084271 c 0,-0.05494 0.20836,-0.2633 0.46302,-0.463021 0.41965,-0.329107 0.42901,-0.319748 0.0999,0.0999 -0.34564,0.440729 -0.56292,0.580887 -0.56292,0.363124 z m 70.11459,-0.826145 c -0.18116,-0.218282 -0.26985,-0.396875 -0.19709,-0.396875 0.0728,0 0.28051,0.178593 0.46167,0.396875 0.18116,0.218281 0.26985,0.396875 0.19708,0.396875 -0.0728,0 -0.28051,-0.178594 -0.46166,-0.396875 z m -67.33646,-2.248959 c 0.26339,-0.291041 0.53842,-0.529166 0.61118,-0.529166 0.0728,0 -0.0832,0.238125 -0.3466,0.529166 -0.26339,0.291042 -0.53842,0.529167 -0.61118,0.529167 -0.0728,0 0.0832,-0.238125 0.3466,-0.529167 z m 64.79778,-0.595312 -0.50403,-0.595313 0.59531,0.504029 c 0.32742,0.277215 0.59531,0.545105 0.59531,0.595313 0,0.211732 -0.21293,0.05542 -0.68659,-0.504029 z m -62.54882,-1.885834 c 0,-0.05494 0.20836,-0.2633 0.46302,-0.46302 0.41964,-0.329108 0.429,-0.319749 0.0999,0.0999 -0.34564,0.440729 -0.56291,0.580887 -0.56291,0.363124 z m 60.06041,-0.826145 c -0.18115,-0.218281 -0.26984,-0.396875 -0.19708,-0.396875 0.0728,0 0.28051,0.178594 0.46167,0.396875 0.18115,0.218281 0.26984,0.396875 0.19708,0.396875 -0.0728,0 -0.28051,-0.178594 -0.46167,-0.396875 z m -57.41458,-2.084271 c 0,-0.05494 0.20836,-0.263301 0.46302,-0.46302 0.41965,-0.329107 0.429,-0.319749 0.0999,0.0999 -0.34565,0.44073 -0.56292,0.580888 -0.56292,0.363125 z m 54.76875,-0.826146 c -0.18116,-0.218281 -0.26985,-0.396875 -0.19709,-0.396875 0.0728,0 0.28052,0.178594 0.46167,0.396875 0.18116,0.218282 0.26985,0.396875 0.19709,0.396875 -0.0728,0 -0.28051,-0.178593 -0.46167,-0.396875 z m -51.81225,-2.408432 c 0.23711,-0.237113 0.55798,-0.387528 0.71303,-0.334257 0.15506,0.05327 -0.0389,0.247272 -0.43111,0.431113 -0.65898,0.308916 -0.68035,0.301573 -0.28192,-0.09686 z m 7.36225,-12.408228 c 0.49365,-0.50932 0.95709,-0.92604 1.02985,-0.92604 0.0728,0 -0.27161,0.41672 -0.76527,0.92604 -0.49365,0.50932 -0.95708,0.92604 -1.02984,0.92604 -0.0728,0 0.27161,-0.41672 0.76526,-0.92604 z m 35.04065,0.0661 -0.77711,-0.85989 0.8599,0.7771 c 0.80154,0.72437 0.98151,0.94269 0.7771,0.94269 -0.0455,0 -0.43249,-0.38695 -0.85989,-0.8599 z"
           style="fill:#d0e9ed;stroke-width:0.26458332" />
        <path
           inkscape:connector-curvature="0"
           id="path87"
           d="m -205.15027,151.43477 c 0.1819,-0.0734 0.47956,-0.0734 0.66146,0 0.1819,0.0734 0.0331,0.13345 -0.33073,0.13345 -0.3638,0 -0.51263,-0.0601 -0.33073,-0.13345 z m 6.61459,0 c 0.1819,-0.0734 0.47955,-0.0734 0.66145,0 0.1819,0.0734 0.0331,0.13345 -0.33073,0.13345 -0.3638,0 -0.51263,-0.0601 -0.33072,-0.13345 z m 63.49999,0 c 0.18191,-0.0734 0.47956,-0.0734 0.66146,0 0.1819,0.0734 0.0331,0.13345 -0.33073,0.13345 -0.3638,0 -0.51263,-0.0601 -0.33073,-0.13345 z m 1.5875,0 c 0.18191,-0.0734 0.47956,-0.0734 0.66146,0 0.1819,0.0734 0.0331,0.13345 -0.33073,0.13345 -0.3638,0 -0.51263,-0.0601 -0.33073,-0.13345 z m 63.500003,0 c 0.181901,-0.0734 0.479557,-0.0734 0.661458,0 0.181901,0.0734 0.03307,0.13345 -0.330729,0.13345 -0.363802,0 -0.51263,-0.0601 -0.330729,-0.13345 z m 6.614583,0 c 0.181901,-0.0734 0.479557,-0.0734 0.661458,0 0.181901,0.0734 0.03307,0.13345 -0.330729,0.13345 -0.363802,0 -0.51263,-0.0601 -0.330729,-0.13345 z m -56.686976,-5.6456 c 0.26339,-0.29104 0.53842,-0.52917 0.61118,-0.52917 0.0728,0 -0.0832,0.23813 -0.3466,0.52917 -0.26339,0.29104 -0.53842,0.52917 -0.61118,0.52917 -0.0728,0 0.0832,-0.23813 0.3466,-0.52917 z m -63.0364,-8.86354 c -0.003,-0.58209 0.0488,-0.85137 0.11506,-0.5984 0.0662,0.25297 0.0686,0.72922 0.005,1.05833 -0.0633,0.32912 -0.11747,0.12215 -0.12041,-0.45993 z m 98.155072,0.13229 c 0,-0.50932 0.05445,-0.71768 0.121002,-0.46302 0.06655,0.25466 0.06655,0.67138 0,0.92604 -0.06655,0.25466 -0.121002,0.0463 -0.121002,-0.46302 z M -225.24823,55.105507 c 0.91521,-0.05181 2.34396,-0.05139 3.175,0.0011 0.83104,0.05234 0.0822,0.09473 -1.66402,0.09421 -1.74625,-5.29e-4 -2.42619,-0.04334 -1.51098,-0.09516 z m 91.00629,0.02093 c 0.18191,-0.0734 0.47956,-0.0734 0.66146,0 0.1819,0.0734 0.0331,0.133453 -0.33073,0.133453 -0.3638,0 -0.51263,-0.06005 -0.33073,-0.133453 z m 88.645788,-0.02093 c 0.915207,-0.05181 2.343957,-0.05139 3.175,0.0011 0.83104,0.05234 0.08223,0.09473 -1.664015,0.09421 -1.74625,-5.29e-4 -2.426194,-0.04334 -1.510985,-0.09516 z m -250.132898,-5.955398 -0.50403,-0.595312 0.59531,0.504029 c 0.32743,0.277214 0.59532,0.545105 0.59532,0.595312 0,0.211733 -0.21294,0.05542 -0.6866,-0.504029 z m 323.345965,0.06615 c 0.263393,-0.291041 0.538427,-0.529166 0.611188,-0.529166 0.07276,0 -0.08321,0.238125 -0.346605,0.529166 -0.263392,0.291042 -0.538427,0.529167 -0.611187,0.529167 -0.07276,0 0.08321,-0.238125 0.346604,-0.529167 z"
           style="fill:#b3dce2;stroke-width:0.26458332" />
        <path
           inkscape:connector-curvature="0"
           id="path85"
           d="m -148.21873,145.59073 -0.64143,-0.7276 0.7276,0.64143 c 0.68006,0.59952 0.84894,0.81378 0.64143,0.81378 -0.0474,0 -0.37481,-0.32743 -0.7276,-0.72761 z M -242.3486,69.589171 c 0,-0.363802 0.0601,-0.51263 0.13346,-0.330729 0.0734,0.181901 0.0734,0.479558 0,0.661459 -0.0734,0.181901 -0.13346,0.03307 -0.13346,-0.33073 z M -25.645058,69.45688 c 0.0053,-0.436563 0.06469,-0.583126 0.131789,-0.325694 0.06707,0.257431 0.06268,0.614619 -0.0098,0.79375 -0.07247,0.17913 -0.127344,-0.03149 -0.121973,-0.468056 z M -220.47956,55.120932 c 0.19099,-0.07643 0.4192,-0.06703 0.50711,0.02088 0.0879,0.08792 -0.0683,0.150453 -0.34726,0.138964 -0.30823,-0.0127 -0.37092,-0.07539 -0.15985,-0.15985 z m 85.46041,0 c 0.191,-0.07643 0.4192,-0.06703 0.50712,0.02088 0.0879,0.08792 -0.0683,0.150453 -0.34727,0.138964 -0.30822,-0.0127 -0.37092,-0.07539 -0.15985,-0.15985 z m 1.85208,0 c 0.191,-0.07643 0.4192,-0.06703 0.50712,0.02088 0.0879,0.08792 -0.0683,0.150453 -0.34726,0.138964 -0.30823,-0.0127 -0.37092,-0.07539 -0.15986,-0.15985 z m 85.460419,0 c 0.190995,-0.07643 0.4192,-0.06703 0.507119,0.02088 0.08792,0.08792 -0.06835,0.150453 -0.347266,0.138964 -0.308226,-0.0127 -0.370919,-0.07539 -0.159853,-0.15985 z M -282.4086,6.9722782 c 0.1819,-0.073398 0.47956,-0.073398 0.66146,0 0.1819,0.073398 0.0331,0.1334532 -0.33073,0.1334532 -0.3638,0 -0.51263,-0.060055 -0.33073,-0.1334532 z m 296.333328,0 c 0.181901,-0.073398 0.479557,-0.073398 0.661458,0 0.181901,0.073398 0.03307,0.1334532 -0.330729,0.1334532 -0.363802,0 -0.51263,-0.060055 -0.330729,-0.1334532 z M -232.13777,-12.365416 c 5.42065,-0.03998 14.29081,-0.03998 19.71146,0 5.42065,0.03998 0.98557,0.07269 -9.85573,0.07269 -10.8413,0 -15.27638,-0.03271 -9.85573,-0.07269 z m 166.952083,0 c 5.420651,-0.03998 14.290807,-0.03998 19.711458,0 5.420651,0.03998 0.985573,0.07269 -9.855729,0.07269 -10.841302,0 -15.27638,-0.03271 -9.855729,-0.07269 z"
           style="fill:#a5d5dd;stroke-width:0.26458332" />
        <path
           inkscape:connector-curvature="0"
           id="path83"
           d="m -227.35873,180.26885 c 0.19099,-0.0764 0.4192,-0.067 0.50712,0.0209 0.0879,0.0879 -0.0684,0.15047 -0.34727,0.13899 -0.30822,-0.0127 -0.37092,-0.0754 -0.15985,-0.15987 z m 186.531245,0 c 0.190995,-0.0764 0.419201,-0.067 0.507119,0.0209 0.08792,0.0879 -0.06835,0.15047 -0.347265,0.13899 -0.308227,-0.0127 -0.37092,-0.0754 -0.159854,-0.15987 z m -181.204215,-36.5302 -0.9118,-0.99219 0.99219,0.91181 c 0.5457,0.50149 0.99219,0.94797 0.99219,0.99219 0,0.20203 -0.2239,0.0116 -1.07258,-0.91181 z m 176.359033,-0.33073 c 0.26339,-0.29104 0.538422,-0.52917 0.611182,-0.52917 0.07276,0 -0.08321,0.23813 -0.346598,0.52917 -0.26339,0.29104 -0.538422,0.52917 -0.611183,0.52917 -0.07276,0 0.08321,-0.23813 0.346599,-0.52917 z M -153.62716,103.45584 c 0,-16.371096 0.0318,-23.068362 0.0706,-14.882815 0.0388,8.185547 0.0388,21.580075 0,29.765625 -0.0388,8.18555 -0.0706,1.48828 -0.0706,-14.88281 z m 39.42293,-0.13229 c 2e-5,-16.443858 0.0318,-23.131961 0.0706,-14.862452 0.0388,8.269507 0.0388,21.723572 -2e-5,29.897912 -0.0388,8.17435 -0.0706,1.40839 -0.0706,-15.03546 z M -242.36948,68.641082 c 0.0127,-0.308226 0.0754,-0.370919 0.15985,-0.159853 0.0764,0.190994 0.067,0.4192 -0.0209,0.507119 -0.0879,0.08792 -0.15045,-0.06835 -0.13896,-0.347266 z m 94.03848,-7.518577 c 0.26339,-0.291042 0.53842,-0.529167 0.61118,-0.529167 0.0728,0 -0.0832,0.238125 -0.34659,0.529167 -0.26339,0.291042 -0.53843,0.529167 -0.61119,0.529167 -0.0728,0 0.0832,-0.238125 0.3466,-0.529167 z m 28.29377,-0.330729 -0.7771,-0.859896 0.85989,0.777105 c 0.80155,0.724371 0.98152,0.942687 0.77711,0.942687 -0.0455,0 -0.43249,-0.386953 -0.8599,-0.859896 z M -207.7961,6.9490716 c 40.63669,-0.036896 107.1331,-0.036896 147.769788,0 40.636692,0.036893 7.388489,0.067082 -73.884898,0.067082 -81.27338,0 -114.52158,-0.030189 -73.88489,-0.067082 z"
           style="fill:#93cdd6;stroke-width:0.26458332" />
        <path
           inkscape:connector-curvature="0"
           id="path81"
           d="m -226.58655,180.27604 c 0.17913,-0.0725 0.53632,-0.0769 0.79375,-0.01 0.25743,0.0671 0.11087,0.12639 -0.3257,0.13178 -0.43656,0.005 -0.64718,-0.0495 -0.46805,-0.12197 z m 184.414577,0 c 0.179131,-0.0725 0.536319,-0.0769 0.79375,-0.01 0.257432,0.0671 0.110869,0.12639 -0.325694,0.13178 -0.436562,0.005 -0.647187,-0.0495 -0.468056,-0.12197 z M -187.35704,147.27676 c 0,-0.0549 0.20836,-0.26328 0.46302,-0.46302 0.41965,-0.32909 0.42901,-0.31975 0.0999,0.0999 -0.34565,0.44071 -0.56292,0.58089 -0.56292,0.36311 z m 33.62297,-73.873178 c 0.0127,-0.308226 0.0754,-0.370919 0.15985,-0.159853 0.0764,0.190994 0.067,0.4192 -0.0209,0.507119 -0.0879,0.08792 -0.15046,-0.06835 -0.13897,-0.347266 z m -49.6554,-10.759723 -0.50403,-0.595312 0.59532,0.504028 c 0.32742,0.277215 0.59531,0.545105 0.59531,0.595313 0,0.211732 -0.21294,0.05542 -0.6866,-0.504029 z m 138.666804,0.06615 c 0.26339,-0.291042 0.538421,-0.529167 0.611182,-0.529167 0.07276,0 -0.08321,0.238125 -0.346599,0.529167 -0.26339,0.291042 -0.538422,0.529167 -0.611182,0.529167 -0.07276,0 0.08321,-0.238125 0.346599,-0.529167 z m -82.946874,-2.216563 c 0,-0.05494 0.20836,-0.2633 0.46302,-0.463021 0.41965,-0.329107 0.429,-0.319749 0.0999,0.0999 -0.34565,0.44073 -0.56292,0.580888 -0.56292,0.363125 z m -90.88437,-0.693854 c 0.26339,-0.291041 0.53842,-0.529166 0.61118,-0.529166 0.0728,0 -0.0832,0.238125 -0.3466,0.529166 -0.26339,0.291042 -0.53842,0.529167 -0.61118,0.529167 -0.0728,0 0.0832,-0.238125 0.3466,-0.529167 z m 208.868506,-0.198437 -0.64143,-0.727604 0.727604,0.641432 c 0.400183,0.35279 0.727605,0.680212 0.727605,0.727604 0,0.207507 -0.21426,0.03862 -0.813779,-0.641432 z M -213.81537,-43.487805 c 0,-0.05494 0.20836,-0.2633 0.46302,-0.463021 0.41964,-0.329107 0.429,-0.319749 0.0999,0.0999 -0.34565,0.44073 -0.56292,0.580888 -0.56292,0.363125 z m 47.09583,-8.73125 c 0,-0.05494 0.20836,-0.2633 0.46302,-0.46302 0.41965,-0.329108 0.429,-0.319749 0.0999,0.0999 -0.34565,0.440729 -0.56292,0.580887 -0.56292,0.363124 z m -8.46667,-33.866665 c 0,-0.05494 0.20836,-0.263301 0.46302,-0.463021 0.41965,-0.329107 0.42901,-0.319749 0.0999,0.0999 -0.34564,0.44073 -0.56292,0.580887 -0.56292,0.363125 z m 71.70209,-0.826146 c -0.18116,-0.218281 -0.26985,-0.396875 -0.19709,-0.396875 0.0728,0 0.28051,0.178594 0.46167,0.396875 0.18116,0.218281 0.26985,0.396875 0.19708,0.396875 -0.0728,0 -0.28051,-0.178594 -0.46166,-0.396875 z"
           style="fill:#7ac2cd;stroke-width:0.26458332" />
        <path
           inkscape:connector-curvature="0"
           id="path79"
           d="m -225.2586,180.27435 c 0.1819,-0.0734 0.47956,-0.0734 0.66146,0 0.1819,0.0734 0.0331,0.13346 -0.33073,0.13346 -0.3638,0 -0.51263,-0.0601 -0.33073,-0.13346 z m 182.033329,0 c 0.181901,-0.0734 0.479557,-0.0734 0.661458,0 0.181901,0.0734 0.03307,0.13346 -0.330729,0.13346 -0.363802,0 -0.51263,-0.0601 -0.330729,-0.13346 z m -200.372369,-7.03466 -0.77711,-0.8599 0.8599,0.77711 c 0.80154,0.72438 0.98151,0.94269 0.7771,0.94269 -0.0455,0 -0.43248,-0.38696 -0.85989,-0.8599 z m 218.430181,0.82661 c 0,-0.0728 0.357188,-0.4745 0.79375,-0.89276 0.436563,-0.41825 0.79375,-0.70093 0.79375,-0.62817 0,0.0728 -0.357187,0.4745 -0.79375,0.89276 -0.436562,0.41825 -0.79375,0.70093 -0.79375,0.62817 z m -56.356249,-27.61567 c -0.181157,-0.21828 -0.269846,-0.39688 -0.197085,-0.39688 0.07276,0 0.280511,0.1786 0.461669,0.39688 0.181157,0.21828 0.269846,0.39687 0.197085,0.39687 -0.07276,0 -0.280511,-0.17859 -0.461669,-0.39687 z M -202.43829,63.636047 c -0.18116,-0.218282 -0.26984,-0.396875 -0.19708,-0.396875 0.0728,0 0.28051,0.178593 0.46166,0.396875 0.18116,0.218281 0.26985,0.396875 0.19709,0.396875 -0.0728,0 -0.28051,-0.178594 -0.46167,-0.396875 z m 136.524999,0.296978 c 0,-0.05494 0.208359,-0.2633 0.46302,-0.46302 0.419646,-0.329108 0.429004,-0.319749 0.0999,0.0999 -0.345644,0.440729 -0.562917,0.580887 -0.562917,0.363124 z M -301.10698,36.6265 c 0.0127,-0.308227 0.0754,-0.37092 0.15985,-0.159854 0.0764,0.190995 0.067,0.419201 -0.0209,0.507119 -0.0879,0.08792 -0.15045,-0.06835 -0.13896,-0.347265 z m 0,-11.1125 c 0.0127,-0.308226 0.0754,-0.370919 0.15985,-0.159853 0.0764,0.190994 0.067,0.4192 -0.0209,0.507118 -0.0879,0.08792 -0.15045,-0.06835 -0.13896,-0.347265 z m 334.168729,0 c 0.0127,-0.308226 0.07541,-0.370919 0.159861,-0.159853 0.07644,0.190994 0.06705,0.4192 -0.0209,0.507118 -0.08792,0.08792 -0.150468,-0.06835 -0.138985,-0.347265 z m -5.597154,-12.744098 -0.64143,-0.727604 0.727604,0.641432 c 0.400183,0.35279 0.727604,0.680212 0.727604,0.727604 0,0.207508 -0.214259,0.03862 -0.813778,-0.641432 z M -295.8362,13.133027 c 0,-0.05494 0.20836,-0.2633 0.46302,-0.463021 0.41964,-0.329107 0.429,-0.319749 0.0999,0.0999 -0.34564,0.44073 -0.56291,0.580888 -0.56291,0.363125 z m 54.23958,-25.929166 c 0,-0.05494 0.20836,-0.2633 0.46302,-0.463021 0.41964,-0.329107 0.429,-0.319749 0.0999,0.0999 -0.34565,0.44073 -0.56292,0.580888 -0.56292,0.363125 z m 164.041662,-2.413646 c -0.181157,-0.218281 -0.269846,-0.396875 -0.197085,-0.396875 0.07276,0 0.280511,0.178594 0.461669,0.396875 0.181157,0.218282 0.269845,0.396875 0.197085,0.396875 -0.07276,0 -0.280511,-0.178593 -0.461669,-0.396875 z m -161.395832,-0.496771 c 0,-0.05494 0.20836,-0.2633 0.46302,-0.46302 0.41965,-0.329108 0.42901,-0.319749 0.0999,0.0999 -0.34564,0.440729 -0.56292,0.580887 -0.56292,0.363124 z m 199.760415,-0.296979 c -0.181158,-0.218281 -0.269846,-0.396875 -0.197086,-0.396875 0.07276,0 0.280512,0.178594 0.461669,0.396875 0.18116,0.218282 0.269849,0.396875 0.197088,0.396875 -0.07276,0 -0.280514,-0.178593 -0.461671,-0.396875 z m -2.645833,-2.910416 c -0.181158,-0.218281 -0.269846,-0.396875 -0.197086,-0.396875 0.07276,0 0.280511,0.178594 0.461669,0.396875 0.181157,0.218281 0.269846,0.396875 0.197085,0.396875 -0.07276,0 -0.280511,-0.178594 -0.461668,-0.396875 z m -154.252082,-1.025938 c 0,-0.05494 0.20836,-0.2633 0.46302,-0.463021 0.41965,-0.329107 0.42901,-0.319749 0.0999,0.0999 -0.34565,0.44073 -0.56292,0.580888 -0.56292,0.363125 z m 2.64583,-2.910416 c 0,-0.05494 0.20836,-0.263301 0.46303,-0.463021 0.41964,-0.329108 0.429,-0.319749 0.0999,0.0999 -0.34564,0.440729 -0.56292,0.580887 -0.56292,0.363125 z m 108.214586,-0.826146 c -0.181158,-0.218281 -0.269846,-0.396875 -0.197086,-0.396875 0.07276,0 0.280511,0.178594 0.461669,0.396875 0.181158,0.218281 0.269846,0.396875 0.197086,0.396875 -0.07276,0 -0.280512,-0.178594 -0.461669,-0.396875 z m -146.049996,-0.496771 c 0,-0.05494 0.20836,-0.2633 0.46302,-0.463021 0.41964,-0.329107 0.429,-0.319749 0.0999,0.0999 -0.34565,0.44073 -0.56292,0.580888 -0.56292,0.363125 z m 40.48125,-1.5875 c 0,-0.05494 0.20836,-0.2633 0.46302,-0.463021 0.41964,-0.329107 0.429,-0.319749 0.0999,0.0999 -0.34564,0.44073 -0.56291,0.580888 -0.56291,0.363125 z m 102.922912,-0.826146 c -0.181157,-0.218281 -0.269845,-0.396875 -0.197085,-0.396875 0.07276,0 0.280511,0.178594 0.461669,0.396875 0.181157,0.218282 0.269846,0.396875 0.197085,0.396875 -0.07276,0 -0.280511,-0.178593 -0.461669,-0.396875 z m -140.758332,-0.496771 c 0,-0.05494 0.20836,-0.2633 0.46302,-0.463021 0.41965,-0.329107 0.42901,-0.319748 0.0999,0.0999 -0.34564,0.440729 -0.56292,0.580887 -0.56292,0.363124 z m 40.48125,-1.5875 c 0,-0.05494 0.20836,-0.2633 0.46302,-0.46302 0.41965,-0.329108 0.42901,-0.319749 0.0999,0.0999 -0.34565,0.440729 -0.56292,0.580887 -0.56292,0.363124 z m 135.995832,-1.619895 c -0.181158,-0.218281 -0.269846,-0.396875 -0.197086,-0.396875 0.07276,0 0.280511,0.178594 0.461669,0.396875 0.181158,0.218281 0.269846,0.396875 0.197086,0.396875 -0.07276,0 -0.280512,-0.178594 -0.461669,-0.396875 z m -2.645834,-2.910417 c -0.181157,-0.218281 -0.269845,-0.396875 -0.197085,-0.396875 0.07276,0 0.280511,0.178594 0.461669,0.396875 0.181157,0.218281 0.269846,0.396875 0.197085,0.396875 -0.07276,0 -0.280511,-0.178594 -0.461669,-0.396875 z m -40.745832,-1.852083 c -0.181158,-0.218281 -0.269846,-0.396875 -0.197086,-0.396875 0.07276,0 0.280512,0.178594 0.461669,0.396875 0.181158,0.218281 0.269846,0.396875 0.197086,0.396875 -0.07276,0 -0.280512,-0.178594 -0.461669,-0.396875 z m -125.412496,-0.496771 c 0,-0.05494 0.20836,-0.2633 0.46302,-0.463021 0.41964,-0.329107 0.429,-0.319749 0.0999,0.0999 -0.34565,0.44073 -0.56292,0.580888 -0.56292,0.363125 z m 163.512495,-0.561562 c -0.181157,-0.218282 -0.269846,-0.396875 -0.197085,-0.396875 0.07276,0 0.280511,0.178593 0.461668,0.396875 0.181158,0.218281 0.269846,0.396875 0.197086,0.396875 -0.07276,0 -0.280511,-0.178594 -0.461669,-0.396875 z m -40.745832,-1.852084 c -0.181158,-0.218281 -0.269846,-0.396875 -0.197086,-0.396875 0.07276,0 0.280511,0.178594 0.461669,0.396875 0.181158,0.218282 0.269846,0.396875 0.197085,0.396875 -0.07276,0 -0.280511,-0.178593 -0.461668,-0.396875 z m -120.120833,-0.496771 c 0,-0.05494 0.20836,-0.2633 0.46302,-0.463021 0.41965,-0.329107 0.42901,-0.319748 0.0999,0.0999 -0.34565,0.440729 -0.56292,0.580887 -0.56292,0.363124 z m 40.48125,-1.5875 c 0,-0.05494 0.20836,-0.2633 0.46302,-0.46302 0.41965,-0.329108 0.42901,-0.319749 0.0999,0.0999 -0.34565,0.440729 -0.56292,0.580887 -0.56292,0.363124 z m 2.64583,-2.910416 c 0,-0.05494 0.20836,-0.2633 0.46302,-0.463021 0.41965,-0.329107 0.42901,-0.319749 0.0999,0.0999 -0.34564,0.44073 -0.56292,0.580887 -0.56292,0.363125 z m 110.066669,-1.619896 c -0.181158,-0.218281 -0.269846,-0.396875 -0.197086,-0.396875 0.07276,0 0.280511,0.178594 0.461669,0.396875 0.181158,0.218281 0.269846,0.396875 0.197085,0.396875 -0.07276,0 -0.280511,-0.178594 -0.461668,-0.396875 z m -107.420829,-1.290521 c 0,-0.05494 0.20836,-0.2633 0.46302,-0.463021 0.41964,-0.329107 0.429,-0.319749 0.0999,0.0999 -0.34564,0.44073 -0.56291,0.580888 -0.56291,0.363125 z m 66.675,-0.561562 c -0.18116,-0.218281 -0.26985,-0.396875 -0.19709,-0.396875 0.0728,0 0.28051,0.178594 0.46167,0.396875 0.18116,0.218281 0.26985,0.396875 0.19708,0.396875 -0.0728,0 -0.28051,-0.178594 -0.46166,-0.396875 z m -104.775,-0.496771 c 0,-0.05494 0.20836,-0.2633 0.46302,-0.463021 0.41964,-0.329107 0.429,-0.319749 0.0999,0.0999 -0.34565,0.44073 -0.56292,0.580888 -0.56292,0.363125 z m 142.874995,-0.561562 c -0.181157,-0.218282 -0.269846,-0.396875 -0.197085,-0.396875 0.07276,0 0.280511,0.178593 0.461669,0.396875 0.181157,0.218281 0.269846,0.396875 0.197085,0.396875 -0.07276,0 -0.280511,-0.178594 -0.461669,-0.396875 z m -102.129165,-1.290521 c 0,-0.05494 0.20836,-0.263301 0.46302,-0.463021 0.41965,-0.329108 0.429,-0.319749 0.0999,0.0999 -0.34565,0.44073 -0.56292,0.580887 -0.56292,0.363125 z m 61.38333,-0.561563 c -0.18115,-0.218281 -0.26984,-0.396875 -0.19708,-0.396875 0.0728,0 0.28051,0.178594 0.46167,0.396875 0.18115,0.218282 0.26984,0.396875 0.19708,0.396875 -0.0728,0 -0.28051,-0.178593 -0.46167,-0.396875 z m -99.48333,-0.496771 c 0,-0.05494 0.20836,-0.2633 0.46302,-0.463021 0.41965,-0.329107 0.42901,-0.319749 0.0999,0.0999 -0.34565,0.440729 -0.56292,0.580887 -0.56292,0.363124 z m 137.583332,-0.561562 c -0.181157,-0.218281 -0.269846,-0.396875 -0.197085,-0.396875 0.07276,0 0.280511,0.178594 0.461668,0.396875 0.181158,0.218281 0.269846,0.396875 0.197086,0.396875 -0.07276,0 -0.280511,-0.178594 -0.461669,-0.396875 z m -132.556252,-4.994688 c 0,-0.05494 0.20836,-0.2633 0.46303,-0.46302 0.41964,-0.329108 0.429,-0.319749 0.0999,0.0999 -0.34564,0.440729 -0.56292,0.580887 -0.56292,0.363124 z m 86.78334,-2.413645 c -0.18116,-0.218281 -0.26985,-0.396875 -0.19709,-0.396875 0.0728,0 0.28051,0.178594 0.46167,0.396875 0.18116,0.218281 0.26985,0.396875 0.19709,0.396875 -0.0728,0 -0.28052,-0.178594 -0.46167,-0.396875 z m -84.1375,-0.496771 c 0,-0.05494 0.20836,-0.2633 0.46302,-0.463021 0.41964,-0.329107 0.429,-0.319749 0.0999,0.0999 -0.34564,0.44073 -0.56291,0.580887 -0.56291,0.363125 z m 122.237496,-0.561562 c -0.181158,-0.218282 -0.269846,-0.396875 -0.197086,-0.396875 0.07276,0 0.280511,0.178593 0.461669,0.396875 0.181157,0.218281 0.269846,0.396875 0.197085,0.396875 -0.07276,0 -0.280511,-0.178594 -0.461668,-0.396875 z m -81.491666,-1.290521 c 0,-0.05494 0.20836,-0.263301 0.46302,-0.463021 0.41965,-0.329108 0.429,-0.319749 0.0999,0.0999 -0.34565,0.440729 -0.56292,0.580887 -0.56292,0.363125 z m 40.74583,-0.561563 c -0.18115,-0.218281 -0.26984,-0.396875 -0.19708,-0.396875 0.0728,0 0.28051,0.178594 0.46167,0.396875 0.18115,0.218282 0.26984,0.396875 0.19708,0.396875 -0.0728,0 -0.28051,-0.178593 -0.46167,-0.396875 z m 38.100002,-1.058333 c -0.181157,-0.218281 -0.269846,-0.396875 -0.197085,-0.396875 0.07276,0 0.280511,0.178594 0.461669,0.396875 0.181157,0.218281 0.269845,0.396875 0.197085,0.396875 -0.07276,0 -0.280511,-0.178594 -0.461669,-0.396875 z m -76.200002,-1.290521 c 0,-0.05494 0.20836,-0.2633 0.46302,-0.463021 0.41965,-0.329107 0.42901,-0.319749 0.0999,0.0999 -0.34564,0.44073 -0.56292,0.580888 -0.56292,0.363125 z m 73.554169,-1.619896 c -0.181158,-0.218281 -0.269846,-0.396875 -0.197085,-0.396875 0.07276,0 0.280511,0.178594 0.461668,0.396875 0.181158,0.218282 0.269846,0.396875 0.197086,0.396875 -0.07276,0 -0.280511,-0.178593 -0.461669,-0.396875 z m -70.908329,-1.290521 c 0,-0.05494 0.20836,-0.2633 0.46302,-0.46302 0.41964,-0.329108 0.429,-0.319749 0.0999,0.0999 -0.34564,0.440729 -0.56291,0.580887 -0.56291,0.363124 z m -38.36459,-0.79375 c 0,-0.05494 0.20836,-0.2633 0.46303,-0.46302 0.41964,-0.329108 0.429,-0.319749 0.0999,0.0999 -0.34564,0.440729 -0.56292,0.580887 -0.56292,0.363124 z m 41.01042,-2.116666 c 0,-0.05494 0.20836,-0.2633 0.46302,-0.463021 0.41965,-0.329107 0.429,-0.319749 0.0999,0.0999 -0.34565,0.44073 -0.56292,0.580887 -0.56292,0.363125 z m 25.13542,-0.296979 c -0.18116,-0.218281 -0.26985,-0.396875 -0.19709,-0.396875 0.0728,0 0.28051,0.178594 0.46167,0.396875 0.18116,0.218281 0.26985,0.396875 0.19709,0.396875 -0.0728,0 -0.28052,-0.178594 -0.46167,-0.396875 z m -63.5,-0.496771 c 0,-0.05494 0.20836,-0.2633 0.46302,-0.463021 0.41964,-0.329107 0.429,-0.319749 0.0999,0.0999 -0.34564,0.44073 -0.56291,0.580887 -0.56291,0.363125 z m 98.954162,-3.471979 c -0.181157,-0.218281 -0.269845,-0.396875 -0.197085,-0.396875 0.07276,0 0.280511,0.178594 0.461669,0.396875 0.181157,0.218281 0.269846,0.396875 0.197085,0.396875 -0.07276,0 -0.280511,-0.178594 -0.461669,-0.396875 z m -2.645833,-2.910417 c -0.181157,-0.218281 -0.269846,-0.396875 -0.197085,-0.396875 0.07276,0 0.280511,0.178594 0.461669,0.396875 0.181157,0.218282 0.269845,0.396875 0.197085,0.396875 -0.07276,0 -0.280511,-0.178593 -0.461669,-0.396875 z m -88.635419,-2.084271 c 0,-0.05494 0.20836,-0.2633 0.46303,-0.46302 0.41964,-0.329108 0.429,-0.319749 0.0999,0.0999 -0.34564,0.440729 -0.56292,0.580887 -0.56292,0.363124 z m 85.989586,-0.826145 c -0.181158,-0.218281 -0.269846,-0.396875 -0.197086,-0.396875 0.07276,0 0.280512,0.178594 0.461669,0.396875 0.181158,0.218281 0.269846,0.396875 0.197086,0.396875 -0.07276,0 -0.280512,-0.178594 -0.461669,-0.396875 z m -83.343746,-2.084271 c 0,-0.05494 0.20836,-0.2633 0.46302,-0.463021 0.41964,-0.329107 0.429,-0.319749 0.0999,0.0999 -0.34564,0.44073 -0.56291,0.580887 -0.56291,0.363125 z m 7.67291,-8.466667 c 0,-0.05494 0.20836,-0.2633 0.46302,-0.46302 0.41965,-0.329108 0.42901,-0.319749 0.0999,0.0999 -0.34564,0.440729 -0.56292,0.580887 -0.56292,0.363124 z m 65.35209,-0.826145 c -0.18116,-0.218281 -0.26985,-0.396875 -0.19709,-0.396875 0.0728,0 0.28051,0.178594 0.46167,0.396875 0.18116,0.218281 0.26985,0.396875 0.19708,0.396875 -0.0728,0 -0.28051,-0.178594 -0.46166,-0.396875 z m -62.70625,-2.084271 c 0,-0.05494 0.20836,-0.2633 0.46302,-0.463021 0.41964,-0.329107 0.429,-0.319749 0.0999,0.0999 -0.34564,0.44073 -0.56291,0.580887 -0.56291,0.363125 z m 60.06041,-0.826146 c -0.18115,-0.218281 -0.26984,-0.396875 -0.19708,-0.396875 0.0728,0 0.28051,0.178594 0.46167,0.396875 0.18115,0.218281 0.26984,0.396875 0.19708,0.396875 -0.0728,0 -0.28051,-0.178594 -0.46167,-0.396875 z m -55.03333,-4.730103 c 0,-0.05494 0.20836,-0.263301 0.46302,-0.463021 0.41965,-0.329107 0.429,-0.319749 0.0999,0.09989 -0.34565,0.440729 -0.56292,0.580887 -0.56292,0.363126 z m 7.14375,-12.170831 c 0,-0.0549 0.20836,-0.2633 0.46302,-0.46302 0.41965,-0.32911 0.429,-0.31975 0.0999,0.0999 -0.34565,0.44073 -0.56292,0.58089 -0.56292,0.36313 z m 35.70451,-0.89229 -0.9118,-0.99219 0.99219,0.9118 c 0.9235,0.84868 1.11384,1.07257 0.91179,1.07257 -0.0442,0 -0.49069,-0.44648 -0.99218,-0.99218 z m -34.38159,-0.43063 c 0,-0.0549 0.20836,-0.2633 0.46302,-0.46302 0.41964,-0.32911 0.429,-0.31975 0.0999,0.0999 -0.34564,0.44072 -0.56291,0.58088 -0.56291,0.36312 z m 16.08997,-6.69543 c 0.191,-0.0764 0.4192,-0.067 0.50712,0.0209 0.0879,0.0879 -0.0684,0.15045 -0.34727,0.13897 -0.30822,-0.0127 -0.37092,-0.0754 -0.15985,-0.15986 z m 1.5875,0 c 0.191,-0.0764 0.4192,-0.067 0.50712,0.0209 0.0879,0.0879 -0.0684,0.15045 -0.34727,0.13897 -0.30822,-0.0127 -0.37092,-0.0754 -0.15985,-0.15986 z"
           style="fill:#68bac6;stroke-width:0.26458332" />
        <path
           inkscape:connector-curvature="0"
           id="path77"
           d="m -227.44141,180.17323 c -7.22238,-0.44614 -11.65453,-2.46499 -16.46998,-7.50205 -2.51021,-2.62573 -4.78972,-5.81517 -6.76638,-9.4674 -1.06957,-1.97623 -2.73564,-7.49874 -16.30897,-54.0594 -8.31474,-28.522084 -15.29617,-52.412675 -15.51429,-53.090207 l -0.39658,-1.231871 -1.77166,-0.308522 c -7.84047,-1.365359 -13.82536,-6.727177 -15.80665,-14.161066 -0.56017,-2.101781 -0.82282,-11.654491 -0.42661,-15.516254 0.89864,-8.758967 6.81774,-15.4031018 15.38508,-17.2696022 1.82541,-0.3976873 14.04452,-0.4265004 152.53228,-0.3596905 l 150.547919,0.072631 2.318067,0.8293999 c 3.065224,1.0967244 4.913868,2.2256248 7.26231,4.4348078 3.503692,3.295954 5.42163,7.269985 5.938176,12.304091 0.395049,3.850227 0.131365,13.406593 -0.427805,15.504617 -1.968606,7.386378 -7.979516,12.816914 -15.681404,14.167352 -1.318022,0.2311 -1.952281,0.466704 -2.037874,0.757005 -0.06837,0.231812 -7.0461185,24.114913 -15.50614392,53.073559 -13.79331108,47.2146 -15.50482108,52.87938 -16.57289108,54.85315 -1.946434,3.59688 -4.227116,6.80381 -6.647683,9.34741 -5.062696,5.32003 -9.138311,7.13827 -17.117668,7.6367 -4.69773,0.29342 -181.769233,0.27953 -186.531243,-0.0146 z m 32.4603,-28.96092 c 7.56828,-1.55501 12.53154,-7.78886 12.05809,-15.1449 -0.0873,-1.35695 -2.52272,-12.4052 -7.18863,-32.61157 -3.88111,-16.807659 -7.24339,-31.15469 -7.47175,-31.882294 -1.91272,-6.094391 -7.7018,-11.983341 -14.41619,-14.66489 -3.84921,-1.537274 -5.09559,-1.72551 -11.47307,-1.732706 -6.58887,-0.0074 -7.5513,0.147383 -10.93822,1.759548 -5.24404,2.496155 -8.39524,7.95824 -7.89767,13.689329 0.13379,1.540992 13.12019,58.465233 14.49174,63.522673 2.16637,7.98831 10.0719,15.02786 19.02852,16.9441 2.97138,0.63572 10.96069,0.70557 13.80718,0.12071 z m 65.1429,-0.003 c 4.11578,-0.85013 7.64222,-2.82972 10.51069,-5.90023 2.81143,-3.00946 4.41408,-6.30869 4.98577,-10.26373 0.16329,-1.12963 0.26229,-13.26814 0.25982,-31.85529 -0.004,-32.091738 -0.004,-32.096863 -1.31874,-35.57081 -0.98393,-2.599888 -2.3503,-4.668909 -4.46594,-6.761678 -4.82109,-4.768985 -11.39447,-6.746833 -17.95836,-5.403451 -4.21001,0.861634 -7.16867,2.467335 -10.2838,5.581166 -1.7615,1.760757 -2.38776,2.620227 -3.37387,4.630208 -2.29916,4.68639 -2.12086,1.760265 -2.21403,36.334785 -0.0533,19.78926 0.0129,31.41505 0.18653,32.7281 0.58592,4.43171 2.33773,7.88388 5.68287,11.19884 2.85744,2.83163 6.57543,4.76285 10.41388,5.40917 2.0958,0.3529 5.53288,0.29562 7.57518,-0.12623 z m 71.937502,-0.34446 c 8.504811,-2.32037 15.851899,-9.1844 17.895109,-16.71854 1.364102,-5.03004 14.357577,-61.977404 14.490584,-63.508847 0.639683,-7.366034 -4.476115,-13.69069 -12.317466,-15.228059 -3.191737,-0.625769 -11.736506,-0.410578 -14.625801,0.368334 -5.526222,1.48979 -10.692696,4.778987 -13.963978,8.890061 -1.508728,1.896047 -3.211721,4.976778 -3.816752,6.904551 -0.228359,0.727604 -3.598463,15.074635 -7.489121,31.88229 -6.930117,29.93813 -7.074164,30.61854 -7.08574,33.46979 -0.0097,2.37852 0.100703,3.23759 0.603843,4.70065 1.270328,3.69392 3.619201,6.30813 7.316531,8.1431 3.239523,1.60777 4.648438,1.82525 11.244791,1.73574 4.814001,-0.0653 6.005158,-0.16356 7.748,-0.63907 z M -240.77098,-13.491858 c 3.00782,-3.566385 77.43218,-85.423309 77.75561,-85.520873 0.23439,-0.07071 0.59006,-0.867779 0.86874,-1.946929 1.78477,-6.91112 7.84765,-13.28211 15.00507,-15.76761 3.92607,-1.36338 9.29887,-1.71424 13.36264,-0.87261 7.2447,1.50041 13.43232,6.1639 16.67025,12.56406 0.84262,1.66552 1.98288,4.88732 1.98288,5.602588 0,0.265554 0.1714,0.482825 0.38089,0.482825 0.29625,0 76.267497,83.371944 78.285713,85.911867 l 0.482229,0.60688 h -19.44561 -19.445599 l -26.809543,-29.550518 c -14.74525,-16.252784 -26.94975,-29.736612 -27.12113,-29.964061 -0.27983,-0.371391 -0.48211,-0.353465 -1.98438,0.17586 -5.63982,1.987193 -10.35831,1.990746 -16.04861,0.01209 l -1.67584,-0.582729 -0.44083,0.557871 c -0.24246,0.30683 -12.4583,13.786435 -27.14631,29.95468 l -26.70548,29.396805 h -19.43242 -19.43243 z"
           style="fill:#5db5c3;stroke-width:0.26458332" />
      </g>
    </g>
  </g>
</svg>
