<?xml version="1.0" encoding="UTF-8" standalone="no"?>
<svg
   xmlns:dc="http://purl.org/dc/elements/1.1/"
   xmlns:cc="http://creativecommons.org/ns#"
   xmlns:rdf="http://www.w3.org/1999/02/22-rdf-syntax-ns#"
   xmlns:svg="http://www.w3.org/2000/svg"
   xmlns="http://www.w3.org/2000/svg"
   xmlns:sodipodi="http://sodipodi.sourceforge.net/DTD/sodipodi-0.dtd"
   xmlns:inkscape="http://www.inkscape.org/namespaces/inkscape"
   id="svg8"
   version="1.1"
   viewBox="0 0 35.141594 33.73407"
   height="33.73407mm"
   width="35.141594mm"
   sodipodi:docname="icon_1.svg"
   inkscape:version="0.92.1 r15371">
  <sodipodi:namedview
     pagecolor="#ffffff"
     bordercolor="#666666"
     borderopacity="1"
     objecttolerance="10"
     gridtolerance="10"
     guidetolerance="10"
     inkscape:pageopacity="0"
     inkscape:pageshadow="2"
     inkscape:window-width="640"
     inkscape:window-height="480"
     id="namedview15"
     showgrid="false"
     fit-margin-top="0"
     fit-margin-left="0"
     fit-margin-right="0"
     fit-margin-bottom="0"
     inkscape:zoom="0.2102413"
     inkscape:cx="368.97399"
     inkscape:cy="-412.67553"
     inkscape:window-x="0"
     inkscape:window-y="0"
     inkscape:window-maximized="0"
     inkscape:current-layer="svg8" />
  <defs
     id="defs2" />
  <metadata
     id="metadata5">
    <rdf:RDF>
      <cc:Work
         rdf:about="">
        <dc:format>image/svg+xml</dc:format>
        <dc:type
           rdf:resource="http://purl.org/dc/dcmitype/StillImage" />
        <dc:title></dc:title>
      </cc:Work>
    </rdf:RDF>
  </metadata>
  <g
     id="layer1"
     transform="translate(-7.3756328,-5.578864)">
    <g
       transform="matrix(0.10650161,0,0,0.10650161,58.183026,17.584793)"
       id="layer1-6">
      <g
         transform="translate(-414.2619,-85.422619)"
         id="g21">
        <path
           id="path35"
           d="m 254.45357,287.6496 c 0,-0.0728 0.35719,-0.4745 0.79375,-0.89276 0.43656,-0.41825 0.79375,-0.70093 0.79375,-0.62817 0,0.0728 -0.35719,0.4745 -0.79375,0.89276 -0.43656,0.41825 -0.79375,0.70093 -0.79375,0.62817 z M -53.655954,220.08185 c 3e-6,-33.61532 0.03077,-47.32772 0.06838,-30.47203 0.0376,16.8557 0.0376,44.35913 -5e-6,61.11877 -0.03761,16.7596 -0.06838,2.96857 -0.06837,-30.64674 z m 311.679154,0 c 0,-33.61532 0.0308,-47.32772 0.0684,-30.47203 0.0376,16.8557 0.0376,44.35913 -2e-5,61.11877 -0.0376,16.7596 -0.0684,2.96857 -0.0684,-30.64674 z M 97.374525,196.2035 c 2.738035,-0.043 7.143345,-0.043 9.789585,1.5e-4 2.64624,0.0431 0.40603,0.0783 -4.97824,0.0782 -5.384274,-8e-5 -7.549378,-0.0354 -4.811345,-0.0784 z M 83.920751,173.38289 c 0,-7.93089 0.03367,-11.17534 0.07483,-7.2099 0.04116,3.96545 0.04116,10.45435 0,14.41979 -0.04116,3.96545 -0.07483,0.72099 -0.07483,-7.20989 z m 36.512499,0 c 0,-7.93089 0.0337,-11.17534 0.0748,-7.2099 0.0412,3.96545 0.0412,10.45435 0,14.41979 -0.0412,3.96545 -0.0748,0.72099 -0.0748,-7.20989 z M 19.723747,140.37612 c 45.450833,-0.0368 119.745833,-0.0368 165.099993,0 45.35418,0.0368 8.16712,0.067 -82.63787,0.067 -90.805002,0 -127.912956,-0.0301 -82.462123,-0.067 z M -58.548505,25.645497 c 0,-0.05494 0.208359,-0.2633 0.463021,-0.463021 0.419644,-0.329107 0.429002,-0.319749 0.09989,0.0999 -0.345643,0.44073 -0.562915,0.580888 -0.562915,0.363125 z M 147.94623,9.4735187 c 8e-5,-5.3842707 0.0354,-7.5493745 0.0784,-4.8113419 0.043,2.7380352 0.043,7.1433472 -1.5e-4,9.7895832 -0.0431,2.646238 -0.0783,0.406029 -0.0782,-4.9782413 z M 33.526493,-21.383729 c 0,-0.07276 0.357188,-0.474498 0.79375,-0.892751 0.436562,-0.418254 0.79375,-0.700929 0.79375,-0.628169 0,0.07276 -0.357188,0.474499 -0.79375,0.892752 -0.436562,0.418253 -0.79375,0.700929 -0.79375,0.628168 z m 136.504967,-0.694314 -0.64143,-0.727604 0.72761,0.641432 c 0.40018,0.35279 0.7276,0.680212 0.7276,0.727604 0,0.207508 -0.21426,0.03862 -0.81378,-0.641432 z"
           style="fill:#cbe7eb;stroke-width:0.26458332"
           inkscape:connector-curvature="0" />
        <path
           id="path33"
           d="m -19.170436,158.89696 c 18.96580376,-0.0375 49.922053,-0.0375 68.791665,0 18.869615,0.0375 3.352139,0.0681 -34.483277,0.0681 -37.835416,0 -53.274189,-0.0307 -34.308388,-0.0681 z m 174.095826,0 c 18.96581,-0.0375 49.92206,-0.0375 68.79167,0 18.86961,0.0375 3.35214,0.0681 -34.48328,0.0681 -37.83541,0 -53.27419,-0.0307 -34.30839,-0.0681 z M -57.35788,24.422477 c 0.263389,-0.291042 0.53842,-0.529167 0.611181,-0.529167 0.07276,0 -0.08321,0.238125 -0.346598,0.529167 -0.263389,0.291041 -0.53842,0.529166 -0.611181,0.529166 -0.07276,0 0.08321,-0.238125 0.346598,-0.529166 z m 318.79777,-0.06615 -0.50403,-0.595313 0.59532,0.504029 c 0.55943,0.473662 0.71575,0.686596 0.50403,0.686596 -0.0502,0 -0.31811,-0.26789 -0.59532,-0.595312 z M 56.400248,9.6058104 c 0,-5.3115103 0.03531,-7.4844008 0.07847,-4.8286457 0.04316,2.6557551 0.04316,7.0015363 0,9.6572913 -0.04316,2.655755 -0.07847,0.482865 -0.07847,-4.8286456 z"
           style="fill:#bde0e6;stroke-width:0.26458332"
           inkscape:connector-curvature="0" />
        <path
           id="path31"
           d="m 86.443159,193.62351 c -0.181158,-0.21828 -0.269846,-0.39687 -0.197086,-0.39687 0.07276,0 0.280511,0.17859 0.461669,0.39687 0.181158,0.21828 0.269846,0.39688 0.197085,0.39688 -0.07276,0 -0.280511,-0.1786 -0.461668,-0.39688 z m 30.956251,0.29698 c 0,-0.0549 0.20836,-0.2633 0.46302,-0.46302 0.41964,-0.32911 0.429,-0.31975 0.0999,0.0999 -0.34564,0.44073 -0.56291,0.58089 -0.56291,0.36312 z M 175.46673,4.5787272 c 0,-8.076406 0.0336,-11.3803903 0.0747,-7.3421873 0.0411,4.038203 0.0411,10.6461716 0,14.6843741 -0.0411,4.038204 -0.0747,0.734219 -0.0747,-7.3421868 z m -91.847154,-13.42758 c 10.306975,-0.038351 27.094784,-0.038346 37.306244,1.06e-5 10.21147,0.038359 1.77848,0.069736 -18.73995,0.069731 -20.51844,-7.9e-6 -28.87327,-0.03139 -18.566294,-0.069742 z M 28.805768,-9.4441891 c 0,-0.3638021 0.06005,-0.5126302 0.133453,-0.3307291 0.0734,0.181901 0.0734,0.4795572 0,0.6614583 -0.0734,0.181901 -0.133453,0.033073 -0.133453,-0.3307292 z"
           style="fill:#a5d5dd;stroke-width:0.26458332"
           inkscape:connector-curvature="0" />
        <path
           id="path29"
           d="m 28.887268,5.1078938 c 0,-7.7853643 0.03374,-10.9702861 0.07498,-7.0776039 0.04124,3.8926822 0.04124,10.2625257 0,14.1552081 -0.04124,3.892682 -0.07498,0.70776 -0.07498,-7.0776042 z"
           style="fill:#92cdd6;stroke-width:0.26458332"
           inkscape:connector-curvature="0" />
        <path
           id="path27"
           d="m -45.104365,19.214654 c 0.190996,-0.07643 0.419199,-0.06703 0.507118,0.02088 0.08792,0.08792 -0.06835,0.150452 -0.347265,0.138964 -0.308225,-0.0127 -0.37092,-0.07539 -0.159853,-0.159851 z m 294.216665,0 c 0.191,-0.07643 0.4192,-0.06703 0.50712,0.02088 0.0879,0.08792 -0.0684,0.150452 -0.34726,0.138964 -0.30824,-0.0127 -0.37092,-0.07539 -0.15986,-0.159851 z M 59.058784,-6.2691892 c 0.26339,-0.2910416 0.538422,-0.5291666 0.611182,-0.5291666 0.07276,0 -0.08321,0.238125 -0.346598,0.5291666 -0.263391,0.2910417 -0.538422,0.5291667 -0.611183,0.5291667 -0.07276,0 0.08321,-0.238125 0.346599,-0.5291667 z"
           style="fill:#7ac2cd;stroke-width:0.26458332"
           inkscape:connector-curvature="0" />
        <path
           id="path25"
           d="m 266.93077,37.122476 c 0,-0.363802 0.0601,-0.51263 0.13345,-0.330729 0.0734,0.181901 0.0734,0.479557 0,0.661458 -0.0734,0.181901 -0.13345,0.03307 -0.13345,-0.330729 z M -62.76095,36.968137 c 0.01269,-0.308226 0.07539,-0.370919 0.159852,-0.159853 0.07643,0.190994 0.06703,0.4192 -0.02089,0.507119 -0.08792,0.08792 -0.150453,-0.06835 -0.138964,-0.347266 z m 36.404796,-17.771144 c 10.065951,-0.03839 26.61563796,-0.03839 36.777082,-1.3e-5 10.161447,0.03838 1.92567,0.06978 -18.3017258,0.06979 -20.2273952,5e-6 -28.5413052,-0.0314 -18.4753562,-0.06978 z m 105.610356,-2.1e-5 c 12.708207,-0.03799 33.425078,-0.03799 46.037498,8e-6 12.61242,0.03799 2.21479,0.06908 -23.10583,0.06908 -25.320628,-6e-6 -35.639878,-0.03109 -22.931668,-0.06908 z m 114.522968,2.1e-5 c 10.06595,-0.03839 26.61564,-0.03839 36.77709,-1.3e-5 10.16143,0.03838 1.92567,0.06978 -18.30173,0.06979 -20.22739,5e-6 -28.5413,-0.0314 -18.47536,-0.06978 z m -24.51943,-41.738057 c -0.18116,-0.218281 -0.26985,-0.396875 -0.19709,-0.396875 0.0728,0 0.28052,0.178594 0.46167,0.396875 0.18116,0.218282 0.26985,0.396875 0.19709,0.396875 -0.0728,0 -0.28051,-0.178593 -0.46167,-0.396875 z"
           style="fill:#70beca;stroke-width:0.26458332"
           inkscape:connector-curvature="0" />
        <path
           id="path23"
           d="m -45.767739,289.26898 c -2.948494,-0.43296 -5.449288,-2.32158 -6.849017,-5.17239 l -0.772374,-1.57308 -0.0689,-61.71406 -0.0689,-61.71406 h 68.655833 68.655831 l 0.07244,15.1533 0.07244,15.15331 0.869619,1.7661 c 0.961869,1.95345 2.504475,3.49053 4.497097,4.48098 l 1.247867,0.62027 h 11.641673 11.64166 l 1.60338,-0.83833 c 1.91683,-1.00222 3.36587,-2.53184 4.31398,-4.55388 l 0.69723,-1.48696 0.0744,-15.14739 0.0744,-15.1474 h 68.65109 68.65109 v 61.09517 c 0,59.05958 -0.0167,61.14844 -0.49758,62.69392 -0.88098,2.83057 -2.85025,4.93721 -5.67984,6.07603 -1.02163,0.41118 -11.43516,0.44455 -148.60383,0.47625 -81.127868,0.0188 -148.123709,-0.0568 -148.879652,-0.16778 z m -16.950702,-201.677234 0.07717,-52.718228 0.597866,-1.939033 c 1.917513,-6.218984 5.747678,-10.348979 11.739325,-12.658296 l 1.94203,-0.748504 38.6291659,-0.132292 38.6291661,-0.132291 0.132291,-15.8749998 0.132292,-15.8749992 0.74707,-2.116667 c 1.768173,-5.009764 4.800846,-8.505251 9.307097,-10.727449 4.370554,-2.155282 -1.46286,-1.972551 62.970838,-1.972551 64.42365,0 58.59233,-0.182287 62.97083,1.968471 4.44939,2.185586 7.55451,5.765943 9.3071,10.731529 l 0.74707,2.116667 0.13229,15.8749992 0.13229,15.8749998 38.62916,0.132291 38.62917,0.132292 1.90362,0.73465 c 6.07645,2.345029 10.0451,6.666357 11.80436,12.853416 l 0.57505,2.02235 0.0753,52.585936 0.0753,52.585933 H 102.18588 -62.795613 Z M 148.0362,8.7396387 147.9588,-1.9161188 147.09635,-3.6673059 c -1.00379,-2.0381356 -2.43873,-3.4377443 -4.52975,-4.4182028 l -1.48696,-0.6972221 H 102.18587 63.292117 l -1.507198,0.7064851 c -1.922669,0.9012343 -3.764249,2.7428137 -4.665483,4.6654825 l -0.706485,1.5071989 -0.07742,10.6494789 -0.07742,10.6494784 h 45.927759 45.92775 z"
           style="fill:#5db5c3;stroke-width:0.26458332"
           inkscape:connector-curvature="0" />
      </g>
    </g>
  </g>
</svg>
