<?xml version="1.0" encoding="UTF-8" standalone="no"?>
<svg
   xmlns:dc="http://purl.org/dc/elements/1.1/"
   xmlns:cc="http://creativecommons.org/ns#"
   xmlns:rdf="http://www.w3.org/1999/02/22-rdf-syntax-ns#"
   xmlns:svg="http://www.w3.org/2000/svg"
   xmlns="http://www.w3.org/2000/svg"
   xmlns:sodipodi="http://sodipodi.sourceforge.net/DTD/sodipodi-0.dtd"
   xmlns:inkscape="http://www.inkscape.org/namespaces/inkscape"
   viewBox="0 0 2362.7246 1875.3045"
   height="1875.3046"
   width="2362.7246"
   id="svg3707"
   version="1.1"
   sodipodi:docname="home.svg"
   inkscape:version="0.92.1 r15371">
  <sodipodi:namedview
     pagecolor="#ffffff"
     bordercolor="#666666"
     borderopacity="1"
     objecttolerance="10"
     gridtolerance="10"
     guidetolerance="10"
     inkscape:pageopacity="0"
     inkscape:pageshadow="2"
     inkscape:window-width="1920"
     inkscape:window-height="1017"
     id="namedview3803"
     showgrid="false"
     fit-margin-top="0"
     fit-margin-left="0"
     fit-margin-right="0"
     fit-margin-bottom="0"
     inkscape:zoom="0.24022014"
     inkscape:cx="2549.8048"
     inkscape:cy="656.20576"
     inkscape:window-x="-8"
     inkscape:window-y="-8"
     inkscape:window-maximized="1"
     inkscape:current-layer="svg3707" />
  <metadata
     id="metadata3713">
    <rdf:RDF>
      <cc:Work
         rdf:about="">
        <dc:format>image/svg+xml</dc:format>
        <dc:type
           rdf:resource="http://purl.org/dc/dcmitype/StillImage" />
        <dc:title></dc:title>
      </cc:Work>
    </rdf:RDF>
  </metadata>
  <defs
     id="defs3711" />
  <path
     id="path3717"
     d="m 325.73734,1866.0592 c -9.8008,-5.0372 -24.8141,-18.576 -33.363,-30.0864 -15.2863,-20.5821 -15.6044,-28.462 -19.2509,-476.9107 l -3.7065,-455.98264 -63.0209,47.51048 c -34.6614,26.1307 -70.3085,51.40026 -79.2151,56.15456 C 75.016142,1034.5886 7.9883424,995.40617 0.94934242,932.95276 -1.5845576,910.48 0.94934242,891.8211 8.6068424,877.05838 16.267042,862.24351 203.93314,715.98669 574.76434,435.82414 879.84974,205.33332 1136.7512,12.901069 1145.6592,8.1965492 c 20.6857,-10.9262 50.7136,-10.92893 71.4102,-0.007 8.9053,4.7008298 265.7945,197.1072808 570.8634,427.5699708 371.7596,280.84462 558.4578,426.34947 566.1576,441.2408 7.6643,14.8191 10.2241,33.45165 7.6875,55.95185 -7.039,62.45341 -74.0668,101.63583 -126.2316,73.79173 -8.9066,-4.7543 -44.5537,-30.02385 -79.2151,-56.15469 l -63.0209,-47.51057 -3.7065,455.98266 c -3.6465,448.4487 -3.9646,456.3286 -19.2509,476.9107 -29.2606,39.3971 -27.7984,39.2386 -362.5812,39.3263 -299.3569,0.082 -312.3455,-0.497 -335.9391,-14.8814 -45.1667,-27.5377 -45.8916,-33.4492 -45.8916,-373.9891 v -307.9266 h -144.5774 -144.5774 v 307.9274 c 0,340.5399 -0.7235,346.4514 -45.89286,373.9891 -23.5923,14.3846 -36.5809,14.9599 -335.9378,14.8814 -232.4383,-0.055 -315.9155,-2.4037 -329.2182,-9.2399 z m 525.6941,-491.3198 c 0,-334.1565 0.7918,-341.4033 40.8799,-372.9344 20.1069,-15.81634 24.7254,-16.07314 289.05226,-16.07314 264.3269,0 268.9455,0.25666 289.0523,16.07314 40.0854,31.5311 40.8799,38.7779 40.8799,372.9344 v 307.9274 h 196.4759 196.4759 v -447.9527 c 0,-246.37414 1.7857,-452.6054 3.9673,-458.29179 2.6826,-6.98879 -111.7932,-97.87847 -353.2801,-280.49252 -196.4868,-148.58451 -361.2706,-272.55027 -366.1867,-275.47975 -11.7764,-7.01828 -734.20026,538.59722 -733.35786,553.8749 0.3413,6.17294 1.1741,213.07508 1.8526,459.78266 l 1.2423,448.5592 h 196.4772 196.4759 z"
     style="fill:#181818;stroke-width:7.41420174"
     inkscape:connector-curvature="0" />
</svg>
