<?xml version="1.0" encoding="UTF-8" standalone="no"?>
<svg
   xmlns:dc="http://purl.org/dc/elements/1.1/"
   xmlns:cc="http://creativecommons.org/ns#"
   xmlns:rdf="http://www.w3.org/1999/02/22-rdf-syntax-ns#"
   xmlns:svg="http://www.w3.org/2000/svg"
   xmlns="http://www.w3.org/2000/svg"
   xmlns:sodipodi="http://sodipodi.sourceforge.net/DTD/sodipodi-0.dtd"
   xmlns:inkscape="http://www.inkscape.org/namespaces/inkscape"
   viewBox="0 0 1424.8313 1688.5001"
   height="1688.5001"
   width="1424.8313"
   id="svg3707"
   version="1.1"
   sodipodi:docname="woman.svg"
   inkscape:version="0.92.1 r15371">
  <sodipodi:namedview
     pagecolor="#ffffff"
     bordercolor="#666666"
     borderopacity="1"
     objecttolerance="10"
     gridtolerance="10"
     guidetolerance="10"
     inkscape:pageopacity="0"
     inkscape:pageshadow="2"
     inkscape:window-width="1920"
     inkscape:window-height="1017"
     id="namedview3819"
     showgrid="false"
     fit-margin-top="0"
     fit-margin-left="0"
     fit-margin-right="0"
     fit-margin-bottom="0"
     inkscape:zoom="0.24022014"
     inkscape:cx="2413.1501"
     inkscape:cy="563.72111"
     inkscape:window-x="-8"
     inkscape:window-y="-8"
     inkscape:window-maximized="1"
     inkscape:current-layer="svg3707" />
  <metadata
     id="metadata3713">
    <rdf:RDF>
      <cc:Work
         rdf:about="">
        <dc:format>image/svg+xml</dc:format>
        <dc:type
           rdf:resource="http://purl.org/dc/dcmitype/StillImage" />
        <dc:title></dc:title>
      </cc:Work>
    </rdf:RDF>
  </metadata>
  <defs
     id="defs3711" />
  <path
     id="path3717-6"
     d="m 0.0242,1663.415 c 0.081,-44.3937 26.1541,-135.6908 54.0714,-189.3519 69.6863,-133.945 198.7867,-231.9552 358.3726,-272.0666 25.1513,-6.3215 46.6581,-12.0013 47.7926,-12.6215 1.1351,-0.6221 -12.0073,-16.0831 -29.2057,-34.3625 l -31.2693,-33.2347 -64.4445,21.9351 c -35.4449,12.0642 -78.9932,28.1989 -96.7742,35.8549 -67.7691,29.1803 -100.5804,15.2945 -137.4548,-58.17 C -8.4506,903.11373 -11.4754,632.88137 93.1868,413.30813 133.8869,327.9239 169.4895,275.4219 229.9137,211.68231 294.1784,143.89245 351.4198,101.57978 431.4404,62.71396 534.1621,12.82208 591.6042,0 712.3932,0 833.182,0 890.6248,12.82208 993.34579,62.71396 1200.7123,163.43148 1347.9595,363.80162 1395.6145,610.1115 c 14.7614,76.2934 14.8022,219.14444 0.087,296.02308 -13.7747,71.95736 -42.1469,156.21772 -73.613,218.61472 -35.2287,69.8595 -69.1504,83.5459 -135.8674,54.8185 -17.7808,-7.656 -61.455,-23.8336 -97.0536,-35.9499 l -64.7243,-22.0293 -41.10666,44.3596 c -19.20372,21.7624 -8.3844,27.0211 25.70516,35.2262 159.2273,38.3273 291.5734,138.1906 361.6509,272.8887 27.9175,53.6611 53.9885,144.9582 54.0714,189.3519 l 0.067,25.0851 h -76.3234 -76.3228 l -7.8405,-46.4822 c -23.6957,-140.4845 -137.3845,-255.3747 -291.77671,-294.8619 -28.36827,-7.2553 -64.64249,-13.1914 -80.61009,-13.1914 h -29.0317 v -40.8612 -40.8612 l -44.4741,13.1139 c -26.0786,8.1006 -54.6755,12.1478 -87.1422,13.6414 -54.1074,2.4898 -92.8543,-3.0803 -154.3533,-22.1892 -14.4779,-4.4979 -15.0512,-3.1179 -15.0512,36.2403 v 40.916 H 532.873 c -15.9676,0 -52.242,5.9361 -80.6101,13.1914 -154.3922,39.4872 -268.0811,154.3774 -291.7767,294.8619 l -7.8399,46.4822 H 76.3234 0 l 0.067,-25.0851 z m 917.0075,-526.9822 c 111.094,-92.971 157.2558,-240.47264 185.7331,-392.90292 l 5.9175,-31.67471 H 848.6612 c -251.1022,0 -260.48,-0.46165 -273.3998,-13.3787 l -13.3787,-13.37869 -13.3787,13.37869 c -12.2889,12.28895 -22.2976,13.3787 -122.8893,13.3787 H 316.104 l 5.884,31.77431 c 51.4726,277.96932 136.3891,403.22922 312.287,469.36562 91.3992,34.3656 207.8727,-13.8946 282.7567,-76.5623 z M 515.0573,838.95277 c -18.6685,-18.6687 -16.9347,-43.05734 4.247,-59.71848 23.3272,-18.34951 39.5629,-17.48793 60.2463,3.19553 13.2296,13.22956 16.0833,21.11494 12.7091,35.11899 -8.4726,35.16064 -51.5133,47.09303 -77.2024,21.40396 z m 327.7782,0 c -21.5043,-21.50424 -8.5886,-45.53443 3.0409,-57.16373 20.0581,-20.05948 36.4597,-20.7618 59.6062,-2.55475 32.60913,25.65032 2.7279,57.72446 2.7279,57.72446 0,0 -29.6867,37.68231 -65.375,1.99402 z M 274.3791,1005.2112 318.9477,990.85659 299.172,943.78825 c -23.1659,-55.1356 -54.8802,-177.13724 -61.6926,-237.322 -7.6319,-67.42609 -6.1235,-68.1939 133.9542,-68.1939 h 115.1879 l 10.471,-68.5659 c 5.7581,-37.7111 14.0308,-94.15269 18.3829,-125.42541 8.7382,-62.79145 19.0366,-80.27217 47.2896,-80.27217 28.4292,0 36.0463,19.08337 52.068,130.44227 22.6703,157.57052 18.1248,143.82121 47.5466,143.82121 28.2725,0 26.7835,3.58947 36.7753,-88.63788 4.7113,-43.47887 15.7668,-58.528 42.9992,-58.528 27.5367,0 34.2922,12.90042 42.8246,81.77066 l 7.6867,62.05054 186.89439,1.7806 c 222.46491,2.11932 215.02901,-0.29434 207.76711,67.513 -6.6545,62.13728 -33.0816,165.79217 -58.7559,230.45883 l -22.3525,56.29889 46.1278,14.85641 c 25.3707,8.1709 46.7754,13.8502 47.5666,12.6208 6.9309,-10.7706 19.7424,-48.25032 32.2052,-94.21897 12.6609,-46.69755 14.9582,-72.15331 14.9393,-165.55663 0,-121.21772 -7.0197,-161.95996 -43.4893,-253.27756 C 1160.3287,397.13521 1071.7062,286.66327 979.9671,226.67325 852.4334,143.27635 685.5508,124.94159 542.8362,178.6463 468.1689,206.74424 416.8263,240.7349 354.3249,303.44681 275.1312,382.90693 218.7786,484.98248 189.2834,602.39858 c -16.4438,65.45796 -16.3495,249.21307 0.1611,310.13701 14.9058,55.012 32.9604,107.02951 37.1478,107.02951 1.7715,0 23.277,-6.4591 47.7896,-14.3539 z"
     style="fill:#181818;stroke-width:6.68934917"
     inkscape:connector-curvature="0" />
</svg>
