<svg xmlns="http://www.w3.org/2000/svg" width="1280" height="1319"><path d="M613.724 1300.084c.721-.29 1.584-.254 1.916.079.333.332-.258.569-1.312.525-1.165-.048-1.402-.285-.604-.604zm64 0c.721-.29 1.584-.254 1.916.079.333.332-.258.569-1.312.525-1.165-.048-1.402-.285-.604-.604zm-80-1c.721-.29 1.584-.254 1.916.079.333.332-.258.569-1.312.525-1.165-.048-1.402-.285-.604-.604zm96 0c.721-.29 1.584-.254 1.916.079.333.332-.258.569-1.312.525-1.165-.048-1.402-.285-.604-.604zm370.187-157.695c0-.207.788-.995 1.75-1.75 1.586-1.243 1.621-1.208.378.378-1.307 1.666-2.128 2.195-2.128 1.372zm-849.076-12.372l-2.424-2.75 2.75 2.424c2.57 2.266 3.209 3.076 2.424 3.076-.179 0-1.416-1.238-2.75-2.75zm863.076-.75c1.292-1.375 2.574-2.5 2.849-2.5.275 0-.557 1.125-1.849 2.5-1.292 1.375-2.574 2.5-2.849 2.5-.275 0 .557-1.125 1.849-2.5zm21-20.626c0-.275 1.35-1.793 3-3.374 1.65-1.58 3-2.65 3-2.374 0 .275-1.35 1.793-3 3.374-1.65 1.58-3 2.65-3 2.374zm-910.076-4.624l-2.424-2.75 2.75 2.424c2.57 2.266 3.209 3.076 2.424 3.076-.179 0-1.416-1.238-2.75-2.75zm393.889-99.933c.721-.289 1.584-.253 1.916.079.333.332-.258.568-1.312.525-1.165-.048-1.402-.285-.604-.604zm-81.332-51.567l-9.98-10.25 10.25 9.981c5.637 5.49 10.25 10.102 10.25 10.25 0 .724-1.25-.46-10.52-9.981zm162.02-8.75c5.478-5.5 10.187-10 10.462-10 .275 0-3.984 4.5-9.463 10-5.48 5.5-10.187 10-10.462 10-.275 0 3.983-4.5 9.462-10zm-226.5-57.5c-10.715-10.725-19.257-19.5-18.982-19.5.275 0 9.267 8.775 19.981 19.5 10.714 10.725 19.256 19.5 18.98 19.5-.274 0-9.266-8.775-19.98-19.5zm314.5-31.5c7.133-7.15 13.195-13 13.47-13 .275 0-5.337 5.85-12.47 13-7.135 7.15-13.197 13-13.472 13-.275 0 5.337-5.85 12.471-13zm94-95c7.133-7.15 13.195-13 13.47-13 .275 0-5.337 5.85-12.47 13-7.135 7.15-13.197 13-13.472 13-.275 0 5.337-5.85 12.471-13zm-543.017-9.25l-11.984-12.25 12.25 11.984c11.379 11.132 12.704 12.516 11.984 12.516-.146 0-5.658-5.513-12.25-12.25zm254.997-34l-9.98-10.25 10.25 9.981c9.52 9.27 10.704 10.519 9.98 10.519-.148 0-4.76-4.613-10.25-10.25zm69.02-26.75c5.478-5.5 10.187-10 10.462-10 .275 0-3.984 4.5-9.463 10-5.48 5.5-10.187 10-10.462 10-.275 0 3.983-4.5 9.462-10zM13.99 692.184c.048-1.165.285-1.402.604-.605.289.722.254 1.585-.079 1.917-.332.332-.568-.258-.525-1.312zm1264 0c.048-1.165.285-1.402.604-.605.289.722.254 1.585-.079 1.917-.332.332-.569-.258-.525-1.312zm-339.58-27.417c7.134-7.15 13.196-13 13.471-13 .275 0-5.337 5.85-12.47 13-7.135 7.15-13.197 13-13.472 13-.275 0 5.337-5.85 12.471-13zm-451.52-20.75l-9.48-9.75 9.75 9.48c9.056 8.805 10.205 10.02 9.48 10.02-.148 0-4.536-4.388-9.75-9.75zm-472.9-17.833c.048-1.165.285-1.402.604-.605.289.722.254 1.585-.079 1.917-.332.332-.568-.258-.525-1.312zm1264 0c.048-1.165.285-1.402.604-.605.289.722.254 1.585-.079 1.917-.332.332-.569-.258-.525-1.312zm-581.079-8.917c5.203-5.225 9.686-9.5 9.96-9.5.276 0-3.757 4.275-8.96 9.5-5.203 5.225-9.685 9.5-9.96 9.5-.275 0 3.757-4.275 8.96-9.5zM14.99 610.184c.048-1.165.285-1.402.604-.605.289.722.254 1.585-.079 1.917-.332.332-.568-.258-.525-1.312zm1262 0c.048-1.165.285-1.402.604-.605.289.722.254 1.585-.079 1.917-.332.332-.569-.258-.525-1.312zm-933.58-12.417c4.374-4.4 8.178-8 8.453-8 .275 0-3.079 3.6-7.453 8-4.374 4.4-8.178 8-8.453 8-.275 0 3.079-3.6 7.453-8zm682.5-21.5c3.543-3.575 6.667-6.5 6.942-6.5.275 0-2.399 2.925-5.942 6.5s-6.667 6.5-6.942 6.5c-.275 0 2.399-2.925 5.942-6.5zm-638.187-2.183c.721-.289 1.584-.253 1.916.079.333.332-.258.568-1.312.525-1.165-.048-1.402-.285-.604-.604zm379.687-28.317c5.48-5.5 10.188-10 10.463-10 .275 0-3.984 4.5-9.463 10-5.48 5.5-10.187 10-10.462 10-.275 0 3.983-4.5 9.462-10zm281.732-19c0-1.925.206-2.713.457-1.75.252.962.252 2.537 0 3.5-.251.962-.457.175-.457-1.75zm-210.732-53c5.48-5.5 10.188-10 10.463-10 .275 0-3.984 4.5-9.463 10-5.48 5.5-10.187 10-10.462 10-.275 0 3.983-4.5 9.462-10zm152.981-31.25l-9.98-10.25 10.25 9.981c5.637 5.49 10.249 10.102 10.249 10.25 0 .724-1.248-.46-10.519-9.981zm-809.48-220.128c0-.207.787-.995 1.75-1.75 1.585-1.243 1.62-1.208.377.378-1.307 1.666-2.128 2.195-2.128 1.372zm925.999-2.122c-.685-.825-1.02-1.5-.745-1.5s1.06.675 1.745 1.5 1.02 1.5.745 1.5-1.06-.675-1.745-1.5zm-905.5-19.5c.996-1.1 2.035-2 2.31-2 .275 0-.314.9-1.31 2-.995 1.1-2.035 2-2.31 2-.275 0 .315-.9 1.31-2zm867.5-18.5c-.685-.825-1.02-1.5-.745-1.5s1.06.675 1.745 1.5 1.02 1.5.745 1.5-1.06-.675-1.745-1.5zM613.724 17.084c.721-.289 1.584-.253 1.916.079.333.332-.258.568-1.312.525-1.165-.048-1.402-.285-.604-.604zm64 0c.721-.289 1.584-.253 1.916.079.333.332-.258.568-1.312.525-1.165-.048-1.402-.285-.604-.604z" fill="#cff5e8"/><path d="M616.724 1300.084c.721-.29 1.584-.254 1.916.079.333.332-.258.569-1.312.525-1.165-.048-1.402-.285-.604-.604zm58 0c.721-.29 1.584-.254 1.916.079.333.332-.258.569-1.312.525-1.165-.048-1.402-.285-.604-.604zm-464.408-175.567l-1.905-2.25 2.25 1.905c1.238 1.048 2.25 2.06 2.25 2.25 0 .8-.805.21-2.595-1.905zm872.595-1.25c1.292-1.375 2.574-2.5 2.849-2.5.275 0-.557 1.125-1.849 2.5-1.292 1.375-2.574 2.5-2.849 2.5-.275 0 .557-1.125 1.849-2.5zm13.5-13.5c.996-1.1 2.035-2 2.31-2 .275 0-.314.9-1.31 2-.995 1.1-2.035 2-2.31 2-.275 0 .315-.9 1.31-2zm-902.576-1.75l-2.424-2.75 2.75 2.424c2.57 2.266 3.209 3.076 2.424 3.076-.179 0-1.416-1.238-2.75-2.75zm292.042-172l-5.466-5.75 5.75 5.466c3.163 3.006 5.75 5.594 5.75 5.75 0 .742-.956-.124-6.034-5.466zm188.034-3.313c0-.275 2.7-3.171 6-6.437 3.3-3.266 6-5.712 6-5.437 0 .275-2.7 3.171-6 6.437-3.3 3.266-6 5.712-6 5.437zm-267.517-78.187l-10.983-11.25 11.25 10.983c10.45 10.201 11.704 11.517 10.983 11.517-.147 0-5.21-5.063-11.25-11.25zm358.517-13.8c0-.275 3.375-3.853 7.5-7.95 4.125-4.098 7.5-7.225 7.5-6.95 0 .275-3.375 3.852-7.5 7.95-4.125 4.097-7.5 7.225-7.5 6.95zm100.5-101.95c3.82-3.85 7.171-7 7.446-7 .275 0-2.625 3.15-6.446 7-3.82 3.85-7.171 7-7.446 7-.275 0 2.626-3.15 6.446-7zm-292.534-7.75l-5.466-5.75 5.75 5.466c3.163 3.006 5.75 5.594 5.75 5.75 0 .742-.956-.124-6.034-5.466zm38.034-26.75c2.987-3.025 5.657-5.5 5.932-5.5.275 0-1.945 2.475-4.932 5.5s-5.657 5.5-5.932 5.5c-.275 0 1.945-2.475 4.932-5.5zM13.99 689.184c.048-1.165.285-1.402.604-.605.289.722.254 1.585-.079 1.917-.332.332-.568-.258-.525-1.312zm1264 0c.048-1.165.285-1.402.604-.605.289.722.254 1.585-.079 1.917-.332.332-.569-.258-.525-1.312zm-776.113-30.167l-5.466-5.75 5.75 5.466c3.163 3.006 5.75 5.594 5.75 5.75 0 .742-.956-.124-6.034-5.466zm450.034-7.3c0-.275 3.375-3.853 7.5-7.95 4.125-4.098 7.5-7.225 7.5-6.95 0 .275-3.375 3.852-7.5 7.95-4.125 4.097-7.5 7.225-7.5 6.95zm-270-19.45c2.987-3.025 5.657-5.5 5.932-5.5.275 0-1.945 2.475-4.932 5.5s-5.657 5.5-5.932 5.5c-.275 0 1.945-2.475 4.932-5.5zM13.99 629.184c.048-1.165.285-1.402.604-.605.289.722.254 1.585-.079 1.917-.332.332-.568-.258-.525-1.312zm1264 0c.048-1.165.285-1.402.604-.605.289.722.254 1.585-.079 1.917-.332.332-.569-.258-.525-1.312zm-948.08-17.917c2.987-3.025 5.657-5.5 5.932-5.5.275 0-1.945 2.475-4.932 5.5s-5.657 5.5-5.932 5.5c-.275 0 1.945-2.475 4.932-5.5zm422-50c2.987-3.025 5.657-5.5 5.932-5.5.275 0-1.945 2.475-4.932 5.5s-5.657 5.5-5.932 5.5c-.275 0 1.945-2.475 4.932-5.5zm71-72c2.987-3.025 5.657-5.5 5.932-5.5.275 0-1.945 2.475-4.932 5.5s-5.657 5.5-5.932 5.5c-.275 0 1.945-2.475 4.932-5.5zm183.966-31.25l-5.466-5.75 5.75 5.466c5.342 5.078 6.208 6.034 5.466 6.034-.156 0-2.744-2.588-5.75-5.75zm66.034-272.75c-.685-.825-1.02-1.5-.745-1.5s1.06.675 1.745 1.5 1.02 1.5.745 1.5-1.06-.675-1.745-1.5zm-854 .122c0-.207.788-.995 1.75-1.75 1.586-1.243 1.621-1.208.378.378-1.307 1.666-2.128 2.195-2.128 1.372zM616.724 17.084c.721-.289 1.584-.253 1.916.079.333.332-.258.568-1.312.525-1.165-.048-1.402-.285-.604-.604zm58 0c.721-.289 1.584-.253 1.916.079.333.332-.258.568-1.312.525-1.165-.048-1.402-.285-.604-.604z" fill="#aeefd8"/><path d="M619.724 1300.084c.721-.29 1.584-.254 1.916.079.333.332-.258.569-1.312.525-1.165-.048-1.402-.285-.604-.604zM202.38 1116.517l-5.969-6.25 6.25 5.969c5.806 5.544 6.708 6.53 5.969 6.53-.155 0-2.967-2.812-6.25-6.25zm887.531-.25c2.429-2.475 4.641-4.5 4.916-4.5.275 0-1.487 2.025-3.916 4.5s-4.641 4.5-4.916 4.5c-.275 0 1.487-2.025 3.916-4.5zm-612.076-188.25l-2.424-2.75 2.75 2.424c2.57 2.266 3.209 3.076 2.424 3.076-.179 0-1.416-1.238-2.75-2.75zm212.576-12.25c2.709-2.75 5.15-5 5.425-5 .275 0-1.716 2.25-4.425 5-2.709 2.75-5.15 5-5.425 5-.275 0 1.716-2.25 4.425-5zm-303.023-80.25l-7.977-8.25 8.25 7.977c4.538 4.387 8.25 8.1 8.25 8.25 0 .729-1.115-.315-8.523-7.977zm397.023-14.75c2.709-2.75 5.15-5 5.425-5 .275 0-1.716 2.25-4.425 5-2.709 2.75-5.15 5-5.425 5-.275 0 1.716-2.25 4.425-5zm93-94c2.709-2.75 5.15-5 5.425-5 .275 0-1.716 2.25-4.425 5-2.709 2.75-5.15 5-5.425 5-.275 0 1.716-2.25 4.425-5zm-276-13c2.148-2.2 4.131-4 4.406-4 .275 0-1.258 1.8-3.406 4s-4.13 4-4.406 4c-.275 0 1.258-1.8 3.406-4zm-90.047-45.25l-3.953-4.25 4.25 3.953c2.338 2.174 4.25 4.087 4.25 4.25 0 .756-.87 0-4.547-3.953zm161.047-26.75c2.148-2.2 4.131-4 4.406-4 .275 0-1.258 1.8-3.406 4s-4.13 4-4.406 4c-.275 0 1.258-1.8 3.406-4zm299-10c2.709-2.75 5.15-5 5.425-5 .275 0-1.716 2.25-4.425 5-2.709 2.75-5.15 5-5.425 5-.275 0 1.716-2.25 4.425-5zm-957.421.417c.048-1.165.285-1.402.604-.605.289.722.254 1.585-.079 1.917-.332.332-.568-.258-.525-1.312zm306.921-11.917c1.866-1.925 3.617-3.5 3.892-3.5.275 0-1.026 1.575-2.892 3.5-1.866 1.925-3.617 3.5-3.892 3.5-.275 0 1.026-1.575 2.892-3.5zm119.453-23.75l-3.953-4.25 4.25 3.953c2.338 2.174 4.25 4.087 4.25 4.25 0 .756-.87 0-4.547-3.953zm302.547-26.25c1.866-1.925 3.617-3.5 3.892-3.5.275 0-1.026 1.575-2.892 3.5-1.866 1.925-3.617 3.5-3.892 3.5-.275 0 1.026-1.575 2.892-3.5zm70.5-71.5c2.148-2.2 4.131-4 4.406-4 .275 0-1.258 1.8-3.406 4s-4.13 4-4.406 4c-.275 0 1.258-1.8 3.406-4zm202.953-31.25l-3.953-4.25 4.25 3.953c3.953 3.676 4.71 4.547 3.953 4.547-.163 0-2.076-1.913-4.25-4.25zm-131.953-40.75c2.148-2.2 4.131-4 4.406-4 .275 0-1.258 1.8-3.406 4s-4.13 4-4.406 4c-.275 0 1.258-1.8 3.406-4zm43.313-20.683c.721-.289 1.584-.253 1.916.079.333.332-.258.568-1.312.525-1.165-.048-1.402-.285-.604-.604zm4 0c.721-.289 1.584-.253 1.916.079.333.332-.258.568-1.312.525-1.165-.048-1.402-.285-.604-.604zm-312-389c.721-.289 1.584-.253 1.916.079.333.332-.258.568-1.312.525-1.165-.048-1.402-.285-.604-.604z" fill="#90e9ca"/><path d="M622.724 1300.084c.721-.29 1.584-.254 1.916.079.333.332-.258.569-1.312.525-1.165-.048-1.402-.285-.604-.604zm47 0c.721-.29 1.584-.254 1.916.079.333.332-.258.569-1.312.525-1.165-.048-1.402-.285-.604-.604zM624.41 982.767c2.148-2.2 4.131-4 4.406-4 .275 0-1.258 1.8-3.406 4s-4.13 4-4.406 4c-.275 0 1.258-1.8 3.406-4zm76.5-77.5c2.987-3.025 5.657-5.5 5.932-5.5.275 0-1.945 2.475-4.932 5.5s-5.657 5.5-5.932 5.5c-.275 0 1.945-2.475 4.932-5.5zm-329.523-85.75l-7.977-8.25 8.25 7.977c7.662 7.408 8.706 8.523 7.977 8.523-.15 0-3.863-3.713-8.25-8.25zm423.023-8.75c2.709-2.75 5.15-5 5.425-5 .275 0-1.716 2.25-4.425 5-2.709 2.75-5.15 5-5.425 5-.275 0 1.716-2.25 4.425-5zm-200.5-89.5c1.866-1.925 3.617-3.5 3.892-3.5.275 0-1.026 1.575-2.892 3.5-1.866 1.925-3.617 3.5-3.892 3.5-.275 0 1.026-1.575 2.892-3.5zm294-5c2.987-3.025 5.657-5.5 5.932-5.5.275 0-1.945 2.475-4.932 5.5s-5.657 5.5-5.932 5.5c-.275 0 1.945-2.475 4.932-5.5zM13.99 684.184c.048-1.165.285-1.402.604-.605.289.722.254 1.585-.079 1.917-.332.332-.568-.258-.525-1.312zm1264 0c.048-1.165.285-1.402.604-.605.289.722.254 1.585-.079 1.917-.332.332-.569-.258-.525-1.312zm-758.626-7.667l-3.953-4.25 4.25 3.953c2.338 2.174 4.25 4.087 4.25 4.25 0 .756-.87 0-4.547-3.953zm145.047-26.75c2.148-2.2 4.131-4 4.406-4 .275 0-1.258 1.8-3.406 4s-4.13 4-4.406 4c-.275 0 1.258-1.8 3.406-4zm613.579-15.583c.048-1.165.285-1.402.604-.605.289.722.254 1.585-.079 1.917-.332.332-.569-.258-.525-1.312zm-964.579-6.417c2.148-2.2 4.131-4 4.406-4 .275 0-1.258 1.8-3.406 4s-4.13 4-4.406 4c-.275 0 1.258-1.8 3.406-4zm668.5-6.5c2.987-3.025 5.657-5.5 5.932-5.5.275 0-1.945 2.475-4.932 5.5s-5.657 5.5-5.932 5.5c-.275 0 1.945-2.475 4.932-5.5zm-533.547-16.75l-3.953-4.25 4.25 3.953c2.338 2.174 4.25 4.087 4.25 4.25 0 .756-.87 0-4.547-3.953zm287.047-26.75c2.148-2.2 4.131-4 4.406-4 .275 0-1.258 1.8-3.406 4s-4.13 4-4.406 4c-.275 0 1.258-1.8 3.406-4zm70.5-71.5c1.866-1.925 3.617-3.5 3.892-3.5.275 0-1.026 1.575-2.892 3.5-1.866 1.925-3.617 3.5-3.892 3.5-.275 0 1.026-1.575 2.892-3.5zm218.453-30.75l-3.953-4.25 4.25 3.953c3.953 3.676 4.71 4.547 3.953 4.547-.163 0-2.076-1.913-4.25-4.25zm-147.953-40.75c2.148-2.2 4.131-4 4.406-4 .275 0-1.258 1.8-3.406 4s-4.13 4-4.406 4c-.275 0 1.258-1.8 3.406-4zm225.5-220.5c-.685-.825-1.02-1.5-.745-1.5s1.06.675 1.745 1.5 1.02 1.5.745 1.5-1.06-.675-1.745-1.5zM622.724 17.084c.721-.289 1.584-.253 1.916.079.333.332-.258.568-1.312.525-1.165-.048-1.402-.285-.604-.604zm47 0c.721-.289 1.584-.253 1.916.079.333.332-.258.568-1.312.525-1.165-.048-1.402-.285-.604-.604z" fill="#7be5c1"/><path d="M625.661 1300.105c.688-.278 1.813-.278 2.5 0 .688.277.125.504-1.25.504s-1.937-.227-1.25-.504zm38.981.01c.677-.274 2.027-.291 3-.037.973.253.42.477-1.23.498-1.65.02-2.447-.187-1.77-.461zm-59.918-1.028c.721-.288 1.584-.253 1.916.08.333.332-.258.568-1.312.525-1.165-.048-1.402-.285-.604-.604zm82 0c.721-.288 1.584-.253 1.916.08.333.332-.258.568-1.312.525-1.165-.048-1.402-.285-.604-.604zm420.187-200.698c0-.207.788-.995 1.75-1.75 1.586-1.243 1.621-1.208.378.378-1.307 1.666-2.128 2.195-2.128 1.372zM529.384 980.517l-6.973-7.25 7.25 6.973c6.734 6.477 7.707 7.527 6.973 7.527-.152 0-3.415-3.263-7.25-7.25zm106.027-8.75c3.82-3.85 7.171-7 7.446-7 .275 0-2.625 3.15-6.446 7-3.82 3.85-7.171 7-7.446 7-.275 0 2.626-3.15 6.446-7zm80-81c4.927-4.95 9.183-9 9.458-9 .275 0-3.53 4.05-8.458 9-4.927 4.95-9.183 9-9.458 9-.275 0 3.531-4.05 8.458-9zm-365.5-92.5c-7.41-7.425-13.247-13.5-12.972-13.5.275 0 6.562 6.075 13.972 13.5 7.41 7.425 13.247 13.5 12.972 13.5-.275 0-6.562-6.075-13.972-13.5zm458.5-1.5c4.927-4.95 9.183-9 9.458-9 .275 0-3.53 4.05-8.458 9-4.927 4.95-9.183 9-9.458 9-.275 0 3.531-4.05 8.458-9zm-229.5-60.063c0-.275 2.7-3.171 6-6.437 3.3-3.266 6-5.712 6-5.437 0 .275-2.7 3.171-6 6.437-3.3 3.266-6 5.712-6 5.437zm323.5-34.937c4.927-4.95 9.183-9 9.458-9 .275 0-3.53 4.05-8.458 9-4.927 4.95-9.183 9-9.458 9-.275 0 3.531-4.05 8.458-9zm-887.421-.583c.048-1.165.285-1.402.604-.605.289.722.254 1.585-.079 1.917-.332.332-.568-.258-.525-1.312zm1262 0c.048-1.165.285-1.402.604-.605.289.722.254 1.585-.079 1.917-.332.332-.569-.258-.525-1.312zm-746.606-13.667l-6.973-7.25 7.25 6.973c3.988 3.835 7.25 7.098 7.25 7.25 0 .734-1.05-.24-7.527-6.973zm-516.278-7.25c.02-1.65.244-2.204.498-1.231.254.973.237 2.323-.037 3-.274.677-.481-.119-.461-1.769zm1264 0c.02-1.65.244-2.204.498-1.231.254.973.237 2.323-.037 3-.274.677-.481-.119-.461-1.769zm-624.695-19.5c3.82-3.85 7.171-7 7.446-7 .275 0-2.625 3.15-6.446 7-3.82 3.85-7.171 7-7.446 7-.275 0 2.626-3.15 6.446-7zm-351-22c3.82-3.85 7.171-7 7.446-7 .275 0-2.625 3.15-6.446 7-3.82 3.85-7.171 7-7.446 7-.275 0 2.626-3.15 6.446-7zm-288.305-.5c.02-1.65.244-2.204.498-1.231.254.973.237 2.323-.037 3-.274.677-.481-.119-.461-1.769zm1264 0c.02-1.65.244-2.204.498-1.231.254.973.237 2.323-.037 3-.274.677-.481-.119-.461-1.769zm-818.722-22.75l-6.973-7.25 7.25 6.973c3.988 3.835 7.25 7.098 7.25 7.25 0 .734-1.05-.24-7.527-6.973zM14.99 618.184c.048-1.165.285-1.402.604-.605.289.722.254 1.585-.079 1.917-.332.332-.568-.258-.525-1.312zm1262 0c.048-1.165.285-1.402.604-.605.289.722.254 1.585-.079 1.917-.332.332-.569-.258-.525-1.312zm-280.58-11.417c4.927-4.95 9.183-9 9.458-9 .275 0-3.53 4.05-8.458 9-4.927 4.95-9.183 9-9.458 9-.275 0 3.531-4.05 8.458-9zm-272-18c3.82-3.85 7.171-7 7.446-7 .275 0-2.625 3.15-6.446 7-3.82 3.85-7.171 7-7.446 7-.275 0 2.626-3.15 6.446-7zm71-72c3.82-3.85 7.171-7 7.446-7 .275 0-2.625 3.15-6.446 7-3.82 3.85-7.171 7-7.446 7-.275 0 2.626-3.15 6.446-7zm235.424-34.75l-2.424-2.75 2.75 2.424c1.513 1.334 2.75 2.571 2.75 2.75 0 .785-.81.146-3.076-2.424zm-165.424-36.25c3.82-3.85 7.171-7 7.446-7 .275 0-2.625 3.15-6.446 7-3.82 3.85-7.171 7-7.446 7-.275 0 2.626-3.15 6.446-7zm246.5-220.5c-.685-.825-1.02-1.5-.745-1.5s1.06.675 1.745 1.5 1.02 1.5.745 1.5-1.06-.675-1.745-1.5zm-919-14c1.292-1.375 2.574-2.5 2.849-2.5.275 0-.557 1.125-1.849 2.5-1.292 1.375-2.574 2.5-2.849 2.5-.275 0 .557-1.125 1.85-2.5zm904.924-1.25l-2.424-2.75 2.75 2.424c1.513 1.334 2.75 2.571 2.75 2.75 0 .785-.81.146-3.076-2.424zm-18-18l-2.424-2.75 2.75 2.424c1.513 1.334 2.75 2.571 2.75 2.75 0 .785-.81.146-3.076-2.424zm-866.424-1.25c.996-1.1 2.035-2 2.31-2 .275 0-.314.9-1.31 2-.995 1.1-2.035 2-2.31 2-.275 0 .315-.9 1.31-2zM604.724 18.084c.721-.289 1.584-.253 1.916.079.333.332-.258.568-1.312.525-1.165-.048-1.402-.285-.604-.604zm82 0c.721-.289 1.584-.253 1.916.079.333.332-.258.568-1.312.525-1.165-.048-1.402-.285-.604-.604zm-61.063-.98c.688-.277 1.813-.277 2.5 0 .688.278.125.505-1.25.505s-1.937-.227-1.25-.504zm38.981.007c.677-.274 2.027-.29 3-.037.973.253.42.478-1.23.498-1.65.02-2.447-.187-1.77-.461z" fill="#5bdfb2"/><path d="M631.161 1300.05c1.513-.228 3.988-.228 5.5 0 1.513.23.275.417-2.75.417s-4.262-.187-2.75-.416zm25 0c1.513-.228 3.988-.228 5.5 0 1.513.23.275.417-2.75.417s-4.262-.187-2.75-.416zm-48.437-.966c.721-.29 1.584-.254 1.916.079.333.332-.258.569-1.312.525-1.165-.048-1.402-.285-.604-.604zm76 0c.721-.29 1.584-.254 1.916.079.333.332-.258.569-1.312.525-1.165-.048-1.402-.285-.604-.604zM228.91 1141.267c-.685-.825-1.02-1.5-.745-1.5s1.06.675 1.745 1.5 1.02 1.5.745 1.5-1.06-.675-1.745-1.5zm833 1.122c0-.207.788-.995 1.75-1.75 1.586-1.243 1.621-1.208.378.378-1.307 1.666-2.128 2.195-2.128 1.372zm-844.076-11.372l-2.424-2.75 2.75 2.424c2.57 2.266 3.209 3.076 2.424 3.076-.179 0-1.416-1.238-2.75-2.75zm857.076-.75c1.292-1.375 2.574-2.5 2.849-2.5.275 0-.557 1.125-1.849 2.5-1.292 1.375-2.574 2.5-2.849 2.5-.275 0 .557-1.125 1.849-2.5zm26-25.626c0-.275 1.35-1.793 3-3.374 1.65-1.58 3-2.65 3-2.374 0 .275-1.35 1.793-3 3.374-1.65 1.58-3 2.65-3 2.374zm-914.076-4.624l-2.424-2.75 2.75 2.424c2.57 2.266 3.209 3.076 2.424 3.076-.179 0-1.416-1.238-2.75-2.75zm-16.924-18.75c-.685-.825-1.02-1.5-.745-1.5s1.06.675 1.745 1.5 1.02 1.5.745 1.5-1.06-.675-1.745-1.5zm340.984-119.25l-11.484-11.75 11.75 11.484c6.463 6.316 11.75 11.603 11.75 11.75 0 .72-1.35-.57-12.016-11.484zm143.016-8.75c6.307-6.325 11.692-11.5 11.967-11.5.275 0-4.66 5.175-10.967 11.5s-11.692 11.5-11.967 11.5c-.275 0 4.66-5.175 10.967-11.5zm-203.01-53.25l-18.49-18.75 18.75 18.49c17.42 17.179 19.202 19.01 18.49 19.01-.143 0-8.58-8.438-18.75-18.75zm274.01-18.275c0-.275 6.75-7.239 15-15.475s15-14.75 15-14.475c0 .275-6.75 7.239-15 15.475s-15 14.75-15 14.475zm108-109.475c8.512-8.525 15.7-15.5 15.976-15.5.275 0-6.464 6.975-14.976 15.5s-15.7 15.5-15.976 15.5c-.275 0 6.464-6.975 14.976-15.5zm-519.508-10.75l-22.992-23.25 23.25 22.992c12.788 12.645 23.25 23.108 23.25 23.25 0 .709-2.144-1.388-23.508-22.992zm235.492-55.5l-11.484-11.75 11.75 11.484c10.914 10.666 12.204 12.016 11.484 12.016-.147 0-5.434-5.288-11.75-11.75zM14.99 698.184c.048-1.165.285-1.402.604-.605.289.722.254 1.585-.079 1.917-.332.332-.568-.258-.525-1.312zm1262 0c.048-1.165.285-1.402.604-.605.289.722.254 1.585-.079 1.917-.332.332-.569-.258-.525-1.312zm-1003.807-3.417c0-2.475.195-3.488.434-2.25.238 1.237.238 3.262 0 4.5-.239 1.237-.434.225-.434-2.25zm653.728-17.5c8.512-8.525 15.7-15.5 15.976-15.5.275 0-6.464 6.975-14.976 15.5s-15.7 15.5-15.976 15.5c-.275 0 6.464-6.975 14.976-15.5zm-292 2c6.307-6.325 11.692-11.5 11.967-11.5.275 0-4.66 5.175-10.967 11.5s-11.692 11.5-11.967 11.5c-.275 0 4.66-5.175 10.967-11.5zm-620.68-7.5c0-3.575.182-5.038.403-3.25.222 1.787.222 4.712 0 6.5-.221 1.787-.403.325-.403-3.25zm1263.952 2c0-2.475.195-3.488.434-2.25.238 1.237.238 3.262 0 4.5-.239 1.237-.434.225-.434-2.25zm-1263.952-27c0-3.575.182-5.038.403-3.25.222 1.787.222 4.712 0 6.5-.221 1.787-.403.325-.403-3.25zm277.68 2.5c1.866-1.925 3.617-3.5 3.892-3.5.275 0-1.026 1.575-2.892 3.5-1.866 1.925-3.617 3.5-3.892 3.5-.275 0 1.026-1.575 2.892-3.5zm986.272-4.5c0-2.475.195-3.488.434-2.25.238 1.237.238 3.262 0 4.5-.239 1.237-.434.225-.434-2.25zm-800.288-10.75l-11.484-11.75 11.75 11.484c6.463 6.316 11.75 11.603 11.75 11.75 0 .72-1.35-.57-12.016-11.484zm228.016-26.75c6.307-6.325 11.692-11.5 11.967-11.5.275 0-4.66 5.175-10.967 11.5s-11.692 11.5-11.967 11.5c-.275 0 4.66-5.175 10.967-11.5zm-359.5-13.5c2.148-2.2 4.131-4 4.406-4 .275 0-1.258 1.8-3.406 4s-4.13 4-4.406 4c-.275 0 1.258-1.8 3.406-4zm659.5 3.736c0-.145 6.188-6.333 13.75-13.75l13.75-13.486-13.486 13.75c-12.528 12.773-14.014 14.203-14.014 13.486zm-229-62.236c6.307-6.325 11.692-11.5 11.967-11.5.275 0-4.66 5.175-10.967 11.5s-11.692 11.5-11.967 11.5c-.275 0 4.66-5.175 10.967-11.5zm70-71c6.307-6.325 11.692-11.5 11.967-11.5.275 0-4.66 5.175-10.967 11.5s-11.692 11.5-11.967 11.5c-.275 0 4.66-5.175 10.967-11.5zm135.484-31.75l-11.984-12.25 12.25 11.984c11.379 11.132 12.704 12.516 11.984 12.516-.146 0-5.658-5.513-12.25-12.25zM172.911 233.389c0-.207.788-.995 1.75-1.75 1.586-1.243 1.621-1.208.378.378-1.307 1.666-2.128 2.195-2.128 1.372zm9.5-10.622c.996-1.1 2.035-2 2.31-2 .275 0-.314.9-1.31 2-.995 1.1-2.035 2-2.31 2-.275 0 .315-.9 1.31-2zm925.905-1.25l-1.905-2.25 2.25 1.905c2.114 1.79 2.705 2.595 1.905 2.595-.19 0-1.202-1.013-2.25-2.25zm-904.905-20.75c4.374-4.4 8.178-8 8.453-8 .275 0-3.079 3.6-7.453 8-4.374 4.4-8.178 8-8.453 8-.275 0 3.079-3.6 7.453-8zm885.471.25l-6.471-6.75 6.75 6.471c3.713 3.56 6.75 6.597 6.75 6.75 0 .736-1.018-.201-7.029-6.471zm-20.566-19.5l-1.905-2.25 2.25 1.905c2.114 1.79 2.705 2.595 1.905 2.595-.19 0-1.202-1.013-2.25-2.25zm-843.905-.75c.996-1.1 2.035-2 2.31-2 .275 0-.314.9-1.31 2-.995 1.1-2.035 2-2.31 2-.275 0 .315-.9 1.31-2zM607.724 18.084c.721-.289 1.584-.253 1.916.079.333.332-.258.568-1.312.525-1.165-.048-1.402-.285-.604-.604zm76 0c.721-.289 1.584-.253 1.916.079.333.332-.258.568-1.312.525-1.165-.048-1.402-.285-.604-.604zM631.16 17.05c1.513-.23 3.988-.23 5.5 0 1.513.229.275.416-2.75.416s-4.262-.187-2.75-.416zm25 0c1.513-.23 3.988-.23 5.5 0 1.513.229.275.416-2.75.416s-4.262-.187-2.75-.416z" fill="#28d69a"/><path d="M619.911 1299.72c-86.628-3.547-171.565-25.211-249-63.51-39.446-19.509-70.008-38.4-104-64.286C137.512 1073.384 50.25 928.423 23.44 767.47c-6.464-38.806-8.656-65.998-8.682-107.704-.026-41.14 2.048-67.92 8.213-106A637.38 637.38 0 0 1 80.513 373.69c16.689-33.84 30.523-57.3 51.259-86.923 37.482-53.547 86.38-104.144 138.771-143.592C358.576 76.89 462.547 34.882 570.911 21.814c47.315-5.706 98.277-5.87 147-.473 180.84 20.033 347.347 122.377 451.353 277.426 21.708 32.363 48.001 81.764 61.473 115.5 26.314 65.896 40.774 128.417 46.257 200 2.445 31.922 1.302 82.998-2.653 118.5-28.618 256.921-209.71 472.782-455.914 543.448-63.19 18.137-131.654 26.244-198.516 23.506zm-26.46-297.462c3.278-.83 9.335-3.168 13.46-5.196 6.807-3.347 9.912-6.096 33.593-29.742 51.748-51.67 391.868-395.891 395.646-400.418 5.043-6.04 10.27-16.92 12.33-25.663 2.163-9.186 1.467-25.518-1.439-33.747-4.916-13.92-7.027-16.558-41.566-51.949-18.116-18.561-35.538-35.572-38.716-37.802-23.088-16.195-52.5-15.745-73.955 1.13-1.984 1.56-73.281 73.51-158.438 159.887-85.158 86.378-155.151 156.928-155.541 156.78-.39-.15-33.183-33.215-72.873-73.48-39.69-40.266-74.337-74.806-76.994-76.756-10.389-7.627-22.71-11.535-36.363-11.535-14.174 0-27.15 4.431-37.711 12.879-2.49 1.992-18.935 18.246-36.544 36.121-33.393 33.896-37.304 38.697-41.35 50.747-6.792 20.227-3.995 40.062 8.215 58.253 1.661 2.475 36.602 38.25 77.646 79.5 41.043 41.25 88.549 89.4 105.567 107 68.179 70.51 73.533 75.578 85.06 80.535 2.713 1.167 7.183 2.732 9.933 3.478 6.806 1.845 22.71 1.834 30.04-.022z" fill="#00cf88"/></svg>