<svg xmlns="http://www.w3.org/2000/svg" width="193.384" height="193.383" viewBox="0 0 51.166 51.166"><path d="M24.278 51.142a.235.235 0 0 1 .123-.001c.04.01.018.02-.05.02s-.1-.008-.073-.019zm2.466 0a.235.235 0 0 1 .124-.001c.04.01.017.02-.051.02s-.1-.008-.073-.019zm-3.123-.041a.159.159 0 0 1 .103 0c.028.011.005.02-.051.02-.057 0-.08-.009-.052-.02zm3.823 0a.159.159 0 0 1 .103 0c.028.011.005.02-.052.02-.056 0-.08-.009-.051-.02zm-8.547-3.577c.03-.012.065-.01.079.003.013.014-.011.023-.054.022-.048-.002-.058-.012-.025-.025zM8.875 44.983c-.028-.034-.042-.062-.03-.062.011 0 .043.028.071.062.029.034.042.062.031.062-.011 0-.044-.028-.072-.062zm-.329-.288c-.028-.034-.041-.061-.03-.061.011 0 .043.027.072.061.028.034.042.062.03.062-.011 0-.043-.028-.072-.062zm33.993.046c0-.008.032-.04.072-.072.065-.05.067-.05.015.016-.053.068-.087.09-.087.056zm.534-.498a.487.487 0 0 1 .117-.103c.012 0-.022.047-.076.103a.487.487 0 0 1-.117.103c-.01 0 .023-.046.076-.103zm-35.044-.03l-.079-.093.093.078c.05.043.092.085.092.093 0 .032-.033.008-.106-.079zm-1.11-1.11l-.078-.093.092.078a.451.451 0 0 1 .093.093c0 .033-.033.008-.107-.079zm37.305-.01a.487.487 0 0 1 .117-.104c.012 0-.023.047-.076.103a.487.487 0 0 1-.117.103c-.011 0 .023-.046.076-.103zM6.45 42.598c-.028-.034-.042-.062-.03-.062.01 0 .043.028.071.062.028.034.042.062.03.062-.01 0-.043-.028-.07-.062zm5.607-.03l-.078-.093.092.078a.489.489 0 0 1 .093.092c0 .033-.033.009-.107-.078zm-.902-.946l-.245-.257.257.245c.238.228.276.269.245.269-.006 0-.122-.116-.257-.257zm-.742-.781l-.079-.093.093.079c.087.073.111.106.078.106a.457.457 0 0 1-.092-.092zm12.345.065a.159.159 0 0 1 .103 0c.028.011.005.02-.052.02-.056 0-.08-.009-.051-.02zm-2.62-1.185c-.028-.034-.042-.062-.031-.062.011 0 .044.028.072.062.028.034.042.061.03.061-.01 0-.043-.027-.071-.061zm-.37-.33c-.028-.033-.042-.06-.03-.06.01 0 .043.027.07.06.029.035.043.063.031.063-.01 0-.043-.028-.071-.062zm-.411-.369c-.028-.034-.042-.062-.03-.062.01 0 .043.028.07.062.029.034.043.062.031.062-.01 0-.043-.028-.071-.062zm-.436-.4l-.078-.093.092.078c.087.074.112.107.079.107a.457.457 0 0 1-.093-.093zm-9.827-.463c0-.158.007-.228.016-.155.01.073.01.202 0 .287-.008.086-.016.026-.016-.132zm9.4.082c-.029-.034-.042-.062-.031-.062.011 0 .043.028.072.062.028.034.042.062.03.062-.011 0-.043-.028-.071-.062zm25.572-.843c0-.056.01-.08.021-.051a.159.159 0 0 1 0 .103c-.011.028-.02.005-.02-.052zm0-.493c0-.056.01-.08.021-.051a.159.159 0 0 1 0 .103c-.011.028-.02.005-.02-.052zm-34.818-.558c.002-.048.012-.058.025-.025.012.03.01.065-.003.079-.014.013-.023-.01-.022-.054zm25.91-.726l-.08-.093.093.078a.48.48 0 0 1 .093.093c0 .033-.033.009-.107-.078zm6.26-1.168a.235.235 0 0 1 .123-.001c.04.01.018.02-.05.02s-.1-.008-.073-.019zm.37 0a.159.159 0 0 1 .104 0c.028.011.005.02-.052.02-.056 0-.08-.009-.051-.02zm6.632-6.491c.002-.048.012-.058.025-.025.012.03.01.065-.003.079-.014.013-.024-.011-.022-.054zm.041-.411c.002-.048.012-.058.025-.025.012.03.01.065-.003.079-.014.013-.024-.011-.022-.054zM.045 27.493c0-.056.009-.08.02-.051a.159.159 0 0 1 0 .103c-.011.028-.02.005-.02-.052zm51.05 0c0-.056.01-.08.02-.051a.159.159 0 0 1 0 .103c-.01.028-.02.005-.02-.052zM48.505 27c0-.056.01-.08.021-.051a.159.159 0 0 1 0 .103c-.011.028-.02.005-.02-.052zm-48.5-.185c0-.068.01-.09.02-.05.01.04.01.095-.001.123-.011.028-.02-.005-.019-.073zm51.133 0c0-.068.01-.09.02-.05.01.04.01.095-.001.123-.012.028-.02-.005-.02-.073zm-39.714-.57c0-.009.032-.041.072-.072.065-.051.066-.05.015.015-.054.069-.087.09-.087.057zm37.132-.58c0-.272.006-.388.014-.26.009.13.009.352 0 .494-.008.142-.014.037-.014-.235zm-36.824.267a.324.324 0 0 1 .095-.083c.011 0-.013.037-.054.083a.324.324 0 0 1-.095.082c-.011 0 .013-.037.054-.082zm-5.528-.252c0-.012.055-.074.123-.139.068-.065.123-.109.123-.098a.677.677 0 0 1-.123.14c-.068.064-.123.108-.123.097zm-1.963-.262c0-.09.008-.133.018-.093a.45.45 0 0 1 0 .164c-.01.051-.018.02-.018-.071zm3.904-.626c.062-.009.173-.01.247 0 .073.01.023.017-.113.017-.135 0-.196-.007-.134-.017zm40.357-.323c.002-.048.012-.058.025-.025.012.03.01.065-.003.079-.014.014-.024-.01-.022-.054zm-48.497-.12c0-.068.01-.09.02-.05.01.04.01.095-.001.123-.011.028-.02-.005-.019-.073zm51.133 0c0-.068.01-.09.02-.05.01.04.01.095-.001.123-.012.028-.02-.005-.02-.073zm-46.936-.226c0-.124.008-.175.017-.113.01.062.01.164 0 .226s-.017.011-.017-.113zm-4.157-.452c0-.057.009-.08.02-.052a.159.159 0 0 1 0 .103c-.011.028-.02.005-.02-.051zm51.05 0c0-.057.01-.08.02-.052a.159.159 0 0 1 0 .103c-.01.028-.02.005-.02-.051zm-2.675-.106c.002-.048.012-.058.025-.025.012.03.01.065-.003.079-.014.013-.024-.011-.022-.054zm-8.314-.292c.03-.012.065-.01.079.003.014.014-.01.023-.054.022-.048-.002-.058-.012-.025-.025zm.984 0a.159.159 0 0 1 .103 0c.028.012.005.021-.051.021-.057 0-.08-.009-.052-.02zm6.864-.205a.235.235 0 0 1 .123-.001c.04.01.017.02-.05.02-.068.001-.101-.007-.073-.019zm-47.83-.284c.001-.048.011-.058.024-.025.012.03.01.065-.003.079-.014.013-.023-.011-.021-.054zm4.077-.387c0-.102.008-.144.018-.093.01.051.01.134 0 .185-.01.051-.018.01-.018-.092zm42.407-.185c-.028-.034-.042-.062-.03-.062.011 0 .043.028.071.062.029.034.042.061.031.061-.011 0-.044-.027-.072-.061zm-25.772-.617c-.028-.034-.042-.062-.03-.062.011 0 .043.028.072.062.028.034.041.062.03.062-.011 0-.043-.028-.072-.062zm-16.599-.062c0-.056.01-.08.02-.05a.159.159 0 0 1 0 .102c-.01.028-.02.005-.02-.052zM34.9 21.41c0-.056.01-.08.021-.051a.159.159 0 0 1 0 .103c-.011.028-.02.005-.02-.052zm-14.999-.11a.35.35 0 0 1 .144 0c.04.01.007.018-.072.018s-.111-.008-.072-.018zm17.336.012c0-.008.032-.04.072-.072.065-.05.066-.05.015.016-.054.068-.087.09-.087.056zm-2.29-.991c0-.136.009-.186.018-.112.009.073.009.184 0 .246-.01.062-.018.002-.017-.134zm-.505-1.064c0-.008.032-.04.072-.072.065-.05.066-.05.015.016-.054.068-.087.09-.087.056zm.537-.132c.002-.047.012-.057.025-.024.012.03.01.065-.003.078-.014.014-.024-.01-.022-.054zm7.557-.828l-.1-.113.113.1c.106.092.132.126.1.126a.712.712 0 0 1-.113-.113zm-.857-.2c.002-.047.012-.057.025-.024.012.03.01.065-.003.079-.014.013-.024-.01-.022-.054zm-26.135-.538a.35.35 0 0 1 .144 0c.04.01.007.019-.072.019s-.111-.008-.072-.019zm7.509-.372l-.1-.113.113.1a.712.712 0 0 1 .113.112c0 .033-.033.006-.126-.1zm-3.822-.411l-.141-.154.154.141c.084.078.154.148.154.154 0 .032-.035.002-.167-.141zm27.46.092c-.029-.034-.042-.061-.031-.061.011 0 .043.027.072.061.028.034.041.062.03.062-.011 0-.043-.028-.072-.062zm-10.81-.329a.487.487 0 0 1 .116-.102c.012 0-.023.046-.076.102a.487.487 0 0 1-.117.103c-.011 0 .023-.046.076-.103zm-18.053-.46c.03-.011.065-.01.079.004.014.014-.01.023-.054.022-.048-.002-.058-.012-.025-.025zm2.31-.197a.487.487 0 0 1 .117-.103c.011 0-.023.046-.076.103a.487.487 0 0 1-.117.102c-.012 0 .023-.046.076-.102zm15.064-.555a.324.324 0 0 1 .095-.082c.011 0-.013.037-.054.082a.324.324 0 0 1-.095.082c-.011 0 .013-.037.054-.082zm-1.829-.226c-.028-.034-.042-.062-.03-.062.01 0 .043.028.071.062.028.034.042.061.03.061-.01 0-.043-.027-.071-.061zm-17.921-1.069a.897.897 0 0 1 .16-.144c.011 0-.042.065-.119.144a.897.897 0 0 1-.16.144c-.011 0 .042-.065.119-.144zm5.392-.041c.001-.068.01-.09.02-.05.011.04.01.095 0 .123-.012.028-.02-.005-.02-.073zm2.297-.003c.002-.048.012-.058.025-.025.012.03.01.065-.003.078-.014.014-.023-.01-.022-.053zm-2.297-.285c.001-.068.01-.09.02-.05.011.04.01.095 0 .123-.012.028-.02-.005-.02-.073zm15.137-.072l-.162-.174.174.162c.163.151.194.187.163.187a1.83 1.83 0 0 1-.175-.175zm-16.333-.301c.002-.048.011-.058.024-.025.012.03.01.065-.003.079-.013.013-.023-.01-.021-.054zm-1.566.008c0-.008.033-.04.072-.072.066-.05.067-.05.016.016-.054.068-.088.09-.088.056zm-9.7-.452c0-.008.032-.04.072-.072.065-.05.067-.05.016.016-.054.068-.088.09-.088.056zm.329-.37c0-.008.032-.04.072-.072.065-.05.066-.05.015.016-.053.068-.087.09-.087.056zm23.601-.087c.001-.068.01-.09.02-.05.011.04.01.095 0 .123-.012.028-.02-.005-.02-.073zm0-.411c.001-.068.01-.09.02-.05.011.04.01.095 0 .123-.012.028-.02-.005-.02-.073zm-23.108-.041a.487.487 0 0 1 .117-.103c.012 0-.023.046-.076.103a.487.487 0 0 1-.117.103c-.011 0 .023-.047.076-.103zM10.5 10.64c.361-.362.666-.658.677-.658.011 0-.275.296-.636.658-.361.362-.666.658-.677.658-.012 0 .275-.296.636-.658zm5.535-.288c0-.056.01-.08.02-.051a.159.159 0 0 1 0 .103c-.01.028-.02.005-.02-.052zm17.783.054c.03-.011.066-.01.08.004.013.013-.011.023-.055.021-.048-.002-.057-.011-.025-.025zm8.722-.28c-.028-.034-.042-.061-.03-.061.01 0 .043.027.071.061.028.034.042.062.03.062-.01 0-.043-.028-.071-.062zm-.762-.812l-.204-.215.216.204c.2.19.235.227.204.227a2.67 2.67 0 0 1-.216-.216zm-29.901-.01a.487.487 0 0 1 .117-.103c.011 0-.023.047-.076.103a.487.487 0 0 1-.117.103c-.011 0 .023-.046.076-.103zm.637-.596a.324.324 0 0 1 .095-.082c.011 0-.013.037-.054.082a.324.324 0 0 1-.095.082c-.011 0 .013-.037.054-.082zm28.48-.133l-.078-.093.093.078c.087.074.111.107.078.107a.456.456 0 0 1-.092-.092zM6.41 8.61c0-.008.032-.04.072-.071.065-.052.067-.05.016.015-.054.069-.088.09-.088.056zm38.267-.046c-.028-.034-.042-.061-.03-.061.011 0 .043.027.072.061.028.034.041.062.03.062-.011 0-.043-.028-.072-.062zm-31.67-.308a.324.324 0 0 1 .095-.082c.011 0-.013.037-.054.082a.324.324 0 0 1-.095.082c-.01 0 .013-.037.054-.082zm31.215-.195l-.1-.113.114.1c.105.093.131.126.1.126a.712.712 0 0 1-.114-.113zM6.943 8.03a.487.487 0 0 1 .118-.103c.01 0-.023.046-.076.103a.487.487 0 0 1-.118.103c-.01 0 .023-.047.076-.103zm6.413-.077c0-.009.032-.041.072-.072.065-.051.066-.05.015.015-.054.069-.087.09-.087.057zm.41-.37c0-.009.033-.041.073-.072.065-.051.066-.05.015.015-.054.069-.087.09-.087.057zm.33-.288a.28.28 0 0 1 .071-.072c.066-.05.067-.05.016.016-.054.068-.088.09-.088.056zm-6.084-.334a.487.487 0 0 1 .117-.102c.012 0-.023.046-.076.102a.487.487 0 0 1-.117.103c-.011 0 .023-.046.076-.103zM43.07 6.91l-.1-.113.114.1a.712.712 0 0 1 .113.113c0 .032-.034.006-.127-.1zM8.505 6.515c0-.008.033-.04.072-.072.066-.05.067-.05.016.016-.054.068-.088.09-.088.056zM42.58 6.47c-.028-.034-.042-.062-.03-.062.01 0 .043.028.071.062.028.034.042.062.03.062-.01 0-.043-.028-.07-.062zm-27.498-.036c0-.009.032-.04.072-.072.065-.051.067-.05.015.016-.053.068-.087.09-.087.056zm15.731-.258a.235.235 0 0 1 .124-.002c.04.01.017.02-.05.02-.069.002-.101-.007-.074-.018zm-.862-.041a.159.159 0 0 1 .103 0c.028.01.005.02-.052.02-.056 0-.08-.01-.05-.02zm-13.266-.076c-.028-.034-.042-.062-.03-.062.01 0 .043.028.071.062.028.034.042.062.03.062-.01 0-.043-.028-.071-.062zm2.294-2.433c.03-.011.065-.01.079.004.013.013-.01.023-.054.021-.048-.002-.058-.012-.025-.025zm3.864 0c.03-.011.065-.01.079.004.013.013-.011.023-.054.021-.048-.002-.058-.012-.025-.025zm-3.127-.04a.235.235 0 0 1 .123-.001c.04.01.017.02-.05.02-.069.001-.101-.007-.073-.019zm2.467 0a.159.159 0 0 1 .102 0c.029.012.005.02-.051.02-.057 0-.08-.008-.051-.02zm5.715-.864c.03-.012.066-.01.08.003.013.014-.011.024-.055.022-.048-.002-.057-.012-.025-.025zm-3.987-.041c.03-.012.066-.01.08.003.013.014-.011.024-.055.022-.048-.002-.057-.012-.025-.025zm3.535 0c.03-.012.065-.01.08.003.013.014-.011.024-.055.022-.048-.002-.057-.012-.025-.025zm-2.96-.041c.03-.012.066-.01.08.003.013.014-.01.024-.054.022-.048-.002-.058-.012-.025-.025zm2.341 0a.159.159 0 0 1 .103 0c.028.012.005.021-.051.021-.057 0-.08-.009-.052-.02zM23.621.05a.159.159 0 0 1 .103 0c.028.012.005.021-.051.021-.057 0-.08-.01-.052-.02zm3.823 0a.159.159 0 0 1 .103 0c.028.012.005.021-.052.021-.056 0-.08-.01-.051-.02zM24.278.01a.235.235 0 0 1 .123-.002c.04.01.018.02-.05.02-.068.001-.1-.007-.073-.019zm2.466 0a.235.235 0 0 1 .124-.002c.04.01.017.02-.051.02-.068.001-.1-.007-.073-.019z" fill="#d0e9ed"/><path d="M24.487 51.141c.03-.012.065-.01.079.003.013.014-.01.024-.054.022-.048-.002-.058-.012-.025-.025zm2.137 0c.03-.012.065-.01.08.003.013.014-.012.024-.055.022-.048-.002-.058-.012-.025-.025zm-18.78-7.114l-.099-.113.113.1c.106.093.132.126.1.126a.712.712 0 0 1-.113-.113zm35.414.031a.324.324 0 0 1 .095-.082c.012 0-.013.037-.054.082a.324.324 0 0 1-.095.082c-.01 0 .013-.037.054-.082zm-17.075-.723c.002-.047.012-.057.025-.024.012.03.01.065-.003.078-.014.014-.024-.01-.022-.054zm-19.1-.068l-.078-.093.093.079a.47.47 0 0 1 .092.092c0 .033-.033.009-.107-.078zm36.936.036c0-.009.032-.041.072-.072.065-.051.066-.05.015.015-.053.069-.087.09-.087.057zm-33.17-1.978c-.029-.034-.043-.062-.031-.062.011 0 .043.028.071.062.029.034.042.061.031.061-.011 0-.044-.027-.072-.061zm11.745-.418a.159.159 0 0 1 .102 0c.029.011.005.02-.051.02-.057 0-.08-.009-.051-.02zm.331 0c.03-.013.065-.011.079.002.013.014-.01.024-.054.022-.048-.002-.058-.012-.025-.025zm21.146-3.754c0-.102.008-.144.018-.093.01.051.01.134 0 .185-.01.051-.018.01-.018-.092zm-2.447-2.7a.159.159 0 0 1 .103 0c.028.012.005.022-.051.022-.057 0-.08-.01-.052-.021zm-7.79-1.842c0-.068.01-.09.02-.05a.23.23 0 0 1-.002.123c-.011.027-.02-.005-.019-.073zM8.27 30.823c0-.102.008-.144.018-.093.01.051.01.134 0 .185-.01.051-.018.01-.018-.092zM0 26.647c.002-.047.012-.057.025-.024.012.03.01.065-.003.078-.014.014-.024-.01-.022-.054zm51.133 0c.002-.047.012-.057.025-.024.012.03.01.065-.004.078-.013.014-.023-.01-.021-.054zm-2.585-.407c0-.068.01-.09.02-.05.011.04.01.095 0 .123-.012.027-.02-.005-.02-.073zm-44.314-.62c.002-.048.012-.058.025-.025.012.03.01.065-.004.079-.013.013-.023-.01-.021-.054zm44.313-.51c0-.057.009-.08.02-.052a.159.159 0 0 1 0 .103c-.011.028-.02.005-.02-.052zM0 24.51c.002-.048.012-.058.025-.025.012.03.01.065-.003.079-.014.014-.024-.01-.022-.054zm51.133 0c.002-.048.012-.058.025-.025.012.03.01.065-.004.079-.013.014-.023-.01-.021-.054zm-46.935-.079c0-.068.01-.09.02-.05a.23.23 0 0 1-.002.123c-.01.028-.02-.005-.018-.073zm-.005-2.264c.002-.048.011-.057.025-.025.011.03.01.065-.004.08-.013.013-.023-.012-.021-.055zm30.75-2.175c0-.068.01-.09.02-.05.01.04.01.095-.001.123-.011.028-.02-.005-.02-.073zm-14.514-.702c.002-.048.011-.058.024-.025.012.03.01.065-.003.079-.013.013-.023-.01-.021-.054zm12.783-.288c.002-.048.012-.057.025-.025.011.03.01.065-.004.08-.013.013-.023-.012-.021-.055zm1.386-3.416c.03-.011.065-.01.08.004.013.013-.011.023-.055.021-.048-.002-.057-.011-.025-.025zm-11.457-1.722c.002-.048.012-.057.025-.025.012.03.01.066-.003.08-.014.013-.023-.011-.022-.055zm0-.205c.002-.048.012-.058.025-.025.012.03.01.065-.003.079-.014.013-.023-.011-.022-.054zm-3.493-.452c.002-.048.011-.058.024-.025.012.03.01.065-.003.079-.013.013-.023-.011-.021-.054zm0-.206c.002-.048.011-.058.024-.025.012.03.01.065-.003.079-.013.014-.023-.01-.021-.054zm-9.91-1.595a.28.28 0 0 1 .072-.071c.066-.052.067-.05.016.015-.054.069-.088.09-.088.056zm1.5-1.505a.324.324 0 0 1 .096-.082c.011 0-.013.037-.054.082a.324.324 0 0 1-.095.082c-.011 0 .013-.037.054-.082zm30.846-.277l-.1-.113.113.1a.712.712 0 0 1 .113.112c0 .033-.033.006-.126-.1zm-30.085-.437c0-.009.033-.041.072-.072.065-.051.067-.05.016.015-.054.069-.088.09-.088.057zm29.512-.128c-.028-.034-.041-.062-.03-.062.011 0 .043.028.072.062.028.033.041.061.03.061-.011 0-.043-.028-.072-.061zm2.524-1.182l-.078-.093.093.079c.086.073.11.106.078.106a.457.457 0 0 1-.093-.092zM7.15 7.825a.487.487 0 0 1 .117-.102c.011 0-.023.046-.076.102a.487.487 0 0 1-.117.103c-.011 0 .023-.046.076-.103zm.678-.678a.324.324 0 0 1 .095-.082c.011 0-.013.037-.054.082a.324.324 0 0 1-.095.082c-.011 0 .013-.037.054-.082zm35.427-.051l-.078-.093.093.079c.087.073.11.106.078.106a.456.456 0 0 1-.093-.092zm-12.56-.922c.03-.012.065-.01.078.003.014.014-.01.023-.054.022-.048-.002-.057-.012-.024-.025zM19.922 3.585a.159.159 0 0 1 .103 0c.028.012.005.02-.052.02-.056 0-.08-.008-.051-.02zm2.14 0c.03-.013.065-.011.079.003.013.013-.011.023-.054.021-.048-.002-.058-.012-.025-.025zm3.224-.989a.734.734 0 0 1 .206 0c.05.01 0 .018-.114.018-.113 0-.154-.008-.092-.018zm.431 0c.074-.009.194-.009.268 0 .073.01.013.017-.134.017-.147 0-.207-.008-.134-.017zM24.487.008c.03-.012.065-.01.079.004.013.013-.01.023-.054.021-.048-.002-.058-.012-.025-.025zm2.137 0c.03-.012.065-.01.08.004.013.013-.012.023-.055.021-.048-.002-.058-.012-.025-.025z" fill="#b2dbe2"/><path d="M24.608 51.142a.159.159 0 0 1 .102 0c.029.011.006.02-.051.02-.056 0-.08-.009-.051-.02zm1.85 0a.159.159 0 0 1 .102 0c.028.011.005.02-.051.02-.057 0-.08-.009-.052-.02zm16.985-7.269a.487.487 0 0 1 .117-.103c.012 0-.023.047-.076.103a.487.487 0 0 1-.117.103c-.011 0 .023-.046.076-.103zM7.64 43.822l-.1-.113.113.1c.106.093.132.126.1.126a.712.712 0 0 1-.113-.113zm-.37-.37l-.1-.113.114.1c.105.093.131.126.1.126a.712.712 0 0 1-.114-.113zm36.626-.026c0-.008.033-.04.072-.072.066-.051.067-.05.016.016-.054.068-.088.09-.088.056zM33.828 32.772c.002-.048.012-.058.025-.025.012.03.01.065-.003.079-.014.013-.023-.01-.022-.054zm.005-.367c0-.068.01-.09.02-.05.011.04.01.095-.001.123-.011.028-.02-.005-.019-.073zM7.29 28.716l-.12-.133.133.12c.125.113.153.147.12.147-.006 0-.066-.06-.133-.134zM0 26.524c.002-.048.012-.058.025-.025.012.03.01.065-.003.079-.014.014-.024-.01-.022-.054zm51.133 0c.002-.048.012-.058.025-.025.012.03.01.065-.004.079-.013.014-.023-.01-.021-.054zm-2.59-.123c.002-.048.012-.058.025-.025.012.03.01.065-.003.079-.014.013-.023-.01-.022-.054zm-44.31-.658c.003-.048.013-.057.026-.025.012.03.01.065-.004.08-.013.013-.023-.012-.021-.055zm44.31-.78c.002-.049.012-.058.025-.026.012.03.01.065-.003.08-.014.013-.023-.012-.022-.055zM0 24.632c.002-.048.012-.057.025-.024.012.03.01.065-.003.078-.014.014-.024-.01-.022-.054zm4.196-.017c0-.056.01-.08.02-.051a.159.159 0 0 1 0 .103c-.01.028-.02.005-.02-.052zm46.937.017c.002-.048.012-.057.025-.024.012.03.01.065-.004.078-.013.014-.023-.01-.021-.054zM35.17 24.59a.159.159 0 0 1 .103 0c.028.011.005.02-.051.02-.057 0-.08-.009-.052-.02zm2.395-.605a.28.28 0 0 1 .071-.072c.066-.05.067-.05.016.016-.054.068-.087.09-.087.056zm.164-.164c0-.009.032-.041.072-.072.065-.051.067-.05.015.015-.053.069-.087.09-.087.057zm-.49-.995c.002-.048.012-.058.025-.025.012.03.01.065-.003.079-.014.013-.024-.01-.022-.054zm0-.165c.002-.048.012-.057.025-.024.012.03.01.065-.003.078-.014.014-.024-.01-.022-.054zm9.57-.253l-.099-.113.113.1c.106.093.132.126.1.126a.712.712 0 0 1-.113-.113zm-42.617-.363c.002-.048.011-.058.025-.025.011.03.01.065-.004.079-.013.013-.023-.01-.021-.054zm36.489-2.06c.03-.011.065-.01.078.004.014.013-.01.023-.054.021-.047-.002-.057-.011-.024-.024zm-5.74-.177c0-.056.009-.08.02-.051a.159.159 0 0 1 0 .102c-.011.029-.02.006-.02-.05zm-.374-6.272c.002-.047.012-.057.025-.024.012.03.01.065-.003.078-.014.014-.024-.01-.022-.054zm-18.017-.003a.159.159 0 0 1 .103 0c.028.012.005.02-.051.02-.057 0-.08-.008-.052-.02zm10.338-1.637c0-.09.008-.133.018-.093a.45.45 0 0 1 0 .164c-.01.051-.018.02-.018-.071zM9.615 11.53c0-.009.033-.041.072-.072.065-.051.067-.05.016.015-.054.069-.088.09-.088.057zm24.363-1.121a.235.235 0 0 1 .124-.002c.04.01.017.02-.05.02-.069.001-.101-.007-.074-.018zm-7.675-.24c-.028-.035-.042-.062-.03-.062.01 0 .043.027.071.061.028.034.042.062.03.062-.01 0-.043-.028-.07-.062zm-14.961-.366c0-.008.032-.04.071-.071.066-.052.067-.05.016.015-.054.069-.087.09-.087.056zm13.433-.177c.03-.011.065-.01.078.004.014.013-.01.023-.054.021-.047-.002-.057-.011-.024-.025zm.203.001a.159.159 0 0 1 .102 0c.029.012.005.021-.051.021-.057 0-.08-.01-.051-.02zm16.41-.692c-.028-.034-.042-.061-.03-.061.01 0 .043.027.071.061.028.034.042.062.03.062-.01 0-.043-.028-.07-.062zm2.483-1.223l-.078-.092.092.078c.087.074.111.107.078.107a.456.456 0 0 1-.092-.093zM7.354 7.62a.487.487 0 0 1 .118-.103c.01 0-.023.046-.076.103a.487.487 0 0 1-.118.103c-.01 0 .023-.047.076-.103zm.165-.15c0-.01.055-.073.123-.138.068-.065.124-.109.124-.097a.677.677 0 0 1-.124.138c-.068.065-.123.11-.123.098zm35.942-.169l-.12-.133.133.12c.125.113.153.147.12.147-.006 0-.066-.06-.133-.134zm-26.359-.36c0-.056.01-.079.021-.05a.159.159 0 0 1 0 .102c-.011.028-.02.005-.02-.051zm2.984-3.356a.159.159 0 0 1 .103 0c.028.012.005.02-.051.02-.057 0-.08-.008-.052-.02zm1.852 0c.03-.013.066-.011.08.003.013.013-.011.023-.055.021-.048-.002-.057-.012-.025-.025zm3.122-.986a.159.159 0 0 1 .103 0c.028.011.005.02-.052.02-.056 0-.08-.009-.051-.02zm1.068 0a.159.159 0 0 1 .103 0c.028.011.005.02-.051.02-.057 0-.08-.009-.052-.02zm-1.52-2.59a.159.159 0 0 1 .102 0c.029.012.006.02-.051.02-.056 0-.08-.008-.051-.02zm1.85 0a.159.159 0 0 1 .102 0c.028.012.005.02-.051.02-.057 0-.08-.008-.052-.02z" fill="#a5d5dd"/><path d="M24.772 51.142a.159.159 0 0 1 .103 0c.028.011.005.02-.052.02-.056 0-.08-.009-.05-.02zm1.52 0a.159.159 0 0 1 .104 0c.028.011.005.02-.052.02-.056 0-.08-.009-.051-.02zm17.418-7.536c.089-.09.17-.164.182-.164.01 0-.052.074-.14.164-.089.09-.17.164-.182.164-.01 0 .052-.074.14-.164zm-36.257.03l-.078-.092.093.079a.47.47 0 0 1 .092.092c0 .033-.033.009-.107-.078zm-.797-.832c-.028-.033-.042-.061-.03-.061.01 0 .043.028.07.061.029.034.043.062.031.062-.01 0-.043-.028-.071-.062zm5.072-.565l-.078-.092.092.078a.451.451 0 0 1 .093.093c0 .033-.033.008-.107-.079zm13.832-.267l-.1-.113.114.1c.105.093.131.126.1.126a.712.712 0 0 1-.114-.113zm-14.917-.853c-.028-.034-.042-.061-.03-.061.01 0 .043.027.07.061.029.034.043.062.031.062-.01 0-.043-.028-.071-.062zm-.493-10.892c-.029-.034-.042-.062-.031-.062.011 0 .043.028.072.062.028.034.042.061.03.061-.011 0-.043-.027-.071-.061zm38.393-3.703c.002-.048.012-.058.025-.025.012.03.01.065-.003.079-.014.014-.023-.01-.022-.054zm-48.54-.14c0-.057.01-.08.021-.052a.159.159 0 0 1 0 .103c-.011.028-.02.005-.02-.051zm51.133 0c0-.057.01-.08.02-.052a.159.159 0 0 1 0 .103c-.01.028-.02.005-.02-.051zM4.237 25.89c0-.056.01-.08.02-.051a.159.159 0 0 1 0 .103c-.01.028-.02.005-.02-.052zM.003 24.78c0-.056.01-.079.021-.05a.159.159 0 0 1 0 .102c-.011.028-.02.005-.02-.051zm4.193 0c0-.056.01-.079.02-.05a.159.159 0 0 1 0 .102c-.01.028-.02.005-.02-.051zm46.94 0c0-.056.01-.079.02-.05a.159.159 0 0 1 0 .102c-.01.028-.02.005-.02-.051zm-14.413-.863a.324.324 0 0 1 .095-.082c.011 0-.013.037-.054.082a.324.324 0 0 1-.095.083c-.011 0 .013-.037.054-.083zm3.689-.644a.35.35 0 0 1 .144 0c.04.01.007.018-.072.018-.08 0-.112-.008-.072-.018zm.329 0a.35.35 0 0 1 .144 0c.04.01.007.018-.072.018-.08 0-.112-.008-.072-.018zm2.661-.933c0-.009.033-.04.072-.072.065-.051.067-.05.016.016-.054.068-.088.09-.088.056zm-25.645-.296c.002-.048.012-.058.025-.025.012.03.01.065-.004.079-.013.013-.023-.01-.021-.054zM4.193 21.92c.002-.048.011-.058.025-.025.011.03.01.065-.004.078-.013.014-.023-.01-.021-.053zm32.883-.124c.001-.048.011-.057.024-.025.012.03.01.065-.003.08-.014.013-.023-.011-.021-.055zm10.994-.522c.016-.04.039-.064.051-.05.013.012 0 .045-.028.073-.04.04-.045.035-.023-.023zm-13.173-.177c.002-.047.012-.057.025-.024.012.03.01.065-.003.078-.014.014-.024-.01-.022-.054zm4.765-.731c0-.008.032-.04.072-.072.065-.051.066-.05.015.016-.053.068-.087.09-.087.056zm-4.72-.724c0-.057.009-.08.02-.052a.159.159 0 0 1 0 .103c-.011.028-.02.005-.02-.051zm-1.207-.11c.03-.012.065-.011.079.003.014.013-.01.023-.054.021-.048-.002-.058-.011-.025-.025zm-.53-1.113l-.1-.113.114.1a.712.712 0 0 1 .113.113c0 .032-.033.006-.127-.1zm-.048-.654a.159.159 0 0 1 .103 0c.028.011.005.02-.051.02-.057 0-.08-.009-.052-.02zm9.146-.98c0-.09.007-.132.018-.093a.45.45 0 0 1 0 .164c-.01.052-.018.02-.018-.071zm3.984-.575c.001-.068.01-.091.02-.051.011.04.01.095 0 .123-.012.028-.02-.005-.02-.072zm-26.965-1.09c0-.056.01-.08.02-.051a.159.159 0 0 1 0 .103c-.01.028-.02.005-.02-.052zm15.736-1.089c-.028-.034-.042-.062-.03-.062.01 0 .043.028.071.062.028.034.042.062.03.062-.01 0-.043-.028-.07-.062zm-8.176-2.346c.002-.048.012-.058.025-.025.012.03.01.065-.004.079-.013.013-.023-.01-.021-.054zm-17.39-.033c0-.008.032-.04.072-.072.065-.051.066-.05.015.016-.053.068-.087.09-.087.056zm25.035-1.57c.002-.048.012-.058.025-.025.012.03.01.065-.003.079-.014.013-.024-.011-.022-.054zM11.465 9.68c0-.008.032-.04.072-.072.065-.05.066-.05.015.016-.053.068-.087.09-.087.056zm.74-.699c0-.008.032-.04.072-.072.065-.05.066-.05.015.016-.054.068-.087.09-.087.056zm29.06-.17c-.028-.033-.042-.06-.03-.06.01 0 .043.027.07.06.03.035.043.063.032.063-.012 0-.044-.028-.072-.062zm3.206-.451c-.028-.034-.042-.062-.03-.062.01 0 .043.028.071.062.028.034.042.061.03.061-.01 0-.043-.027-.071-.061zm-11.616-.648l-.078-.092.092.078c.087.074.112.107.079.107a.457.457 0 0 1-.093-.093zm10.832-.185l-.1-.113.113.1a.712.712 0 0 1 .113.113c0 .032-.033.006-.126-.1zm-10.88-.05c0-.08.009-.112.019-.073a.35.35 0 0 1 0 .144c-.01.04-.019.007-.019-.072zm-2.363-1.302a.159.159 0 0 1 .103 0c.028.011.005.02-.051.02-.057 0-.08-.009-.052-.02zm-11.177-2.55c.03-.011.065-.01.079.004.013.013-.011.023-.054.021-.048-.002-.058-.012-.025-.025zm.984-.04a.159.159 0 0 1 .102 0c.029.012.006.02-.05.02-.057 0-.08-.008-.052-.02zm1.479 0a.235.235 0 0 1 .123-.001c.04.01.017.02-.05.02-.068.001-.101-.007-.073-.019zm3.209-.987c.03-.012.065-.01.079.003.013.014-.01.023-.054.022-.048-.002-.058-.012-.025-.025zm1.353 0a.235.235 0 0 1 .123 0c.04.01.018.019-.05.02-.068 0-.1-.008-.073-.02zM24.772.01a.159.159 0 0 1 .103 0c.028.012.005.02-.052.02-.056 0-.08-.008-.05-.02zm1.52 0a.159.159 0 0 1 .104 0c.028.012.005.02-.052.02-.056 0-.08-.008-.051-.02z" fill="#8ecbd5"/><path d="M24.957 51.14a.35.35 0 0 1 .144 0c.04.011.007.02-.072.02-.08 0-.112-.009-.072-.02zm1.11 0a.35.35 0 0 1 .144 0c.04.011.007.02-.072.02-.08 0-.112-.009-.072-.02zm16.76-6.686c0-.009.032-.041.072-.072.065-.051.066-.05.015.015-.053.069-.087.09-.087.057zm-34.61-.088c-.027-.034-.041-.061-.03-.061.011 0 .044.027.072.061.028.034.042.062.03.062-.01 0-.043-.028-.071-.062zM6.78 42.928c-.028-.034-.042-.062-.03-.062.01 0 .043.028.071.062.028.034.042.061.03.061-.01 0-.043-.027-.071-.061zm37.569.005c0-.009.032-.041.072-.072.065-.051.066-.05.015.015-.054.069-.087.09-.087.057zm-32.824-.9l-.12-.133.133.12a.979.979 0 0 1 .133.135c0 .031-.034.003-.146-.121zm23.388-6.617l-.121-.133.134.12c.124.113.152.147.12.147a1 1 0 0 1-.133-.134zM8.954 33.258l-.1-.113.114.1c.105.093.132.126.1.126a.712.712 0 0 1-.114-.113zm39.59-6.61c.001-.048.011-.058.024-.025.012.03.01.065-.003.078-.014.014-.023-.01-.022-.054zm-48.537-.47c0-.079.008-.111.018-.072a.35.35 0 0 1 0 .144c-.01.04-.018.007-.018-.072zm51.132 0c0-.079.009-.111.019-.072a.35.35 0 0 1 0 .144c-.01.04-.019.007-.019-.072zm-46.905-.147c.002-.048.012-.058.025-.025.012.03.01.065-.004.079-.013.013-.023-.01-.021-.054zM.007 24.986c0-.079.008-.111.018-.072a.35.35 0 0 1 0 .144c-.01.04-.018.007-.018-.072zm51.132 0c0-.079.009-.111.019-.072a.35.35 0 0 1 0 .144c-.01.04-.019.007-.019-.072zm-46.946-.065c.002-.048.011-.058.025-.025.011.03.01.065-.004.079-.013.014-.023-.01-.021-.054zm9.04-.803c0-.012.055-.074.123-.139.067-.065.123-.109.123-.097a.677.677 0 0 1-.123.138c-.068.065-.124.11-.124.098zm4.356-1.696c0-.008.033-.04.072-.072.065-.05.067-.05.016.016-.054.068-.088.09-.088.056zm17.308-1.447c.002-.048.012-.057.025-.025.012.03.01.065-.003.08-.014.013-.024-.012-.022-.055zm-14.78-.962a.324.324 0 0 1 .095-.083c.011 0-.013.037-.054.083a.324.324 0 0 1-.095.082c-.011 0 .013-.037.054-.082zm14.821-.518c.002-.047.012-.057.025-.024.012.03.01.065-.003.078-.014.014-.024-.01-.022-.054zm6.79-1.024c.001-.113.009-.154.018-.092a.71.71 0 0 1 0 .206c-.01.05-.018 0-.017-.114zm-7.327-.164c-.029-.034-.042-.062-.031-.062.011 0 .044.028.072.062.028.034.042.061.03.061-.011 0-.043-.027-.071-.061zm-19.442-1.028c-.029-.034-.042-.061-.031-.061.011 0 .044.027.072.061.028.034.042.062.03.062-.011 0-.043-.028-.071-.062zm31.584-.606l-.079-.093.093.079c.087.073.111.106.078.106a.456.456 0 0 1-.092-.092zm-30.022-.087c0-.009.032-.041.071-.072.066-.052.067-.05.016.015-.054.069-.087.09-.087.057zm18.915-1.773c0-.068.01-.09.02-.05.011.04.01.095 0 .123-.012.028-.02-.005-.02-.073zm-17.501-2.867l-.079-.092.093.078c.087.073.111.107.078.107a.457.457 0 0 1-.092-.093zm-8.546-.195a.324.324 0 0 1 .095-.082c.011 0-.013.037-.054.082a.324.324 0 0 1-.095.082c-.011 0 .013-.037.054-.082zm6.984-.586l-.079-.092.093.078c.087.074.111.107.078.107a.457.457 0 0 1-.092-.093zm6.457-.688a.324.324 0 0 1 .095-.083c.011 0-.013.037-.054.083a.324.324 0 0 1-.095.082c-.011 0 .013-.037.054-.082zm10.696-.11a.235.235 0 0 1 .124-.001c.04.01.017.02-.051.02-.068.001-.1-.007-.073-.019zm8.89-.404c-.028-.034-.042-.062-.03-.062.01 0 .043.028.07.062.029.034.043.061.031.061-.01 0-.043-.027-.071-.061zM11.65 9.49a.324.324 0 0 1 .095-.082c.011 0-.013.037-.054.082a.324.324 0 0 1-.095.082c-.011 0 .013-.037.054-.082zM6.738 8.283c0-.009.032-.041.072-.072.065-.051.067-.05.015.015-.053.069-.087.09-.087.057zm1.439-1.439c0-.009.032-.04.071-.072.066-.051.067-.05.016.016-.054.068-.087.09-.087.056zm34.69-.087c-.027-.034-.041-.062-.03-.062.012 0 .044.028.072.062.028.034.042.061.03.061-.01 0-.043-.027-.071-.061zm-12.543-.583c.03-.012.065-.01.078.003.014.014-.01.023-.054.022-.047-.002-.057-.012-.024-.025zm-2.171-.61c-.028-.033-.042-.06-.03-.06.01 0 .043.027.07.06.03.035.043.062.032.062-.012 0-.044-.027-.072-.061zm-9.511-1.917c.01-.017.046-.02.079-.008.084.032.075.052-.02.044-.043-.003-.07-.02-.06-.036zm1.835-.064a.734.734 0 0 1 .206 0c.05.01 0 .018-.114.018-.113 0-.154-.009-.092-.018zm1.027.001a.35.35 0 0 1 .144 0c.04.01.007.019-.072.019s-.111-.009-.072-.019zm4.997-.986c.03-.012.065-.01.079.003.013.014-.01.023-.054.022-.048-.002-.058-.012-.025-.025zM24.957.008a.35.35 0 0 1 .144 0c.04.01.007.019-.072.019-.08 0-.112-.009-.072-.019zm1.11 0a.35.35 0 0 1 .144 0c.04.01.007.019-.072.019-.08 0-.112-.009-.072-.019z" fill="#7ac2cd"/><path d="M25.224 51.14a.574.574 0 0 1 .185 0c.051.01.01.018-.092.018s-.144-.008-.093-.018zm.576 0a.45.45 0 0 1 .165 0c.039.011-.003.02-.093.019-.09 0-.123-.01-.072-.019zm17.15-6.81c0-.008.032-.04.072-.072.065-.05.067-.05.016.016-.054.068-.088.09-.088.056zm-34.856-.087c-.028-.034-.042-.062-.03-.062.011 0 .043.028.071.062.029.034.042.062.031.062-.011 0-.044-.028-.072-.062zm-1.192-1.192c-.028-.034-.042-.062-.03-.062.011 0 .043.028.071.062.029.034.042.062.031.062-.011 0-.044-.028-.072-.062zm37.322.005c0-.008.033-.04.072-.072.065-.05.067-.05.016.016-.054.068-.088.09-.088.056zm-32.143-.416c-.028-.034-.042-.062-.03-.062.011 0 .043.028.071.062.029.034.042.062.031.062-.011 0-.043-.028-.072-.062zm-.844-.894l-.163-.175.175.163c.096.09.175.168.175.175 0 .03-.036 0-.187-.163zm-.8-.832c-.028-.034-.042-.062-.03-.062.01 0 .043.028.071.062.028.034.042.061.031.061-.011 0-.044-.027-.072-.061zm26.71-4.447c.03-.012.065-.01.079.003.013.014-.011.024-.054.022-.048-.002-.058-.012-.025-.025zM9.252 35.92c0-.057.01-.08.02-.052a.159.159 0 0 1 0 .103c-.01.028-.02.005-.02-.051zm0-.288c0-.057.01-.08.02-.051a.159.159 0 0 1 0 .102c-.01.029-.02.005-.02-.051zm25.847-.02c-.028-.035-.042-.062-.03-.062.011 0 .043.027.071.061.029.034.042.062.031.062-.011 0-.044-.028-.072-.062zM8.27 31.336c0-.09.008-.133.018-.093a.45.45 0 0 1 0 .164c-.009.051-.017.019-.018-.071zm3.196-5.092c0-.009.032-.041.072-.072.065-.051.066-.05.015.015-.053.069-.087.09-.087.057zm-7.231-.09c.002-.049.012-.058.025-.026.012.03.01.065-.004.08-.013.013-.023-.012-.021-.055zm7.457-.141a.324.324 0 0 1 .095-.082c.011 0-.013.037-.054.082a.324.324 0 0 1-.095.082c-.011 0 .013-.037.054-.082zM.009 25.87c0-.113.008-.155.017-.092.01.062.01.155 0 .205-.01.051-.018 0-.017-.113zm51.132 0c0-.113.009-.155.018-.092.01.062.01.155 0 .205-.01.051-.018 0-.018-.113zM.01 25.294c0-.113.008-.154.017-.092a.71.71 0 0 1 0 .206c-.01.05-.018 0-.017-.114zm51.132 0c0-.113.009-.154.018-.092a.71.71 0 0 1 0 .206c-.01.05-.018 0-.018-.114zm-46.948-.25c.002-.048.011-.057.025-.024.011.03.01.065-.004.078-.013.014-.023-.01-.021-.054zm30.704-4.192c.002-.048.012-.058.025-.025.012.03.01.065-.003.079-.014.013-.024-.01-.022-.054zm.041-1.48c.002-.048.012-.058.025-.025.012.03.01.065-.003.079-.014.014-.024-.01-.022-.054zm9.45-.038c-.027-.033-.041-.061-.03-.061.011 0 .044.028.072.061.028.034.042.062.03.062-.01 0-.043-.028-.071-.062zm-9.696-.455c.001-.048.011-.058.024-.025.012.03.01.065-.003.079-.014.013-.023-.01-.021-.054zm7.806-.572c-.028-.034-.042-.062-.03-.062.01 0 .043.028.071.062.028.034.042.061.03.061-.01 0-.043-.027-.071-.061zm-19.466-1.1l-.079-.092.093.078c.05.043.092.085.092.093 0 .033-.033.008-.106-.079zm-3.802-.472l-.1-.113.114.1c.105.092.132.126.1.126a.712.712 0 0 1-.114-.113zm22.61-1.182c-.028-.034-.042-.062-.03-.062.011 0 .043.028.071.062.029.034.042.062.031.062-.011 0-.044-.028-.072-.062zm-6.658-.16c0-.008.032-.04.071-.071.066-.052.067-.05.016.015-.054.069-.087.09-.087.057zm1.65-.066c0-.057.01-.08.02-.052a.159.159 0 0 1 0 .103c-.01.028-.02.005-.02-.051zm-3.544-.278l-.1-.113.113.1a.712.712 0 0 1 .113.113c0 .032-.033.006-.126-.1zm2.798-1.264c-.028-.033-.042-.061-.03-.061.01 0 .043.028.07.061.029.034.043.062.032.062-.012 0-.044-.028-.072-.062zm-18.96-.17a.235.235 0 0 1 .123-.002c.04.01.018.02-.05.02-.068.001-.1-.007-.073-.018zm18.713-.076c-.028-.034-.042-.062-.03-.062.01 0 .043.028.071.062.028.034.042.061.03.061-.01 0-.043-.027-.07-.061zm-.912-.5c.03-.013.065-.011.079.002.014.014-.01.024-.054.022-.048-.002-.058-.012-.025-.025zM9.204 11.94c0-.009.033-.041.072-.072.065-.051.067-.05.016.015-.054.069-.088.09-.088.057zm13.079-.293c0-.068.01-.09.02-.05.01.04.01.095-.001.123-.011.028-.02-.005-.019-.073zm-12.216-.597c0-.012.195-.214.432-.451.237-.237.431-.42.431-.41 0 .012-.194.214-.431.451-.237.237-.432.42-.432.41zm1.747-1.725a.324.324 0 0 1 .095-.082c.011 0-.013.037-.054.082a.324.324 0 0 1-.095.082c-.01 0 .013-.037.054-.082zm10.988-.11c.03-.012.065-.011.078.003.014.013-.01.023-.053.021-.048-.002-.058-.011-.025-.025zm-10.392-.44c0-.009.033-.041.072-.072.065-.051.067-.05.016.015-.054.069-.088.09-.088.057zm28.65-.17c-.029-.033-.043-.061-.031-.061.011 0 .043.028.071.061.029.034.042.062.031.062-.011 0-.044-.028-.072-.062zm-28.157-.282c0-.009.033-.041.072-.072.066-.051.067-.05.016.015-.054.069-.088.09-.088.057zm31.362-.17c-.028-.034-.042-.061-.03-.061.011 0 .043.027.071.061.029.034.042.062.031.062-.011 0-.043-.028-.072-.062zM6.861 8.16c0-.008.033-.04.072-.072.065-.05.067-.05.016.016-.054.068-.088.09-.088.056zm1.192-1.192c0-.008.033-.04.072-.072.065-.05.067-.05.016.016-.054.068-.088.09-.088.056zm34.938-.087c-.028-.034-.042-.062-.03-.062.01 0 .043.028.071.062.028.034.042.062.03.062-.01 0-.043-.028-.07-.062zM20.806 3.584c.04-.01.104-.01.143 0 .04.01.008.019-.071.019-.08 0-.112-.009-.072-.019zm.39 0c.05-.01.134-.01.185 0 .05.01.01.017-.092.017s-.144-.008-.093-.018zM25.224.006a.574.574 0 0 1 .185 0c.051.01.01.018-.092.018s-.144-.008-.093-.018zm.576 0a.45.45 0 0 1 .165.001c.039.01-.003.018-.093.018S25.749.017 25.8.007z" fill="#68b9c6"/><path d="M24.618 51.125a24.992 24.992 0 0 1-5.23-.74c-1.899-.475-3.458-1.056-5.251-1.956-1.975-.991-3.664-2.124-5.406-3.626-.53-.457-1.911-1.839-2.368-2.368-2.857-3.314-4.75-7.013-5.704-11.148-.486-2.103-.686-4.271-.615-6.63.095-3.084.768-6.124 2.014-9.087.337-.803 1.143-2.373 1.627-3.173C7.205 6.588 12.845 2.415 19.388.78 21.708.2 24-.038 26.499.042c4.68.15 9.218 1.6 13.163 4.206a25.594 25.594 0 0 1 11.133 17.1c.251 1.498.338 2.586.338 4.234 0 1.431-.06 2.36-.232 3.576a25.485 25.485 0 0 1-3.983 10.502 25.706 25.706 0 0 1-12.415 9.885c-2.429.911-5.252 1.485-7.682 1.563l-.99.034c-.181.008-.727 0-1.213-.017zm-4.988-3.656c.75-.127 1.93-.444 1.987-.534.012-.018.197-.101.411-.186a16.444 16.444 0 0 0 2.867-1.505c.811-.541.878-.607 1.114-1.087.268-.547.277-1.045.029-1.569-.538-1.133-2.393-1.916-3.868-1.634l-.318.06-.272-.191c-.485-.343-1.241-.975-2.166-1.809-1.961-1.768-2.678-2.314-3.772-2.874a5.04 5.04 0 0 1-.698-.431c-.318-.256-.91-.56-1.465-.754-.237-.083-.903-.27-1.48-.417-1.86-.474-2.417-.709-2.96-1.249-.57-.566-.74-1.049-.74-2.117 0-.523-.016-.731-.079-.976-.204-.799-.666-1.371-1.842-2.284-.3-.232-.545-.435-.545-.451 0-.016-.019-.15-.04-.296-.165-1.133.764-2.125 2.168-2.313.622-.083 1.267.07 1.668.397.41.334.632.746.674 1.248.022.25.026.257.138.257.175 0 .481-.116.735-.278.325-.206.695-.604 1.278-1.373.623-.82 1.184-1.399 1.58-1.628.27-.156.53-.265.463-.193-.056.058.059.142.195.142a.418.418 0 0 0 .231-.081c.083-.07.088-.088.036-.123-.034-.023-.118-.032-.185-.019l-.124.024.144-.092c.372-.236.706-.323 1.644-.426.94-.103 1.188-.191 1.302-.464.07-.17.05-.342-.08-.642l-.085-.2.1-.077c.165-.127.6-.344 1.255-.628.932-.403 1.202-.58 1.403-.922.096-.165.113-.238.113-.505 0-.288-.015-.343-.19-.699a5.84 5.84 0 0 1-.26-.61c-.273-.863-.958-1.586-1.72-1.817-.405-.124-.909-.097-1.24.065-.35.17-.669.51-.879.935-.152.307-.191.356-.301.378-.317.064-.594-.006-.813-.204-.613-.553-.485-2.06.258-3.039.429-.565.982-.796 1.635-.684.52.09 1.129-.09 1.312-.386.267-.432.024-1.098-.53-1.454-.116-.074-.211-.15-.211-.17 0-.018-.032-.033-.072-.032-.04 0-.183-.02-.318-.048a23.912 23.912 0 0 0-.335-.065c-.134-.024-.492-.368-.585-.563-.191-.398-.137-.902.18-1.673.098-.238.28-.682.407-.987.126-.305.259-.69.296-.858.171-.768-.126-1.322-.87-1.624l-.24-.098-.721.622c-4.95 4.262-8.07 7.62-9.744 10.486-.558.956-.727 1.392-.963 2.488-.303 1.409-.37 2.371-.341 4.915l.023 2.017.15.408c.083.224.322.76.53 1.189.574 1.179.945 1.802 2.287 3.843.875 1.33 1.601 2.47 1.774 2.78.3.54.357 1.325.196 2.666-.159 1.32-.073 2.076.304 2.665.212.331.901 1.115 1.848 2.103.985 1.028 1.402 1.515 1.778 2.077.256.384.601 1.058.657 1.283.027.112.315.294 1.337.844 1.165.627 3.438 1.526 3.867 1.529.105 0 .41-.036.678-.082zm24.162-7.918c1.543-1.984 2.876-4.484 3.657-6.858a21.922 21.922 0 0 0 1.001-9.282l-.047-.444-.106.033c-.481.15-1.122-.177-1.686-.86-.273-.33-.454-.654-.467-.836-.017-.245.297-.157.793.22.171.13.2.138.39.114.223-.029.56-.168.713-.295l.095-.078-.171-.78a26.06 26.06 0 0 0-.804-2.844c-.187-.518-.204-.548-.511-.882l-.318-.345-.03-.43c-.03-.412-.041-.45-.251-.87-.72-1.438-1.78-3.027-2.928-4.39-.558-.664-2.107-2.21-2.74-2.737-3.901-3.242-8.368-5.028-13.421-5.365-.762-.051-2.51-.026-3.103.044-2.178.257-3.448.478-4.645.807-.592.162-.752.245-.39.201.419-.05 2.233-.082 3.123-.055 2.074.064 3.864.434 5.426 1.122.386.17.392.175.503.406.319.663.91.935 2.205 1.014 1.633.1 1.973.159 2.312.394.256.177.375.419.397.803.012.203.04.34.075.369a.18.18 0 0 1 .057.121c0 .041.02.127.044.19.043.114.046.114.105.034.06-.082.06-.082.13.006.039.048.21.251.381.452.85.996 1.115 1.559.835 1.779-.098.077-.157.084-.627.076-.506-.01-.524-.007-.744.113-.483.263-.7.737-.73 1.602-.048 1.316.49 2.663 1.27 3.184.887.592 1.866.333 1.86-.492-.002-.369-.235-.73-.64-.99l-.208-.134.018-.218c.026-.312.115-.397.388-.375.548.046 1.447.933 1.727 1.705.123.338.13.731.015.955-.106.208-.414.476-.465.404-.028-.04-.041-.038-.06.01a2.088 2.088 0 0 1-.269.308c-.425.429-.651.833-.806 1.443-.13.51-.169.932-.211 2.256-.056 1.742-.108 2.142-.39 2.964-.245.711-.182 1.161.191 1.371.668.376 1.947-.2 2.373-1.07.182-.371.211-.728.093-1.15-.114-.405-.113-.634.005-.827.19-.31.489-.458 1.398-.69a8.89 8.89 0 0 0 .848-.25c.344-.148.455-.342.356-.623l-.053-.152.158.08c.2.103.586.204.778.204.737 0 1.166-.797 1.03-1.914-.083-.685-.276-1.263-.565-1.695-.171-.255-.178-.276-.134-.416.123-.39.383-.66.576-.598.244.077.523.472.638.903.075.278.068.742-.013.945-.184.461.11 1.036.7 1.373.117.067.404.197.638.29.59.234.709.3.877.487.257.284.246.59-.045 1.241-.086.192-.21.479-.274.637a3.07 3.07 0 0 1-1.702 1.692c-.6.242-.819.276-1.769.278-.762.002-.948-.01-1.35-.092l-.465-.094-.274.15c-.572.313-1.074.793-1.496 1.432-.137.206-.558 1.004-.937 1.772-.38.769-.766 1.515-.86 1.658-.526.807-1.093 2.236-1.323 3.336-.13.627-.133 1.718-.005 2.228.19.753.496 1.303 1.016 1.823.717.72 1.362 1.012 2.227 1.012 1.03 0 2.101-.484 3.59-1.624l.432-.33.35-.017c1.178-.055 2.059.585 2.39 1.74.081.279.095.417.092.943-.003.531-.018.674-.112 1.028a5.1 5.1 0 0 1-.643 1.412c-.154.22-.25.519-.246.762.001.073.028.057.17-.098.093-.102.357-.428.588-.726zM11.69 31.014c.06-.044.076-.11.076-.303 0-.38-.15-.584-.629-.854-.472-.266-1.02-.29-1.169-.051-.068.11.078.344.346.553.124.097.321.26.438.361.355.31.747.433.938.294zm9.15-8.896c.248-.28.183-.507-.198-.694-.208-.101-.284-.116-.616-.116-.34 0-.389.01-.473.093l-.093.093.082.152c.045.083.182.232.304.331.214.174.23.18.432.156.28-.033.345.01.244.164l-.076.116.138-.08c.075-.044.19-.14.256-.215zm13.389-2.678c.184-.095.414-.316.464-.447.078-.206-.09-.56-.375-.785a2.144 2.144 0 0 0-.885-.418c-.544-.112-.676.129-.302.554.166.188.17.199.124.35-.109.365-.008.69.252.808.168.076.512.046.722-.062zm-9.881-2.736c.118-.181.48-.68.804-1.11 1.024-1.356 1.399-1.99 1.628-2.754.096-.32.112-.445.114-.925.005-.973-.247-1.583-.815-1.97-.75-.512-1.99-.402-2.91.259-.58.415-.864.9-.864 1.473 0 .276.018.355.143.617.078.165.222.392.32.505.296.341.35.503.346 1.028-.003.361-.03.558-.136.986-.28 1.139-.324 1.589-.189 1.995.112.335.498.66.925.778.094.026.116.004.26-.262.088-.16.256-.44.374-.62zm-4.316-.676c.32-.255.558-.653.727-1.22.124-.415.153-1.227.057-1.618-.156-.637-.548-.965-1.059-.888-.274.042-.282.055-.187.333.11.326.085.753-.091 1.52-.146.636-.176 1.118-.089 1.418.069.236.313.576.414.576.041 0 .144-.054.228-.12zm2.566-5.593c.244-.111.693-.475.77-.624.089-.171.086-.353-.008-.441-.116-.11-.485-.169-.755-.12-.27.05-.398.113-.54.267-.164.177-.201.274-.201.528 0 .202.016.248.12.353.146.146.347.158.614.037z" fill="#5db5c3"/></svg>