<svg xmlns="http://www.w3.org/2000/svg" viewBox="0 0 35.142 33.734" height="127.499" width="132.819"><path d="M33.788 33.543a.51.51 0 0 1 .084-.095c.047-.044.085-.074.085-.067a.456.456 0 0 1-.085.096c-.046.044-.084.074-.084.066zM.973 26.347c0-3.58.004-5.04.008-3.245s.004 4.724 0 6.51c-.004 1.784-.008.315-.008-3.265zm33.195 0c0-3.58.003-5.04.007-3.245s.004 4.724 0 6.51c-.004 1.784-.007.315-.007-3.265zm-17.11-2.543c.292-.004.761-.004 1.043 0 .282.005.043.009-.53.009-.574 0-.804-.004-.513-.009zm-1.432-2.43c0-.845.003-1.19.007-.768.005.422.005 1.113 0 1.536-.004.422-.007.076-.007-.768zm3.888 0c0-.845.004-1.19.008-.768.005.422.005 1.113 0 1.536-.004.422-.008.076-.008-.768zM8.788 17.859c4.841-.004 12.754-.004 17.584 0 4.83.003.87.007-8.801.007s-13.623-.004-8.783-.007zM.452 5.639c0-.005.023-.027.05-.049.044-.035.045-.034.01.01-.037.048-.06.063-.06.04zm21.992-1.722c0-.573.004-.804.009-.512.004.291.004.76 0 1.042-.005.282-.009.044-.009-.53zM10.258.631a.5.5 0 0 1 .085-.095c.046-.045.085-.075.085-.067a.5.5 0 0 1-.085.095c-.046.045-.085.075-.085.067zM24.796.557l-.068-.078.078.069a.488.488 0 0 1 .077.077c0 .022-.023.004-.087-.068z" fill="#cbe7eb"/><path d="M4.646 19.831c2.02-.004 5.317-.004 7.327 0s.357.007-3.673.007-5.674-.003-3.654-.007zm18.542 0c2.02-.004 5.316-.004 7.326 0s.357.007-3.672.007c-4.03 0-5.674-.003-3.654-.007zM.579 5.51a.222.222 0 0 1 .065-.056c.008 0-.009.025-.037.056a.222.222 0 0 1-.065.057c-.008 0 .01-.026.037-.057zm33.953-.007l-.054-.063.063.054c.06.05.077.073.054.073a.313.313 0 0 1-.063-.064zm-21.837-1.57c0-.566.003-.798.008-.515.005.283.005.746 0 1.029-.005.282-.008.051-.008-.515z" fill="#bde0e6"/><path d="M15.894 23.53c-.02-.024-.029-.043-.02-.043.007 0 .03.02.048.042.02.024.03.043.021.043-.007 0-.03-.02-.049-.043zm3.297.031c0-.006.022-.028.05-.05.044-.034.045-.033.01.011-.037.047-.06.062-.06.04zm6.184-20.165c0-.86.004-1.212.008-.782.005.43.005 1.134 0 1.564-.004.43-.008.078-.008-.782zm-9.782-1.43c1.098-.004 2.886-.004 3.974 0 1.087.004.189.007-1.996.007s-3.075-.003-1.978-.007zm-5.837-.064c0-.038.006-.054.014-.035a.109.109 0 0 1 0 .07c-.008.02-.014.004-.014-.035z" fill="#a5d5dd"/><path d="M9.764 3.452c0-.829.004-1.168.008-.753.005.414.005 1.092 0 1.507-.004.415-.008.075-.008-.754z" fill="#92cdd6"/><path d="M1.884 4.955c.02-.008.045-.007.054.002.01.01-.007.016-.037.015-.033-.002-.04-.008-.017-.017zm31.335 0c.02-.008.044-.007.054.002.01.01-.008.016-.037.015-.033-.002-.04-.008-.017-.017zM12.978 2.24a.222.222 0 0 1 .065-.057c.008 0-.01.026-.037.057a.222.222 0 0 1-.065.056c-.008 0 .009-.025.037-.056z" fill="#7ac2cd"/><path d="M35.116 6.862c0-.039.007-.055.015-.035a.109.109 0 0 1 0 .07c-.008.02-.015.004-.015-.035zM.004 6.845c.001-.032.008-.04.017-.017.008.02.007.045-.003.054-.009.01-.016-.007-.014-.037zM3.88 4.953c1.072-.004 2.834-.004 3.917 0 1.082.004.205.007-1.95.007-2.154 0-3.04-.003-1.967-.007zm11.248 0c1.353-.004 3.56-.004 4.903 0 1.343.004.235.007-2.461.007-2.697 0-3.796-.003-2.442-.007zm12.196 0c1.072-.004 2.835-.004 3.917 0 1.082.004.205.007-1.949.007s-3.04-.003-1.968-.007zM24.715.508c-.02-.024-.03-.043-.022-.043s.03.02.05.043c.019.023.028.042.02.042s-.03-.02-.049-.042z" fill="#70beca"/><path d="M1.813 33.716a.97.97 0 0 1-.729-.551l-.082-.168-.008-6.572-.007-6.573h14.624l.008 1.614.007 1.614.093.188c.103.208.267.372.479.477l.133.066h2.48l.17-.089c.205-.107.359-.27.46-.485l.074-.158.008-1.614.008-1.613h14.623v6.507c0 6.29-.002 6.512-.053 6.677a1.004 1.004 0 0 1-.605.647c-.109.044-1.218.047-15.827.05-8.64.003-15.775-.005-15.856-.017zM.008 12.236l.008-5.614.064-.206c.204-.662.612-1.102 1.25-1.348l.207-.08 4.114-.014 4.114-.014.014-1.69.015-1.692.08-.225c.187-.534.51-.906.99-1.143.466-.23-.155-.21 6.707-.21 6.861 0 6.24-.019 6.706.21.474.233.805.614.992 1.143l.08.225.013 1.691.014 1.69 4.114.015 4.114.014.203.078c.647.25 1.07.71 1.257 1.37l.062.215.008 5.6.008 5.6H0zM22.454 3.84l-.008-1.135-.092-.186a.968.968 0 0 0-.483-.47l-.158-.075h-8.284l-.161.075c-.205.096-.4.292-.497.497l-.075.16-.008 1.135-.009 1.134h9.783z" fill="#5db5c3"/></svg>