<svg xmlns="http://www.w3.org/2000/svg" width="175.233" height="156.515" viewBox="0 0 46.364 41.411"><path d="M10.006 41.389c.026-.01.058-.01.07.003.012.012-.01.02-.048.019-.043-.002-.052-.01-.022-.022zm26.303 0c.027-.01.059-.01.07.003.013.012-.009.02-.047.019-.043-.002-.052-.01-.023-.022zm1.952-.823c0-.01.05-.066.11-.124.06-.058.11-.097.11-.087 0 .01-.05.065-.11.123-.06.058-.11.098-.11.088zm-30.306-.133l-.089-.101.101.089c.095.083.118.112.09.112a.636.636 0 0 1-.102-.1zm5.642-3.045a3.66 3.66 0 0 1 .404 0c.117.007.03.014-.191.014-.222 0-.318-.006-.213-.014zm18.747 0a3.66 3.66 0 0 1 .403 0c.117.007.031.014-.191.014s-.317-.006-.212-.014zm-1.897-.725c-.026-.03-.038-.055-.028-.055.01 0 .04.025.064.055.025.03.038.055.028.055-.01 0-.04-.025-.064-.055zM13.68 25.253c-.025-.03-.037-.054-.027-.054.01 0 .039.025.064.055s.037.055.027.055c-.01 0-.039-.025-.064-.055zm18.93.042c0-.008.029-.037.064-.064.058-.046.06-.045.014.014-.048.06-.078.08-.078.05zm.257-.257c0-.007.029-.036.064-.064.058-.046.06-.044.014.014-.048.06-.078.08-.078.05zm10.996-1.018c.025-.025.054-.036.066-.025.01.012-.01.032-.046.046-.052.02-.056.015-.02-.02zM.62 23.09c-.025-.03-.037-.056-.027-.056.01 0 .039.025.064.055s.037.055.027.055c-.01 0-.039-.024-.064-.055zm45.05.04c0-.007.03-.036.064-.064.059-.045.06-.044.014.014-.048.061-.078.08-.078.05zm-.095-4.984l-.07-.083.083.07c.077.066.099.095.07.095a.407.407 0 0 1-.083-.082zm-37.288-3.6c0-.008.03-.037.065-.064.058-.046.059-.045.013.014-.048.06-.078.08-.078.05zm28.359-.041c-.026-.03-.038-.055-.028-.055.01 0 .04.025.064.055.025.03.038.055.028.055-.01 0-.04-.025-.064-.055zm-22.82-.032c0-.008.03-.037.065-.065.058-.045.06-.044.014.014-.048.061-.078.08-.078.05zm17.185-.142l-.07-.083.082.07c.078.066.1.095.07.095a.407.407 0 0 1-.082-.082zm-22.394-.152a.26.26 0 0 1 .065-.064c.058-.046.06-.044.014.014-.048.06-.079.08-.079.05zm27.677-.069l-.07-.082.082.07c.078.065.1.095.07.095a.407.407 0 0 1-.082-.083zm-22.1-.04c0-.009.029-.037.064-.065.058-.046.06-.044.014.014-.048.06-.078.08-.078.05zm16.472-.115c-.025-.03-.038-.055-.028-.055.01 0 .04.024.064.055.026.03.038.055.028.055-.01 0-.04-.025-.064-.055zm-21.682-.18a.26.26 0 0 1 .065-.064c.058-.045.059-.044.013.014-.048.061-.078.08-.078.05zm26.964-.04c-.025-.03-.037-.056-.027-.056.01 0 .039.025.064.055s.038.055.027.055c-.01 0-.038-.024-.064-.055zm-21.387-.07c0-.007.028-.036.064-.064.058-.045.06-.044.014.014-.048.061-.078.08-.078.05zm15.738-.114c-.025-.03-.038-.055-.027-.055.01 0 .038.025.064.055.025.03.037.055.027.055-.01 0-.039-.025-.064-.055zm-20.948-.179c0-.008.03-.036.064-.064.059-.046.06-.044.014.014-.048.06-.078.08-.078.05zm26.23-.041c-.024-.03-.037-.055-.027-.055.01 0 .04.025.064.055.025.03.038.055.028.055-.01 0-.04-.025-.064-.055zm-20.654-.069c0-.008.03-.037.065-.064.058-.046.06-.045.014.014-.048.06-.079.08-.079.05zm15.005-.115c-.025-.03-.037-.055-.027-.055.01 0 .039.025.064.055s.037.055.027.055c-.01 0-.039-.024-.064-.055zm-20.196-.201a.29.29 0 0 1 .085-.074c.01 0-.011.033-.048.074a.29.29 0 0 1-.085.073c-.01 0 .012-.033.048-.073zm25.479-.019c-.025-.03-.038-.055-.028-.055.01 0 .04.025.064.055.026.03.038.055.028.055-.01 0-.04-.024-.064-.055zm-19.902-.091a.29.29 0 0 1 .084-.074c.01 0-.011.033-.048.074a.29.29 0 0 1-.084.073c-.01 0 .011-.033.048-.073zm14.267-.083l-.07-.082.083.07c.077.065.099.095.07.095a.407.407 0 0 1-.083-.083zm-19.532-.151c0-.008.03-.037.064-.065.059-.045.06-.044.014.014-.048.061-.078.08-.078.05zm24.8-.078c-.025-.03-.038-.055-.027-.055.01 0 .038.025.064.055.025.03.037.055.027.055-.01 0-.039-.025-.064-.055zm-19.224-.032c0-.008.03-.037.065-.065.058-.045.06-.044.014.014-.048.061-.079.08-.079.05zm13.611-.115c-.025-.03-.037-.055-.027-.055.01 0 .039.025.064.055s.037.055.027.055c-.01 0-.039-.025-.064-.055zm-18.82-.179c0-.008.029-.036.064-.064.058-.046.06-.044.014.014-.048.06-.078.08-.078.05zm24.08-.069l-.069-.082.083.07c.077.065.099.095.07.095a.407.407 0 0 1-.083-.083zm-18.504-.041c0-.008.03-.036.065-.064.058-.046.059-.044.013.014-.048.06-.078.08-.078.05zm12.877-.115c-.025-.03-.037-.055-.027-.055.01 0 .039.025.064.055s.037.056.027.056c-.01 0-.039-.025-.064-.056zm-18.086-.178c0-.008.029-.037.064-.065.058-.045.06-.044.014.014-.048.061-.078.08-.078.05zm23.369-.042c-.025-.03-.038-.055-.027-.055.01 0 .038.025.064.055.025.03.037.055.027.055-.01 0-.039-.024-.064-.055zm-17.793-.069c0-.007.03-.036.064-.064.059-.045.06-.044.014.014-.048.061-.078.08-.078.05zm12.143-.114c-.025-.03-.037-.055-.027-.055.01 0 .039.025.064.055s.037.055.027.055c-.01 0-.039-.025-.064-.055zm-17.334-.202a.29.29 0 0 1 .085-.073c.01 0-.012.033-.048.073a.29.29 0 0 1-.085.074c-.01 0 .012-.033.048-.074zm22.617-.018c-.025-.03-.037-.055-.027-.055.01 0 .039.025.064.055s.037.055.027.055c-.01 0-.039-.025-.064-.055zm-17.059-.069c0-.008.029-.037.064-.064.058-.046.06-.045.014.014-.048.06-.078.08-.078.05zm11.424-.105l-.07-.083.083.07c.077.066.1.095.07.095a.407.407 0 0 1-.083-.082zm-16.67-.152c0-.007.029-.036.064-.064.058-.046.06-.044.014.014-.048.06-.078.08-.078.05zm21.938-.078c-.025-.03-.037-.055-.027-.055.01 0 .039.025.064.055s.037.055.027.055c-.01 0-.039-.024-.064-.055zm-16.325-.069c0-.007.029-.036.064-.064.058-.045.06-.044.014.014-.048.061-.078.08-.078.05zm10.712-.077c-.025-.03-.037-.055-.027-.055.01 0 .039.024.064.055.025.03.037.055.027.055-.01 0-.039-.025-.064-.055zm-15.958-.18c0-.007.029-.036.064-.064.058-.045.06-.044.014.014-.048.061-.078.08-.078.05zm21.204-.077c-.025-.03-.037-.055-.027-.055.01 0 .039.024.064.055.025.03.037.055.027.055-.01 0-.039-.025-.064-.055zm-15.591-.07c0-.007.029-.036.064-.063.058-.046.06-.045.014.014-.048.06-.078.08-.078.05zm9.978-.077c-.025-.03-.037-.055-.027-.055.01 0 .039.025.064.055s.037.055.027.055c-.01 0-.039-.025-.064-.055zm-15.224-.179c0-.008.029-.036.064-.064.058-.046.06-.044.014.014-.048.06-.078.08-.078.05zm20.485-.069l-.07-.082.083.07c.078.065.1.095.07.095a.407.407 0 0 1-.083-.083zm-14.854-.1a.29.29 0 0 1 .085-.074c.01 0-.012.033-.048.073a.29.29 0 0 1-.085.074c-.01 0 .011-.033.048-.074zm9.226-.056c-.025-.03-.037-.055-.027-.055.01 0 .04.025.064.055.025.03.038.055.028.055-.01 0-.04-.024-.065-.055zM12.6 9.791a.29.29 0 0 1 .085-.074c.01 0-.012.033-.048.074a.29.29 0 0 1-.085.073c-.01 0 .011-.033.048-.073zm19.733-.046l-.07-.083.083.07c.078.066.1.095.07.095a.407.407 0 0 1-.083-.082zm-14.12-.101a.29.29 0 0 1 .085-.073c.01 0-.012.033-.048.073a.29.29 0 0 1-.085.073c-.01 0 .011-.033.048-.073zm8.507-.046l-.07-.082.083.07c.078.065.1.095.07.095a.407.407 0 0 1-.083-.083zm-13.808-.151c0-.008.029-.037.064-.065.058-.045.06-.044.014.014-.048.061-.078.08-.078.05zm19.076-.078c-.025-.03-.037-.055-.027-.055.01 0 .039.025.064.055s.038.055.027.055c-.01 0-.038-.025-.064-.055zm-13.463-.07c0-.007.029-.036.064-.063.058-.046.06-.045.014.014-.048.06-.078.08-.078.05zm7.85-.077c-.025-.03-.037-.055-.027-.055.01 0 .039.025.064.055s.038.055.027.055c-.01 0-.038-.025-.064-.055zm-13.096-.179c0-.008.028-.036.064-.064.058-.046.06-.044.014.014-.048.06-.078.08-.078.05zm18.343-.078c-.026-.03-.038-.055-.028-.055.01 0 .04.025.064.055.025.03.038.055.028.055-.01 0-.04-.024-.064-.055zm-12.73-.069c0-.007.028-.036.064-.064.058-.045.06-.044.014.014-.048.061-.078.08-.078.05zm7.117-.077c-.026-.03-.038-.056-.028-.056.01 0 .04.025.064.056.025.03.038.055.028.055-.01 0-.04-.025-.064-.055zm-12.364-.18a.26.26 0 0 1 .065-.064c.058-.045.06-.044.014.014-.048.061-.079.08-.079.05zm17.61-.077c-.025-.03-.038-.055-.028-.055.01 0 .04.024.064.055.025.03.038.055.028.055-.01 0-.04-.025-.064-.055zm-11.997-.07c0-.007.03-.036.065-.063.058-.046.06-.045.013.013-.047.062-.078.081-.078.05zm6.384-.077c-.025-.03-.038-.055-.028-.055.01 0 .04.025.064.055.026.03.038.055.028.055-.01 0-.04-.025-.064-.055zm-11.666-.142c0-.008.029-.037.064-.064.058-.046.06-.045.014.013-.048.061-.078.08-.078.05zm16.912-.115c-.025-.03-.038-.055-.028-.055.01 0 .04.025.065.055s.037.055.027.055c-.01 0-.04-.025-.064-.055zM19.624 8.09c0-.007.03-.036.064-.064.059-.046.06-.044.014.014-.048.061-.078.08-.078.05zm5.665-.068l-.07-.083.082.07c.078.066.1.095.07.095a.407.407 0 0 1-.082-.082zM14.34 7.869a.26.26 0 0 1 .065-.064c.058-.046.06-.044.014.014-.048.06-.079.08-.079.05zm16.194-.105l-.07-.083.082.07c.078.066.1.095.07.095a.407.407 0 0 1-.082-.082zM19.99 7.686c0-.008.029-.037.064-.064.058-.046.06-.045.014.013-.048.061-.078.08-.078.05zm4.953-.041c-.025-.03-.038-.055-.028-.055.01 0 .04.024.064.055.026.03.038.055.028.055-.01 0-.04-.025-.064-.055zm-10.236-.18a.26.26 0 0 1 .065-.064c.058-.045.059-.044.013.014-.048.061-.078.08-.078.05zm15.482-.077c-.025-.03-.038-.055-.028-.055.01 0 .04.024.064.055.026.03.038.055.028.055-.01 0-.04-.025-.064-.055zm-9.814-.129a.29.29 0 0 1 .085-.073c.01 0-.011.033-.048.073a.29.29 0 0 1-.085.074c-.01 0 .012-.033.048-.074zm4.2-.018c-.024-.03-.037-.055-.026-.055.01 0 .038.025.064.055.025.03.037.055.027.055-.01 0-.039-.025-.064-.055zm-9.482-.202a.29.29 0 0 1 .084-.073c.01 0-.011.033-.048.073a.29.29 0 0 1-.085.074c-.01 0 .012-.033.049-.074zm14.729-.055c-.025-.03-.037-.055-.027-.055.01 0 .039.025.064.055s.037.055.027.055c-.01 0-.039-.025-.064-.055zm-9.08-.128a.29.29 0 0 1 .085-.074c.01 0-.012.033-.048.074a.29.29 0 0 1-.085.073c-.01 0 .012-.033.048-.073zm3.467-.019c-.025-.03-.037-.055-.027-.055.01 0 .039.025.064.055s.037.055.027.055c-.01 0-.039-.024-.064-.055zm-8.805-.142a.26.26 0 0 1 .065-.064c.058-.046.06-.044.013.014-.047.061-.078.08-.078.05zm14.051-.114c-.025-.03-.037-.055-.027-.055.01 0 .039.024.064.055.025.03.037.055.027.055-.01 0-.039-.025-.064-.055zm-8.346-.129a.29.29 0 0 1 .085-.073c.01 0-.012.033-.048.073a.29.29 0 0 1-.085.074c-.01 0 .012-.033.048-.074zm2.748-.009l-.07-.082.083.07c.077.065.099.095.07.095a.407.407 0 0 1-.083-.083zm-8.086-.151c0-.008.03-.037.064-.065.059-.045.06-.044.014.014-.048.061-.078.08-.078.05zm13.317-.115c-.025-.03-.037-.055-.027-.055.01 0 .039.025.064.055s.037.055.027.055c-.01 0-.039-.025-.064-.055zm-12.95-.289c0-.007.029-.036.064-.064.058-.046.06-.044.014.014-.048.06-.078.08-.078.05zm12.598-.105l-.07-.083.083.07c.077.066.1.095.07.095a.407.407 0 0 1-.083-.082zm-12.213-.321a.29.29 0 0 1 .085-.074c.01 0-.011.033-.048.074a.29.29 0 0 1-.085.073c-.01 0 .012-.033.048-.073zm11.868-.055c-.025-.03-.037-.055-.027-.055.01 0 .039.024.064.055.025.03.037.055.027.055-.01 0-.039-.025-.064-.055zm-11.556-.29c0-.007.029-.036.064-.063.059-.046.06-.045.014.013-.048.061-.078.08-.078.05zm11.19-.114c-.026-.03-.038-.055-.028-.055.01 0 .039.025.064.055s.037.055.027.055c-.01 0-.039-.025-.064-.055zm-10.823-.289c0-.007.029-.036.064-.064.058-.046.06-.044.014.014-.048.06-.078.08-.078.05zM27.658 4.6c-.025-.03-.037-.055-.027-.055.01 0 .039.024.064.055.025.03.038.055.027.055-.01 0-.038-.025-.064-.055zM17.57 4.31c0-.007.029-.036.064-.064.058-.045.06-.044.014.014-.048.061-.078.08-.078.05zm9.722-.114c-.026-.03-.038-.055-.028-.055.01 0 .04.025.064.055.025.03.038.055.028.055-.01 0-.04-.025-.064-.055zm-9.337-.312a.29.29 0 0 1 .085-.073c.01 0-.012.033-.048.073a.29.29 0 0 1-.085.074c-.01 0 .012-.033.048-.074zm8.985-.082l-.07-.083.082.07a.407.407 0 0 1 .083.083c0 .029-.03.007-.095-.07zm-8.673-.262c0-.007.029-.036.064-.064.058-.046.06-.044.014.014-.048.061-.078.08-.078.05zm8.328-.114c-.026-.03-.038-.055-.028-.055.01 0 .04.024.064.055.025.03.038.055.028.055-.01 0-.04-.025-.064-.055zm-7.961-.29c0-.007.029-.036.064-.064.058-.045.06-.044.014.014-.048.061-.078.08-.078.05zm7.594-.114c-.025-.03-.038-.055-.028-.055.01 0 .04.025.064.055.026.03.038.055.028.055-.01 0-.04-.025-.064-.055zm-7.184-.334c.033-.033.077-.054.099-.046.021.007-.006.034-.06.06-.092.042-.095.041-.04-.014zm1.02-1.72a.8.8 0 0 1 .143-.129c.01 0-.037.058-.106.129a.8.8 0 0 1-.143.128c-.01 0 .038-.058.106-.128zm4.86.009l-.109-.12.12.108c.11.1.136.131.107.131a.916.916 0 0 1-.119-.12z" fill="#d0e9ed"/><path d="M13.305 37.39a.142.142 0 0 1 .092 0c.025.011.004.02-.046.02s-.071-.009-.046-.02zm.917 0a.142.142 0 0 1 .092 0c.025.011.005.02-.046.02-.05 0-.071-.009-.046-.02zm8.805 0a.142.142 0 0 1 .092 0c.025.011.004.02-.046.02s-.071-.009-.046-.02zm.22 0a.142.142 0 0 1 .092 0c.025.011.004.02-.046.02s-.071-.009-.046-.02zm8.805 0a.142.142 0 0 1 .091 0c.026.011.005.02-.046.02-.05 0-.07-.009-.045-.02zm.917 0a.142.142 0 0 1 .091 0c.026.011.005.02-.045.02-.05 0-.071-.009-.046-.02zm-7.86-.782a.29.29 0 0 1 .085-.073c.01 0-.012.033-.049.073a.29.29 0 0 1-.084.073c-.01 0 .011-.033.048-.073zm-8.74-1.229c-.001-.08.006-.118.015-.083a.4.4 0 0 1 .001.147c-.009.046-.016.017-.017-.064zm13.61.018c0-.07.007-.1.016-.064.01.036.01.093 0 .129-.01.035-.017.006-.017-.065zm-19.46-11.363a4.61 4.61 0 0 1 .44 0c.115.008.011.014-.231.014-.242 0-.336-.006-.21-.014zm12.618.003a.142.142 0 0 1 .092 0c.025.01.004.019-.046.019s-.071-.009-.046-.019zm12.291-.003a4.61 4.61 0 0 1 .44 0c.116.008.012.014-.23.014-.242 0-.337-.006-.21-.014zM.746 23.21l-.07-.083.083.07a.407.407 0 0 1 .082.082c0 .03-.03.008-.095-.07zm44.834.009a.29.29 0 0 1 .084-.074c.01 0-.011.033-.048.074a.29.29 0 0 1-.085.073c-.01 0 .012-.033.049-.073z" fill="#b3dce2"/><path d="M21.199 36.58l-.089-.1.1.089c.095.083.119.112.09.112a.636.636 0 0 1-.101-.1zM8.147 26.044c0-.05.009-.072.019-.046.01.025.01.066 0 .091-.01.026-.019.005-.019-.045zm30.047-.019c.001-.06.01-.08.019-.045a.21.21 0 0 1-.002.11c-.01.025-.017-.004-.017-.065zM11.18 24.036c.026-.01.058-.009.07.003.012.013-.01.021-.048.02-.043-.002-.052-.01-.022-.023zm11.85 0c.026-.01.057-.009.07.003.012.013-.01.021-.049.02-.042-.002-.051-.01-.022-.023zm.256 0c.026-.01.058-.009.07.003.012.013-.01.021-.048.02-.043-.002-.051-.01-.022-.023zm11.85 0c.026-.01.058-.009.07.003.012.013-.01.021-.048.02-.043-.002-.052-.01-.022-.023zM2.593 17.36a.142.142 0 0 1 .092 0c.025.01.004.019-.046.019s-.071-.008-.046-.019zm41.088 0a.142.142 0 0 1 .092 0c.025.01.004.019-.046.019s-.071-.008-.046-.019zM9.563 14.68c.752-.006 1.982-.006 2.733 0 .752.005.137.01-1.366.01-1.504 0-2.118-.005-1.367-.01zm23.149 0c.752-.006 1.981-.006 2.733 0 .752.005.137.01-1.367.01-1.503 0-2.118-.005-1.366-.01z" fill="#a5d5dd"/><path d="M10.226 41.389c.026-.01.058-.01.07.003.012.012-.01.02-.048.019-.043-.002-.051-.01-.022-.022zm25.863 0c.027-.01.058-.01.07.003.013.012-.009.02-.047.019-.043-.002-.052-.01-.023-.022zm-25.125-5.065l-.126-.138.138.127c.075.07.137.131.137.137 0 .028-.03.002-.149-.126zm24.454-.046a.29.29 0 0 1 .084-.073c.01 0-.011.033-.048.073a.29.29 0 0 1-.085.073c-.01 0 .012-.033.049-.073zm-14.969-5.54c0-2.27.004-3.198.01-2.063a567.74 567.74 0 0 1 0 4.127c-.006 1.135-.01.206-.01-2.064zm5.466-.018c0-2.28.005-3.207.01-2.06a572.7 572.7 0 0 1 0 4.145c-.005 1.133-.01.195-.01-2.085zm-17.77-4.809c.001-.043.01-.051.022-.022.01.026.009.058-.003.07-.012.012-.021-.01-.02-.048zm13.038-1.042a.29.29 0 0 1 .085-.074c.01 0-.011.033-.048.074a.29.29 0 0 1-.085.073c-.01 0 .012-.033.048-.073zm3.923-.046l-.107-.12.119.108c.111.1.136.131.108.131a.916.916 0 0 1-.12-.12zm-12.168-7.466c5.635-.005 14.855-.005 20.49 0 5.634.005 1.024.01-10.245.01-11.27 0-15.88-.005-10.245-.01z" fill="#93cdd6"/><path d="M10.333 41.39a.21.21 0 0 1 .11-.002c.036.01.015.018-.045.019-.06 0-.09-.007-.065-.017zm25.57 0a.21.21 0 0 1 .11-.002c.036.01.015.018-.045.019-.06 0-.09-.007-.065-.017zm-20.13-4.576c0-.007.028-.036.063-.064.059-.045.06-.044.014.014-.048.061-.078.08-.078.05zm4.661-10.243c.002-.042.01-.051.022-.022.011.027.01.058-.002.07-.013.013-.021-.009-.02-.048zM13.55 25.08l-.07-.083.083.07a.407.407 0 0 1 .082.082c0 .03-.03.008-.095-.07zm19.227.009a.29.29 0 0 1 .085-.074c.01 0-.012.033-.048.074a.29.29 0 0 1-.085.073c-.01 0 .012-.033.048-.073zm-11.5-.308c0-.007.028-.036.063-.064.059-.045.06-.044.014.014-.048.061-.078.08-.078.05zm-12.602-.096a.29.29 0 0 1 .084-.073c.01 0-.011.033-.048.073a.29.29 0 0 1-.085.074c-.01 0 .012-.033.049-.074zm28.96-.027l-.089-.101.101.089a.66.66 0 0 1 .101.1c0 .03-.03.006-.113-.088zm-25.53-14.294c0-.008.029-.037.064-.064.058-.046.06-.045.014.013-.048.062-.078.081-.078.05zm6.53-1.21c0-.008.029-.037.064-.065.058-.046.06-.044.014.014-.048.06-.078.08-.078.05zM17.46 4.456c0-.007.029-.036.064-.064.058-.045.06-.044.014.014-.048.061-.078.08-.078.05zm9.942-.114c-.025-.03-.038-.055-.028-.055.01 0 .04.025.064.055.025.03.038.055.028.055-.01 0-.04-.025-.064-.055z" fill="#7ac2cd"/><path d="M10.517 41.39a.142.142 0 0 1 .092 0c.025.01.004.018-.046.018s-.071-.008-.046-.018zm25.24 0a.142.142 0 0 1 .092 0c.025.01.004.018-.046.018s-.071-.008-.046-.018zm-27.783-.976l-.108-.119.12.108c.11.1.136.13.107.13a.917.917 0 0 1-.119-.119zm30.287.115c0-.01.05-.066.11-.124.06-.058.11-.097.11-.087 0 .01-.05.066-.11.124-.06.058-.11.097-.11.087zm-7.814-3.83c-.026-.03-.038-.054-.028-.054.01 0 .04.025.064.055.025.03.038.055.028.055-.01 0-.04-.025-.064-.055zM13.68 25.218c-.025-.03-.037-.055-.027-.055.01 0 .039.025.064.055s.037.055.027.055c-.01 0-.039-.025-.064-.055zm18.93.041c0-.007.029-.036.064-.064.058-.046.06-.044.014.014-.048.061-.078.08-.078.05zM.001 21.472c.001-.043.01-.051.021-.022.01.026.01.058-.003.07-.012.012-.02-.01-.019-.048zm0-1.54c.001-.043.01-.052.021-.023.01.027.01.058-.003.07-.012.013-.02-.009-.019-.048zm46.333 0c.002-.043.01-.052.023-.023.01.027.009.058-.003.07-.012.013-.021-.009-.02-.048zm-.776-1.768l-.089-.1.101.088c.056.05.101.095.101.101 0 .029-.03.006-.113-.089zm-44.827.05c0-.007.029-.036.064-.064.058-.045.06-.044.014.014-.048.061-.078.08-.078.05zm7.52-3.595a.26.26 0 0 1 .065-.064c.058-.045.06-.044.014.014-.048.061-.078.08-.078.05zm22.746-.334c-.025-.03-.038-.055-.027-.055.01 0 .038.024.064.055.025.03.037.055.027.055-.01 0-.039-.025-.064-.055zm-22.379-.07c0-.007.03-.036.065-.063.058-.046.06-.045.014.013-.048.062-.079.081-.079.05zm27.698-.04c-.025-.03-.037-.055-.027-.055.01 0 .039.024.064.055.025.03.037.055.027.055-.01 0-.039-.025-.064-.055zm-.367-.404c-.025-.03-.037-.055-.027-.055.01 0 .039.025.064.055s.038.055.027.055c-.01 0-.038-.025-.064-.055zm-21.387-.142c0-.008.028-.037.064-.064.058-.046.06-.045.014.014-.048.06-.078.08-.078.05zm.366-.404a.26.26 0 0 1 .065-.064c.058-.046.06-.044.014.014-.048.061-.079.08-.079.05zm15.005-.114c-.025-.03-.037-.055-.027-.055.01 0 .039.024.064.055.025.03.037.055.027.055-.01 0-.039-.025-.064-.055zm-20.25-.07c0-.007.028-.036.064-.063.058-.046.06-.045.013.014-.048.06-.078.08-.078.05zm5.612-.22c0-.007.03-.036.065-.063.058-.046.059-.045.013.013-.048.062-.078.081-.078.05zm14.271-.114c-.025-.03-.037-.055-.027-.055.01 0 .039.025.064.055s.037.055.027.055c-.01 0-.039-.025-.064-.055zm-19.517-.069c0-.007.03-.036.064-.064.059-.046.06-.044.014.014-.048.061-.078.08-.078.05zm5.613-.22c0-.007.03-.036.064-.064.059-.046.06-.044.014.014-.048.061-.078.08-.078.05zm18.857-.224c-.025-.03-.038-.055-.028-.055.01 0 .04.024.064.055.026.03.038.055.028.055-.01 0-.04-.025-.064-.055zm-.367-.404c-.025-.03-.038-.055-.027-.055.01 0 .038.025.064.055.025.03.037.055.027.055-.01 0-.039-.025-.064-.055zm-5.65-.257c-.025-.03-.037-.055-.027-.055.01 0 .039.025.064.055s.037.055.027.055c-.01 0-.039-.024-.064-.055zm-17.389-.069c0-.007.029-.036.064-.064.059-.045.06-.044.014.014-.048.061-.078.08-.078.05zm22.672-.077c-.025-.03-.037-.056-.027-.056.01 0 .039.025.064.056.025.03.037.055.027.055-.01 0-.039-.025-.064-.055zm-5.65-.257c-.025-.03-.037-.055-.027-.055.01 0 .039.024.064.055.025.03.037.055.027.055-.01 0-.038-.025-.064-.055zm-16.655-.07c0-.007.029-.036.064-.063.058-.046.06-.045.014.013-.048.062-.078.081-.078.05zm5.613-.22c0-.007.029-.036.064-.063.058-.046.06-.045.014.013-.048.061-.078.08-.078.05zm.367-.403c0-.007.029-.036.064-.064.058-.046.06-.044.014.014-.048.06-.078.08-.078.05zm15.261-.224c-.025-.03-.037-.055-.027-.055.01 0 .039.024.064.055.025.03.037.055.027.055-.01 0-.039-.025-.064-.055zm-14.894-.18c0-.007.029-.036.064-.064.058-.045.06-.044.014.014-.048.061-.078.08-.078.05zm9.244-.077c-.025-.03-.037-.055-.027-.055.01 0 .04.025.064.055.025.03.038.055.028.055-.01 0-.04-.025-.065-.055zm-14.527-.07c0-.007.029-.036.064-.063.058-.046.06-.045.014.014-.048.06-.078.08-.078.05zm19.81-.077c-.025-.03-.037-.055-.027-.055.01 0 .039.025.064.055s.037.055.027.055c-.01 0-.039-.025-.064-.055zm-14.16-.179c0-.008.028-.036.064-.064.058-.046.06-.044.014.014-.048.06-.078.08-.078.05zm8.51-.078c-.024-.03-.037-.055-.027-.055.01 0 .04.025.064.055.025.03.038.055.028.055-.01 0-.04-.025-.064-.055zm-13.793-.069c0-.007.029-.036.064-.064.058-.045.06-.044.014.014-.048.061-.078.08-.078.05zm19.076-.078c-.025-.03-.037-.055-.027-.055.01 0 .039.025.064.055s.038.056.027.056c-.01 0-.038-.025-.064-.056zm-18.38-.692c0-.008.03-.037.065-.064.058-.046.06-.045.014.014-.048.06-.078.08-.078.05zm12.034-.335c-.025-.03-.038-.055-.028-.055.01 0 .04.025.064.055.026.03.038.055.028.055-.01 0-.04-.024-.064-.055zM13.975 8.31c0-.007.029-.036.064-.064.058-.045.06-.044.014.014-.048.061-.078.08-.078.05zm16.949-.077c-.026-.03-.038-.055-.028-.055.01 0 .04.024.064.055.025.03.038.055.028.055-.01 0-.04-.025-.064-.055zm-11.3-.18c0-.007.03-.036.064-.064.059-.045.06-.044.014.014-.048.061-.078.08-.078.05zm5.65-.077c-.025-.03-.038-.055-.027-.055.01 0 .038.024.064.055.025.03.037.055.027.055-.01 0-.039-.025-.064-.055zm5.283-.147c-.025-.03-.038-.055-.028-.055.01 0 .04.025.064.055.025.03.038.055.028.055-.01 0-.04-.025-.064-.055zm-10.567-.18c0-.008.029-.036.064-.064.058-.046.06-.044.014.014-.048.06-.078.08-.078.05zm10.199-.225c-.025-.03-.038-.055-.028-.055.01 0 .04.025.064.055.026.03.038.055.028.055-.01 0-.04-.024-.064-.055zm-9.832-.178c0-.008.029-.037.064-.065.058-.045.06-.044.014.014-.048.061-.078.08-.078.05zm-5.32-.11c0-.008.03-.037.065-.065.058-.045.06-.044.014.014-.048.061-.078.08-.078.05zm5.687-.294c0-.008.029-.037.064-.064.058-.046.06-.045.014.014-.048.06-.078.08-.078.05zm3.485-.041c-.025-.03-.037-.055-.027-.055.01 0 .039.025.064.055s.037.055.027.055c-.01 0-.039-.025-.064-.055zm-8.805-.07c0-.007.03-.036.065-.063.058-.046.06-.045.013.014-.047.06-.078.08-.078.05zm13.72-.48c-.024-.03-.037-.056-.026-.056.01 0 .038.025.064.055.025.03.037.056.027.056-.01 0-.039-.025-.064-.056zm-.366-.404c-.025-.03-.037-.055-.027-.055.01 0 .039.025.064.055s.037.055.027.055c-.01 0-.039-.025-.064-.055zm-12.29-.289c0-.008.03-.037.064-.064.059-.046.06-.045.014.014-.048.06-.078.08-.078.05zm11.923-.115c-.025-.03-.037-.055-.027-.055.01 0 .039.025.064.055s.037.055.027.055c-.01 0-.039-.024-.064-.055zm-11.556-.289c0-.007.029-.036.064-.064.059-.045.06-.044.014.014-.048.061-.078.08-.078.05zM17.9 3.98c0-.007.029-.036.064-.064.058-.045.06-.044.014.014-.048.061-.078.08-.078.05zm9.061-.114c-.025-.03-.037-.055-.027-.055.01 0 .039.025.064.055s.038.055.027.055c-.01 0-.038-.025-.064-.055zm-8.694-.29c0-.007.029-.036.064-.063.058-.046.06-.045.014.014-.048.06-.078.08-.078.05zm8.328-.114c-.026-.03-.038-.055-.028-.055.01 0 .04.025.064.055.025.03.038.055.028.055-.01 0-.04-.024-.064-.055zm-7.631-.655c0-.008.029-.037.064-.065.058-.045.06-.044.014.014-.048.061-.078.08-.078.05zm.99-1.688c0-.008.03-.037.065-.064.058-.046.06-.045.013.014-.047.06-.078.08-.078.05zm4.951-.124l-.126-.137.137.126c.128.118.155.149.127.149-.007 0-.068-.062-.138-.138zm-4.767-.06c0-.007.029-.036.064-.064.058-.045.06-.044.014.014-.048.061-.078.08-.078.05zm2.23-.928c.027-.01.059-.01.071.003.012.012-.01.02-.048.02-.043-.002-.051-.011-.022-.023zm.22 0c.027-.01.06-.01.071.003.012.012-.01.02-.048.02-.043-.002-.051-.011-.022-.023z" fill="#68bac6"/><path d="M10.214 41.376c-1.001-.062-1.616-.342-2.283-1.04a6.09 6.09 0 0 1-.939-1.313c-.148-.274-.379-1.04-2.26-7.496a3620.3 3620.3 0 0 0-2.152-7.361l-.055-.171-.246-.043C1.192 23.762.362 23.02.088 21.99c-.078-.292-.114-1.616-.06-2.152.125-1.214.946-2.135 2.134-2.394.253-.055 1.947-.06 21.15-.05l20.873.01.322.115a2.57 2.57 0 0 1 1.007.615c.486.457.752 1.008.823 1.706.055.534.018 1.859-.06 2.15-.272 1.024-1.106 1.777-2.173 1.964-.183.032-.271.065-.283.105l-2.15 7.359c-1.913 6.547-2.15 7.332-2.298 7.606-.27.498-.586.943-.922 1.296-.702.737-1.267.99-2.373 1.059-.651.04-25.203.038-25.864-.002zm4.501-4.016c1.05-.216 1.738-1.08 1.672-2.1-.012-.188-.35-1.72-.997-4.522a377.28 377.28 0 0 0-1.036-4.42c-.265-.845-1.068-1.662-1.999-2.034-.533-.213-.706-.239-1.59-.24-.914-.001-1.047.02-1.517.244a1.923 1.923 0 0 0-1.095 1.898c.018.214 1.82 8.107 2.01 8.808.3 1.108 1.396 2.084 2.638 2.35.412.087 1.52.097 1.914.016zm9.033 0a2.703 2.703 0 0 0 1.457-.818c.39-.418.612-.875.691-1.424.023-.156.037-1.84.036-4.417 0-4.45 0-4.45-.183-4.932a2.51 2.51 0 0 0-.619-.937 2.723 2.723 0 0 0-2.49-.75c-.584.12-.994.343-1.426.774a2.02 2.02 0 0 0-.468.642c-.318.65-.294.245-.307 5.039-.007 2.743.002 4.355.026 4.537.082.615.324 1.094.788 1.553.396.393.912.66 1.444.75.29.05.767.041 1.05-.017zm9.974-.048c1.18-.322 2.198-1.274 2.481-2.318.19-.698 1.991-8.594 2.01-8.806.088-1.021-.621-1.898-1.708-2.112-.443-.086-1.628-.056-2.028.052-.767.206-1.483.662-1.937 1.232-.209.263-.445.69-.529.958-.031.1-.499 2.09-1.038 4.42-.961 4.151-.981 4.246-.983 4.64-.001.33.014.45.084.653.176.512.502.874 1.015 1.129.449.223.644.253 1.559.24.667-.009.832-.022 1.074-.088zM8.366 14.522c.417-.494 10.736-11.843 10.781-11.857.033-.01.082-.12.12-.27.248-.958 1.089-1.842 2.081-2.186a3.809 3.809 0 0 1 1.853-.121 3.349 3.349 0 0 1 2.312 1.742c.116.23.274.677.274.777 0 .036.024.067.053.067.041 0 10.575 11.56 10.855 11.912l.067.084h-5.393l-3.717-4.097a1237.504 1237.504 0 0 1-3.76-4.155c-.04-.052-.067-.05-.276.024-.781.276-1.436.276-2.225.002l-.232-.08-.061.077a1474.2 1474.2 0 0 1-3.764 4.153L13.63 14.67H8.242z" fill="#5db5c3"/></svg>